<svg width="80" height="80" viewBox="0 0 80 80" fill="none" xmlns="http://www.w3.org/2000/svg">
<rect x="6.40039" y="6.40186" width="67.2" height="67.2" rx="33.6" fill="#FB660D"/>
<path d="M52.375 39.7512C52.2361 36.3994 50.9931 33.5531 48.6458 31.2124C46.2986 28.8717 43.4444 27.6321 40.0833 27.4936V25.0005C42.1111 25.0559 44.0069 25.4783 45.7708 26.2678C47.5347 27.0573 49.0833 28.1168 50.4167 29.4465C51.75 30.7761 52.8125 32.3204 53.6042 34.0794C54.3958 35.8384 54.8194 37.729 54.875 39.7512H52.375ZM45.2917 39.7512C45.1528 38.3661 44.5972 37.1958 43.625 36.2401C42.6528 35.2844 41.4722 34.7373 40.0833 34.5988V32.1058C42.1667 32.2443 43.9375 33.0337 45.3958 34.4742C46.8542 35.9146 47.6528 37.6736 47.7917 39.7512H45.2917ZM53.125 55.0005C49.7361 55.0005 46.3681 54.1695 43.0208 52.5074C39.6736 50.8454 36.6667 48.6847 34 46.0254C31.3333 43.3661 29.1667 40.3675 27.5 37.0296C25.8333 33.6916 25 30.3329 25 26.9534C25 26.4271 25.1806 25.9839 25.5417 25.6238C25.9028 25.2636 26.3472 25.0836 26.875 25.0836H32.7083C33.0972 25.0836 33.4375 25.2152 33.7292 25.4783C34.0208 25.7415 34.2083 26.0947 34.2917 26.5379L35.4167 31.7733C35.4722 32.1612 35.4653 32.5143 35.3958 32.8329C35.3264 33.1515 35.1806 33.4215 34.9583 33.6431L30.7917 37.8398C32.3472 40.416 34.0903 42.6598 36.0208 44.5711C37.9514 46.4825 40.1389 48.103 42.5833 49.4326L46.5417 45.3606C46.8194 45.0559 47.1389 44.8412 47.5 44.7166C47.8611 44.5919 48.2222 44.5711 48.5833 44.6542L53.5417 45.7346C53.9583 45.8177 54.3056 46.0254 54.5833 46.3578C54.8611 46.6902 55 47.078 55 47.5213V53.1307C55 53.657 54.8194 54.1002 54.4583 54.4603C54.0972 54.8204 53.6528 55.0005 53.125 55.0005Z" fill="#240800"/>
<circle cx="40" cy="40" r="39.5" stroke="#FFF1EF"/>
<rect x="10" y="10" width="60" height="60" rx="30" fill="#FB660D"/>
<path d="M52.375 39.7507C52.2361 36.3989 50.9931 33.5526 48.6458 31.2119C46.2986 28.8712 43.4444 27.6316 40.0833 27.4931V25C42.1111 25.0554 44.0069 25.4778 45.7708 26.2673C47.5347 27.0568 49.0833 28.1163 50.4167 29.446C51.75 30.7756 52.8125 32.3199 53.6042 34.0789C54.3958 35.8379 54.8194 37.7285 54.875 39.7507H52.375ZM45.2917 39.7507C45.1528 38.3657 44.5972 37.1953 43.625 36.2396C42.6528 35.2839 41.4722 34.7368 40.0833 34.5983V32.1053C42.1667 32.2438 43.9375 33.0332 45.3958 34.4737C46.8542 35.9141 47.6528 37.6731 47.7917 39.7507H45.2917ZM53.125 55C49.7361 55 46.3681 54.169 43.0208 52.5069C39.6736 50.8449 36.6667 48.6842 34 46.0249C31.3333 43.3657 29.1667 40.367 27.5 37.0291C25.8333 33.6911 25 30.3324 25 26.9529C25 26.4266 25.1806 25.9834 25.5417 25.6233C25.9028 25.2632 26.3472 25.0831 26.875 25.0831H32.7083C33.0972 25.0831 33.4375 25.2147 33.7292 25.4778C34.0208 25.741 34.2083 26.0942 34.2917 26.5374L35.4167 31.7729C35.4722 32.1607 35.4653 32.5139 35.3958 32.8324C35.3264 33.151 35.1806 33.4211 34.9583 33.6427L30.7917 37.8393C32.3472 40.4155 34.0903 42.6593 36.0208 44.5706C37.9514 46.482 40.1389 48.1025 42.5833 49.4321L46.5417 45.3601C46.8194 45.0554 47.1389 44.8407 47.5 44.7161C47.8611 44.5914 48.2222 44.5706 48.5833 44.6537L53.5417 45.7341C53.9583 45.8172 54.3056 46.0249 54.5833 46.3573C54.8611 46.6897 55 47.0776 55 47.5208V53.1302C55 53.6565 54.8194 54.0997 54.4583 54.4598C54.0972 54.8199 53.6528 55 53.125 55Z" fill="#FFF1EF"/>
<circle cx="40" cy="40" r="39.5" stroke="#FB660D"/>
</svg>
