<svg width="322" height="250" viewBox="0 0 322 250" fill="none" xmlns="http://www.w3.org/2000/svg">
<path d="M229.193 19.8831C292.063 50.2047 346.735 95.9197 308.283 175.646C269.832 255.373 85.8289 264.225 22.9591 233.903C-39.9107 203.582 42.1601 145.569 80.6116 65.8423C119.063 -13.8844 166.324 -10.4385 229.193 19.8831Z" fill="#FFD7D1"/>
<mask id="mask0_1095_2701" style="mask-type:luminance" maskUnits="userSpaceOnUse" x="0" y="0" width="322" height="250">
<path d="M229.193 19.8831C292.063 50.2047 346.735 95.9197 308.283 175.646C269.832 255.373 85.8289 264.225 22.9591 233.903C-39.9107 203.582 42.1601 145.569 80.6116 65.8423C119.063 -13.8844 166.324 -10.4385 229.193 19.8831Z" fill="white"/>
</mask>
<g mask="url(#mask0_1095_2701)">
<path d="M51.0056 333.558L62.3999 228.859C62.3999 228.859 60.3019 227.697 53.5915 218.775C49.3255 213.242 45.5304 207.362 42.246 201.196C39.6816 196.328 38.4321 193.124 38.9393 189.393C39.9947 183.869 41.3304 178.403 42.9411 173.014C43.8347 170.49 45.5736 165.577 49.9151 163.406C51.663 162.531 54.1113 162.473 59.0079 162.357C63.8212 162.243 63.824 162.671 67.7833 162.567C75.0324 162.376 126.474 174.211 126.474 174.211C126.474 174.211 126.89 200.838 119.983 222.83C119.983 222.83 118.455 227.945 114.793 230.928L101.212 349.445L51.0056 333.558Z" fill="#C04C07"/>
<path d="M73.2115 179.969C72.8617 181.211 72.8241 182.52 73.1022 183.781C73.3803 185.041 73.9654 186.213 74.8055 187.193C76.0598 188.58 77.7325 189.183 79.9813 189.982C83.5484 191.249 89.2953 188.534 90.0835 185.498L89.3132 188.064C88.1919 191.396 91.0955 194.843 95.7986 195.762C96.366 195.874 96.9407 195.945 97.5182 195.975C101.603 196.185 105.362 194.319 106.346 191.394L106.297 191.766C105.273 194.806 107.371 198.052 110.984 199.015C111.418 199.132 111.862 199.212 112.31 199.253C115.475 199.549 118.481 197.926 119.38 195.258L126.474 174.211C127.498 171.172 125.4 167.926 121.788 166.963C118.174 165.989 114.416 167.679 113.391 170.72L113.098 171.333C114.219 168.001 112.177 162.273 107.627 160.62C103.12 158.982 98.2019 161.654 97.0795 164.988L96.8221 164.46C97.7195 161.001 94.3444 154.803 89.4498 153.505C84.6602 152.234 79.6026 155.345 78.7041 158.805L77.3975 162.95C78.2701 159.76 78.356 153.186 70.431 151.531C65.0311 150.403 58.9987 152.859 58.2925 159.19L55.5664 174.925C55.225 176.726 55.5469 178.591 56.4727 180.174C57.3984 181.757 58.8656 182.951 60.6033 183.537C61.868 183.887 63.1707 184.081 64.4825 184.116C69.1938 183.784 72.0128 182.633 72.7792 179.832L73.2115 179.969Z" fill="#C04C07"/>
<path d="M113.05 200.009C112.783 200.009 112.515 199.996 112.245 199.971C111.756 199.926 111.272 199.839 110.798 199.712C109.8 199.467 108.863 199.021 108.043 198.401C107.223 197.782 106.539 197.001 106.031 196.108C105.649 195.416 105.416 194.653 105.344 193.866C105.272 193.08 105.365 192.287 105.615 191.537L112.709 170.49C113.854 167.093 118.015 165.199 121.976 166.267C122.973 166.512 123.91 166.958 124.73 167.577C125.549 168.197 126.234 168.976 126.742 169.869C127.123 170.561 127.357 171.325 127.429 172.112C127.5 172.899 127.408 173.692 127.157 174.442L120.064 195.488C119.505 196.874 118.531 198.053 117.275 198.862C116.019 199.672 114.543 200.072 113.05 200.009ZM119.706 167.407C118.516 167.343 117.336 167.65 116.327 168.284C115.319 168.918 114.532 169.85 114.074 170.95L106.981 191.997C106.794 192.56 106.726 193.155 106.781 193.745C106.836 194.336 107.013 194.908 107.3 195.427C107.716 196.146 108.273 196.774 108.938 197.271C109.603 197.769 110.363 198.125 111.17 198.32C111.566 198.426 111.969 198.498 112.377 198.536H112.378C115.263 198.816 117.922 197.33 118.699 195.028L125.792 173.982C125.979 173.419 126.047 172.824 125.992 172.233C125.936 171.642 125.76 171.069 125.472 170.55C125.057 169.831 124.5 169.204 123.835 168.707C123.169 168.21 122.41 167.854 121.603 167.66C120.984 167.493 120.346 167.408 119.706 167.407ZM57.7349 163.098C57.6933 163.097 57.6517 163.094 57.6107 163.087C57.5175 163.071 57.4284 163.036 57.3484 162.986C57.2685 162.935 57.1993 162.869 57.1449 162.792C57.0904 162.714 57.0517 162.627 57.031 162.535C57.0103 162.442 57.0079 162.347 57.0241 162.254L57.5772 159.064C57.6099 158.876 57.7161 158.708 57.8723 158.598C58.0285 158.488 58.2221 158.445 58.4104 158.477C58.5986 158.51 58.7662 158.616 58.8762 158.772C58.9862 158.929 59.0297 159.122 58.997 159.311L58.4439 162.5C58.4148 162.667 58.3278 162.819 58.1982 162.928C58.0685 163.037 57.9045 163.097 57.7349 163.098ZM55.4499 176.961C55.3919 176.961 55.3341 176.954 55.2779 176.939C55.1115 176.899 54.965 176.8 54.8651 176.661C54.7651 176.522 54.7183 176.352 54.7332 176.181C54.7312 175.955 54.7429 175.729 54.7682 175.504C54.7901 175.314 54.8866 175.141 55.0364 175.022C55.1862 174.903 55.377 174.849 55.5668 174.871C55.7566 174.893 55.93 174.989 56.0487 175.139C56.1674 175.289 56.2218 175.48 56.1998 175.669C56.1793 175.853 56.1709 176.038 56.1747 176.224C56.1759 176.32 56.1582 176.415 56.1224 176.504C56.0866 176.594 56.0334 176.675 55.966 176.743C55.8987 176.812 55.8184 176.866 55.7298 176.904C55.6412 176.941 55.5461 176.961 55.4499 176.961ZM64.5256 184.833C63.6468 184.801 62.7708 184.716 61.9025 184.577L62.0139 183.864L62.2057 183.17L62.22 183.174C62.982 183.289 63.7497 183.363 64.5197 183.395C66.4781 183.362 68.4062 182.907 70.1726 182.06C70.6398 181.81 71.0507 181.466 71.3798 181.05C71.709 180.634 71.9494 180.155 72.0863 179.643L72.7375 177.24C72.7879 177.056 72.9091 176.899 73.0747 176.805C73.2404 176.71 73.4368 176.685 73.621 176.735C73.8051 176.784 73.962 176.905 74.0572 177.071C74.1524 177.236 74.1781 177.432 74.1287 177.617L73.4765 180.023C73.2903 180.717 72.9656 181.365 72.5218 181.929C72.0781 182.494 71.5246 182.962 70.8948 183.307C68.9099 184.278 66.7351 184.799 64.5256 184.833Z" fill="#633A22"/>
<path d="M82.003 191.017C81.2346 191.027 80.4702 190.904 79.7432 190.655C77.4657 189.855 75.6629 189.221 74.2693 187.68C73.1233 186.385 72.4192 184.76 72.2589 183.039C72.1596 181.951 72.2448 180.855 72.5108 179.796L73.2098 177.086C73.2333 176.994 73.2747 176.908 73.3316 176.832C73.3885 176.756 73.4598 176.692 73.5414 176.644C73.623 176.596 73.7133 176.564 73.8071 176.551C73.901 176.538 73.9965 176.543 74.0882 176.567C74.18 176.59 74.2662 176.632 74.3418 176.689C74.4174 176.746 74.4811 176.818 74.5291 176.899C74.5771 176.981 74.6085 177.071 74.6215 177.165C74.6345 177.259 74.6289 177.355 74.6049 177.446L73.9069 180.153C73.6819 181.048 73.6094 181.974 73.6924 182.893C73.8217 184.308 74.3974 185.645 75.3365 186.711C76.4861 187.982 78.1366 188.563 80.2258 189.298C81.9567 189.917 84.5704 189.474 86.7351 188.195C87.948 187.604 88.8932 186.577 89.3819 185.319L96.1327 164.238C96.191 164.056 96.3192 163.904 96.4891 163.817C96.659 163.729 96.8568 163.713 97.0388 163.771C97.2208 163.83 97.3721 163.958 97.4596 164.128C97.5471 164.298 97.5634 164.495 97.5051 164.677L90.7666 185.716C90.1907 187.337 89.0077 188.671 87.4672 189.437C85.8153 190.432 83.9313 190.977 82.003 191.017ZM77.6462 163.592C77.5361 163.592 77.4276 163.566 77.3288 163.518C77.2301 163.469 77.1437 163.399 77.0764 163.312C77.0091 163.225 76.9625 163.123 76.9403 163.016C76.918 162.908 76.9207 162.796 76.9481 162.69L78.0065 158.618C78.055 158.433 78.1747 158.275 78.3394 158.179C78.5041 158.082 78.7004 158.055 78.8851 158.103C79.0698 158.151 79.2279 158.271 79.3247 158.435C79.4216 158.6 79.4492 158.796 79.4016 158.981L78.3432 163.053C78.3031 163.207 78.2129 163.344 78.0867 163.441C77.9606 163.539 77.8056 163.592 77.6462 163.592Z" fill="#633A22"/>
<path d="M98.137 196.713C97.9196 196.713 97.7007 196.707 97.4804 196.696C96.8687 196.664 96.2595 196.589 95.6583 196.471C94.3398 196.277 93.0771 195.806 91.9531 195.09C90.829 194.374 89.8688 193.428 89.1353 192.315C88.7282 191.651 88.4719 190.906 88.3845 190.131C88.2971 189.357 88.3807 188.573 88.6295 187.835L96.3958 164.759C96.7728 163.788 97.3375 162.901 98.0576 162.149C98.7777 161.396 99.6391 160.793 100.593 160.374C101.717 159.824 102.939 159.503 104.189 159.429C105.439 159.355 106.691 159.53 107.872 159.944C112.718 161.704 115.067 167.74 113.78 171.564L107.028 191.625C106.015 194.636 102.335 196.713 98.137 196.713ZM97.5543 195.256C101.393 195.46 104.799 193.733 105.663 191.166L112.415 171.104C113.377 168.242 111.688 162.863 107.38 161.298C106.38 160.949 105.319 160.802 104.261 160.867C103.203 160.931 102.169 161.205 101.218 161.673C99.6477 162.359 98.4076 163.631 97.7614 165.218L89.9951 188.295C89.8143 188.839 89.7552 189.416 89.8219 189.986C89.8886 190.556 90.0795 191.104 90.3811 191.592C91.0176 192.521 91.8398 193.309 92.7958 193.906C93.7518 194.502 94.8209 194.894 95.9359 195.057C96.4702 195.161 97.0107 195.228 97.5543 195.256ZM105.528 235.213C103.292 235.198 101.085 234.708 99.0535 233.774C97.996 233.299 96.9303 232.762 95.8851 232.179C95.8022 232.133 95.7292 232.071 95.6702 231.997C95.6113 231.923 95.5675 231.838 95.5415 231.747C95.5155 231.656 95.5077 231.56 95.5187 231.466C95.5296 231.372 95.559 231.281 95.6052 231.198C95.6514 231.115 95.7134 231.042 95.7878 230.984C95.8622 230.925 95.9474 230.881 96.0387 230.856C96.1299 230.83 96.2253 230.823 96.3194 230.834C96.4135 230.845 96.5045 230.875 96.5871 230.921C97.5962 231.484 98.6251 232.002 99.6445 232.461C101.914 233.549 104.444 233.973 106.944 233.687C109.444 233.4 111.812 232.413 113.776 230.84C113.851 230.782 113.936 230.739 114.027 230.713C114.118 230.688 114.213 230.68 114.307 230.692C114.401 230.703 114.492 230.733 114.574 230.779C114.657 230.826 114.729 230.888 114.788 230.962C114.846 231.037 114.889 231.122 114.915 231.213C114.94 231.304 114.947 231.4 114.936 231.494C114.925 231.588 114.895 231.678 114.849 231.761C114.802 231.843 114.74 231.916 114.665 231.974C112.074 234.057 108.853 235.199 105.528 235.213ZM73.3853 232.385C69.9323 232.432 66.5122 231.709 63.3744 230.266C62.9145 230.051 62.4743 229.795 62.0587 229.503C61.9023 229.393 61.796 229.226 61.7631 229.038C61.7302 228.85 61.7734 228.656 61.8832 228.5C61.993 228.343 62.1605 228.237 62.3487 228.204C62.5369 228.171 62.7305 228.214 62.8869 228.324C63.2389 228.57 63.6115 228.786 64.0005 228.969C67.7533 230.65 71.8898 231.289 75.9748 230.818C78.4027 230.585 80.7843 230.003 83.0461 229.09C83.2234 229.019 83.4217 229.021 83.5976 229.096C83.7734 229.17 83.9123 229.312 83.9837 229.489C84.0551 229.667 84.0531 229.865 83.9782 230.041C83.9034 230.217 83.7617 230.356 83.5844 230.427C81.1948 231.391 78.6785 232.006 76.1134 232.251C75.1979 232.341 74.2864 232.385 73.3853 232.385ZM57.9266 192.233C57.785 192.233 57.6465 192.192 57.5285 192.113C57.4105 192.035 57.3181 191.924 57.2629 191.793C57.2077 191.663 57.1921 191.519 57.2181 191.38C57.2441 191.241 57.3105 191.113 57.409 191.011C58.3289 190.062 61.2946 186.784 61.3079 184.012C61.2965 183.961 61.2912 183.909 61.2921 183.857C61.2917 183.508 61.2295 183.162 61.1082 182.835C60.4891 181.164 58.0262 179.193 56.2278 177.754C55.7205 177.339 55.3311 177.053 55.0263 176.832C54.9851 176.802 54.947 176.767 54.913 176.729C54.1824 176.174 53.6776 175.754 53.9798 175.121C54.3638 174.404 55.187 174.708 55.7328 174.912C55.9862 175.008 56.2849 175.13 56.629 175.27C59.5428 176.574 62.6538 177.384 65.8338 177.664C68.3273 177.822 70.8283 177.51 73.2067 176.745C73.3205 176.718 73.4318 176.681 73.5395 176.635L73.6489 176.593C74.7409 176.218 75.7919 175.734 76.7857 175.146C78.8725 173.912 81.3788 172.112 82.2292 169.135C82.4411 168.596 82.5338 168.018 82.5009 167.44C82.468 166.862 82.3101 166.298 82.0383 165.787C81.361 164.713 79.8416 163.97 77.5232 163.583C77.4516 163.584 77.3802 163.575 77.3107 163.558C74.2638 163.198 71.1913 163.105 68.1281 163.278L67.7953 163.287C66.4607 163.327 65.1249 163.293 63.7939 163.187C62.2049 163.063 60.6103 163.026 59.0174 163.078L58.4722 163.087C58.2193 163.093 57.9743 163.098 57.7357 163.099C57.6407 163.1 57.5463 163.083 57.4582 163.048C57.37 163.013 57.2897 162.96 57.2222 162.893C57.1547 162.826 57.1013 162.747 57.0651 162.659C57.0289 162.571 57.0107 162.477 57.0115 162.382C57.0107 162.191 57.0857 162.007 57.2202 161.871C57.3547 161.735 57.5376 161.658 57.7288 161.657C57.9605 161.656 58.1976 161.651 58.4431 161.646L58.9918 161.636C60.6278 161.584 62.2656 161.622 63.8974 161.751C65.1813 161.856 66.4703 161.888 67.7579 161.845L68.0906 161.838C71.2176 161.662 74.354 161.758 77.4645 162.123C77.5846 162.127 77.704 162.144 77.8204 162.174C80.5412 162.626 82.339 163.561 83.2575 165.019C83.6395 165.701 83.8693 166.458 83.9308 167.237C83.9923 168.016 83.8842 168.799 83.6139 169.533C82.6244 172.998 79.8362 175.016 77.5172 176.387C76.4457 177.021 75.3125 177.544 74.1349 177.949L74.063 177.978C73.9081 178.042 73.7486 178.094 73.5858 178.133C71.0565 178.946 68.3969 179.274 65.746 179.102C63.1136 178.901 60.5242 178.32 58.0581 177.378C59.9048 178.885 61.8185 180.604 62.4608 182.338C62.624 182.783 62.7154 183.25 62.7315 183.723C62.7405 183.764 62.7456 183.806 62.7468 183.849C62.836 187.118 59.7672 190.648 58.4441 192.015C58.3768 192.084 58.2964 192.139 58.2075 192.176C58.1186 192.214 58.0231 192.233 57.9266 192.233Z" fill="#633A22"/>
<path d="M101.214 350.165C101.186 350.165 101.159 350.163 101.131 350.16C101.037 350.149 100.946 350.12 100.864 350.074C100.781 350.029 100.708 349.967 100.649 349.893C100.59 349.819 100.547 349.734 100.521 349.643C100.494 349.552 100.487 349.457 100.497 349.363L114.078 230.847C114.089 230.753 114.118 230.662 114.164 230.579C114.21 230.496 114.271 230.423 114.345 230.364C114.419 230.306 114.504 230.262 114.595 230.236C114.686 230.21 114.781 230.202 114.875 230.213C114.969 230.223 115.06 230.252 115.143 230.298C115.226 230.344 115.299 230.406 115.358 230.48C115.417 230.554 115.46 230.639 115.486 230.73C115.512 230.821 115.52 230.916 115.509 231.01L101.929 349.526C101.909 349.702 101.825 349.864 101.693 349.982C101.561 350.1 101.391 350.165 101.214 350.165ZM93.1012 216.629C92.9894 216.629 92.8791 216.603 92.7791 216.553C92.6791 216.502 92.5921 216.43 92.525 216.34C92.4579 216.251 92.4125 216.147 92.3924 216.037C92.3723 215.927 92.378 215.814 92.4091 215.706C92.4589 215.536 97.2482 198.636 86.626 189.357C86.5546 189.295 86.4962 189.219 86.4541 189.134C86.4119 189.049 86.387 188.957 86.3806 188.862C86.3741 188.768 86.3864 188.673 86.4167 188.583C86.447 188.494 86.4947 188.411 86.557 188.339C86.6194 188.268 86.6952 188.21 86.7801 188.168C86.865 188.126 86.9573 188.101 87.0519 188.095C87.1464 188.089 87.2412 188.101 87.3309 188.132C87.4205 188.162 87.5033 188.21 87.5745 188.272C98.8957 198.161 93.8447 215.933 93.7919 216.112C93.7481 216.261 93.6571 216.392 93.5326 216.485C93.4081 216.578 93.2568 216.629 93.1012 216.629ZM122.437 174.845C122.285 174.845 122.137 174.796 122.014 174.707C121.891 174.618 121.799 174.492 121.752 174.348C121.46 173.566 120.898 172.915 120.167 172.513C119.723 172.326 119.246 172.231 118.764 172.234C118.283 172.237 117.807 172.338 117.365 172.53C117.276 172.561 117.181 172.575 117.087 172.57C116.992 172.564 116.9 172.541 116.814 172.5C116.729 172.459 116.653 172.402 116.589 172.332C116.526 172.261 116.477 172.179 116.446 172.09C116.415 172.001 116.401 171.906 116.406 171.812C116.411 171.717 116.435 171.625 116.476 171.539C116.516 171.454 116.574 171.378 116.644 171.314C116.714 171.251 116.797 171.202 116.886 171.171C117.47 170.901 118.105 170.758 118.748 170.752C119.392 170.745 120.029 170.876 120.619 171.134C121.208 171.392 121.736 171.772 122.168 172.25C122.599 172.727 122.925 173.291 123.122 173.903C123.157 174.011 123.166 174.126 123.148 174.238C123.13 174.35 123.086 174.457 123.019 174.548C122.952 174.64 122.865 174.715 122.764 174.766C122.662 174.818 122.55 174.845 122.437 174.845ZM108.437 167.57C108.285 167.57 108.136 167.522 108.013 167.433C107.89 167.343 107.799 167.217 107.751 167.072C107.46 166.291 106.898 165.639 106.167 165.238C105.723 165.052 105.246 164.957 104.764 164.96C104.283 164.963 103.807 165.064 103.365 165.255C103.276 165.287 103.182 165.3 103.087 165.295C102.993 165.29 102.9 165.267 102.815 165.226C102.729 165.185 102.653 165.128 102.59 165.058C102.526 164.987 102.478 164.905 102.446 164.816C102.415 164.727 102.401 164.632 102.406 164.538C102.411 164.443 102.434 164.351 102.475 164.265C102.516 164.18 102.573 164.103 102.644 164.04C102.714 163.977 102.796 163.928 102.885 163.897C103.469 163.626 104.104 163.483 104.748 163.477C105.392 163.47 106.029 163.6 106.619 163.858C107.209 164.117 107.737 164.497 108.168 164.975C108.6 165.452 108.925 166.016 109.122 166.629C109.157 166.737 109.166 166.852 109.148 166.964C109.13 167.076 109.086 167.182 109.019 167.274C108.952 167.366 108.865 167.441 108.764 167.492C108.662 167.544 108.55 167.57 108.437 167.57ZM91.2299 159.967C91.0779 159.967 90.9299 159.918 90.8069 159.829C90.6839 159.74 90.5923 159.614 90.5451 159.47C90.2534 158.688 89.6909 158.036 88.9597 157.634C88.5157 157.448 88.0386 157.353 87.5571 157.356C87.0757 157.359 86.5998 157.46 86.1582 157.652C85.978 157.715 85.7799 157.705 85.6075 157.622C85.4351 157.54 85.3024 157.393 85.2388 157.212C85.1751 157.032 85.1856 156.834 85.268 156.662C85.3504 156.489 85.4979 156.357 85.678 156.293C86.2622 156.023 86.8972 155.88 87.5408 155.873C88.1845 155.867 88.8222 155.997 89.4118 156.255C90.0014 156.513 90.5295 156.894 90.9611 157.371C91.3927 157.849 91.7181 158.412 91.9156 159.025C91.9506 159.133 91.9594 159.248 91.9415 159.36C91.9236 159.472 91.8794 159.579 91.8125 159.67C91.7457 159.762 91.658 159.837 91.5567 159.888C91.4555 159.94 91.3435 159.967 91.2299 159.967ZM82.3549 186.743C81.9386 186.743 81.5245 186.681 81.1269 186.558C79.9761 186.16 79.0138 185.35 78.4269 184.283C78.341 184.113 78.3259 183.916 78.3848 183.735C78.4436 183.554 78.5718 183.404 78.7411 183.317C78.9105 183.23 79.1074 183.214 79.2887 183.272C79.4701 183.329 79.6212 183.457 79.7091 183.625C80.1211 184.351 80.7802 184.905 81.5661 185.185C82.0341 185.298 82.5202 185.316 82.9951 185.236C83.4699 185.156 83.9237 184.981 84.3292 184.722C84.4124 184.677 84.5036 184.648 84.5977 184.638C84.6919 184.628 84.7871 184.636 84.8779 184.663C84.9687 184.69 85.0534 184.734 85.1271 184.794C85.2007 184.853 85.262 184.927 85.3073 185.01C85.3526 185.093 85.3811 185.184 85.3912 185.278C85.4012 185.372 85.3926 185.468 85.3659 185.558C85.3392 185.649 85.2948 185.734 85.2354 185.808C85.1759 185.881 85.1025 185.942 85.0194 185.988C84.2088 186.459 83.2924 186.719 82.3549 186.743ZM98.5442 192.021C98.128 192.021 97.7142 191.959 97.3167 191.835C96.1657 191.438 95.2034 190.627 94.6161 189.561C94.5303 189.391 94.5151 189.194 94.574 189.013C94.6329 188.832 94.761 188.682 94.9304 188.595C95.0998 188.508 95.2966 188.492 95.478 188.549C95.6594 188.607 95.8105 188.734 95.8983 188.903C96.3106 189.629 96.9698 190.182 97.7559 190.463C98.2239 190.576 98.71 190.594 99.1849 190.514C99.6598 190.435 100.114 190.259 100.519 190C100.602 189.954 100.693 189.926 100.787 189.916C100.882 189.906 100.977 189.914 101.068 189.941C101.158 189.968 101.243 190.012 101.317 190.072C101.39 190.131 101.452 190.204 101.497 190.288C101.542 190.371 101.571 190.462 101.581 190.556C101.591 190.65 101.582 190.745 101.556 190.836C101.529 190.927 101.485 191.012 101.425 191.085C101.366 191.159 101.292 191.22 101.209 191.266C100.398 191.737 99.4818 191.997 98.5442 192.021ZM114.103 195.44C113.687 195.441 113.273 195.378 112.875 195.255C111.725 194.857 110.762 194.047 110.175 192.98C110.089 192.81 110.074 192.613 110.133 192.432C110.192 192.251 110.32 192.101 110.489 192.014C110.659 191.927 110.856 191.911 111.037 191.968C111.219 192.026 111.37 192.154 111.458 192.323C111.87 193.048 112.529 193.602 113.315 193.882C113.783 193.996 114.269 194.014 114.744 193.934C115.219 193.855 115.673 193.679 116.078 193.419C116.246 193.327 116.443 193.306 116.626 193.36C116.81 193.414 116.964 193.539 117.056 193.707C117.147 193.875 117.168 194.072 117.114 194.255C117.06 194.439 116.936 194.593 116.768 194.685C115.957 195.156 115.041 195.416 114.103 195.44ZM71.2975 157.627C71.1685 157.627 71.0419 157.592 70.9308 157.527C70.8198 157.461 70.7283 157.367 70.666 157.254C70.2336 156.54 69.5592 156.005 68.7656 155.747C68.2947 155.645 67.8081 155.64 67.3354 155.733C66.8627 155.826 66.414 156.015 66.0167 156.287C65.8515 156.383 65.6548 156.41 65.47 156.361C65.2852 156.312 65.1274 156.192 65.0313 156.026C64.9352 155.861 64.9087 155.664 64.9576 155.48C65.0065 155.295 65.1268 155.137 65.2921 155.041C65.8157 154.667 66.4128 154.408 67.0438 154.282C67.6748 154.156 68.3254 154.165 68.9527 154.308C69.58 154.452 70.1696 154.727 70.6828 155.115C71.1959 155.504 71.6208 155.996 71.9295 156.561C71.9895 156.671 72.0199 156.794 72.0177 156.919C72.0155 157.044 71.9808 157.167 71.9171 157.274C71.8533 157.382 71.7626 157.471 71.654 157.533C71.5454 157.594 71.4225 157.627 71.2975 157.627ZM80.0403 163.505L79.2307 166.712C79.2307 166.712 65.8506 168.023 67.7786 162.564C71.8891 162.136 76.0432 162.455 80.0403 163.505Z" fill="#633A22"/>
<path d="M156.851 249.968L159.886 121.117C159.886 121.117 157.703 120.125 150.304 111.765C145.612 106.589 141.362 101.029 137.597 95.1437C134.654 90.4944 133.154 87.4002 133.363 83.6406C133.976 78.0504 134.873 72.4949 136.05 66.9957C136.74 64.408 138.083 59.3729 142.238 56.8629C143.911 55.8524 146.347 55.6 151.219 55.0953C156.008 54.5991 156.045 55.025 159.983 54.6063C167.194 53.8398 219.414 61.5484 219.414 61.5484C219.414 61.5484 221.945 88.0581 216.808 110.53C216.808 110.53 215.692 115.75 212.278 119.015L208.161 261.814L156.851 249.968Z" fill="#FEA590"/>
<path d="M166.776 71.5219C166.526 72.7881 166.593 74.0965 166.97 75.3308C167.348 76.565 168.024 77.6869 168.94 78.5968C170.3 79.88 172.015 80.3481 174.321 80.9655C177.977 81.9449 183.49 78.7814 184.034 75.6922L183.471 78.3114C182.618 81.7222 185.786 84.928 190.547 85.4702C191.122 85.5366 191.7 85.5616 192.278 85.5451C196.368 85.4298 199.966 83.2716 200.715 80.2775L200.695 80.6524C199.916 83.7634 202.265 86.8324 205.943 87.5057C206.386 87.5877 206.834 87.6319 207.284 87.6378C210.463 87.6809 213.33 85.824 214.015 83.0932L219.413 61.5491C220.192 58.4381 217.843 55.3692 214.165 54.6959C210.486 54.0127 206.874 55.996 206.093 59.1084L205.85 59.7434C206.703 56.3327 204.212 50.7847 199.545 49.4986C194.922 48.2244 190.232 51.2789 189.378 54.6912L189.079 54.1852C189.699 50.6661 185.842 44.7562 180.86 43.8509C175.984 42.965 171.19 46.4681 170.569 49.9889L169.596 54.225C170.213 50.9751 169.776 44.4149 161.744 43.3951C156.272 42.7002 150.454 45.6275 150.253 51.9949L148.786 67.8964C148.589 69.7196 149.058 71.5525 150.107 73.0569C151.155 74.5613 152.713 75.6355 154.492 76.0813C155.78 76.3295 157.094 76.4199 158.405 76.3506C163.075 75.6443 165.793 74.2733 166.335 71.4204L166.776 71.5219Z" fill="#FEA590"/>
<path d="M207.396 88.3608C207.356 88.3608 207.317 88.3598 207.277 88.3598C206.786 88.3532 206.296 88.3047 205.814 88.2148C204.8 88.05 203.83 87.6802 202.964 87.1281C202.098 86.576 201.354 85.8531 200.776 85.0036C200.341 84.3439 200.047 83.6011 199.914 82.8223C199.78 82.0434 199.809 81.2452 199.998 80.4781L205.396 58.9341C205.444 58.7492 205.562 58.5906 205.726 58.4928C205.89 58.3951 206.085 58.3663 206.27 58.4128C206.455 58.4592 206.615 58.5771 206.713 58.7406C206.811 58.9041 206.84 59.0999 206.795 59.2851L201.396 80.8291C201.255 81.4051 201.235 82.0041 201.337 82.5883C201.439 83.1726 201.66 83.7294 201.988 84.2237C202.459 84.9077 203.064 85.4886 203.767 85.9312C204.469 86.3738 205.255 86.6687 206.075 86.798C206.478 86.8732 206.887 86.9134 207.296 86.9183C207.329 86.9193 207.363 86.9193 207.397 86.9193C210.253 86.9193 212.734 85.2491 213.318 82.9193L218.716 61.3753C218.763 61.1905 218.882 61.0318 219.045 60.9341C219.209 60.8364 219.405 60.8076 219.59 60.854C219.775 60.9005 219.934 61.0184 220.032 61.1819C220.131 61.3454 220.16 61.5412 220.114 61.7263L214.716 83.2703C213.973 86.2341 210.904 88.3598 207.396 88.3608ZM149.952 55.9378C149.93 55.9378 149.907 55.9368 149.885 55.9349C149.791 55.9262 149.699 55.8991 149.616 55.855C149.532 55.8109 149.458 55.7507 149.397 55.6779C149.337 55.6051 149.291 55.5211 149.263 55.4307C149.235 55.3403 149.225 55.2453 149.234 55.151L149.532 51.928C149.54 51.8336 149.567 51.7417 149.611 51.6578C149.655 51.5738 149.715 51.4993 149.788 51.4386C149.861 51.3779 149.945 51.3322 150.035 51.304C150.126 51.2758 150.221 51.2658 150.315 51.2745C150.41 51.2832 150.501 51.3104 150.585 51.3547C150.669 51.3989 150.743 51.4592 150.804 51.5322C150.864 51.6052 150.91 51.6893 150.938 51.7799C150.966 51.8705 150.975 51.9657 150.966 52.0601L150.668 55.2832C150.652 55.4619 150.569 55.628 150.437 55.7491C150.305 55.8701 150.132 55.9374 149.952 55.9378ZM148.777 69.9383C148.736 69.9382 148.694 69.9343 148.653 69.9265C148.485 69.898 148.333 69.8107 148.224 69.6803C148.115 69.5498 148.056 69.3847 148.057 69.2146C148.037 68.9897 148.031 68.7639 148.038 68.5382C148.037 68.4425 148.057 68.3476 148.095 68.2597C148.133 68.1718 148.189 68.0927 148.259 68.0274C148.329 67.9622 148.412 67.9122 148.502 67.8807C148.593 67.8491 148.689 67.8367 148.784 67.8441C148.879 67.8475 148.972 67.8694 149.058 67.9086C149.144 67.9479 149.221 68.0037 149.286 68.073C149.35 68.1422 149.401 68.2234 149.434 68.3121C149.467 68.4007 149.482 68.495 149.478 68.5895C149.473 68.7744 149.479 68.9595 149.498 69.1436C149.507 69.244 149.495 69.3453 149.463 69.441C149.431 69.5366 149.38 69.6246 149.312 69.6994C149.245 69.7741 149.162 69.8339 149.07 69.875C148.978 69.9162 148.878 69.9377 148.777 69.9383ZM157.384 77.0806C156.858 77.0806 156.368 77.0638 155.87 77.0155C155.678 76.9781 155.508 76.8678 155.395 76.7078C155.282 76.5477 155.236 76.3503 155.265 76.1567C155.279 76.0656 155.311 75.9781 155.359 75.8996C155.408 75.8211 155.471 75.7533 155.547 75.7003C155.622 75.6473 155.708 75.6101 155.798 75.5911C155.888 75.5722 155.981 75.5717 156.071 75.5898L156.086 75.5928C156.852 75.6459 157.62 75.6581 158.387 75.6293C160.336 75.4406 162.222 74.8333 163.915 73.8486C164.361 73.5617 164.743 73.1865 165.038 72.7461C165.333 72.3057 165.535 71.8095 165.631 71.2881L166.089 68.841C166.124 68.6534 166.232 68.4876 166.39 68.3798C166.547 68.2721 166.741 68.2312 166.929 68.2662C167.117 68.3012 167.283 68.4092 167.391 68.5665C167.499 68.7238 167.54 68.9175 167.506 69.1052L167.047 71.5573C166.916 72.2631 166.644 72.9351 166.246 73.5327C165.849 74.1304 165.334 74.6413 164.734 75.0347C162.833 76.1607 160.706 76.8532 158.507 77.0628C158.108 77.0726 157.738 77.0806 157.384 77.0806Z" fill="#C04C07"/>
<path d="M175.782 81.863C175.226 81.867 174.671 81.7974 174.133 81.656C171.799 81.0388 169.952 80.5507 168.44 79.126C167.195 77.9266 166.363 76.362 166.067 74.6587C165.881 73.5826 165.879 72.4829 166.06 71.406L166.541 68.6484C166.558 68.5551 166.592 68.466 166.643 68.3861C166.694 68.3063 166.76 68.2372 166.837 68.1828C166.915 68.1284 167.002 68.0898 167.094 68.0692C167.187 68.0486 167.282 68.0464 167.375 68.0627C167.469 68.079 167.558 68.1135 167.638 68.1643C167.718 68.215 167.787 68.281 167.841 68.3585C167.895 68.4359 167.934 68.5233 167.955 68.6157C167.975 68.7081 167.977 68.8036 167.961 68.8968L167.48 71.6505C167.327 72.5609 167.328 73.4905 167.484 74.4004C167.726 75.8004 168.406 77.0874 169.427 78.076C170.673 79.2512 172.365 79.6979 174.506 80.2638C176.279 80.7499 178.851 80.0962 180.907 78.6488C182.069 77.9629 182.93 76.8636 183.317 75.5707L188.371 54.0198C188.415 53.8342 188.531 53.6736 188.693 53.5733C188.855 53.473 189.051 53.4412 189.236 53.4848C189.422 53.5284 189.583 53.6438 189.684 53.8059C189.785 53.9679 189.817 54.1633 189.774 54.3491L184.729 75.8556C184.283 77.5174 183.21 78.9414 181.735 79.827C179.999 81.0852 177.925 81.7944 175.782 81.863ZM169.834 54.848C169.792 54.8478 169.75 54.8442 169.708 54.8372C169.615 54.8207 169.526 54.786 169.446 54.7351C169.366 54.6843 169.297 54.6182 169.243 54.5406C169.189 54.4631 169.151 54.3756 169.13 54.2832C169.11 54.1908 169.108 54.0953 169.124 54.0021L169.855 49.8581C169.871 49.7646 169.906 49.6752 169.956 49.595C170.007 49.5149 170.073 49.4455 170.151 49.3909C170.228 49.3363 170.316 49.2976 170.409 49.277C170.501 49.2564 170.597 49.2542 170.69 49.2707C170.784 49.2872 170.873 49.322 170.953 49.3731C171.033 49.4241 171.102 49.4905 171.156 49.5684C171.21 49.6462 171.249 49.734 171.269 49.8267C171.289 49.9194 171.291 50.0152 171.274 50.1085L170.543 54.2525C170.513 54.4191 170.426 54.57 170.297 54.6789C170.167 54.7878 170.004 54.8477 169.834 54.848Z" fill="#C04C07"/>
<path d="M191.926 86.2708C191.437 86.271 190.948 86.243 190.463 86.187C189.133 86.0981 187.837 85.7294 186.659 85.1048C185.481 84.4802 184.449 83.6139 183.63 82.5626C183.171 81.9331 182.856 81.2104 182.708 80.4458C182.559 79.6812 182.58 78.8933 182.769 78.1377L188.677 54.5173C188.699 54.4252 188.74 54.3385 188.796 54.2622C188.852 54.1858 188.923 54.1213 189.004 54.0723C189.086 54.0234 189.176 53.9909 189.27 53.9769C189.363 53.9628 189.459 53.9674 189.551 53.9903C189.643 54.0133 189.73 54.0542 189.806 54.1107C189.882 54.1672 189.946 54.2382 189.995 54.3196C190.043 54.401 190.076 54.4911 190.089 54.585C190.103 54.6788 190.098 54.7744 190.075 54.8663L184.168 78.4867C184.031 79.0435 184.017 79.6235 184.129 80.1858C184.241 80.7482 184.475 81.2792 184.814 81.7414C185.522 82.6179 186.404 83.3383 187.405 83.8571C188.405 84.3758 189.502 84.6817 190.626 84.7554C191.167 84.8161 191.711 84.8394 192.255 84.8254C196.094 84.7179 199.356 82.7322 200.014 80.1037L205.149 59.5693C205.172 59.4775 205.213 59.3911 205.269 59.3151C205.325 59.2391 205.396 59.1748 205.477 59.1261C205.558 59.0774 205.648 59.0452 205.742 59.0312C205.835 59.0173 205.931 59.0219 206.023 59.0448C206.114 59.0677 206.201 59.1085 206.277 59.1648C206.353 59.2211 206.417 59.2918 206.466 59.3729C206.514 59.454 206.547 59.544 206.561 59.6375C206.575 59.7311 206.57 59.8265 206.547 59.9183L201.412 80.4527C200.6 83.6955 196.767 86.1407 192.297 86.2649C192.173 86.2688 192.05 86.2708 191.926 86.2708ZM202.154 124.047C200.332 124.042 198.525 123.722 196.812 123.102C195.726 122.714 194.621 122.264 193.528 121.765C193.354 121.686 193.218 121.54 193.152 121.361C193.085 121.182 193.092 120.984 193.171 120.81C193.251 120.636 193.396 120.501 193.575 120.434C193.754 120.367 193.952 120.374 194.126 120.454C195.182 120.937 196.249 121.371 197.297 121.745C199.708 122.679 202.338 122.891 204.867 122.356C207.397 121.822 209.716 120.563 211.543 118.734C211.68 118.601 211.864 118.529 212.055 118.531C212.246 118.534 212.428 118.613 212.561 118.749C212.694 118.886 212.767 119.07 212.765 119.261C212.763 119.452 212.685 119.634 212.549 119.767C209.783 122.507 206.047 124.045 202.154 124.047ZM168.979 123.843C166.245 123.873 163.529 123.398 160.968 122.442C160.391 122.225 159.839 121.949 159.32 121.617C159.24 121.566 159.17 121.501 159.116 121.423C159.061 121.346 159.022 121.258 159.001 121.166C158.981 121.073 158.978 120.978 158.995 120.885C159.011 120.791 159.045 120.702 159.096 120.622C159.147 120.542 159.213 120.473 159.29 120.418C159.368 120.364 159.455 120.325 159.548 120.305C159.64 120.284 159.736 120.282 159.829 120.298C159.923 120.315 160.012 120.35 160.092 120.4C160.532 120.681 161 120.916 161.489 121.099C165.363 122.477 169.538 122.785 173.572 121.99C175.974 121.565 178.302 120.796 180.483 119.705C180.568 119.663 180.66 119.638 180.755 119.631C180.849 119.624 180.944 119.636 181.034 119.666C181.124 119.696 181.207 119.744 181.278 119.806C181.35 119.868 181.408 119.944 181.451 120.028C181.493 120.113 181.518 120.205 181.525 120.3C181.531 120.394 181.519 120.489 181.489 120.579C181.459 120.669 181.411 120.752 181.349 120.823C181.287 120.894 181.211 120.953 181.126 120.995C178.821 122.147 176.361 122.96 173.824 123.409C172.225 123.696 170.604 123.841 168.979 123.843ZM152.455 84.9644C152.319 84.9644 152.185 84.9256 152.069 84.8524C151.954 84.7792 151.862 84.6746 151.804 84.551C151.745 84.4273 151.724 84.2896 151.741 84.154C151.758 84.0184 151.813 83.8905 151.9 83.7852C152.742 82.7657 155.438 79.2616 155.23 76.4961C155.215 76.4467 155.206 76.3957 155.202 76.3442C155.174 75.9966 155.085 75.6568 154.938 75.3405C154.188 73.7236 151.578 71.9558 149.672 70.6652L149.586 70.607C149.13 70.2885 148.719 70.0351 148.398 69.8389C148.355 69.8124 148.315 69.7817 148.278 69.7472C147.505 69.2523 146.969 68.8737 147.218 68.219C147.546 67.4727 148.39 67.7112 148.95 67.87C149.211 67.9449 149.52 68.0435 149.875 68.1569C152.879 69.2363 156.046 69.7951 159.238 69.8094C161.736 69.7683 164.204 69.2589 166.514 68.3077C166.623 68.2716 166.73 68.2268 166.832 68.1737L166.944 68.1204C168.002 67.6602 169.011 67.0936 169.955 66.4295C171.936 65.0334 174.292 63.0388 174.903 60.0051C175.072 59.4514 175.118 58.8677 175.04 58.2942C174.961 57.7207 174.759 57.1712 174.447 56.6834C173.686 55.665 172.113 55.0468 169.771 54.8446C169.762 54.8436 169.679 54.8308 169.671 54.8299C169.634 54.8445 169.594 54.8469 169.557 54.8368C166.49 54.7205 163.419 54.8709 160.378 55.2864L160.05 55.3219C158.722 55.4715 157.386 55.5449 156.049 55.5417C154.456 55.5443 152.865 55.6341 151.283 55.8109L150.72 55.8661C150.476 55.8907 150.239 55.9144 150.008 55.9341C149.914 55.9422 149.819 55.9317 149.729 55.9031C149.639 55.8745 149.555 55.8284 149.483 55.7675C149.336 55.6444 149.245 55.4683 149.229 55.278C149.221 55.1837 149.231 55.0888 149.26 54.9986C149.289 54.9084 149.335 54.8248 149.396 54.7524C149.519 54.6062 149.695 54.5149 149.885 54.4986L151.143 54.3763C152.768 54.1952 154.402 54.1033 156.037 54.1012C157.327 54.104 158.616 54.0329 159.898 53.8883L160.227 53.8538C163.33 53.4331 166.464 53.2794 169.594 53.3943C169.717 53.3843 169.84 53.3923 169.961 53.418C172.703 53.6516 174.57 54.4404 175.601 55.8207C176.036 56.4699 176.325 57.2057 176.449 57.9775C176.572 58.7492 176.527 59.5386 176.315 60.291C175.604 63.8217 172.985 66.0569 170.783 67.6088C169.765 68.3255 168.677 68.937 167.535 69.4337L167.46 69.4702C167.313 69.5456 167.161 69.6096 167.004 69.6615C164.546 70.6692 161.92 71.2083 159.264 71.2508C156.623 71.2599 153.995 70.8866 151.462 70.1426C153.424 71.4983 155.468 73.0601 156.246 74.7381C156.445 75.1682 156.573 75.6272 156.627 76.0978C156.639 76.138 156.647 76.1793 156.652 76.221C157.001 79.4737 154.222 83.2361 153.011 84.7022C152.944 84.7842 152.859 84.8503 152.763 84.8956C152.667 84.941 152.562 84.9645 152.455 84.9644Z" fill="#C04C07"/>
<path d="M189.457 106.488C189.408 106.488 189.358 106.483 189.309 106.472C189.122 106.433 188.958 106.322 188.854 106.162C188.749 106.002 188.712 105.808 188.751 105.621C188.787 105.447 192.218 88.2195 180.892 79.8153C180.739 79.7011 180.638 79.5311 180.61 79.3424C180.583 79.1537 180.631 78.9618 180.745 78.8086C180.858 78.6555 181.028 78.5536 181.216 78.5253C181.405 78.4971 181.597 78.5447 181.751 78.6578C193.823 87.6161 190.2 105.733 190.162 105.914C190.128 106.076 190.04 106.222 189.911 106.326C189.783 106.431 189.623 106.488 189.457 106.488ZM215.379 62.504C215.237 62.5041 215.098 62.4621 214.979 62.3833C214.861 62.3045 214.768 62.1925 214.713 62.0613C214.361 61.3044 213.749 60.6994 212.987 60.3566C212.53 60.2072 212.047 60.1516 211.567 60.1931C211.088 60.2346 210.621 60.3724 210.196 60.5981C210.022 60.6752 209.824 60.6799 209.646 60.6112C209.468 60.5426 209.324 60.4062 209.246 60.2319C209.169 60.0576 209.163 59.8596 209.232 59.6814C209.3 59.5031 209.436 59.3591 209.61 59.2809C210.17 58.9652 210.792 58.7722 211.433 58.7145C212.074 58.6569 212.72 58.7359 213.328 58.9465C213.936 59.157 214.493 59.4942 214.961 59.9358C215.429 60.3774 215.799 60.9133 216.044 61.5082C216.09 61.6176 216.107 61.7365 216.096 61.8544C216.084 61.9722 216.043 62.0854 215.978 62.1839C215.912 62.2823 215.823 62.3631 215.718 62.4189C215.614 62.4747 215.497 62.504 215.379 62.504ZM200.845 56.3654C200.703 56.3655 200.564 56.3236 200.445 56.2448C200.327 56.166 200.234 56.054 200.179 55.9228C199.827 55.166 199.214 54.5611 198.453 54.2181C197.996 54.0678 197.513 54.0116 197.033 54.053C196.553 54.0943 196.087 54.2323 195.662 54.4586C195.488 54.5357 195.29 54.5404 195.112 54.4717C194.934 54.4031 194.79 54.2666 194.713 54.0924C194.635 53.9181 194.63 53.7201 194.698 53.5418C194.766 53.3636 194.902 53.2196 195.076 53.1414C195.637 52.826 196.258 52.6331 196.899 52.5756C197.54 52.5181 198.186 52.5973 198.794 52.8079C199.403 53.0185 199.959 53.3557 200.427 53.7973C200.895 54.2389 201.265 54.7748 201.51 55.3696C201.556 55.479 201.573 55.598 201.562 55.7158C201.55 55.8337 201.51 55.9469 201.444 56.0453C201.378 56.1438 201.289 56.2245 201.184 56.2803C201.08 56.3362 200.963 56.3654 200.845 56.3654ZM183.088 50.1529C182.946 50.153 182.807 50.1111 182.688 50.0323C182.57 49.9535 182.477 49.8415 182.423 49.7103C182.07 48.9538 181.458 48.3492 180.697 48.0065C180.239 47.8562 179.756 47.8001 179.276 47.8414C178.797 47.8828 178.33 48.0208 177.905 48.2471C177.731 48.3249 177.532 48.3301 177.354 48.2616C177.175 48.1931 177.031 48.0565 176.953 47.8818C176.876 47.7071 176.87 47.5087 176.939 47.3302C177.007 47.1517 177.144 47.0077 177.319 46.9299C177.88 46.6145 178.501 46.4216 179.142 46.3641C179.783 46.3066 180.429 46.3857 181.037 46.5962C181.645 46.8067 182.202 47.1438 182.67 47.5852C183.138 48.0267 183.508 48.5625 183.754 49.1572C183.799 49.2666 183.816 49.3855 183.805 49.5034C183.793 49.6212 183.753 49.7344 183.687 49.8329C183.621 49.9314 183.532 50.0121 183.427 50.0679C183.323 50.1237 183.206 50.1529 183.088 50.1529ZM176.09 77.5614C175.786 77.5618 175.484 77.5284 175.188 77.4618C174.009 77.1567 172.986 76.4253 172.315 75.4091C172.265 75.3286 172.232 75.239 172.217 75.1456C172.202 75.0522 172.205 74.9568 172.227 74.8647C172.249 74.7726 172.288 74.6857 172.344 74.609C172.399 74.5322 172.469 74.4672 172.549 74.4174C172.63 74.3677 172.72 74.3344 172.813 74.3192C172.906 74.3041 173.002 74.3075 173.094 74.3293C173.186 74.351 173.273 74.3907 173.35 74.4461C173.426 74.5014 173.491 74.5713 173.541 74.6518C174.01 75.3423 174.71 75.8416 175.516 76.0588C175.992 76.1346 176.478 76.1132 176.945 75.9959C177.412 75.8787 177.85 75.668 178.234 75.3765C178.394 75.2732 178.588 75.2375 178.774 75.2771C178.961 75.3166 179.124 75.4284 179.228 75.5878C179.332 75.7472 179.369 75.9414 179.331 76.128C179.292 76.3145 179.181 76.4782 179.022 76.5833C178.162 77.1896 177.142 77.5297 176.09 77.5614ZM192.648 81.5357C192.345 81.5358 192.042 81.502 191.746 81.4352C190.567 81.1301 189.544 80.3986 188.873 79.3824C188.773 79.2198 188.741 79.024 188.785 78.8381C188.829 78.6521 188.945 78.4912 189.108 78.3908C189.27 78.2904 189.466 78.2587 189.652 78.3026C189.838 78.3466 189.999 78.4626 190.099 78.6252C190.568 79.3157 191.269 79.8149 192.074 80.0322C192.55 80.1081 193.036 80.087 193.503 79.9699C193.97 79.8528 194.409 79.6422 194.792 79.3509C194.871 79.2992 194.96 79.2635 195.053 79.2461C195.146 79.2286 195.242 79.2296 195.334 79.2491C195.427 79.2685 195.515 79.306 195.593 79.3595C195.671 79.4129 195.738 79.4811 195.79 79.5604C195.841 79.6396 195.877 79.7283 195.894 79.8213C195.912 79.9143 195.911 80.0098 195.891 80.1024C195.872 80.195 195.834 80.2829 195.781 80.361C195.728 80.4391 195.659 80.506 195.58 80.5577C194.72 81.1641 193.7 81.5042 192.648 81.5357ZM208.43 83.7078C208.126 83.7078 207.824 83.6741 207.527 83.6072C206.349 83.3021 205.325 82.5707 204.655 81.5545C204.605 81.474 204.572 81.3845 204.557 81.2911C204.541 81.1977 204.545 81.1022 204.567 81.0101C204.588 80.9181 204.628 80.8312 204.683 80.7544C204.739 80.6777 204.809 80.6126 204.889 80.5629C204.97 80.5132 205.059 80.4798 205.153 80.4646C205.246 80.4495 205.341 80.4529 205.433 80.4747C205.526 80.4965 205.612 80.5362 205.689 80.5915C205.766 80.6469 205.831 80.7168 205.881 80.7973C206.349 81.4877 207.05 81.987 207.856 82.2042C208.332 82.2812 208.818 82.2605 209.285 82.1433C209.752 82.0262 210.19 81.8151 210.573 81.5229C210.653 81.4712 210.741 81.4356 210.834 81.4181C210.927 81.4007 211.023 81.4017 211.115 81.4212C211.208 81.4406 211.296 81.4781 211.374 81.5315C211.452 81.5849 211.519 81.6532 211.571 81.7325C211.622 81.8117 211.658 81.9003 211.675 81.9933C211.693 82.0863 211.692 82.1819 211.672 82.2745C211.653 82.3671 211.615 82.455 211.562 82.5331C211.509 82.6112 211.44 82.678 211.361 82.7297C210.501 83.3361 209.482 83.6762 208.43 83.7078ZM163.032 49.4056C162.913 49.4057 162.795 49.3761 162.69 49.3195C162.585 49.2628 162.496 49.181 162.43 49.0812C161.942 48.4044 161.227 47.9248 160.416 47.7295C159.939 47.6673 159.454 47.7023 158.99 47.8325C158.526 47.9626 158.094 48.1851 157.719 48.4867C157.641 48.541 157.553 48.5794 157.461 48.5998C157.368 48.6202 157.273 48.622 157.179 48.6054C157.086 48.5887 156.997 48.5537 156.917 48.5026C156.837 48.4514 156.769 48.385 156.715 48.3071C156.66 48.2293 156.622 48.1415 156.602 48.0489C156.582 47.9563 156.581 47.8606 156.598 47.7674C156.615 47.6742 156.65 47.5852 156.701 47.5056C156.753 47.426 156.819 47.3574 156.897 47.3036C157.389 46.8886 157.964 46.5829 158.583 46.4065C159.202 46.2301 159.851 46.1872 160.488 46.2804C161.125 46.3737 161.735 46.6012 162.277 46.9477C162.819 47.2942 163.282 47.7519 163.634 48.2905C163.705 48.3992 163.746 48.525 163.751 48.6548C163.757 48.7846 163.727 48.9134 163.666 49.0277C163.604 49.1419 163.512 49.2374 163.401 49.3039C163.289 49.3705 163.162 49.4056 163.032 49.4056ZM172.272 54.5682L171.72 57.8289C171.72 57.8289 158.486 60.1991 159.974 54.605C164.038 53.8513 168.204 53.8389 172.272 54.5682Z" fill="#C04C07"/>
<path d="M193.254 287.473L210.396 183.56C210.396 183.56 208.365 182.285 202.156 173.007C198.201 167.248 194.735 161.168 191.795 154.83C189.503 149.828 188.432 146.56 189.144 142.863C190.502 137.405 192.136 132.021 194.041 126.729C195.072 124.258 197.079 119.448 201.533 117.519C203.327 116.742 205.775 116.819 210.67 116.973C215.482 117.124 215.462 117.551 219.421 117.665C226.669 117.874 277.382 132.523 277.382 132.523C277.382 132.523 276.33 159.133 268.223 180.712C268.223 180.712 266.416 185.735 262.595 188.511L242.51 306.1L193.254 287.473Z" fill="white"/>
<path d="M223.883 135.339C223.465 136.56 223.355 137.866 223.564 139.139C223.772 140.413 224.292 141.616 225.077 142.64C226.253 144.094 227.89 144.789 230.091 145.71C233.583 147.171 239.471 144.777 240.425 141.788L239.514 144.308C238.211 147.574 240.921 151.176 245.566 152.352C246.126 152.495 246.696 152.598 247.271 152.659C251.339 153.094 255.194 151.438 256.338 148.572L256.269 148.94C255.079 151.919 256.995 155.275 260.549 156.436C260.977 156.577 261.415 156.681 261.86 156.747C265.004 157.217 268.095 155.761 269.14 153.147L277.382 132.523C278.572 129.545 276.655 126.188 273.101 125.027C269.547 123.856 265.701 125.337 264.51 128.316L264.184 128.913C265.487 125.647 263.764 119.815 259.312 117.914C254.901 116.031 249.844 118.428 248.539 121.695L248.311 121.153C249.398 117.749 246.369 111.375 241.554 109.809C236.841 108.277 231.62 111.104 230.532 114.51L228.999 118.577C230.046 115.439 230.494 108.88 222.672 106.791C217.343 105.368 211.184 107.488 210.13 113.77L206.542 129.331C206.102 131.111 206.321 132.991 207.158 134.622C207.995 136.254 209.395 137.527 211.097 138.208C212.341 138.627 213.631 138.893 214.939 139C219.661 138.927 222.539 137.933 223.459 135.179L223.883 135.339Z" fill="white"/>
<path d="M263.027 157.552C262.108 157.552 261.195 157.405 260.323 157.118C259.34 156.819 258.429 156.322 257.645 155.659C256.861 154.995 256.22 154.179 255.762 153.259C255.42 152.547 255.228 151.772 255.2 150.982C255.172 150.192 255.308 149.405 255.599 148.671L263.841 128.047C263.876 127.959 263.928 127.878 263.994 127.81C264.06 127.742 264.138 127.688 264.225 127.65C264.312 127.613 264.406 127.593 264.501 127.592C264.595 127.59 264.69 127.608 264.778 127.643C264.866 127.678 264.946 127.73 265.014 127.797C265.081 127.863 265.135 127.942 265.173 128.029C265.21 128.116 265.23 128.21 265.231 128.304C265.232 128.399 265.214 128.493 265.179 128.581L256.937 149.205C256.72 149.757 256.619 150.348 256.642 150.941C256.664 151.533 256.809 152.115 257.067 152.649C257.442 153.39 257.964 154.047 258.601 154.58C259.237 155.113 259.976 155.511 260.772 155.749C261.161 155.877 261.56 155.972 261.965 156.032C264.835 156.466 267.568 155.133 268.47 152.878L276.712 132.254C276.747 132.166 276.799 132.086 276.865 132.018C276.931 131.95 277.01 131.896 277.097 131.859C277.184 131.822 277.277 131.802 277.372 131.801C277.466 131.799 277.56 131.817 277.648 131.852C277.736 131.887 277.816 131.939 277.884 132.005C277.951 132.071 278.005 132.15 278.043 132.237C278.08 132.324 278.1 132.417 278.101 132.512C278.102 132.606 278.085 132.7 278.05 132.788L269.808 153.412C269.214 154.696 268.252 155.774 267.045 156.511C265.838 157.248 264.44 157.61 263.027 157.552ZM209.396 117.64C209.341 117.64 209.287 117.634 209.233 117.621C209.047 117.578 208.886 117.463 208.785 117.301C208.683 117.139 208.651 116.944 208.694 116.758L209.421 113.604C209.442 113.511 209.481 113.424 209.536 113.346C209.591 113.269 209.661 113.203 209.741 113.153C209.821 113.103 209.911 113.069 210.004 113.053C210.097 113.037 210.193 113.04 210.285 113.061C210.378 113.083 210.465 113.122 210.542 113.177C210.619 113.232 210.685 113.302 210.735 113.382C210.785 113.463 210.819 113.552 210.834 113.646C210.85 113.739 210.847 113.835 210.825 113.927L210.098 117.081C210.061 117.24 209.972 117.381 209.844 117.483C209.717 117.584 209.559 117.64 209.396 117.64ZM206.351 131.356C206.248 131.356 206.146 131.333 206.053 131.291C205.959 131.248 205.876 131.185 205.808 131.108C205.741 131.03 205.691 130.939 205.662 130.84C205.633 130.741 205.625 130.637 205.64 130.535C205.65 130.31 205.674 130.085 205.712 129.863C205.745 129.675 205.851 129.508 206.007 129.398C206.163 129.289 206.356 129.245 206.544 129.278C206.732 129.31 206.899 129.415 207.009 129.571C207.119 129.726 207.164 129.919 207.132 130.107C207.102 130.29 207.083 130.474 207.077 130.659C207.074 130.724 207.063 130.788 207.043 130.85C206.995 130.996 206.903 131.124 206.779 131.215C206.655 131.306 206.505 131.355 206.351 131.356ZM214.941 139.715C214.065 139.636 213.195 139.502 212.335 139.314L212.685 137.916L212.699 137.92C213.463 138.084 214.237 138.203 215.015 138.279C216.972 138.353 218.922 138.005 220.733 137.257C221.213 137.032 221.642 136.712 221.993 136.315C222.344 135.918 222.611 135.453 222.776 134.949L223.559 132.585C223.588 132.495 223.636 132.412 223.697 132.34C223.759 132.268 223.835 132.209 223.919 132.167C224.004 132.124 224.096 132.099 224.191 132.092C224.285 132.085 224.38 132.097 224.47 132.126C224.56 132.156 224.643 132.204 224.715 132.266C224.786 132.328 224.845 132.403 224.887 132.488C224.93 132.573 224.955 132.665 224.962 132.759C224.968 132.854 224.956 132.949 224.926 133.039L224.142 135.406C223.918 136.088 223.558 136.717 223.084 137.256C222.61 137.795 222.032 138.233 221.385 138.542C219.349 139.402 217.149 139.802 214.941 139.715Z" fill="#FEA590"/>
<path d="M232.531 146.865C231.601 146.881 230.678 146.711 229.815 146.366C227.585 145.443 225.82 144.711 224.512 143.095C223.439 141.739 222.826 140.077 222.761 138.349C222.719 137.258 222.865 136.168 223.191 135.127L224.038 132.458C224.067 132.367 224.113 132.284 224.174 132.211C224.235 132.139 224.309 132.079 224.393 132.036C224.477 131.992 224.569 131.966 224.663 131.958C224.758 131.95 224.853 131.96 224.943 131.989C225.033 132.017 225.117 132.063 225.189 132.124C225.261 132.185 225.321 132.26 225.365 132.344C225.408 132.428 225.435 132.52 225.443 132.614C225.451 132.708 225.44 132.803 225.412 132.893L224.565 135.558C224.292 136.44 224.168 137.36 224.2 138.283C224.251 139.703 224.753 141.07 225.631 142.187C226.71 143.52 228.326 144.189 230.371 145.037C232.064 145.751 234.7 145.453 236.931 144.295C238.175 143.771 239.175 142.798 239.733 141.569L247.634 120.891C247.667 120.803 247.718 120.721 247.783 120.652C247.848 120.583 247.926 120.527 248.013 120.489C248.099 120.45 248.193 120.428 248.287 120.426C248.382 120.423 248.477 120.439 248.565 120.473C248.654 120.507 248.735 120.558 248.804 120.623C248.873 120.688 248.928 120.767 248.966 120.853C249.005 120.94 249.026 121.034 249.028 121.128C249.03 121.223 249.014 121.318 248.98 121.406L241.093 142.041C240.429 143.628 239.174 144.895 237.594 145.575C236.031 146.397 234.297 146.839 232.531 146.865ZM229.25 119.23C229.175 119.23 229.101 119.219 229.031 119.196C228.941 119.167 228.857 119.121 228.785 119.06C228.713 118.999 228.653 118.924 228.61 118.84C228.566 118.756 228.54 118.664 228.532 118.57C228.524 118.476 228.535 118.381 228.564 118.291L229.844 114.283C229.903 114.101 230.031 113.949 230.2 113.862C230.37 113.774 230.568 113.757 230.75 113.815C230.932 113.873 231.083 114.001 231.171 114.171C231.258 114.341 231.275 114.538 231.217 114.72L229.936 118.728C229.89 118.874 229.798 119.001 229.675 119.091C229.552 119.181 229.403 119.23 229.25 119.23Z" fill="#FEA590"/>
<path d="M248.547 153.448C247.482 153.447 246.422 153.314 245.39 153.05C244.084 152.784 242.849 152.244 241.766 151.467C240.683 150.69 239.776 149.692 239.105 148.541C238.735 147.855 238.52 147.097 238.476 146.319C238.431 145.542 238.558 144.764 238.847 144.041L247.872 121.427C247.907 121.339 247.959 121.259 248.025 121.191C248.091 121.124 248.17 121.07 248.257 121.032C248.344 120.995 248.437 120.975 248.532 120.974C248.627 120.973 248.72 120.99 248.808 121.025C248.896 121.06 248.976 121.112 249.044 121.179C249.112 121.245 249.166 121.323 249.203 121.41C249.24 121.497 249.26 121.591 249.261 121.685C249.263 121.78 249.245 121.874 249.21 121.962L240.185 144.575C239.975 145.109 239.884 145.682 239.919 146.254C239.954 146.826 240.115 147.384 240.389 147.887C240.973 148.851 241.751 149.683 242.673 150.331C243.594 150.98 244.64 151.43 245.745 151.654C246.273 151.788 246.809 151.884 247.351 151.942C251.165 152.356 254.667 150.819 255.671 148.304L263.517 128.645C263.552 128.557 263.604 128.477 263.67 128.409C263.736 128.341 263.815 128.287 263.902 128.249C263.989 128.212 264.082 128.192 264.177 128.19C264.272 128.189 264.366 128.206 264.454 128.242C264.542 128.277 264.622 128.329 264.69 128.395C264.758 128.461 264.812 128.54 264.849 128.627C264.886 128.715 264.906 128.808 264.907 128.903C264.908 128.998 264.891 129.092 264.855 129.18L257.009 148.838C255.897 151.625 252.457 153.448 248.547 153.448ZM253.902 192.296C251.399 192.278 248.937 191.657 246.726 190.485C245.704 189.956 244.67 189.361 243.651 188.718C243.491 188.616 243.377 188.454 243.336 188.268C243.294 188.082 243.328 187.888 243.43 187.727C243.531 187.566 243.692 187.452 243.878 187.409C244.063 187.366 244.258 187.399 244.42 187.5C245.404 188.121 246.403 188.695 247.388 189.205C249.567 190.4 252.036 190.964 254.518 190.834C257 190.704 259.396 189.885 261.438 188.469C261.596 188.361 261.791 188.321 261.978 188.356C262.166 188.392 262.332 188.501 262.44 188.659C262.547 188.816 262.588 189.011 262.552 189.198C262.516 189.386 262.408 189.552 262.25 189.66C259.798 191.364 256.887 192.283 253.902 192.296ZM222.704 187.726C218.735 187.788 214.813 186.857 211.294 185.018C210.818 184.76 210.366 184.46 209.944 184.12C209.87 184.06 209.808 183.987 209.762 183.904C209.717 183.821 209.688 183.73 209.678 183.635C209.667 183.541 209.676 183.446 209.702 183.355C209.729 183.264 209.773 183.179 209.833 183.105C209.892 183.031 209.966 182.97 210.049 182.925C210.132 182.879 210.224 182.851 210.318 182.841C210.412 182.831 210.508 182.839 210.599 182.866C210.689 182.893 210.774 182.938 210.848 182.998C211.204 183.286 211.587 183.54 211.991 183.756C215.645 185.642 219.74 186.508 223.846 186.261C226.282 186.163 228.692 185.713 231 184.925C231.181 184.864 231.379 184.877 231.55 184.961C231.722 185.045 231.852 185.194 231.914 185.375C231.976 185.556 231.963 185.754 231.879 185.925C231.795 186.097 231.646 186.228 231.465 186.29C229.026 187.122 226.48 187.598 223.905 187.701C223.503 187.718 223.103 187.727 222.704 187.726ZM207.988 146.743C207.843 146.743 207.702 146.699 207.582 146.618C207.462 146.536 207.37 146.42 207.317 146.285C207.264 146.15 207.254 146.002 207.286 145.861C207.318 145.72 207.393 145.592 207.499 145.493C208.47 144.596 211.611 141.484 211.778 138.718C211.77 138.667 211.767 138.615 211.771 138.564C211.79 138.216 211.746 137.867 211.643 137.534C211.117 135.83 208.766 133.727 207.051 132.192L206.976 132.125C206.566 131.748 206.193 131.441 205.901 131.204C205.861 131.172 205.825 131.135 205.793 131.095C205.094 130.503 204.615 130.056 204.948 129.441C205.373 128.744 206.178 129.094 206.712 129.327C206.96 129.436 207.253 129.575 207.59 129.734C210.426 131.196 213.487 132.175 216.646 132.629C219.127 132.923 221.642 132.749 224.059 132.118C224.178 132.096 224.294 132.064 224.408 132.023L224.504 131.992C225.617 131.678 226.694 131.251 227.72 130.719C229.872 129.601 232.474 127.941 233.486 125.017C233.728 124.491 233.852 123.919 233.851 123.34C233.85 122.761 233.723 122.189 233.48 121.664C232.863 120.553 231.387 119.728 229.093 119.214C229.022 119.213 228.95 119.201 228.882 119.178C225.859 118.651 222.795 118.387 219.725 118.391L219.396 118.382C218.06 118.352 216.727 118.245 215.403 118.063C213.824 117.851 212.235 117.726 210.643 117.689L210.079 117.669C209.833 117.661 209.595 117.652 209.363 117.641C209.172 117.632 208.993 117.547 208.865 117.405C208.736 117.263 208.669 117.077 208.679 116.886C208.691 116.696 208.776 116.518 208.917 116.39C209.058 116.263 209.244 116.195 209.434 116.202C209.659 116.212 209.89 116.22 210.128 116.229L210.697 116.25C212.332 116.288 213.964 116.416 215.585 116.633C216.862 116.81 218.149 116.913 219.438 116.942L219.767 116.951C222.9 116.949 226.027 117.218 229.114 117.754C229.235 117.761 229.353 117.784 229.467 117.824C232.159 118.425 233.903 119.457 234.74 120.964C235.084 121.666 235.271 122.434 235.29 123.215C235.309 123.997 235.158 124.773 234.847 125.49C233.669 128.894 230.773 130.756 228.382 131.999C227.278 132.572 226.117 133.032 224.919 133.371C224.737 133.438 224.55 133.489 224.36 133.525C221.789 134.193 219.116 134.375 216.479 134.061C213.862 133.715 211.308 132.993 208.897 131.917C210.658 133.522 212.475 135.344 213.021 137.112C213.159 137.564 213.225 138.036 213.215 138.509C213.222 138.55 213.225 138.593 213.223 138.635C213.132 141.903 209.874 145.26 208.477 146.552C208.344 146.675 208.169 146.744 207.988 146.743Z" fill="#FEA590"/>
<path d="M241.762 173.037C241.68 173.037 241.599 173.023 241.522 172.996C241.342 172.932 241.194 172.799 241.112 172.627C241.03 172.454 241.019 172.256 241.083 172.076C241.142 171.909 246.854 155.298 236.759 145.45C236.623 145.316 236.545 145.134 236.543 144.943C236.541 144.752 236.615 144.568 236.748 144.432C236.881 144.295 237.063 144.217 237.254 144.215C237.445 144.212 237.629 144.285 237.766 144.418C248.525 154.916 242.503 172.382 242.441 172.557C242.392 172.698 242.3 172.819 242.178 172.905C242.056 172.991 241.911 173.037 241.762 173.037ZM273.353 132.932C273.195 132.932 273.041 132.879 272.915 132.783C272.789 132.686 272.699 132.551 272.658 132.397C272.41 131.6 271.884 130.919 271.176 130.477C270.743 130.267 270.272 130.146 269.791 130.122C269.31 130.099 268.829 130.173 268.378 130.34C268.287 130.366 268.192 130.375 268.098 130.365C268.004 130.354 267.913 130.326 267.83 130.28C267.747 130.235 267.674 130.174 267.614 130.1C267.555 130.026 267.511 129.942 267.484 129.851C267.458 129.76 267.449 129.665 267.46 129.571C267.47 129.477 267.499 129.386 267.544 129.303C267.589 129.22 267.651 129.147 267.724 129.087C267.798 129.028 267.883 128.984 267.973 128.957C268.572 128.72 269.213 128.612 269.856 128.641C270.499 128.67 271.129 128.835 271.703 129.125C272.278 129.416 272.784 129.825 273.189 130.325C273.593 130.826 273.887 131.406 274.051 132.029C274.099 132.214 274.072 132.41 273.976 132.575C273.879 132.74 273.721 132.86 273.537 132.908C273.477 132.924 273.415 132.932 273.353 132.932ZM259.775 124.897C259.617 124.897 259.463 124.845 259.337 124.748C259.211 124.651 259.121 124.516 259.08 124.363C258.832 123.566 258.306 122.884 257.598 122.442C257.165 122.232 256.694 122.111 256.213 122.088C255.732 122.064 255.251 122.138 254.8 122.305C254.709 122.332 254.614 122.341 254.519 122.331C254.425 122.321 254.334 122.292 254.251 122.247C254.167 122.202 254.094 122.14 254.035 122.066C253.975 121.993 253.931 121.908 253.904 121.817C253.878 121.726 253.869 121.631 253.88 121.536C253.89 121.442 253.919 121.351 253.964 121.268C254.01 121.185 254.072 121.112 254.146 121.053C254.22 120.993 254.304 120.949 254.395 120.923C254.994 120.686 255.635 120.578 256.278 120.607C256.921 120.636 257.551 120.801 258.125 121.091C258.7 121.381 259.206 121.79 259.611 122.291C260.015 122.791 260.309 123.372 260.473 123.994C260.521 124.179 260.494 124.375 260.398 124.54C260.301 124.705 260.143 124.825 259.959 124.874C259.899 124.889 259.837 124.897 259.775 124.897ZM243.013 116.358C242.854 116.358 242.7 116.305 242.574 116.209C242.449 116.112 242.358 115.977 242.317 115.824C242.069 115.027 241.544 114.345 240.836 113.903C240.403 113.693 239.931 113.572 239.45 113.549C238.969 113.525 238.489 113.599 238.037 113.766C237.946 113.793 237.851 113.801 237.757 113.791C237.663 113.781 237.572 113.752 237.489 113.706C237.406 113.661 237.333 113.6 237.274 113.526C237.215 113.452 237.17 113.368 237.144 113.277C237.117 113.186 237.109 113.091 237.119 112.997C237.129 112.903 237.158 112.812 237.203 112.729C237.249 112.646 237.31 112.573 237.384 112.514C237.457 112.454 237.542 112.41 237.633 112.384C238.231 112.146 238.873 112.038 239.516 112.067C240.159 112.096 240.788 112.261 241.363 112.551C241.937 112.842 242.444 113.251 242.848 113.751C243.253 114.252 243.547 114.832 243.71 115.455C243.759 115.64 243.731 115.836 243.635 116.001C243.539 116.166 243.381 116.286 243.196 116.334C243.136 116.35 243.075 116.358 243.013 116.358ZM232.878 142.611C232.381 142.612 231.888 142.524 231.422 142.352C230.295 141.891 229.379 141.029 228.851 139.932C228.774 139.758 228.77 139.56 228.838 139.382C228.907 139.204 229.043 139.061 229.217 138.983C229.392 138.906 229.589 138.9 229.767 138.968C229.945 139.036 230.089 139.172 230.168 139.345C230.539 140.093 231.167 140.682 231.937 141.006C232.398 141.144 232.882 141.188 233.36 141.135C233.839 141.082 234.302 140.932 234.721 140.695C234.893 140.614 235.091 140.604 235.271 140.668C235.45 140.733 235.597 140.865 235.679 141.037C235.761 141.21 235.771 141.407 235.708 141.587C235.644 141.767 235.512 141.914 235.34 141.997C234.576 142.382 233.734 142.592 232.878 142.611ZM248.752 148.771C248.255 148.773 247.762 148.685 247.297 148.513C246.17 148.052 245.254 147.19 244.726 146.093C244.648 145.919 244.643 145.72 244.712 145.542C244.78 145.364 244.917 145.22 245.091 145.142C245.266 145.064 245.464 145.059 245.643 145.128C245.821 145.196 245.965 145.333 246.043 145.508C246.414 146.254 247.042 146.843 247.81 147.166C248.271 147.306 248.756 147.351 249.235 147.297C249.714 147.244 250.176 147.094 250.595 146.855C250.768 146.774 250.965 146.764 251.145 146.829C251.324 146.893 251.471 147.025 251.553 147.198C251.635 147.37 251.645 147.567 251.582 147.747C251.518 147.927 251.386 148.074 251.214 148.157C250.45 148.543 249.608 148.753 248.752 148.771ZM264.1 153.042C263.603 153.044 263.11 152.956 262.644 152.784C261.517 152.323 260.601 151.461 260.073 150.363C259.995 150.189 259.99 149.99 260.058 149.812C260.126 149.634 260.263 149.49 260.438 149.412C260.612 149.334 260.811 149.329 260.989 149.397C261.168 149.466 261.312 149.602 261.389 149.777C261.761 150.525 262.388 151.114 263.158 151.437C263.619 151.576 264.104 151.62 264.582 151.567C265.061 151.514 265.523 151.364 265.942 151.127C266.115 151.045 266.313 151.036 266.492 151.1C266.672 151.164 266.819 151.297 266.901 151.469C266.982 151.641 266.993 151.839 266.929 152.018C266.866 152.198 266.734 152.345 266.562 152.428C265.797 152.814 264.956 153.024 264.1 153.042ZM223.24 112.924C223.104 112.924 222.971 112.886 222.856 112.813C222.741 112.741 222.649 112.638 222.59 112.516C222.198 111.779 221.555 111.208 220.777 110.907C220.312 110.78 219.826 110.749 219.349 110.815C218.872 110.882 218.414 111.045 218.002 111.295C217.831 111.382 217.634 111.398 217.452 111.339C217.27 111.28 217.119 111.151 217.032 110.981C216.945 110.811 216.929 110.613 216.988 110.431C217.047 110.249 217.176 110.098 217.346 110.011C217.889 109.666 218.5 109.441 219.137 109.349C219.774 109.257 220.423 109.302 221.042 109.48C221.66 109.658 222.234 109.965 222.725 110.381C223.216 110.797 223.613 111.313 223.89 111.894C223.942 112.003 223.966 112.125 223.959 112.246C223.952 112.367 223.914 112.485 223.849 112.588C223.784 112.691 223.694 112.775 223.588 112.834C223.481 112.893 223.362 112.924 223.24 112.924ZM231.606 119.274L230.621 122.431C230.621 122.431 217.189 123.003 219.415 117.66C223.543 117.458 227.673 118.005 231.606 119.274Z" fill="white"/>
<path d="M166.72 284.93L159.037 179.893C159.037 179.893 161.175 178.806 168.197 170.127C172.656 164.749 176.657 159.007 180.157 152.961C182.892 148.186 184.254 145.029 183.88 141.282C183.02 135.724 181.879 130.214 180.46 124.772C179.656 122.217 178.092 117.247 173.83 114.923C172.114 113.987 169.669 113.842 164.78 113.553C159.974 113.269 159.956 113.696 156.003 113.452C148.765 113.005 96.9366 123.013 96.9366 123.013C96.9366 123.013 95.5794 149.608 101.704 171.831C101.704 171.831 103.05 176.997 106.604 180.108L115.983 299.03L166.72 284.93Z" fill="#633A22"/>
<path d="M149.963 130.648C150.269 131.902 150.26 133.212 149.937 134.462C149.615 135.712 148.989 136.862 148.114 137.812C146.812 139.154 145.119 139.697 142.843 140.416C139.233 141.556 133.586 138.639 132.906 135.577L133.585 138.169C134.588 141.539 131.564 144.881 126.831 145.633C126.26 145.725 125.683 145.775 125.105 145.784C121.015 145.85 117.325 143.853 116.445 140.895L116.481 141.268C117.397 144.342 115.185 147.512 111.541 148.347C111.102 148.448 110.656 148.512 110.206 148.538C107.033 148.721 104.086 146.993 103.282 144.295L96.9373 123.01C96.0213 119.937 98.233 116.767 101.877 115.932C105.523 115.087 109.219 116.909 110.136 119.984L110.407 120.607C109.404 117.238 111.648 111.585 116.253 110.094C120.816 108.617 125.636 111.461 126.64 114.832L126.916 114.314C126.141 110.825 129.734 104.751 134.671 103.626C139.503 102.526 144.447 105.814 145.222 109.304L146.382 113.493C145.622 110.273 145.769 103.7 153.748 102.327C159.184 101.391 165.126 104.058 165.608 110.411L167.775 126.232C168.053 128.045 167.665 129.896 166.684 131.446C165.703 132.995 164.194 134.137 162.437 134.661C161.161 134.966 159.852 135.114 158.54 135.103C153.843 134.603 151.067 133.354 150.4 130.527L149.963 130.648Z" fill="#633A22"/>
<path d="M109.749 149.272C106.398 149.272 103.435 147.323 102.593 144.501L96.2488 123.216C96.2218 123.126 96.2128 123.031 96.2226 122.936C96.2323 122.842 96.2604 122.751 96.3054 122.668C96.3504 122.584 96.4114 122.511 96.4848 122.451C96.5583 122.391 96.6427 122.347 96.7334 122.32C96.8241 122.293 96.9193 122.284 97.0134 122.293C97.1076 122.303 97.1989 122.331 97.2822 122.376C97.3654 122.421 97.439 122.482 97.4987 122.556C97.5584 122.629 97.6031 122.714 97.6302 122.804L103.975 144.089C104.669 146.419 107.277 147.999 110.167 147.819C110.576 147.795 110.981 147.737 111.38 147.645C112.195 147.48 112.967 147.151 113.649 146.677C114.332 146.204 114.911 145.596 115.352 144.891C115.657 144.383 115.854 143.817 115.93 143.229C116.005 142.641 115.958 142.044 115.792 141.475L109.447 120.19C109.393 120.007 109.414 119.81 109.505 119.643C109.596 119.475 109.749 119.35 109.932 119.295C110.115 119.241 110.312 119.261 110.48 119.351C110.648 119.442 110.774 119.596 110.829 119.778L117.173 141.063C117.397 141.821 117.461 142.617 117.362 143.401C117.262 144.185 117.002 144.94 116.596 145.618C116.057 146.492 115.345 147.248 114.503 147.838C113.662 148.428 112.709 148.84 111.704 149.049C111.226 149.16 110.74 149.23 110.25 149.258C110.083 149.267 109.916 149.272 109.749 149.272ZM166.055 114.336C165.881 114.336 165.713 114.272 165.582 114.158C165.451 114.043 165.366 113.885 165.342 113.713L164.902 110.506C164.889 110.413 164.895 110.317 164.919 110.226C164.943 110.134 164.985 110.048 165.042 109.973C165.099 109.897 165.171 109.834 165.253 109.786C165.334 109.738 165.425 109.707 165.518 109.694C165.612 109.681 165.708 109.687 165.799 109.711C165.891 109.735 165.977 109.777 166.052 109.834C166.128 109.892 166.191 109.963 166.239 110.045C166.286 110.127 166.317 110.217 166.33 110.311L166.77 113.518C166.783 113.611 166.777 113.707 166.753 113.798C166.729 113.89 166.687 113.975 166.63 114.051C166.573 114.126 166.501 114.189 166.42 114.237C166.338 114.285 166.248 114.316 166.154 114.329C166.121 114.334 166.088 114.336 166.055 114.336ZM167.842 128.271C167.678 128.272 167.52 128.217 167.392 128.114C167.265 128.011 167.177 127.868 167.142 127.708C167.128 127.643 167.122 127.576 167.124 127.509C167.135 127.324 167.133 127.138 167.119 126.953C167.104 126.763 167.165 126.574 167.289 126.428C167.413 126.283 167.589 126.193 167.78 126.178C167.97 126.162 168.159 126.224 168.305 126.348C168.45 126.472 168.54 126.648 168.555 126.839C168.574 127.078 168.577 127.319 168.565 127.558C168.562 127.722 168.505 127.879 168.401 128.006C168.298 128.132 168.156 128.22 167.996 128.255C167.946 128.266 167.894 128.271 167.842 128.271ZM158.566 135.822C156.33 135.717 154.146 135.119 152.169 134.071C151.551 133.704 151.014 133.216 150.589 132.637C150.165 132.057 149.862 131.397 149.7 130.697L149.133 128.265C149.111 128.173 149.107 128.077 149.123 127.984C149.138 127.89 149.171 127.801 149.221 127.72C149.271 127.639 149.336 127.569 149.413 127.514C149.49 127.459 149.578 127.419 149.67 127.398C149.762 127.376 149.858 127.373 149.951 127.389C150.045 127.404 150.135 127.438 150.215 127.488C150.295 127.538 150.365 127.604 150.42 127.681C150.475 127.758 150.514 127.846 150.536 127.938L151.102 130.366C151.222 130.884 151.446 131.371 151.761 131.798C152.077 132.225 152.476 132.583 152.935 132.85C154.698 133.766 156.637 134.29 158.621 134.384C159.384 134.373 160.146 134.32 160.903 134.226C161.089 134.201 161.277 134.248 161.429 134.357C161.581 134.466 161.685 134.629 161.721 134.813C161.755 134.996 161.716 135.185 161.613 135.34C161.51 135.494 161.351 135.603 161.169 135.642L161.155 135.645C160.296 135.755 159.432 135.814 158.566 135.822Z" fill="#471B01"/>
<path d="M141.08 141.384C139.052 141.333 137.08 140.717 135.383 139.605C133.859 138.777 132.72 137.385 132.208 135.728L126.229 114.507C126.178 114.324 126.203 114.128 126.296 113.962C126.39 113.797 126.545 113.675 126.728 113.623C126.912 113.572 127.108 113.595 127.274 113.687C127.44 113.779 127.563 113.934 127.616 114.117L133.606 135.381C134.043 136.673 134.956 137.75 136.159 138.392C138.277 139.746 140.876 140.28 142.622 139.725C144.739 139.064 146.409 138.544 147.603 137.314C148.582 136.278 149.206 134.958 149.384 133.544C149.498 132.631 149.457 131.705 149.264 130.805L148.663 128.078C148.642 127.985 148.64 127.89 148.656 127.796C148.673 127.703 148.707 127.613 148.758 127.533C148.809 127.454 148.875 127.384 148.953 127.33C149.031 127.276 149.118 127.237 149.211 127.217C149.304 127.196 149.399 127.195 149.493 127.211C149.586 127.228 149.675 127.263 149.755 127.314C149.835 127.365 149.904 127.432 149.958 127.51C150.012 127.588 150.05 127.675 150.07 127.768L150.672 130.498C150.9 131.563 150.947 132.659 150.812 133.739C150.591 135.458 149.829 137.063 148.635 138.32C147.187 139.81 145.364 140.378 143.055 141.099C142.415 141.295 141.749 141.391 141.08 141.384ZM146.139 114.127C145.976 114.126 145.817 114.07 145.689 113.968C145.561 113.865 145.472 113.722 145.436 113.563L144.523 109.455C144.482 109.269 144.517 109.074 144.619 108.913C144.722 108.752 144.884 108.639 145.07 108.597C145.256 108.556 145.451 108.59 145.613 108.692C145.774 108.794 145.888 108.956 145.93 109.142L146.843 113.249C146.866 113.354 146.866 113.464 146.841 113.569C146.816 113.674 146.768 113.772 146.701 113.856C146.634 113.94 146.548 114.008 146.451 114.055C146.354 114.102 146.247 114.126 146.139 114.127Z" fill="#471B01"/>
<path d="M124.914 146.507C120.528 146.508 116.695 144.255 115.756 141.102L109.718 120.814C109.691 120.723 109.682 120.628 109.692 120.534C109.702 120.44 109.73 120.348 109.775 120.265C109.82 120.182 109.881 120.108 109.955 120.049C110.028 119.989 110.113 119.945 110.204 119.918C110.294 119.891 110.389 119.882 110.484 119.892C110.578 119.902 110.669 119.93 110.752 119.975C110.835 120.02 110.909 120.081 110.968 120.155C111.028 120.228 111.072 120.313 111.099 120.403L117.137 140.691C117.91 143.287 121.3 145.125 125.096 145.065C125.64 145.057 126.182 145.009 126.719 144.923C127.84 144.8 128.922 144.446 129.899 143.884C130.876 143.321 131.726 142.563 132.394 141.655C132.713 141.179 132.923 140.638 133.01 140.071C133.097 139.504 133.058 138.925 132.896 138.375L125.951 115.039C125.898 114.856 125.919 114.659 126.01 114.492C126.101 114.324 126.255 114.2 126.438 114.146C126.62 114.091 126.817 114.112 126.985 114.202C127.153 114.293 127.278 114.446 127.333 114.629L134.278 137.965C134.5 138.712 134.556 139.498 134.441 140.268C134.326 141.039 134.044 141.774 133.614 142.424C132.841 143.51 131.848 144.421 130.699 145.097C129.55 145.773 128.271 146.199 126.946 146.347C126.341 146.443 125.731 146.497 125.119 146.506C125.051 146.507 124.982 146.507 124.914 146.507ZM116.279 184.702C112.598 184.696 109.052 183.319 106.333 180.839C106.263 180.776 106.206 180.7 106.165 180.614C106.124 180.529 106.1 180.437 106.095 180.342C106.09 180.248 106.103 180.153 106.134 180.064C106.166 179.975 106.214 179.893 106.278 179.822C106.341 179.752 106.417 179.694 106.502 179.653C106.588 179.613 106.68 179.589 106.775 179.584C106.869 179.578 106.964 179.592 107.053 179.623C107.142 179.655 107.224 179.703 107.295 179.766C109.2 181.524 111.577 182.687 114.134 183.115C116.691 183.542 119.317 183.214 121.691 182.172C122.72 181.752 123.767 181.27 124.801 180.742C124.971 180.655 125.169 180.64 125.35 180.699C125.532 180.758 125.683 180.886 125.769 181.056C125.856 181.226 125.872 181.424 125.814 181.605C125.755 181.787 125.627 181.938 125.457 182.025C124.387 182.571 123.303 183.07 122.236 183.506C120.346 184.288 118.323 184.694 116.279 184.702ZM148.899 183.043C147.666 183.042 146.434 182.959 145.212 182.795C142.658 182.46 140.165 181.757 137.812 180.708C137.638 180.63 137.502 180.486 137.434 180.308C137.366 180.13 137.371 179.932 137.448 179.757C137.526 179.583 137.669 179.447 137.847 179.378C138.025 179.309 138.223 179.314 138.398 179.391C140.625 180.384 142.984 181.05 145.402 181.367C149.467 181.983 153.624 181.491 157.435 179.944C157.77 179.801 158.095 179.634 158.406 179.444C158.569 179.344 158.764 179.313 158.95 179.358C159.136 179.402 159.297 179.519 159.397 179.682C159.496 179.845 159.528 180.04 159.483 180.226C159.438 180.412 159.322 180.573 159.159 180.672C158.792 180.896 158.409 181.093 158.014 181.263C155.13 182.476 152.027 183.082 148.899 183.043ZM164.831 143.447C164.73 143.447 164.63 143.426 164.538 143.385C164.446 143.344 164.364 143.284 164.296 143.208C163.022 141.797 160.08 138.158 160.285 134.896C160.288 134.853 160.294 134.81 160.305 134.769C160.337 134.298 160.445 133.836 160.623 133.4C161.332 131.676 163.329 130.013 165.198 128.596C162.701 129.45 160.093 129.939 157.456 130.047C154.777 130.115 152.108 129.685 149.585 128.779C149.448 128.74 149.314 128.69 149.186 128.629L149.089 128.588C147.936 128.144 146.83 127.585 145.79 126.919C143.519 125.464 140.804 123.347 139.936 119.849C139.692 119.107 139.612 118.321 139.701 117.545C139.79 116.768 140.047 116.021 140.453 115.353C141.423 113.928 143.253 113.057 146.047 112.691C146.145 112.666 146.245 112.657 146.346 112.664C149.469 112.41 152.608 112.426 155.728 112.709L156.055 112.73C157.341 112.817 158.631 112.831 159.919 112.771C161.555 112.7 163.195 112.72 164.83 112.83L166.086 112.896C166.277 112.904 166.456 112.988 166.586 113.128C166.715 113.269 166.783 113.455 166.775 113.646C166.773 113.741 166.752 113.835 166.713 113.921C166.674 114.008 166.618 114.086 166.548 114.151C166.478 114.215 166.395 114.265 166.306 114.297C166.216 114.328 166.121 114.342 166.026 114.336L164.753 114.27C163.161 114.163 161.565 114.144 159.971 114.211C158.636 114.272 157.299 114.258 155.966 114.167L155.64 114.147C152.583 113.867 149.507 113.852 146.448 114.103C146.378 114.112 146.308 114.11 146.239 114.099C143.904 114.425 142.359 115.113 141.645 116.164C141.355 116.664 141.177 117.222 141.123 117.798C141.07 118.374 141.142 118.955 141.335 119.5C142.08 122.507 144.521 124.394 146.564 125.704C147.529 126.321 148.553 126.839 149.622 127.249L149.758 127.307C149.839 127.346 149.924 127.379 150.01 127.404C152.382 128.267 154.896 128.675 157.419 128.605C160.606 128.438 163.742 127.739 166.699 126.54C167.049 126.412 167.353 126.299 167.606 126.214C168.161 126.03 168.994 125.754 169.34 126.452C169.633 127.129 169.113 127.533 168.361 128.062C168.327 128.097 168.29 128.129 168.249 128.156C167.937 128.367 167.537 128.638 167.095 128.976L167.013 129.036C165.166 130.411 162.636 132.293 161.957 133.945C161.825 134.266 161.75 134.609 161.738 134.956C161.737 135.008 161.73 135.06 161.717 135.111C161.634 137.881 164.481 141.262 165.366 142.244C165.459 142.347 165.521 142.476 165.543 142.613C165.565 142.751 165.546 142.892 165.489 143.019C165.433 143.147 165.341 143.255 165.224 143.331C165.107 143.407 164.97 143.447 164.831 143.447Z" fill="#471B01"/>
<path d="M128.813 166.585C128.653 166.585 128.498 166.531 128.372 166.433C128.245 166.335 128.155 166.198 128.116 166.043C128.07 165.862 123.65 147.924 135.315 138.441C135.463 138.32 135.653 138.264 135.843 138.283C136.033 138.303 136.208 138.397 136.328 138.545C136.449 138.694 136.505 138.884 136.486 139.074C136.466 139.264 136.372 139.438 136.224 139.559C125.267 148.467 129.468 165.515 129.512 165.686C129.559 165.871 129.531 166.067 129.433 166.232C129.336 166.396 129.177 166.515 128.992 166.562C128.934 166.577 128.874 166.585 128.813 166.585ZM100.974 123.787C100.889 123.787 100.806 123.772 100.726 123.742C100.548 123.677 100.402 123.544 100.322 123.372C100.241 123.2 100.232 123.002 100.297 122.824C100.516 122.218 100.861 121.667 101.309 121.205C101.758 120.743 102.299 120.381 102.897 120.144C103.495 119.907 104.137 119.799 104.78 119.828C105.423 119.858 106.053 120.023 106.627 120.313C106.715 120.348 106.795 120.4 106.863 120.465C106.931 120.531 106.986 120.609 107.024 120.696C107.061 120.783 107.082 120.876 107.083 120.971C107.085 121.065 107.068 121.159 107.034 121.247C106.999 121.336 106.947 121.416 106.882 121.484C106.816 121.552 106.737 121.607 106.651 121.644C106.564 121.682 106.471 121.702 106.376 121.704C106.281 121.706 106.187 121.689 106.099 121.654C105.665 121.447 105.193 121.329 104.712 121.309C104.23 121.289 103.75 121.367 103.3 121.538C102.555 121.914 101.969 122.545 101.651 123.316C101.599 123.454 101.507 123.573 101.386 123.657C101.265 123.741 101.121 123.787 100.974 123.787ZM115.222 117.011C115.138 117.012 115.054 116.996 114.975 116.967C114.796 116.902 114.651 116.768 114.57 116.596C114.49 116.423 114.481 116.226 114.546 116.047C114.765 115.442 115.11 114.89 115.558 114.428C116.006 113.967 116.547 113.605 117.146 113.368C117.744 113.131 118.386 113.023 119.029 113.053C119.672 113.082 120.301 113.247 120.875 113.538C120.964 113.572 121.044 113.624 121.112 113.69C121.181 113.755 121.235 113.834 121.273 113.921C121.311 114.007 121.331 114.101 121.333 114.196C121.335 114.29 121.318 114.384 121.283 114.472C121.249 114.561 121.197 114.641 121.131 114.709C121.065 114.777 120.987 114.832 120.9 114.87C120.813 114.907 120.719 114.928 120.625 114.929C120.53 114.931 120.436 114.914 120.348 114.879C119.914 114.671 119.441 114.553 118.96 114.533C118.479 114.513 117.999 114.591 117.549 114.762C116.803 115.138 116.218 115.77 115.899 116.541C115.848 116.679 115.755 116.798 115.634 116.882C115.513 116.966 115.37 117.011 115.222 117.011ZM132.688 110.022C132.603 110.022 132.52 110.007 132.441 109.978C132.262 109.913 132.116 109.779 132.036 109.607C131.955 109.435 131.946 109.238 132.011 109.059C132.23 108.454 132.575 107.902 133.023 107.44C133.471 106.978 134.013 106.617 134.611 106.379C135.209 106.142 135.851 106.035 136.494 106.064C137.137 106.093 137.766 106.258 138.34 106.548C138.428 106.583 138.509 106.635 138.577 106.7C138.645 106.766 138.699 106.845 138.737 106.931C138.775 107.018 138.795 107.111 138.797 107.206C138.799 107.301 138.782 107.395 138.747 107.483C138.712 107.571 138.661 107.651 138.595 107.719C138.529 107.787 138.451 107.842 138.364 107.879C138.278 107.917 138.184 107.938 138.09 107.939C137.995 107.941 137.901 107.924 137.813 107.889C137.379 107.681 136.907 107.564 136.425 107.544C135.944 107.524 135.464 107.602 135.014 107.773C134.269 108.149 133.683 108.78 133.365 109.552C133.313 109.69 133.221 109.808 133.1 109.893C132.979 109.977 132.835 110.022 132.688 110.022ZM140.736 137.1C139.747 137.073 138.784 136.778 137.949 136.248C137.785 136.151 137.666 135.992 137.619 135.807C137.572 135.622 137.6 135.426 137.697 135.261C137.794 135.097 137.953 134.978 138.138 134.93C138.323 134.883 138.519 134.911 138.684 135.008C139.079 135.282 139.527 135.473 139.998 135.569C140.47 135.665 140.956 135.665 141.428 135.569C142.223 135.316 142.902 134.786 143.34 134.075C143.434 133.91 143.589 133.788 143.772 133.737C143.956 133.685 144.152 133.709 144.318 133.802C144.484 133.894 144.607 134.049 144.659 134.232C144.712 134.415 144.69 134.611 144.598 134.778C143.973 135.823 142.982 136.599 141.818 136.956C141.465 137.052 141.101 137.1 140.736 137.1ZM124.37 141.801C123.381 141.774 122.418 141.479 121.582 140.949C121.418 140.852 121.299 140.693 121.252 140.508C121.205 140.323 121.233 140.127 121.33 139.962C121.428 139.798 121.586 139.679 121.771 139.631C121.956 139.584 122.152 139.612 122.317 139.709C122.713 139.983 123.16 140.174 123.632 140.27C124.104 140.367 124.59 140.367 125.062 140.27C125.857 140.017 126.536 139.487 126.973 138.776C127.067 138.611 127.223 138.489 127.406 138.438C127.589 138.386 127.786 138.41 127.952 138.503C128.118 138.595 128.241 138.75 128.293 138.933C128.345 139.116 128.323 139.312 128.231 139.479C127.607 140.524 126.616 141.3 125.452 141.657C125.099 141.753 124.735 141.802 124.37 141.801ZM108.699 144.668C107.711 144.641 106.748 144.346 105.913 143.816C105.748 143.719 105.629 143.56 105.582 143.375C105.534 143.19 105.562 142.993 105.66 142.829C105.757 142.664 105.916 142.545 106.101 142.498C106.286 142.451 106.483 142.479 106.647 142.576C107.043 142.85 107.49 143.041 107.962 143.137C108.434 143.234 108.92 143.234 109.391 143.137C110.187 142.884 110.865 142.354 111.303 141.643C111.397 141.478 111.553 141.356 111.736 141.305C111.919 141.254 112.115 141.277 112.282 141.37C112.448 141.463 112.57 141.617 112.623 141.8C112.675 141.983 112.653 142.18 112.561 142.346C111.936 143.391 110.946 144.168 109.781 144.524C109.429 144.62 109.065 144.668 108.699 144.668ZM152.69 108.389C152.564 108.389 152.439 108.355 152.33 108.291C152.22 108.227 152.129 108.136 152.067 108.026C152.004 107.916 151.971 107.791 151.972 107.664C151.973 107.537 152.007 107.413 152.071 107.304C152.399 106.75 152.841 106.272 153.368 105.902C153.895 105.532 154.494 105.277 155.126 105.156C155.758 105.034 156.409 105.049 157.035 105.197C157.661 105.346 158.249 105.626 158.759 106.019C158.919 106.121 159.033 106.283 159.074 106.469C159.116 106.655 159.082 106.85 158.98 107.011C158.879 107.172 158.717 107.286 158.532 107.328C158.346 107.371 158.151 107.338 157.99 107.238C157.602 106.952 157.16 106.748 156.691 106.639C156.223 106.529 155.736 106.516 155.262 106.601C154.46 106.831 153.767 107.342 153.31 108.041C153.245 108.148 153.154 108.235 153.046 108.296C152.937 108.357 152.815 108.389 152.69 108.389ZM143.72 113.956L144.416 117.189C144.416 117.189 157.741 118.972 156.007 113.449C151.915 112.876 147.752 113.048 143.72 113.956Z" fill="#471B01"/>
</g>
</svg>
