<svg xmlns="http://www.w3.org/2000/svg" width="250" height="250" viewBox="0 0 250 250" fill="none">
  <g clip-path="url(#clip0_476_7265)">
    <mask id="mask0_476_7265" style="mask-type:luminance" maskUnits="userSpaceOnUse" x="0" y="0" width="250" height="250">
      <path d="M250 0H0V250H250V0Z" fill="white"/>
    </mask>
    <g mask="url(#mask0_476_7265)">
      <path d="M218.755 130.891C218.755 185.6 174.405 229.951 119.696 229.951C64.9872 229.951 20.6367 185.6 20.6367 130.891C20.6367 76.1823 64.9872 31.832 119.696 31.832C174.405 31.832 218.755 76.1823 218.755 130.891Z" fill="#FFD7D1"/>
      <path d="M213.178 135.788C211.544 134.154 209.166 133.725 207.136 134.491C207.115 133.062 206.562 131.638 205.472 130.547C203.247 128.323 199.641 128.323 197.417 130.547C195.963 132 195.466 134.042 195.912 135.904C195.729 135.648 195.529 135.401 195.299 135.171C193.075 132.947 189.469 132.947 187.244 135.171C186.252 136.163 185.705 137.431 185.598 138.728C184.959 137.802 183.892 137.195 182.682 137.195C180.724 137.195 179.137 138.782 179.137 140.74C179.137 140.897 179.148 141.051 179.168 141.202H214.669C215.139 139.325 214.646 137.256 213.178 135.788Z" fill="#FFDAD5"/>
      <path d="M209.416 62.9287C205.197 58.7097 199.055 57.6022 193.814 59.5815C193.76 55.8897 192.334 52.2145 189.517 49.3975C183.773 43.654 174.461 43.654 168.717 49.3975C164.965 53.1497 163.681 58.422 164.831 63.2305C164.36 62.569 163.844 61.93 163.251 61.3367C157.507 55.593 148.195 55.593 142.451 61.3367C139.889 63.899 138.478 67.1722 138.201 70.5212C136.55 68.1312 133.794 66.5627 130.669 66.5627C125.614 66.5627 121.516 70.661 121.516 75.7162C121.516 76.1212 121.545 76.5192 121.597 76.9102H213.265C214.479 72.0622 213.207 66.7197 209.416 62.9287Z" fill="#FFDAD5"/>
      <path d="M94.2123 90.3646C92.4155 88.5678 89.8003 88.0961 87.5683 88.9388C87.5453 87.3668 86.9378 85.8018 85.7383 84.6021C83.2923 82.1561 79.3265 82.1561 76.8805 84.6021C75.2825 86.2001 74.7358 88.4453 75.2255 90.4931C75.025 90.2113 74.805 89.9393 74.5525 89.6866C72.1065 87.2406 68.1408 87.2406 65.6948 89.6866C64.6035 90.7778 64.0028 92.1716 63.885 93.5978C63.1818 92.5801 62.008 91.9121 60.6773 91.9121C58.5245 91.9121 56.7793 93.6573 56.7793 95.8101C56.7793 95.9826 56.792 96.1521 56.8138 96.3186H95.8518C96.3685 94.2541 95.8268 91.9791 94.2123 90.3646Z" fill="#FFDAD5"/>
      <path d="M202.141 116.494C196.127 116.494 191.234 111.601 191.234 105.587C191.234 99.5727 196.127 94.6797 202.141 94.6797C208.155 94.6797 213.048 99.5727 213.048 105.587C213.048 111.601 208.155 116.494 202.141 116.494ZM202.141 97.9784C197.946 97.9784 194.533 101.392 194.533 105.587C194.533 109.782 197.946 113.195 202.141 113.195C206.336 113.195 209.75 109.782 209.75 105.587C209.75 101.392 206.336 97.9784 202.141 97.9784Z" fill="#FA660D"/>
      <path d="M58.3559 98.336C46.6976 98.336 37.2129 88.8513 37.2129 77.193C37.2129 65.535 46.6976 56.0508 58.3559 56.0508C70.0141 56.0508 79.4989 65.535 79.4989 77.193C79.4989 88.8513 70.0141 98.336 58.3559 98.336ZM58.3559 59.3495C48.5166 59.3495 40.5119 67.354 40.5119 77.193C40.5119 87.0323 48.5166 95.037 58.3559 95.037C68.1951 95.037 76.1999 87.0323 76.1999 77.193C76.1999 67.354 68.1951 59.3495 58.3559 59.3495Z" fill="url(#paint0_linear_476_7265)"/>
      <path d="M156.252 191.404C165.631 198.328 167.63 211.591 160.706 220.971C153.783 230.35 140.519 232.348 131.139 225.424C121.76 218.501 119.761 205.237 126.685 195.858C133.609 186.478 146.872 184.48 156.252 191.404ZM133.098 222.77C141.014 228.614 152.209 226.928 158.052 219.012C163.895 211.096 162.209 199.901 154.293 194.058C146.377 188.215 135.182 189.901 129.339 197.817C123.496 205.733 125.182 216.927 133.098 222.77Z" fill="url(#paint1_linear_476_7265)"/>
      <path d="M162.531 126.368L162.532 136.841L97.0746 136.85C94.1818 136.85 91.8273 134.506 91.8269 131.624C91.8269 131.504 91.8268 131.374 91.8468 131.255C92.0262 128.531 94.3002 126.377 97.0732 126.376L162.531 126.368Z" fill="#683B21"/>
      <path d="M166.774 148.11L97.8618 148.119L97.8594 129.914L166.772 129.905L166.774 148.11Z" fill="#FB9482"/>
      <path d="M151.653 91.593L185.533 97.1355C189.039 97.709 191.454 100.759 190.933 103.946L180.567 167.308C180.046 170.494 176.785 172.616 173.279 172.042L139.399 166.5C135.901 165.928 133.486 162.878 134.008 159.691L144.373 96.3292C144.894 93.1424 148.155 91.0207 151.653 91.593Z" fill="#FF927F"/>
      <path d="M151.309 91.6195L157.224 92.5872L144.97 167.494L139.055 166.526L151.309 91.6195Z" fill="#683B21"/>
      <path d="M151.164 156.363L149.879 164.218L147.954 163.903L149.239 156.049L151.164 156.363Z" fill="white"/>
      <path d="M153.098 144.541L151.813 152.396L149.888 152.081L151.173 144.226L153.098 144.541Z" fill="white"/>
      <path d="M155.031 132.721L153.746 140.575L151.821 140.26L153.106 132.406L155.031 132.721Z" fill="white"/>
      <path d="M156.967 120.899L155.682 128.753L153.757 128.438L155.042 120.584L156.967 120.899Z" fill="white"/>
      <path d="M158.9 109.076L157.615 116.93L155.69 116.615L156.975 108.762L158.9 109.076Z" fill="white"/>
      <path d="M160.834 97.2543L159.549 105.108L157.624 104.793L158.909 96.9393L160.834 97.2543Z" fill="white"/>
      <path d="M183.348 102.131L180.962 116.718L171.062 115.098L173.449 100.511L183.348 102.131Z" fill="white"/>
      <path d="M171.887 151.518L101.354 151.527L101.352 133.322L171.885 133.313L171.887 151.518Z" fill="#F7BAB0"/>
      <path d="M103.18 136.85C103.18 136.85 106.005 129.581 97.4434 129.582L97.4452 143.714L102.931 143.713L103.18 136.85Z" fill="#592F16"/>
      <path d="M176.878 136.839L176.886 202.177L97.0845 202.187C94.1918 202.188 91.8372 199.844 91.8368 196.961L91.8281 131.623C91.8285 134.506 94.1831 136.85 97.0758 136.849L176.878 136.839Z" fill="#BF4B07"/>
      <path d="M176.878 136.839L176.886 202.177L97.0845 202.187C94.1918 202.188 91.8372 199.844 91.8368 196.961L91.8281 131.623C91.8285 134.506 94.1831 136.85 97.0758 136.849L176.878 136.839Z" fill="#6E5343"/>
      <path d="M170.403 14.6211L140.676 44.4096L192.914 96.5398L222.641 66.7511L170.403 14.6211Z" fill="#FF927F"/>
      <path d="M217.379 68.9423L195.094 91.2736C193.697 90.6901 192.117 90.6916 190.722 91.2778L145.942 46.5898C146.526 45.1936 146.524 43.6136 145.938 42.2186L168.223 19.8873C169.619 20.4708 171.199 20.4691 172.594 19.8828L217.374 64.5708C216.791 65.9671 216.793 67.5473 217.379 68.9423Z" fill="white"/>
      <path d="M193.056 66.9544C186.774 73.2491 176.579 73.2596 170.284 66.9779C163.99 60.6961 163.979 50.5011 170.261 44.2064C176.543 37.9119 186.738 37.9011 193.032 44.1829C199.327 50.4646 199.338 60.6596 193.056 66.9544Z" fill="#FF927F"/>
      <path d="M184.993 60.4124C185.046 59.5724 184.905 58.7659 184.568 57.9909C184.277 57.3214 183.864 56.5416 183.328 55.6541C183.245 55.5144 183.157 55.3704 183.068 55.2244C182.649 54.5269 182.318 53.9491 182.08 53.4856C182.048 53.4216 182.018 53.3596 181.989 53.3016C181.745 52.8121 181.611 52.3406 181.584 51.8896C181.558 51.4386 181.711 51.0481 182.047 50.7139C182.525 50.2386 183.12 50.0649 183.826 50.1946C184.177 50.2596 184.544 50.4124 184.928 50.6551C185.321 50.9019 185.732 51.2441 186.164 51.6784C186.355 51.8706 186.538 52.0749 186.713 52.2909C187.013 52.6689 187.293 53.0829 187.545 53.5366C187.944 54.2501 188.246 55.0114 188.455 55.8259L190.829 54.8319C190.664 53.9974 190.325 53.1439 189.82 52.2746C189.442 51.6349 189.015 51.0371 188.534 50.4811L190.263 48.7624L188.559 47.0469L186.771 48.8234C186.158 48.3546 185.545 48.0011 184.933 47.7619C183.917 47.3636 182.969 47.2509 182.089 47.4256C181.21 47.6024 180.447 48.0114 179.798 48.6559C179.03 49.4194 178.614 50.2261 178.556 51.0721C178.499 51.9159 178.638 52.7204 178.975 53.4836C179.231 54.0651 179.584 54.7409 180.036 55.5164C180.177 55.7621 180.33 56.0201 180.493 56.2841C180.814 56.8159 181.08 57.2796 181.293 57.6771C181.4 57.8689 181.493 58.0469 181.572 58.2066C181.814 58.6984 181.946 59.1714 181.969 59.6266C181.989 60.0836 181.832 60.4784 181.498 60.8104C181.04 61.2659 180.457 61.4156 179.753 61.2639C179.322 61.1706 178.858 60.9436 178.368 60.5831C178.056 60.3524 177.73 60.0681 177.393 59.7299C177.129 59.4636 176.882 59.1796 176.652 58.8796C176.274 58.3874 175.947 57.8499 175.665 57.2704C175.213 56.3354 174.939 55.4384 174.841 54.5799L172.402 55.5084C172.465 56.4201 172.788 57.4251 173.367 58.5241C173.775 59.2956 174.262 60.0176 174.828 60.6916L173.081 62.4281L174.786 64.1434L176.545 62.3951C177.244 62.9701 177.949 63.3951 178.65 63.6726C179.672 64.0771 180.62 64.1936 181.496 64.0229C182.371 63.8541 183.128 63.4471 183.777 62.8029C184.535 62.0489 184.941 61.2521 184.993 60.4124Z" fill="white"/>
      <path d="M33.1387 150.734L68.9272 168.498L100.078 105.738L64.2892 87.9746L33.1387 150.734Z" fill="#FF927F"/>
      <path d="M67.8499 92.0488L94.6789 105.365C94.5754 106.798 95.0539 108.22 96.0029 109.299L69.2991 163.098C67.8664 162.995 66.4444 163.474 65.3659 164.422L38.5369 151.106C38.6404 149.673 38.1619 148.251 37.2129 147.173L63.9166 93.3726C65.3494 93.4761 66.7711 92.9976 67.8499 92.0488Z" fill="white"/>
      <path d="M73.4054 114.543C80.9679 118.296 84.0559 127.47 80.3021 135.032C76.5486 142.595 67.3749 145.683 59.8124 141.929C52.2499 138.175 49.1621 129.002 52.9156 121.439C56.6694 113.877 65.8429 110.789 73.4054 114.543Z" fill="#FF927F"/>
      <path d="M69.9505 123.775C69.1788 123.981 68.4953 124.352 67.8993 124.889C67.3848 125.353 66.8075 125.96 66.1705 126.71C66.0698 126.827 65.9665 126.949 65.8623 127.074C65.3608 127.662 64.9408 128.134 64.5953 128.489C64.5473 128.537 64.5005 128.582 64.4573 128.626C64.0903 128.993 63.7065 129.257 63.3085 129.417C62.9105 129.577 62.513 129.557 62.1105 129.355C61.5383 129.068 61.2023 128.585 61.106 127.91C61.0588 127.575 61.0855 127.199 61.1878 126.78C61.2913 126.352 61.4753 125.878 61.7358 125.358C61.8513 125.128 61.9795 124.902 62.1213 124.679C62.3708 124.295 62.659 123.918 62.9913 123.554C63.513 122.98 64.1068 122.477 64.777 122.043L63.1655 120.207C62.4643 120.607 61.7985 121.17 61.1688 121.888C60.7068 122.42 60.2973 122.985 59.9423 123.586L57.8733 122.548L56.8438 124.601L58.9825 125.673C58.7455 126.367 58.6128 127.025 58.582 127.648C58.5305 128.683 58.715 129.57 59.1383 130.31C59.5628 131.047 60.1608 131.611 60.9368 132C61.856 132.462 62.7078 132.592 63.487 132.389C64.2635 132.185 64.9458 131.817 65.531 131.284C65.977 130.878 66.4788 130.356 67.0403 129.715C67.219 129.514 67.405 129.299 67.5935 129.072C67.975 128.622 68.3123 128.243 68.606 127.932C68.7463 127.777 68.8783 127.64 68.998 127.52C69.3678 127.154 69.7538 126.892 70.1565 126.734C70.5618 126.578 70.9643 126.6 71.3643 126.801C71.9125 127.076 72.2235 127.555 72.2993 128.235C72.3455 128.65 72.2813 129.137 72.1045 129.686C71.9913 130.037 71.834 130.417 71.631 130.822C71.4713 131.14 71.2903 131.448 71.0898 131.746C70.7608 132.234 70.3755 132.691 69.9388 133.12C69.2335 133.809 68.5093 134.327 67.766 134.674L69.338 136.589C70.1398 136.257 70.947 135.663 71.7615 134.81C72.3325 134.209 72.8353 133.554 73.271 132.84L75.3618 133.888L76.391 131.836L74.286 130.781C74.5925 129.978 74.7623 129.215 74.8005 128.5C74.8558 127.458 74.6745 126.57 74.2563 125.832C73.8403 125.096 73.2455 124.537 72.4698 124.148C71.562 123.693 70.7223 123.568 69.9505 123.775Z" fill="white"/>
      <path d="M73.6368 199.517C71.9556 204.904 66.2253 207.908 60.8384 206.227C55.4514 204.545 52.4475 198.815 54.129 193.428C55.8102 188.041 61.5404 185.037 66.9274 186.719C72.3144 188.4 75.3183 194.13 73.6368 199.517Z" fill="#FF927F"/>
      <path d="M74.0001 198.351C72.3186 203.738 66.5886 206.742 61.2016 205.061C55.8147 203.379 52.8108 197.649 54.4922 192.262C56.1735 186.875 61.9035 183.871 67.2904 185.553C72.6774 187.234 75.6813 192.964 74.0001 198.351Z" fill="#FFD7D1"/>
      <path d="M72.5404 197.896C71.1107 202.477 66.2388 205.031 61.6585 203.601C57.0782 202.172 54.5239 197.299 55.9536 192.719C57.3833 188.139 62.2552 185.584 66.8355 187.014C71.4159 188.444 73.9702 193.316 72.5404 197.896Z" fill="#FF927F"/>
      <path d="M67.1354 196.815C66.9427 196.388 66.6634 196.028 66.296 195.734C65.9783 195.48 65.5725 195.203 65.0779 194.905C65.0004 194.858 64.9199 194.81 64.838 194.762C64.4504 194.527 64.1369 194.329 63.8992 194.162C63.8669 194.139 63.8362 194.116 63.8064 194.095C63.5588 193.918 63.3703 193.721 63.2399 193.506C63.1095 193.29 63.0831 193.058 63.1616 192.806C63.2736 192.448 63.5217 192.207 63.9028 192.088C64.0926 192.028 64.3128 192.008 64.5653 192.028C64.8227 192.047 65.1145 192.109 65.4401 192.21C65.5841 192.255 65.7273 192.308 65.8695 192.369C66.1159 192.477 66.3612 192.608 66.6033 192.766C66.9853 193.013 67.3325 193.31 67.6472 193.656L68.5572 192.549C68.259 192.182 67.8704 191.849 67.3952 191.553C67.0431 191.336 66.6769 191.153 66.2955 191.004L66.7001 189.708L65.4145 189.307L64.9964 190.646C64.5727 190.575 64.1787 190.56 63.8152 190.602C63.2114 190.67 62.7155 190.861 62.3274 191.176C61.9408 191.492 61.6711 191.891 61.5193 192.377C61.3394 192.953 61.3446 193.459 61.536 193.891C61.7275 194.321 62.0056 194.681 62.3698 194.969C62.6468 195.189 62.9965 195.429 63.421 195.694C63.5544 195.778 63.6966 195.865 63.8455 195.953C64.142 196.131 64.3935 196.29 64.6017 196.431C64.7043 196.498 64.7966 196.561 64.8773 196.619C65.1241 196.798 65.3124 196.997 65.4418 197.215C65.5708 197.435 65.5961 197.67 65.5179 197.92C65.4106 198.264 65.1625 198.489 64.7764 198.598C64.5402 198.664 64.2525 198.673 63.9176 198.623C63.7038 198.59 63.469 198.535 63.2155 198.456C63.016 198.394 62.8211 198.318 62.6294 198.23C62.3154 198.086 62.0144 197.907 61.725 197.695C61.2592 197.352 60.8906 196.981 60.6194 196.584L59.6602 197.676C59.9281 198.108 60.3482 198.519 60.9194 198.91C61.3212 199.183 61.7486 199.412 62.2029 199.597L61.7942 200.906L63.0797 201.308L63.4911 199.989C63.9848 200.09 64.4425 200.116 64.8601 200.07C65.4687 200.004 65.9655 199.815 66.3526 199.503C66.7394 199.192 67.0064 198.795 67.1583 198.309C67.3357 197.74 67.3281 197.243 67.1354 196.815Z" fill="white"/>
      <path d="M218.264 147.28C221.748 151.692 220.996 158.092 216.584 161.576C212.173 165.06 205.772 164.308 202.289 159.897C198.805 155.485 199.557 149.085 203.968 145.601C208.38 142.117 214.78 142.869 218.264 147.28Z" fill="#FF927F"/>
      <path d="M217.51 146.326C220.994 150.737 220.242 157.138 215.83 160.621C211.419 164.105 205.019 163.353 201.535 158.942C198.051 154.53 198.803 148.13 203.214 144.646C207.626 141.162 214.026 141.914 217.51 146.326Z" fill="white"/>
      <path d="M216.313 147.27C219.275 151.02 218.636 156.462 214.885 159.425C211.134 162.387 205.692 161.748 202.73 157.997C199.768 154.246 200.407 148.804 204.158 145.841C207.909 142.879 213.351 143.518 216.313 147.27Z" fill="#FF927F"/>
      <path d="M212.387 151.107C211.927 151.025 211.474 151.052 211.026 151.189C210.638 151.307 210.183 151.486 209.66 151.725C209.578 151.762 209.493 151.801 209.406 151.841C208.996 152.028 208.656 152.175 208.386 152.277C208.349 152.29 208.313 152.302 208.279 152.315C207.994 152.418 207.725 152.463 207.475 152.449C207.225 152.435 207.019 152.327 206.856 152.12C206.625 151.826 206.566 151.488 206.682 151.107C206.74 150.918 206.847 150.725 207.006 150.529C207.166 150.328 207.381 150.122 207.647 149.912C207.765 149.819 207.889 149.731 208.019 149.648C208.247 149.506 208.492 149.378 208.758 149.268C209.177 149.093 209.615 148.974 210.077 148.91L209.679 147.54C209.209 147.578 208.717 147.711 208.206 147.935C207.83 148.102 207.473 148.3 207.137 148.53L206.298 147.469L205.246 148.3L206.112 149.397C205.815 149.705 205.582 150.021 205.411 150.343C205.128 150.878 205.006 151.393 205.047 151.89C205.089 152.385 205.266 152.831 205.58 153.23C205.953 153.701 206.371 153.981 206.834 154.067C207.295 154.151 207.748 154.125 208.189 153.987C208.526 153.883 208.92 153.731 209.376 153.531C209.521 153.468 209.673 153.4 209.828 153.327C210.142 153.184 210.414 153.067 210.646 152.974C210.759 152.928 210.863 152.887 210.956 152.854C211.242 152.751 211.511 152.708 211.764 152.724C212.017 152.742 212.224 152.853 212.386 153.058C212.608 153.34 212.654 153.67 212.526 154.049C212.448 154.28 212.294 154.522 212.064 154.769C211.917 154.927 211.74 155.089 211.532 155.253C211.369 155.382 211.197 155.5 211.017 155.608C210.722 155.785 210.405 155.931 210.068 156.05C209.524 156.24 209.012 156.335 208.533 156.335L208.891 157.737C209.398 157.76 209.971 157.646 210.614 157.396C211.065 157.219 211.493 156.997 211.901 156.727L212.747 157.799L213.8 156.968L212.947 155.888C213.309 155.539 213.587 155.178 213.784 154.808C214.071 154.27 214.195 153.756 214.156 153.262C214.118 152.769 213.942 152.326 213.628 151.928C213.26 151.463 212.847 151.189 212.387 151.107Z" fill="white"/>
      <path d="M139.43 58.6281C143.661 41.477 133.188 24.1432 116.037 19.9118C98.8862 15.6803 81.5522 26.1535 77.3207 43.3047C73.0892 60.4556 83.5627 77.7894 100.714 82.0208C101.267 82.1573 101.82 82.2773 102.373 82.3833L111.71 98.6718L115.805 82.0747C127.065 79.3754 136.465 70.6454 139.43 58.6281Z" fill="#FA660D"/>
      <path d="M129.76 44.5715L102.986 66.1085C102.282 66.6745 101.253 66.5631 100.687 65.8593L89.877 52.4209C88.6445 50.8886 88.8873 48.6473 90.4196 47.4147C91.952 46.1822 94.1933 46.4251 95.4258 47.9574L101.772 55.8469C102.338 56.5507 103.368 56.6621 104.071 56.0961L125.296 39.0226C126.828 37.79 129.07 38.0329 130.302 39.5652C131.535 41.0975 131.292 43.3389 129.76 44.5715Z" fill="white"/>
    </g>
  </g>
  <defs>
    <linearGradient id="paint0_linear_476_7265" x1="42.6331" y1="66.896" x2="70.9354" y2="84.9438" gradientUnits="userSpaceOnUse">
      <stop stop-color="#FF9380"/>
      <stop offset="0.5" stop-color="#EF9180" stop-opacity="0.5"/>
      <stop offset="1" stop-color="#DE8B7C" stop-opacity="0"/>
    </linearGradient>
    <linearGradient id="paint1_linear_476_7265" x1="-597.136" y1="-80.1968" x2="-609.188" y2="-111.525" gradientUnits="userSpaceOnUse">
      <stop stop-color="#FF9380"/>
      <stop offset="0.5" stop-color="#EF9180" stop-opacity="0.5"/>
      <stop offset="1" stop-color="#DE8B7C" stop-opacity="0"/>
    </linearGradient>
    <clipPath id="clip0_476_7265">
      <rect width="250" height="250" fill="white"/>
    </clipPath>
  </defs>
</svg>