<svg width="71" height="73" viewBox="0 0 71 73" fill="none" xmlns="http://www.w3.org/2000/svg">
<path d="M35.3406 62.9151C28.4409 62.9151 21.953 60.2592 17.0742 55.438C12.1954 50.6168 9.50781 44.2065 9.50781 37.3872C9.50781 30.5679 12.1954 24.1588 17.0742 19.3365C21.953 14.5152 28.4398 11.8594 35.3406 11.8594C42.2414 11.8594 48.7282 14.5152 53.607 19.3365C58.4858 24.1577 61.1734 30.5679 61.1734 37.3872C61.1734 44.2065 58.4858 50.6156 53.607 55.438C48.7282 60.2592 42.2414 62.9151 35.3406 62.9151ZM35.3406 11.9735C21.1593 11.9735 9.62332 23.3745 9.62332 37.3872C9.62332 51.4 21.1605 62.8009 35.3406 62.8009C49.5207 62.8009 61.0579 51.4 61.0579 37.3872C61.0579 23.3745 49.5207 11.9735 35.3406 11.9735Z" fill="#C07A07"/>
<path d="M2.76732 44.4105C2.7719 44.6919 2.70671 44.9236 2.57062 45.1055C2.43452 45.2874 2.25611 45.4004 2.03539 45.4445C1.74261 45.5032 1.48186 45.4253 1.25313 45.2128C1.0244 44.9993 0.862002 44.6795 0.762505 44.2523L0.382812 42.3969L0.549785 42.3302C0.640134 42.4206 0.74535 42.5573 0.865433 42.7415L3.71541 42.1731L3.68682 41.7821L3.96473 41.7324C4.10082 42.2488 4.22891 42.8037 4.35014 43.3969C4.43362 43.8048 4.41532 44.1484 4.29524 44.4297C4.17516 44.71 3.97959 44.8784 3.70855 44.9326C3.52785 44.9688 3.34715 44.9439 3.1676 44.8591C2.98805 44.7744 2.85424 44.6252 2.76504 44.4117L2.76732 44.4105ZM1.1422 43.9811L1.15592 44.0738C1.19709 44.2738 1.2863 44.4162 1.42353 44.5009C1.56077 44.5857 1.70945 44.6117 1.86956 44.58C2.05369 44.5427 2.20007 44.4467 2.30758 44.2885C2.41508 44.1314 2.45053 43.954 2.41394 43.7563L2.3213 43.3009L1.09988 43.5449L1.14448 43.9823L1.1422 43.9811ZM3.74743 43.015L2.67812 43.2285L2.72844 43.4749C2.7799 43.7291 2.87483 43.9077 3.01092 44.0128C3.14702 44.1179 3.29455 44.154 3.45466 44.1224C3.58503 44.0964 3.6994 44.032 3.79661 43.9291C3.89382 43.8263 3.94528 43.7111 3.94871 43.5834L3.74743 43.015Z" fill="#531D01"/>
<path d="M2.40503 48.5642C2.41075 48.7156 2.39931 48.8569 2.37072 48.9879L2.10539 49.0467L1.66737 47.6624L1.84235 47.5913L2.06536 47.8376L3.28106 47.4613C3.62645 47.3551 3.76368 47.1879 3.69163 46.9618C3.65504 46.8466 3.5441 46.7053 3.35998 46.537L1.8961 46.9901C1.8961 47.1234 1.88238 47.2443 1.85379 47.3528L1.58846 47.4116L1.13672 45.9855L1.3117 45.9143C1.39861 45.9946 1.49582 46.1053 1.60333 46.2488L4.66374 45.303L4.58254 44.8985L4.82499 44.7832C5.03657 45.0465 5.19553 45.3369 5.30418 45.6556L5.15208 45.9833L3.61387 46.459C3.97983 46.7245 4.23144 46.9664 4.36639 47.1845C4.40642 47.3483 4.39955 47.5144 4.34466 47.6839C4.28976 47.8534 4.18912 47.9732 4.04045 48.0421L3.74424 48.1506L2.40731 48.5642H2.40503Z" fill="#531D01"/>
<path d="M3.58823 51.8486L2.99925 51.3695C2.96838 51.287 2.96952 51.1876 3.00154 51.0712C3.03356 50.9548 3.09075 50.8497 3.1708 50.7571L2.58411 50.3548L2.50749 50.2022C2.41714 49.9909 2.4057 49.7898 2.47203 49.5988C2.53951 49.409 2.66073 49.2768 2.838 49.2033C3.08274 49.1016 3.3332 49.1513 3.58709 49.3536L4.02397 50.3062L4.478 50.1163C4.75018 50.0033 4.88971 49.8519 4.89772 49.6621C4.82109 49.5118 4.74561 49.3943 4.67013 49.3118L4.08 49.4508L3.88444 49.0338C4.03998 48.8824 4.22982 48.7592 4.45398 48.6654L4.55805 48.6281C4.71816 48.7784 4.88513 48.9705 5.05897 49.2033C5.2328 49.4361 5.34831 49.6191 5.4055 49.7536C5.4581 49.8779 5.4764 50.0135 5.45925 50.1615C5.44209 50.3096 5.3952 50.4429 5.31743 50.5616C5.26826 50.626 5.14817 50.6994 4.9549 50.7842L3.73005 51.2949C3.64885 51.3288 3.62598 51.3876 3.66143 51.4724L3.79752 51.7063L3.58709 51.8475L3.58823 51.8486ZM3.00612 50.1197C3.06673 50.2531 3.18338 50.4079 3.35493 50.5853L3.72204 50.4327L3.67286 50.3051C3.53105 49.9717 3.36751 49.844 3.18453 49.9209C3.09303 49.9593 3.03242 50.0259 3.00497 50.1209L3.00612 50.1197ZM6.47824 50.1276L6.24951 50.2531L5.93386 50.105L5.27512 48.5626L5.58848 48.3965C5.74402 48.5253 5.86753 48.6982 5.95902 48.9129L6.47824 50.1276Z" fill="#531D01"/>
<path d="M6.62266 52.4787C6.69356 52.5409 6.75074 52.6143 6.79535 52.6979C6.88455 52.8663 6.90742 53.0268 6.86397 53.1816C6.49571 53.3511 6.1549 53.4505 5.84154 53.481L5.64712 53.1127L6.14575 52.7318C5.91702 52.6234 5.67228 52.542 5.41039 52.4878L4.41884 52.9997C4.49318 53.2494 4.52978 53.4528 4.52863 53.6099L4.27817 53.715L3.45703 52.1623L3.616 52.0618C3.71664 52.125 3.83215 52.2177 3.96252 52.3397L5.61167 51.4877L5.46299 51.1013L5.68029 50.9453C5.93532 51.1679 6.14461 51.4256 6.30815 51.7194L6.2178 52.0685L5.81524 52.2765L6.62151 52.4776L6.62266 52.4787Z" fill="#531D01"/>
<path d="M6.45295 56.7648L5.79192 56.3874C5.74732 56.3117 5.73245 56.2134 5.74503 56.0936C5.75761 55.9738 5.79649 55.8608 5.86054 55.7569L5.21552 55.454L5.11488 55.3162C4.99022 55.1218 4.94562 54.9252 4.97993 54.7274C5.01424 54.5286 5.11259 54.3794 5.27499 54.2777C5.50029 54.1376 5.75418 54.1466 6.04009 54.3048L6.62907 55.1738L7.04536 54.9139C7.29467 54.758 7.4079 54.5862 7.38388 54.3986C7.28324 54.263 7.18946 54.1591 7.1014 54.0901L6.54215 54.3229L6.27911 53.9432C6.4072 53.7681 6.57417 53.6167 6.78003 53.4878L6.8761 53.4336C7.05908 53.5568 7.25579 53.7184 7.46508 53.9195C7.67437 54.1206 7.81847 54.2834 7.89738 54.4065C7.97057 54.5207 8.0106 54.6517 8.01861 54.8009C8.02661 54.9489 8.00145 55.0891 7.94541 55.219C7.90767 55.2902 7.80131 55.3829 7.62519 55.497L6.50098 56.1987C6.42664 56.245 6.41292 56.3072 6.4621 56.384L6.63479 56.5931L6.45066 56.766L6.45295 56.7648ZM5.59292 55.1535C5.67527 55.2744 5.81593 55.4088 6.01493 55.5569L6.35231 55.3467L6.28254 55.228C6.08698 54.9229 5.90514 54.8224 5.73702 54.9275C5.65239 54.9806 5.60436 55.0551 5.59292 55.1535Z" fill="#531D01"/>
<path d="M7.67583 57.9199C7.73759 58.0013 7.84967 58.1109 8.01207 58.2453L7.83137 58.4544L6.97935 58.0306C6.87871 57.9097 6.83068 57.7572 6.83639 57.5764C6.84211 57.3956 6.90158 57.26 7.0148 57.1718L8.29798 56.226L8.06124 55.9221L8.27854 55.7345C8.44208 55.7865 8.60219 55.8531 8.76001 55.9322L9.50224 55.7266L9.72754 56.0249L9.20718 56.5243L9.66121 57.1255L9.47708 57.2747L9.05736 57.2498L8.76916 56.8679L7.76161 57.6103C7.68498 57.6668 7.64038 57.7176 7.6278 57.7628C7.61636 57.808 7.63237 57.86 7.67583 57.9188V57.9199Z" fill="#531D01"/>
<path d="M9.89218 60.9404L9.18083 60.6681C9.12479 60.6003 9.09392 60.5053 9.0882 60.3844C9.08134 60.2635 9.10192 60.1471 9.14881 60.0341L8.46376 59.833L8.34254 59.7121C8.18929 59.5392 8.11495 59.3516 8.11724 59.1505C8.11953 58.9493 8.19386 58.7855 8.33911 58.6612C8.53925 58.4883 8.79199 58.4589 9.09849 58.5719L9.81556 59.3403L10.1872 59.0194C10.4091 58.8273 10.4937 58.6408 10.4411 58.4589C10.3211 58.3403 10.2113 58.2521 10.1141 58.1968L9.59827 58.512L9.27919 58.1764C9.37868 57.9843 9.5205 57.808 9.70348 57.6498L9.7904 57.582C9.99054 57.6758 10.2101 57.8058 10.4491 57.973C10.6882 58.1403 10.8551 58.2781 10.9523 58.3889C11.0427 58.4906 11.1022 58.6137 11.133 58.7595C11.1639 58.9053 11.1616 59.0465 11.1262 59.1832C11.0999 59.259 11.0095 59.3663 10.8529 59.5064L9.85216 60.3709C9.78582 60.4285 9.78239 60.4918 9.84301 60.5607L10.0466 60.7415L9.89218 60.9404ZM8.79085 59.4793C8.89035 59.5867 9.05046 59.6985 9.27004 59.8138L9.57082 59.555L9.4839 59.4488C9.24373 59.1765 9.04817 59.1053 8.89835 59.2352C8.82287 59.2996 8.78742 59.3821 8.79085 59.4804V59.4793Z" fill="#531D01"/>
<path d="M14.2461 64.7927L14.0597 65.0017L12.7285 63.8876L12.8177 63.7328C12.9366 63.752 13.1093 63.796 13.3357 63.865L13.545 63.2649L12.5398 62.4231L11.9313 62.7598L12.2733 63.1395L12.0869 63.3486L10.9375 62.3858L11.0267 62.231C11.1571 62.2491 11.3206 62.2909 11.5208 62.3575L14.3993 60.8727L14.4599 60.701L15.1427 61.014L13.9842 64.4978L14.2484 64.7904L14.2461 64.7927ZM13.6948 62.8457L14.1592 61.5417L12.9343 62.2084L13.6948 62.8457ZM16.3218 60.9349L16.1743 61.1484L15.8255 61.1575L14.3216 59.8975L14.5251 59.6094C14.723 59.6557 14.9117 59.754 15.0924 59.9043L16.3218 60.9337V60.9349Z" fill="#531D01"/>
<path d="M17.1873 63.9141C17.2788 63.9367 17.3645 63.9751 17.4435 64.0293C17.6013 64.1378 17.6973 64.27 17.7305 64.426C17.4835 64.7457 17.2285 64.9898 16.9654 65.1605L16.62 64.9231L16.8831 64.357C16.6303 64.3661 16.3741 64.4056 16.1168 64.4779L15.4787 65.3865C15.6617 65.574 15.7897 65.7379 15.8629 65.8757L15.6902 66.0837L14.2344 65.0847L14.3282 64.922C14.4471 64.9322 14.5923 64.9616 14.7662 65.009L15.8275 63.4982L15.5153 63.2236L15.6353 62.9863C15.9659 63.0666 16.2724 63.1988 16.556 63.3841L16.6395 63.7344L16.381 64.1028L17.1896 63.9118L17.1873 63.9141Z" fill="#531D01"/>
<path d="M18.2963 65.273C18.2575 65.3385 18.2472 65.412 18.2666 65.4911C18.2861 65.5702 18.3856 65.7431 18.5651 66.0098C18.7447 66.2764 18.8464 66.4911 18.8705 66.6527C18.8945 66.8143 18.8647 66.9669 18.7801 67.1081C18.6555 67.3194 18.4679 67.4426 18.2174 67.4776C17.9681 67.5127 17.7039 67.4505 17.4272 67.29C17.115 67.1092 16.8485 66.8437 16.6289 66.4923L17.195 66.0787C17.3608 66.4629 17.5701 66.7804 17.824 67.0324C17.9247 67.0143 18.0001 66.9635 18.0505 66.8776C18.0939 66.8053 18.1019 66.7262 18.0768 66.6392C18.0516 66.5522 17.9521 66.3804 17.7783 66.1239C17.6056 65.8674 17.5072 65.6617 17.4855 65.5069C17.4638 65.3521 17.4935 65.2063 17.5758 65.0673C17.7028 64.8538 17.8995 64.7351 18.166 64.7114C18.4324 64.6876 18.7115 64.7611 19.0054 64.9306C19.2799 65.0888 19.4823 65.2741 19.6138 65.4854L19.5406 65.6199C19.432 65.803 19.305 65.9566 19.1575 66.0832L18.7893 65.8708L18.9208 65.3894C18.8179 65.2877 18.7138 65.2108 18.6086 65.1577C18.4633 65.1283 18.3593 65.1679 18.2952 65.2741L18.2963 65.273Z" fill="#531D01"/>
<path d="M21.3385 67.7158L20.0748 67.0921C19.9684 67.3418 19.9524 67.5667 20.0256 67.7678C20.0988 67.969 20.244 68.1215 20.4602 68.2255C20.6397 68.3113 20.881 68.3543 21.1853 68.3543L21.1612 68.665L20.1834 68.6888L20.0187 68.6221C19.6528 68.4469 19.4092 68.1893 19.2845 67.848C19.161 67.5068 19.185 67.161 19.3577 66.8096C19.5384 66.4423 19.8094 66.1903 20.172 66.0536C20.5345 65.9169 20.8868 65.9304 21.2287 66.0954C21.5272 66.2389 21.7273 66.4468 21.8291 66.7214C21.9309 66.9949 21.9103 67.2785 21.7662 67.5701L21.3374 67.717L21.3385 67.7158ZM20.8719 66.3847C20.6512 66.4005 20.451 66.5271 20.2726 66.7666L21.1567 67.1361C21.2024 66.9836 21.2001 66.8367 21.1487 66.6943C21.0972 66.5519 21.0057 66.4491 20.8719 66.3858V66.3847ZM20.9588 65.3925L22.1368 64.875L22.4147 65.5135C22.1951 65.5666 21.8257 65.6717 21.3065 65.8276L21.1875 65.8683L20.9588 65.3937V65.3925Z" fill="#531D01"/>
<path d="M25.0194 68.0257C24.9051 68.0449 24.7918 68.0529 24.6786 68.0495C24.1903 68.697 23.7934 69.193 23.4858 69.5377C23.2216 69.8123 22.9334 70.0315 22.6212 70.1953C22.309 70.3581 21.9453 70.4711 21.5302 70.5332L21.3906 69.7128C21.895 69.7592 22.3078 69.7275 22.6303 69.619C22.5023 69.532 22.3948 69.4269 22.3078 69.3038L22.3444 67.2325L22.0505 66.9511L22.1534 66.6855L23.5293 67.2053L23.4583 67.4359L23.1381 67.4675L23.0558 68.5557L22.946 69.0235L23.0386 69.0586C23.368 68.6472 23.6596 68.219 23.9158 67.7726L23.6859 67.5692L23.7934 67.3059L25.0915 67.7963L25.0206 68.0269L25.0194 68.0257Z" fill="#531D01"/>
<path d="M27.1366 70.7904L26.3898 70.9452C26.3052 70.9181 26.2274 70.8548 26.1565 70.7576C26.0845 70.6593 26.0376 70.5508 26.0147 70.431L25.3297 70.631L25.1616 70.5949C24.9374 70.5316 24.7716 70.4152 24.6641 70.2446C24.5554 70.0739 24.528 69.8977 24.5806 69.7146C24.6538 69.4615 24.8493 69.301 25.1684 69.231L26.1931 69.4897L26.3281 69.0208C26.4093 68.7405 26.3773 68.5371 26.232 68.414C26.065 68.3789 25.9255 68.3643 25.8123 68.3699L25.5527 68.9112L25.1009 68.8016C25.0781 68.5869 25.1009 68.3631 25.1673 68.1315L25.2027 68.0275C25.4223 67.9981 25.6785 67.9891 25.9701 68.0015C26.2617 68.0128 26.479 68.0388 26.6208 68.0795C26.7524 68.1168 26.8713 68.188 26.9765 68.2931C27.0829 68.3981 27.1584 68.5191 27.2041 68.6524C27.2236 68.7304 27.2064 68.8694 27.1526 69.0705L26.789 70.3338C26.7649 70.4186 26.797 70.4728 26.8862 70.4977L27.1561 70.5395L27.1355 70.7892L27.1366 70.7904ZM25.4074 70.1564C25.5504 70.1926 25.746 70.2005 25.9941 70.179L26.1028 69.8005L25.9713 69.7575C25.6202 69.6592 25.4166 69.7044 25.3617 69.8943C25.3342 69.9892 25.3491 70.0762 25.4074 70.1576V70.1564Z" fill="#531D01"/>
<path d="M31.9613 70.8501C31.9167 71.1722 31.7509 71.4162 31.465 71.5835C31.1791 71.7507 30.8405 71.8072 30.4483 71.7541C30.2367 71.7247 30.0103 71.6615 29.7701 71.5643C29.5299 71.4671 29.3366 71.3552 29.1914 71.2287L29.2074 71.0761C29.2497 70.7767 29.3184 70.4942 29.4156 70.232L29.8101 70.2862L29.9725 71.0818C30.1887 71.2185 30.4437 71.3066 30.7411 71.3473C30.9549 71.2806 31.0773 71.1428 31.107 70.9326C31.1333 70.7416 31.0373 70.5642 30.8177 70.4015L30.0526 69.8772C29.6512 69.5721 29.4773 69.2331 29.5299 68.8613C29.5734 68.5472 29.7415 68.3087 30.0331 68.146C30.3248 67.9833 30.677 67.9302 31.0899 67.9867C31.4558 68.0364 31.8081 68.1517 32.1489 68.3302C32.0951 68.7133 32.0174 69.0398 31.9167 69.3099L31.4776 69.25L31.4032 68.6206C31.2065 68.4828 30.9595 68.398 30.6621 68.3652C30.4792 68.4466 30.3751 68.5822 30.3488 68.7698C30.3339 68.8783 30.3682 68.9833 30.4529 69.085C30.5375 69.1867 30.7193 69.3246 30.9984 69.4998C31.2774 69.6738 31.481 69.8196 31.6091 69.9337C31.736 70.0489 31.8344 70.1823 31.903 70.3326C31.9716 70.484 31.9922 70.6569 31.9648 70.8524L31.9613 70.8501Z" fill="#531D01"/>
<path d="M35.1149 71.7381L34.423 72.0568C34.3349 72.0489 34.2445 72.006 34.1519 71.9269C34.0593 71.8478 33.9884 71.7517 33.938 71.6398L33.317 71.989L33.1455 71.9924C32.9133 71.9811 32.7246 71.9054 32.5794 71.763C32.4341 71.6218 32.3667 71.4556 32.3758 71.2658C32.3884 71.0036 32.5416 70.8025 32.8367 70.6624L33.8946 70.6839L33.9175 70.1979C33.9312 69.9064 33.8534 69.7166 33.6842 69.6284C33.5138 69.6318 33.3742 69.6488 33.2656 69.6804L33.1375 70.2658L32.672 70.2601C32.6 70.0556 32.5702 69.8341 32.5817 69.5934L32.592 69.4849C32.799 69.4069 33.046 69.3403 33.3331 69.2872C33.6201 69.2329 33.8374 69.2092 33.9849 69.216C34.121 69.2228 34.2537 69.2646 34.3806 69.3437C34.5076 69.4228 34.6094 69.5222 34.6848 69.6431C34.7226 69.7143 34.7375 69.8533 34.7317 70.0612L34.6688 71.3732C34.6643 71.4602 34.7089 71.5065 34.8004 71.511L35.0725 71.4907L35.1103 71.7393L35.1149 71.7381ZM33.285 71.511C33.4326 71.5144 33.6247 71.4771 33.8614 71.4014L33.8797 71.0082L33.7413 70.9957C33.3765 70.9788 33.189 71.0681 33.1798 71.2658C33.1752 71.3641 33.2095 71.4466 33.285 71.5121V71.511Z" fill="#531D01"/>
<path d="M39.8861 71.3181C40.0702 71.3599 40.2029 71.404 40.2841 71.4492L40.2807 71.7181L38.8225 71.8187L38.7928 71.6345L39.0924 71.4707L39.0032 70.2209C38.978 69.8638 38.8454 69.6943 38.6063 69.7113C38.4885 69.7192 38.3284 69.7892 38.1272 69.9203L38.2404 71.4379C38.3913 71.4786 38.5114 71.5215 38.5995 71.5667L38.5961 71.8357L37.1814 71.934L37.1516 71.7498L37.4455 71.5927L37.3563 70.3373C37.3312 69.9802 37.1985 69.8107 36.9595 69.8277C36.8486 69.8356 36.6907 69.9034 36.4849 70.0311L36.5935 71.56C36.725 71.5916 36.8405 71.6323 36.9412 71.6842L36.9378 71.9532L35.435 72.0571L35.4053 71.873C35.5013 71.8119 35.6306 71.7441 35.7964 71.6707L35.666 69.8367L35.2486 69.8164L35.1914 69.5576C35.5002 69.4152 35.8227 69.3293 36.1612 69.2988L36.4506 69.5418L36.4666 69.7712C36.8051 69.4875 37.0944 69.309 37.3335 69.2333C37.4513 69.2333 37.5782 69.2604 37.7143 69.3169C37.8492 69.3734 37.9568 69.457 38.0345 69.5689C38.0597 69.6107 38.0757 69.648 38.0814 69.6808C38.4337 69.3858 38.7333 69.1982 38.9803 69.1191C39.1507 69.1191 39.3131 69.1632 39.4675 69.2559C39.6219 69.3485 39.7157 69.4728 39.75 69.631L39.7889 69.9407L39.8872 71.3215L39.8861 71.3181Z" fill="#531D01"/>
<path d="M41.1539 69.4107C41.1676 69.4865 41.2088 69.5475 41.2762 69.5938C41.3437 69.6401 41.5335 69.7068 41.8458 69.7927C42.158 69.8786 42.3776 69.9746 42.5034 70.0808C42.6292 70.1882 42.7069 70.3215 42.7367 70.4831C42.7824 70.7238 42.7218 70.9374 42.556 71.1261C42.3901 71.3148 42.15 71.4368 41.8343 71.4956C41.4786 71.5611 41.1012 71.5318 40.7021 71.4086L40.8554 70.7295C41.2351 70.9125 41.6045 71.0165 41.9624 71.0436C42.0265 70.9645 42.0493 70.8775 42.031 70.7803C42.015 70.6978 41.9693 70.6323 41.8927 70.5826C41.816 70.5328 41.6273 70.4684 41.3265 70.3859C41.0258 70.3046 40.8153 70.2119 40.6975 70.1091C40.5786 70.0063 40.5043 69.8763 40.4745 69.7181C40.4288 69.474 40.4985 69.2571 40.6838 69.0672C40.8691 68.8774 41.1298 68.7519 41.4638 68.6898C41.776 68.6322 42.0516 68.6412 42.2906 68.7158L42.325 68.8649C42.3638 69.0729 42.3696 69.2718 42.3421 69.4627L41.9224 69.5396L41.7028 69.0898C41.5576 69.0797 41.4283 69.0887 41.314 69.1169C41.1847 69.1893 41.1321 69.2864 41.155 69.4085L41.1539 69.4107Z" fill="#531D01"/>
<path d="M44.4898 70.2438C44.5904 70.2178 44.7334 70.1567 44.9221 70.0596L45.049 70.3036L44.3308 70.9229C44.1787 70.9692 44.0186 70.9557 43.8505 70.8822C43.6824 70.8088 43.5783 70.7037 43.5383 70.5669L43.1357 69.0358L42.7617 69.1375L42.668 68.8674C42.7789 68.7375 42.9013 68.6154 43.0351 68.5013L43.122 67.7442L43.4868 67.6504L43.759 68.316L44.4932 68.1273L44.5641 68.3521L44.3823 68.7273L43.9157 68.8471L44.2313 70.0494C44.2554 70.1409 44.2862 70.2008 44.324 70.2291C44.3617 70.2573 44.4166 70.2618 44.4875 70.2438H44.4898Z" fill="#531D01"/>
<path d="M48.1238 69.181C48.2771 69.1709 48.42 69.1765 48.5527 69.2002L48.6225 69.4601L47.2387 69.9427L47.1609 69.7732L47.4022 69.5438L46.979 68.3573C46.859 68.0205 46.6851 67.8906 46.4587 67.9697C46.3443 68.0092 46.2048 68.1245 46.0401 68.3121L46.5502 69.7415C46.6851 69.737 46.8086 69.746 46.9184 69.7698L46.9882 70.0297L45.5621 70.5257L45.4843 70.3562C45.5621 70.267 45.6719 70.1675 45.8114 70.0568L44.7455 67.0679L44.3395 67.1628L44.2148 66.9278C44.4733 66.7097 44.7627 66.5413 45.0806 66.4238L45.418 66.5617L45.9532 68.0635C46.2082 67.6917 46.4438 67.4363 46.66 67.2951C46.8235 67.2499 46.9928 67.251 47.1666 67.2984C47.3404 67.3459 47.4651 67.442 47.5394 67.5866L47.6595 67.8759L48.125 69.1822L48.1238 69.181Z" fill="#531D01"/>
<path d="M49.5638 65.1066L49.6988 65.3281L49.5604 65.6445L48.0233 66.3496L47.8438 66.0456C47.9684 65.8874 48.1388 65.7597 48.3527 65.6614L49.5627 65.1055L49.5638 65.1066ZM51.4074 67.8988L50.9442 68.4977C50.8618 68.5316 50.7623 68.5339 50.6434 68.5068C50.5245 68.4797 50.417 68.4265 50.3198 68.3508L49.9332 68.9441L49.7822 69.0254C49.5718 69.1226 49.3682 69.1407 49.1738 69.0819C48.9794 69.0232 48.841 68.9068 48.7598 68.735C48.6477 68.4966 48.6901 68.248 48.8856 67.9892L49.8337 67.5237L49.6267 67.0818C49.502 66.8174 49.3442 66.6841 49.1521 66.6841C49.0023 66.7643 48.8868 66.8434 48.8056 66.9214L48.9668 67.4988L48.5517 67.7067C48.3927 67.5587 48.2612 67.3756 48.1594 67.1564L48.1182 67.0547C48.2646 66.8909 48.4533 66.7191 48.682 66.5394C48.9108 66.3598 49.0926 66.24 49.2264 66.1778C49.3499 66.1213 49.4872 66.0987 49.637 66.11C49.7868 66.1213 49.9241 66.1632 50.0476 66.2355C50.1139 66.2818 50.1928 66.3982 50.2854 66.5846L50.8458 67.7757C50.8836 67.8548 50.943 67.8751 51.0277 67.8367L51.2598 67.6943L51.4097 67.8966L51.4074 67.8988ZM49.6793 68.535C49.812 68.4706 49.9652 68.3497 50.1379 68.1734L49.9698 67.8163L49.8417 67.8695C49.51 68.022 49.3865 68.187 49.47 68.3655C49.5123 68.4548 49.581 68.5113 49.6782 68.535H49.6793Z" fill="#531D01"/>
<path d="M54.0267 66.2144C54.2108 66.1715 54.3515 66.1512 54.4475 66.1545L54.5653 66.3975L53.3039 67.1275L53.1941 66.9749L53.3874 66.7049L52.7435 65.6189C52.5605 65.3104 52.3661 65.2155 52.1591 65.3353C52.0607 65.3929 51.9429 65.5342 51.808 65.7602L52.5799 67.0642C52.7126 67.0348 52.8338 67.0213 52.9471 67.0235L53.0648 67.2665L51.7645 68.0179L51.6547 67.8654C51.7131 67.7682 51.7988 67.6507 51.9143 67.5128L50.9743 65.9263L50.59 66.0913L50.4219 65.8845C50.6346 65.6223 50.8851 65.4031 51.1744 65.2268L51.5427 65.3183L51.6707 65.5353C51.8549 65.1161 52.039 64.8178 52.2243 64.6381C52.3764 64.5624 52.5422 64.5319 52.7218 64.5465C52.9013 64.5612 53.042 64.6324 53.1426 64.759L53.3165 65.02L54.0244 66.2144H54.0267Z" fill="#531D01"/>
<path d="M57.8915 62.5381C58.1236 62.8115 58.3375 63.1087 58.5308 63.4274L56.2743 65.2218L56.1371 65.1055C56.176 64.9857 56.2515 64.8297 56.3613 64.6388L54.5383 62.4002L54.1883 62.6161L54.0156 62.3946L56.2675 60.6035C56.4722 60.825 56.6689 61.1131 56.8587 61.468L56.4962 61.7561L56.0788 61.3923L55.2565 61.955L56.0033 62.8714L56.8713 62.0612L57.2224 62.4918L56.264 63.1912L56.9834 64.0738L57.7451 63.3765L57.5083 62.7991L57.8915 62.5369V62.5381Z" fill="#531D01"/>
<path d="M58.1226 60.9815C58.1763 61.0369 58.2438 61.0663 58.3261 61.0685C58.4085 61.0719 58.604 61.0245 58.9128 60.9262C59.2216 60.8278 59.4583 60.7894 59.6219 60.8109C59.7854 60.8324 59.9261 60.9024 60.0405 61.0211C60.212 61.1974 60.2806 61.4098 60.2463 61.6561C60.212 61.9036 60.0794 62.1364 59.8472 62.3567C59.5864 62.6042 59.2548 62.785 58.8522 62.898L58.6029 62.2471C59.0215 62.194 59.3886 62.081 59.7031 61.9093C59.7134 61.8087 59.6836 61.7228 59.6139 61.6516C59.5556 61.5906 59.4801 61.5612 59.3886 61.5623C59.2971 61.5623 59.1027 61.6109 58.8053 61.7059C58.508 61.8008 58.2815 61.8369 58.1248 61.8155C57.9682 61.794 57.8344 61.7262 57.7223 61.6098C57.5484 61.4313 57.4867 61.2109 57.5359 60.9521C57.585 60.6934 57.7326 60.447 57.9785 60.2143C58.2072 59.9973 58.4428 59.8549 58.6841 59.7871L58.795 59.8945C58.9437 60.047 59.0581 60.2109 59.1416 60.3849L58.8339 60.6764L58.4005 60.4199C58.2735 60.49 58.1706 60.5679 58.0905 60.6538C58.0231 60.7838 58.0322 60.8934 58.1191 60.9838L58.1226 60.9815Z" fill="#531D01"/>
<path d="M61.3689 59.8734C61.4387 59.7977 61.5245 59.6689 61.6285 59.4858L61.871 59.6214L61.6137 60.5288C61.513 60.6497 61.3712 60.7254 61.1894 60.7548C61.0075 60.7842 60.8623 60.7526 60.7536 60.6599L59.5688 59.5966L59.3126 59.8836L59.0851 59.7084C59.1056 59.5401 59.14 59.3717 59.1903 59.2033L58.8438 58.5231L59.0965 58.2473L59.6923 58.6564L60.2024 58.1016L60.3865 58.2519L60.4426 58.6643L60.1189 59.0169L61.0498 59.8519C61.1208 59.9152 61.1802 59.9491 61.2271 59.9514C61.274 59.9548 61.322 59.9288 61.3724 59.8745L61.3689 59.8734Z" fill="#531D01"/>
<path d="M64.0615 56.9963L63.9254 57.7433C63.866 57.8133 63.771 57.8619 63.6407 57.889C63.5103 57.9162 63.3811 57.9128 63.253 57.88L63.2255 58.6405C63.0094 58.923 62.7246 59.0767 62.3712 59.1027C62.0178 59.1287 61.6827 59.0202 61.3671 58.7795C61.0366 58.5275 60.8467 58.2122 60.7976 57.8337C60.7484 57.4551 60.8525 57.1014 61.1098 56.7715C61.1818 56.6788 61.2653 56.5952 61.3614 56.5206L60.6683 55.9929L60.379 56.2912L60.1445 56.1613C60.2417 55.8392 60.3916 55.5432 60.5928 55.2731L60.9565 55.2109L63.4863 57.1399C63.5652 57.1997 63.6327 57.1941 63.6887 57.1218L63.8317 56.8856L64.0592 56.9975L64.0615 56.9963ZM61.8165 58.0698C62.0098 58.2167 62.2031 58.2958 62.3964 58.3083C62.5897 58.3196 62.7452 58.2506 62.863 58.1004C62.9236 58.0224 62.9728 57.915 63.0105 57.7772L61.796 56.8506C61.6176 56.9353 61.4757 57.0461 61.3694 57.1817L61.3133 57.263C61.3419 57.5659 61.5101 57.8348 61.8177 58.0687L61.8165 58.0698Z" fill="#531D01"/>
<path d="M65.1114 56.2517C65.0371 56.3037 64.9353 56.3501 64.8061 56.3931C64.6768 56.4361 64.567 56.4598 64.4756 56.4643C64.3326 56.2166 64.2663 56.0039 64.2788 55.8274C64.4412 55.7109 64.6494 55.6464 64.9021 55.6328C65.0394 55.824 65.1091 56.0299 65.1114 56.2505V56.2517Z" fill="#531D01"/>
<path d="M66.4735 51.2585C66.8017 51.4404 67.0922 51.6528 67.3449 51.8947L67.3072 51.9432L67.3175 51.9478L66.2264 54.0575L65.777 53.9535L65.1331 52.2642C64.9421 51.7986 64.7431 51.5138 64.5361 51.4099C64.4046 51.3432 64.2708 51.3297 64.1336 51.3692C63.9975 51.4088 63.8854 51.5116 63.7996 51.6766L63.7058 51.9184L64.4012 52.5094L64.169 52.958C63.9254 52.9004 63.6647 52.802 63.389 52.6631L63.2335 52.5783C63.2015 52.1116 63.2804 51.6946 63.4702 51.3274C63.6315 51.0155 63.8556 50.8008 64.1427 50.6833C64.4298 50.5658 64.7077 50.5748 64.9776 50.7115C65.1617 50.8042 65.3138 50.95 65.4327 51.1477C65.5528 51.3455 65.6798 51.6381 65.8147 52.0257L66.1944 53.1207L66.2413 53.1264L66.5993 52.1331L66.2207 51.5545L66.4735 51.2585Z" fill="#531D01"/>
<path d="M65.9555 50.7082C65.4477 50.5082 65.0783 50.2133 64.8461 49.8245C64.614 49.4358 64.5785 49.0414 64.7398 48.6426C64.8964 48.2561 65.1789 48.0064 65.5895 47.8911C66.0001 47.7758 66.4587 47.8188 66.9665 48.0199C67.5051 48.2324 67.8882 48.525 68.117 48.8991C68.3457 49.272 68.3789 49.6584 68.2176 50.0585C68.0575 50.4551 67.7659 50.7127 67.345 50.8302C66.923 50.9489 66.461 50.9082 65.9566 50.7093L65.9555 50.7082ZM65.0909 49.1002C65.1583 49.2482 65.3002 49.3985 65.5174 49.5488C65.7347 49.6991 65.9635 49.8223 66.2036 49.9172C66.5845 50.0675 66.9276 50.133 67.2329 50.115C67.5383 50.0969 67.7316 49.9884 67.8105 49.7918C67.8333 49.7341 67.8471 49.6765 67.8505 49.6189C67.7762 49.4675 67.6332 49.3206 67.4216 49.1748C67.2101 49.0301 66.979 48.9081 66.7286 48.8098C66.358 48.664 66.0207 48.5928 65.7164 48.5985C65.4122 48.6041 65.2178 48.7115 65.132 48.9217L65.0897 49.0991L65.0909 49.1002Z" fill="#531D01"/>
<path d="M68.5947 45.3148C68.9515 45.4335 69.2775 45.5883 69.5714 45.7793L69.5439 45.8335L69.5542 45.8369L68.8806 48.1105L68.4186 48.0912L67.4671 46.5499C67.1914 46.1284 66.9421 45.8855 66.7191 45.8199C66.5773 45.7793 66.4435 45.7906 66.3166 45.855C66.1896 45.9194 66.1004 46.0403 66.0467 46.2188L65.9998 46.4731L66.7946 46.9251L66.6516 47.4087C66.4012 47.3974 66.1267 47.3477 65.8294 47.2618L65.6612 47.2076C65.5412 46.7545 65.54 46.3307 65.6578 45.9352C65.7573 45.5996 65.9369 45.3465 66.1965 45.1781C66.4561 45.0097 66.7306 44.9679 67.021 45.0515C67.22 45.1092 67.3962 45.2233 67.5505 45.3962C67.7049 45.5691 67.8856 45.8324 68.0915 46.1883L68.6702 47.194L68.7171 47.1906L68.8818 46.1488L68.4003 45.6504L68.5924 45.3126L68.5947 45.3148Z" fill="#531D01"/>
<path d="M67.9822 44.8675C67.4459 44.7635 67.0273 44.5432 66.7254 44.2042C66.4234 43.8652 66.3148 43.4844 66.3983 43.0618C66.4783 42.6538 66.7094 42.3555 67.0913 42.1668C67.4722 41.9781 67.9319 41.9363 68.4683 42.0391C69.0378 42.1487 69.469 42.3657 69.7641 42.69C70.0591 43.0143 70.1655 43.3883 70.082 43.8109C69.9996 44.2302 69.7618 44.5364 69.3706 44.7308C68.9784 44.9251 68.5163 44.9703 67.9834 44.8675H67.9822ZM66.8294 43.446C66.9232 43.5793 67.0913 43.7002 67.3338 43.8076C67.5762 43.916 67.8233 43.994 68.0772 44.0426C68.4797 44.1206 68.8285 44.1217 69.1259 44.0471C69.4232 43.9725 69.5914 43.8313 69.6325 43.6234C69.6451 43.5624 69.6463 43.5036 69.6394 43.446C69.5376 43.3115 69.3695 43.1928 69.1339 43.0889C68.8983 42.986 68.649 42.9092 68.3837 42.8584C67.9925 42.7826 67.6472 42.7759 67.3498 42.838C67.0513 42.899 66.8809 43.0414 66.8374 43.2629L66.8294 43.4448V43.446Z" fill="#531D01"/>
<path d="M58.5212 27.3429C58.9817 27.3429 59.3549 26.974 59.3549 26.5191C59.3549 26.0641 58.9817 25.6953 58.5212 25.6953C58.0608 25.6953 57.6875 26.0641 57.6875 26.5191C57.6875 26.974 58.0608 27.3429 58.5212 27.3429Z" fill="#C04C07"/>
<path d="M68.0785 39.8724C69.4681 39.8724 70.5946 38.7594 70.5946 37.3864C70.5946 36.0134 69.4681 34.9004 68.0785 34.9004C66.689 34.9004 65.5625 36.0134 65.5625 37.3864C65.5625 38.7594 66.689 39.8724 68.0785 39.8724Z" fill="#C04C07"/>
<path d="M67.0637 30.1772C68.2164 30.1772 69.1509 29.2539 69.1509 28.115C69.1509 26.976 68.2164 26.0527 67.0637 26.0527C65.911 26.0527 64.9766 26.976 64.9766 28.115C64.9766 29.2539 65.911 30.1772 67.0637 30.1772Z" fill="#C04C07"/>
<path d="M63.9681 22.533C64.848 22.533 65.5612 21.8282 65.5612 20.9589C65.5612 20.0895 64.848 19.3848 63.9681 19.3848C63.0883 19.3848 62.375 20.0895 62.375 20.9589C62.375 21.8282 63.0883 22.533 63.9681 22.533Z" fill="#C04C07"/>
<path d="M35.3381 60.1843C48.0785 60.1843 58.4067 49.9781 58.4067 37.3881C58.4067 24.798 48.0785 14.5918 35.3381 14.5918C22.5977 14.5918 12.2695 24.798 12.2695 37.3881C12.2695 49.9781 22.5977 60.1843 35.3381 60.1843Z" fill="#EA910F"/>
<mask id="mask0_998_5357" style="mask-type:luminance" maskUnits="userSpaceOnUse" x="12" y="14" width="47" height="47">
<path d="M35.3381 60.1843C48.0785 60.1843 58.4067 49.9781 58.4067 37.3881C58.4067 24.798 48.0785 14.5918 35.3381 14.5918C22.5977 14.5918 12.2695 24.798 12.2695 37.3881C12.2695 49.9781 22.5977 60.1843 35.3381 60.1843Z" fill="white"/>
</mask>
<g mask="url(#mask0_998_5357)">
<path fill-rule="evenodd" clip-rule="evenodd" d="M46.5913 17.2358L35.8398 37.227L43.1535 15.6875L46.5913 17.2358Z" fill="#C04C07"/>
<path fill-rule="evenodd" clip-rule="evenodd" d="M54.0147 23.4475L35.8398 37.2297L51.5364 20.6289L54.0147 23.4475Z" fill="#C04C07"/>
<path fill-rule="evenodd" clip-rule="evenodd" d="M58.1628 32.14L35.8398 37.2291L57.0912 28.5586L58.1628 32.14Z" fill="#C04C07"/>
<path fill-rule="evenodd" clip-rule="evenodd" d="M58.2874 41.7485L35.8398 37.2285L58.8158 38.0523L58.2874 41.7485Z" fill="#C04C07"/>
<path fill-rule="evenodd" clip-rule="evenodd" d="M54.367 50.5451L35.8398 37.2285L56.4004 47.3965L54.367 50.5451Z" fill="#C04C07"/>
<path fill-rule="evenodd" clip-rule="evenodd" d="M47.4753 57.5012L35.8398 37.2285L50.6467 55.4714L47.4753 57.5012Z" fill="#C04C07"/>
<path fill-rule="evenodd" clip-rule="evenodd" d="M33.9531 14.6309L35.3438 37.2282L37.7317 14.6309H33.9531Z" fill="#C04C07"/>
<path fill-rule="evenodd" clip-rule="evenodd" d="M24.5859 17.2358L35.3385 37.227L28.0249 15.6875L24.5859 17.2358Z" fill="#C04C07"/>
<path fill-rule="evenodd" clip-rule="evenodd" d="M17.0977 23.3881L35.3412 37.2279L19.5759 20.5684L17.0977 23.3881Z" fill="#C04C07"/>
<path fill-rule="evenodd" clip-rule="evenodd" d="M12.6211 32.0229L35.3431 37.2283L13.6927 28.4414L12.6211 32.0229Z" fill="#C04C07"/>
<path fill-rule="evenodd" clip-rule="evenodd" d="M12.4346 41.8129L35.3419 37.2285L11.9062 38.1156L12.4346 41.8129Z" fill="#C04C07"/>
<path fill-rule="evenodd" clip-rule="evenodd" d="M16.4787 50.7564L35.3421 37.2285L14.4453 47.6089L16.4787 50.7564Z" fill="#C04C07"/>
<path fill-rule="evenodd" clip-rule="evenodd" d="M23.8237 57.3192L35.3402 37.2285L20.6523 55.2883L23.8237 57.3192Z" fill="#C04C07"/>
</g>
<mask id="mask1_998_5357" style="mask-type:luminance" maskUnits="userSpaceOnUse" x="11" y="14" width="48" height="47">
<path d="M35.3307 60.1279C48.2201 60.1279 58.6691 49.8023 58.6691 37.0649C58.6691 24.3276 48.2201 14.002 35.3307 14.002C22.4412 14.002 11.9922 24.3276 11.9922 37.0649C11.9922 49.8023 22.4412 60.1279 35.3307 60.1279Z" fill="white"/>
</mask>
<g mask="url(#mask1_998_5357)">
<path fill-rule="evenodd" clip-rule="evenodd" d="M43.8586 32.0541C44.9302 34.3788 44.9268 46.3381 42.3936 49.411C41.473 50.5276 37.6841 52.9992 35.4162 53.0376C33.1483 53.0761 29.0152 50.1738 28.4113 49.1669C25.9182 45.0102 25.6666 35.0671 28.1277 31.8835C29.6259 29.9464 41.6319 29.0536 43.8586 32.0541Z" fill="#FFC48F"/>
<path fill-rule="evenodd" clip-rule="evenodd" d="M44.0779 31.9737C44.6943 33.3412 44.9631 37.7928 44.612 41.9484C44.3421 45.1456 43.7039 48.1868 42.574 49.5577C42.0136 50.2369 40.4136 50.9229 38.729 51.9819C37.5785 52.7052 36.3788 53.2533 35.417 53.2691C34.4472 53.2849 33.1823 52.6803 31.9792 51.8847C30.226 50.724 28.5768 49.9047 28.2051 49.2842C26.9265 47.1528 26.2289 43.5385 26.1717 40.0712C26.1157 36.6548 26.6852 33.3627 27.9375 31.7432C28.0279 31.6267 28.148 31.5149 28.2932 31.4098C29.446 30.5746 32.4824 29.9824 35.6 29.8897C38.721 29.797 41.9461 30.2016 43.4809 31.3612C43.705 31.5307 43.8949 31.716 44.0447 31.9183C44.0573 31.9364 44.0687 31.9556 44.0756 31.976L44.0779 31.9737ZM44.1419 41.91C44.4873 37.8279 44.2391 33.4881 43.6524 32.1726C43.5312 32.0133 43.378 31.8663 43.1961 31.7285C41.7551 30.6401 38.6432 30.2615 35.6137 30.3519C32.5807 30.4423 29.653 31.0006 28.5723 31.7827C28.4625 31.8629 28.3744 31.9432 28.3126 32.0234C27.1255 33.5582 26.588 36.7395 26.6429 40.0622C26.699 43.4572 27.3749 46.9832 28.6123 49.0469C28.9611 49.6278 30.5428 50.3737 32.2422 51.4982C33.3756 52.2486 34.5501 52.8193 35.4113 52.8046C36.2747 52.7911 37.3909 52.2735 38.4774 51.5897C40.1185 50.5579 41.6693 49.9194 42.2091 49.2639C43.2716 47.9755 43.8789 45.0281 44.1419 41.91Z" fill="#600A0A"/>
<path fill-rule="evenodd" clip-rule="evenodd" d="M26.847 41.7712C26.8287 41.6017 25.9023 39.9901 24.5265 40.6366C23.1518 41.283 24.1422 43.6699 24.7358 44.6441C25.3293 45.6183 26.2099 47.5587 26.2534 47.9554C26.2957 48.3521 27.0963 48.2187 27.2964 47.8175C27.4977 47.4175 28.3326 45.3527 26.847 41.7712Z" fill="#FFC48F"/>
<path fill-rule="evenodd" clip-rule="evenodd" d="M26.6184 41.7957C26.6184 41.7957 26.6127 41.7923 26.6013 41.7663C26.5281 41.6148 26.3428 41.3289 26.0672 41.0893C25.8041 40.861 25.4587 40.6802 25.0596 40.722C24.9258 40.7367 24.784 40.7751 24.6342 40.8452C24.6044 40.8599 24.5747 40.8746 24.5461 40.8927C24.1367 41.1368 24.0338 41.6261 24.0886 42.1743C24.1481 42.7755 24.394 43.4423 24.6479 43.9701C24.7497 44.1803 24.8526 44.369 24.9464 44.5227C25.2437 45.0109 25.6108 45.7342 25.9116 46.392C26.2261 47.078 26.4709 47.703 26.496 47.929V47.9358L26.4995 47.938C26.5166 47.9505 26.5509 47.9584 26.5955 47.9595C26.663 47.9629 26.7396 47.9493 26.8174 47.9222C26.9386 47.8793 27.0496 47.8058 27.0953 47.7131C27.2154 47.4724 27.5768 46.5988 27.4658 45.1025C27.4007 44.2255 27.1731 43.1417 26.6401 41.8578C26.631 41.8363 26.6264 41.8149 26.6241 41.7934L26.6184 41.7957ZM27.0267 41.5685C27.0507 41.6194 27.0679 41.6657 27.0782 41.703C27.6271 43.0332 27.8638 44.1588 27.9313 45.072C28.0503 46.6824 27.6477 47.6532 27.5127 47.9211C27.4087 48.1301 27.1948 48.2838 26.9695 48.363C26.8391 48.4082 26.6996 48.4308 26.5727 48.4262C26.4286 48.4206 26.2948 48.3788 26.1941 48.2963L26.1872 48.2906C26.098 48.2138 26.0386 48.1109 26.0248 47.9798C26.0054 47.8035 25.7767 47.2328 25.4793 46.5841C25.1854 45.9422 24.8274 45.237 24.5392 44.7646C24.4398 44.6018 24.3288 44.3984 24.219 44.1701C23.9468 43.605 23.6838 42.8829 23.6175 42.2195C23.5466 41.5029 23.7021 40.8508 24.3002 40.4949C24.3403 40.4711 24.3837 40.4485 24.4306 40.4259C24.6296 40.3321 24.8229 40.2801 25.0081 40.2609C25.5651 40.2021 26.0283 40.4406 26.376 40.7401C26.7099 41.0294 26.9363 41.3809 27.0267 41.5674V41.5685Z" fill="#600A0A"/>
<path fill-rule="evenodd" clip-rule="evenodd" d="M44.7608 41.8032C44.7791 41.6326 45.7066 40.0221 47.0812 40.6674C48.4559 41.3139 47.4655 43.7007 46.8719 44.6761C46.2784 45.6503 45.3978 47.5896 45.3543 47.9863C45.3109 48.383 44.5114 48.2496 44.3102 47.8484C44.1089 47.4483 43.274 45.3824 44.7596 41.8021L44.7608 41.8032Z" fill="#FFC48F"/>
<path fill-rule="evenodd" clip-rule="evenodd" d="M44.5365 41.734C44.5468 41.6955 44.5639 41.6503 44.5868 41.6006C44.6772 41.4141 44.9036 41.0615 45.2376 40.7733C45.5852 40.4727 46.0484 40.2354 46.6054 40.2941C46.7895 40.3134 46.9828 40.3653 47.1829 40.4591C47.2298 40.4818 47.2744 40.5044 47.3133 40.5281C47.9114 40.8841 48.0681 41.5362 47.996 42.2527C47.9297 42.9172 47.6667 43.6383 47.3945 44.2033C47.2847 44.4316 47.1738 44.6351 47.0743 44.7978C46.7861 45.2713 46.4281 45.9765 46.1342 46.6173C45.8368 47.266 45.6081 47.8368 45.5887 48.0131C45.5749 48.1442 45.5155 48.247 45.4263 48.3227C45.3245 48.4086 45.1884 48.4527 45.0397 48.4584C44.9128 48.4629 44.7732 48.4414 44.644 48.3951C44.4176 48.316 44.2048 48.1634 44.0996 47.9532C43.9658 47.6853 43.5621 46.7145 43.6822 45.1041C43.7497 44.1898 43.9864 43.0641 44.5354 41.734H44.5365ZM45.0134 41.7984C45.0008 41.8232 44.9974 41.821 44.9962 41.8266C44.994 41.8481 44.9882 41.8707 44.9791 41.891C44.4462 43.176 44.2186 44.2598 44.1534 45.1357C44.0424 46.632 44.4027 47.5068 44.5228 47.7464C44.5697 47.839 44.6795 47.9125 44.8007 47.9554C44.8773 47.9826 44.9551 47.9961 45.0214 47.9927C45.0672 47.9916 45.1015 47.9826 45.1186 47.9679V47.9611C45.1438 47.7351 45.3885 47.1101 45.7042 46.4241C46.0049 45.7675 46.3721 45.043 46.6694 44.5548C46.7632 44.4011 46.8661 44.2124 46.9668 44.0022C47.2206 43.4744 47.4665 42.8076 47.526 42.2064C47.5809 41.6582 47.478 41.1678 47.0685 40.9248C47.0388 40.9078 47.0091 40.8909 46.9805 40.8773C46.8307 40.8072 46.6877 40.7677 46.5539 40.7541C46.1548 40.7112 45.8094 40.8931 45.5463 41.1203C45.2707 41.3599 45.0843 41.6458 45.0123 41.7972L45.0134 41.7984Z" fill="#600A0A"/>
<path fill-rule="evenodd" clip-rule="evenodd" d="M40.0947 23.1838C40.1759 22.6515 40.2571 18.7932 34.7905 18.8542C29.3238 18.9153 29.7687 22.8798 29.7287 23.1838C29.6886 23.4878 27.9789 23.8371 27.7364 25.4328C27.4928 27.0286 27.502 28.6718 30.8014 29.333C32.2058 29.6144 36.9863 30.1399 40.224 29.3002C42.0572 28.8244 42.3523 26.7698 41.9783 25.3922C41.5895 23.9569 40.0364 23.5692 40.0947 23.1838Z" fill="#C04C07"/>
<path fill-rule="evenodd" clip-rule="evenodd" d="M40.0919 23.1841C40.1388 22.8711 40.1869 21.41 39.1084 20.2709C38.5732 20.5014 37.8344 20.6642 36.8154 20.6913C34.0798 20.7659 32.0338 20.402 31.3373 19.7285C29.8288 20.7387 29.7385 22.34 29.7305 22.9524C32.9956 22.0834 37.4821 22.4959 37.8424 22.4959C38.1043 22.4959 39.3017 22.9332 40.0931 23.2338C40.0908 23.2168 40.0897 23.201 40.0919 23.1841Z" fill="#873303"/>
<path fill-rule="evenodd" clip-rule="evenodd" d="M40.0943 23.1842C40.1217 23 40.1503 22.418 39.949 21.7376C39.8667 21.715 39.7843 21.6947 39.7009 21.6777C40.5575 24.2726 40.2144 25.2874 34.7912 25.3439C30.9691 25.3835 28.8773 25.3959 28.0745 24.5506C27.9133 24.7936 27.7897 25.0829 27.736 25.4332C27.4935 27.029 27.5015 28.6722 30.801 29.3334C32.2054 29.6148 36.9858 30.1403 40.2235 29.3006C42.0568 28.8248 42.3518 26.7702 41.9779 25.3925C41.589 23.9572 40.0359 23.5696 40.0943 23.1842Z" fill="#873303"/>
<path fill-rule="evenodd" clip-rule="evenodd" d="M39.8596 23.1496C39.8699 23.0863 39.879 22.9722 39.8768 22.8207C39.8722 22.3585 39.7658 21.5674 39.2638 20.8328C38.7606 20.0971 37.8548 19.4167 36.2411 19.1771C35.8065 19.1127 35.325 19.0788 34.7898 19.0856C29.9819 19.1387 29.9682 22.328 29.9647 23.0502C29.9647 23.1236 29.9647 23.1767 29.959 23.214C29.9316 23.4197 29.7223 23.5406 29.4307 23.709C28.9343 23.9961 28.1189 24.4674 27.9668 25.4664C27.8513 26.2236 27.7941 26.9899 28.144 27.6216C28.4963 28.2579 29.2751 28.7913 30.8442 29.1044C31.6859 29.2728 33.7537 29.5304 35.97 29.5225C37.4076 29.5169 38.9047 29.4005 40.1615 29.075L40.1753 29.0716C40.993 28.8546 41.4699 28.285 41.702 27.6148C41.9422 26.9209 41.925 26.1185 41.7535 25.4709L41.7489 25.4529C41.5282 24.6403 40.8752 24.1814 40.428 23.8673C40.0723 23.6175 39.815 23.4367 39.8585 23.1507L39.8596 23.1496ZM40.3468 22.8173C40.3491 23.0027 40.3377 23.1417 40.3251 23.2186C40.3251 23.2219 40.4829 23.3338 40.7013 23.4875C41.2045 23.8413 41.9399 24.3577 42.2029 25.3319C42.2029 25.3376 42.2087 25.3478 42.2087 25.3534C42.4019 26.079 42.418 26.9797 42.148 27.764C41.869 28.5721 41.2915 29.2581 40.2965 29.5214C40.2919 29.5214 40.285 29.5248 40.2805 29.5248C38.9824 29.8616 37.4442 29.9825 35.97 29.987C33.7193 29.9949 31.6116 29.7327 30.7527 29.561C29.0224 29.214 28.1475 28.5947 27.7312 27.8443C27.3138 27.0904 27.3732 26.2361 27.5002 25.3975C27.6854 24.1803 28.6232 23.6378 29.1928 23.3078C29.3689 23.2061 29.4901 23.1733 29.4924 23.153C29.4936 23.1428 29.4947 23.1033 29.4947 23.0468C29.4981 22.2398 29.513 18.6787 34.7852 18.62C35.3513 18.6132 35.858 18.6482 36.3109 18.7149C38.0801 18.9782 39.0876 19.7422 39.6537 20.5706C40.221 21.4001 40.3399 22.293 40.3457 22.8151L40.3468 22.8173Z" fill="#600A0A"/>
<path fill-rule="evenodd" clip-rule="evenodd" d="M25.8651 40.9336C29.1589 50.6834 21.0378 49.5815 23.2748 57.9209C23.436 56.1443 23.6453 55.5024 24.5946 54.9678C23.5733 56.8326 23.3571 62.8642 27.122 64.9482C26.7858 64.0893 26.5662 62.4392 26.7572 62.5138C27.6126 64.4453 30.9933 71.9834 37.5338 72.2297C36.4531 71.3437 35.9201 71.0521 36.4382 70.8125C39.0411 71.3606 40.855 68.7195 41.6372 67.2865C41.8076 66.9745 41.3182 68.7918 41.6715 68.663C44.0149 68.1725 45.2935 62.5523 44.788 60.7779C44.9252 60.3033 45.8642 62.3669 45.8859 62.3511C46.8191 61.656 48.5563 56.0618 45.4982 52.764C46.7082 53.1178 47.2068 54.4061 47.6723 55.1825C47.9468 52.1142 45.2512 48.9531 45.0202 47.6716C44.9515 47.2952 44.8692 43.2775 45.3758 41.8739C45.4662 41.6241 45.8367 39.6882 45.8253 39.4983C45.7727 38.6247 44.4941 40.0555 44.4369 39.8407C44.3671 39.5785 44.7251 40.477 44.5547 40.9257C44.3843 41.3744 42.6334 47.9609 40.8344 49.1803C39.0354 50.3997 39.5489 47.9496 38.5174 48.0151C37.4881 48.0807 38.1548 50.202 35.9624 50.1907C33.7701 50.1782 34.319 48.1214 33.5002 48.0208C32.6813 47.9213 32.9809 49.9579 30.76 49.5487C28.539 49.1385 26.9333 42.4593 26.8841 40.9585C26.8361 39.4576 25.5655 39.86 25.8663 40.9347L25.8651 40.9336Z" fill="#873303"/>
<path fill-rule="evenodd" clip-rule="evenodd" d="M26.0917 40.8685C27.8643 46.1225 26.3833 48.7151 24.9343 51.25C23.8432 53.16 22.7705 53.5126 23.2257 56.5425C23.2783 56.295 23.3435 56.0803 23.4247 55.8893C23.6385 55.3875 23.9588 55.0598 24.4814 54.7659C24.5946 54.7026 24.7376 54.7422 24.8016 54.8529C24.8428 54.9253 24.8417 55.01 24.8039 55.0778C24.2229 56.1402 23.9153 58.2389 24.5066 60.8416C24.8634 62.4137 25.5507 63.4997 26.7058 64.3937C26.5811 63.9088 26.4931 63.372 26.4634 62.9979C26.4519 62.8488 26.4496 62.7211 26.4576 62.6273C26.4748 62.4283 26.556 62.304 26.7104 62.2814C26.755 62.2758 26.8007 62.2803 26.8442 62.2972C26.9048 62.321 26.9505 62.3662 26.9746 62.4204C27.3989 63.3777 28.4487 65.7239 30.1974 67.8565C31.7928 69.8014 33.9749 71.5713 36.7951 71.9352C36.4028 71.6221 36.1432 71.4074 36.0494 71.2085C35.9236 70.9418 36.0071 70.7553 36.3399 70.6016C36.388 70.579 36.4394 70.5745 36.4886 70.5846C37.7009 70.8401 38.7382 70.345 39.565 69.6172C40.417 68.8691 41.0495 67.8745 41.4314 67.175C41.5241 67.0066 41.6407 66.9704 41.7814 67.045C41.9461 67.1332 41.9106 67.3592 41.8638 67.6564C41.826 67.896 41.7757 68.2091 41.7745 68.3944C42.7684 68.0734 43.5575 66.6992 44.0607 65.1757C44.5834 63.5924 44.7869 61.8655 44.5936 60.9614V60.9524C44.5834 60.9139 44.5742 60.8766 44.5639 60.8394C44.5513 60.7964 44.5525 60.7535 44.5639 60.7128C44.6257 60.498 44.7583 60.8145 44.9402 60.8665C45.2295 60.9478 45.6847 61.4406 45.934 61.9322C46.3286 61.2869 46.7895 60.7772 46.9438 58.8672C47.1223 56.6668 46.8752 54.9185 45.6184 53.2673C45.5257 53.1464 45.4285 53.03 45.3267 52.9204C45.2398 52.8255 45.2455 52.6785 45.3416 52.5926C45.4045 52.5361 45.4903 52.5192 45.5658 52.5407C46.5035 52.8142 47.0365 53.3837 47.4448 53.9861C47.3235 52.196 46.356 51.0658 45.6275 49.643C45.2112 48.8281 44.8693 48.1613 44.7892 47.7127C44.7458 47.4685 44.6943 45.762 44.7915 44.1843C44.8487 43.2429 44.9596 42.3399 45.1563 41.7974C45.1998 41.6777 45.3153 41.125 45.4171 40.5859C45.5131 40.0751 45.5966 39.5869 45.5921 39.5134C45.5898 39.4659 45.6252 39.4467 45.6115 39.4467C45.4754 39.4546 45.1998 39.6592 44.9791 39.8219C44.8944 39.8841 44.8167 39.9429 44.7458 39.9881C44.8201 40.2695 44.8921 40.7069 44.7778 41.0075C44.7595 41.0572 44.7069 41.2301 44.6302 41.4855C44.1305 43.1502 42.5923 48.2721 40.9694 49.3728C40.0556 49.9922 39.6142 49.7967 39.3123 49.3638C39.2048 49.209 39.127 49.0282 39.0492 48.8485C38.9154 48.5388 38.7828 48.2325 38.5346 48.2483C38.2704 48.2653 38.156 48.5614 38.0234 48.9072C37.7569 49.5966 37.4344 50.4318 35.9637 50.4228C34.4277 50.4148 34.0972 49.5198 33.841 48.8247C33.7301 48.523 33.6375 48.2721 33.4739 48.2517C33.323 48.2337 33.2086 48.4337 33.0668 48.6801C32.7237 49.279 32.2742 50.0634 30.7189 49.7763C29.7674 49.6 28.9451 48.4439 28.2955 47.0041C27.3028 44.8036 26.6818 41.9003 26.6521 40.9645C26.6383 40.5452 26.5285 40.3181 26.3982 40.2356C26.3604 40.2118 26.3227 40.2039 26.2872 40.2085C26.2483 40.2141 26.2083 40.2378 26.1729 40.274C26.0699 40.3814 26.0185 40.5893 26.0951 40.8673L26.0917 40.8685ZM24.5249 51.0229C25.9235 48.575 27.3531 46.0739 25.6434 41.0097L25.6388 40.9962C25.5107 40.5385 25.6228 40.1678 25.8275 39.9553C25.935 39.8434 26.0676 39.7733 26.2117 39.7507C26.3581 39.7281 26.5102 39.7564 26.6498 39.8457C26.8957 40.0016 27.0992 40.3542 27.1187 40.9521C27.1473 41.854 27.7534 44.6692 28.7221 46.8164C29.3156 48.1308 30.0315 49.1796 30.8024 49.322C32.0284 49.548 32.384 48.9276 32.6551 48.4529C32.8815 48.0574 33.0656 47.7353 33.5277 47.7918C33.9771 47.8471 34.1144 48.219 34.2802 48.6688C34.4872 49.2304 34.7537 49.9537 35.9614 49.9605C37.1062 49.9662 37.3646 49.2971 37.5785 48.7434C37.7695 48.2472 37.9342 47.8223 38.5014 47.7861C39.0824 47.7488 39.2791 48.2065 39.4781 48.6688C39.5467 48.827 39.6153 48.9863 39.6965 49.1039C39.8475 49.3209 40.1014 49.3966 40.6995 48.992C42.1851 47.985 43.6856 42.9841 44.1739 41.3578C44.2517 41.0968 44.3043 40.9205 44.3329 40.8481C44.4164 40.6289 44.326 40.2333 44.262 40.022C44.2391 39.9915 44.2208 39.9519 44.2082 39.9033C44.2002 39.8717 44.1945 39.8457 44.1922 39.8253C44.1293 39.6264 44.1465 39.4739 44.2014 39.3801C44.2323 39.1382 44.3135 39.1088 44.437 39.2885C44.5056 39.3168 44.5719 39.3891 44.6142 39.5123L44.6931 39.4535C44.9642 39.2523 45.3039 39.0015 45.5806 38.9856C45.8494 38.9698 46.0358 39.1009 46.0587 39.4897C46.0655 39.6004 45.9786 40.1327 45.8768 40.6729C45.7705 41.2358 45.6469 41.8201 45.5978 41.9568C45.4182 42.4552 45.3141 43.3141 45.2592 44.2148C45.1643 45.7586 45.2101 47.4053 45.2512 47.6358C45.321 48.0178 45.6469 48.6563 46.0461 49.4373C46.9095 51.1246 48.0989 53.0684 47.9068 55.2067C47.9011 55.279 47.8599 55.348 47.7924 55.3864C47.6804 55.4519 47.5363 55.4146 47.4711 55.3039L47.415 55.2101C47.1211 54.7162 46.802 53.7996 46.284 53.4109C47.3716 55.1513 47.5854 56.79 47.4139 58.9068C47.2298 61.1807 46.5847 62.0079 46.0987 62.4792C46.0941 62.4849 46.0884 62.4905 46.0827 62.4961C46.0712 62.5075 46.0564 62.5188 46.0415 62.5301L46.0301 62.5391C45.8997 62.6385 45.7933 62.6182 45.6961 62.4916C45.6675 62.4532 45.6195 62.3594 45.5509 62.2227C45.4422 62.0079 45.2741 61.6745 45.122 61.401C45.1861 62.4261 44.9653 63.936 44.5079 65.3238C43.9521 67.0077 43.0394 68.5312 41.842 68.8646C41.8089 68.8736 41.7745 68.8826 41.7391 68.8905C41.5401 68.9572 41.4154 68.8747 41.3457 68.6882C41.3102 68.5933 41.3034 68.4498 41.3125 68.287C40.9363 68.8521 40.4559 69.4624 39.8795 69.9698C38.9795 70.7621 37.8472 71.3045 36.508 71.0661C36.6018 71.187 36.8431 71.3803 37.1885 71.6538C37.344 71.777 37.519 71.9171 37.686 72.0538C37.7409 72.0979 37.7741 72.1669 37.7706 72.2414C37.7672 72.3691 37.6574 72.4697 37.527 72.4652C34.1738 72.3386 31.6384 70.353 29.8337 68.1537C28.5219 66.5557 27.5979 64.8469 27.0283 63.6636C27.1038 64.0795 27.2124 64.527 27.3405 64.8559C27.3703 64.9215 27.3691 64.9983 27.3314 65.0661C27.2673 65.178 27.1244 65.2187 27.0112 65.1554C25.394 64.2603 24.4848 62.8635 24.0491 60.9478C23.5516 58.7587 23.6763 57.1358 24.0708 55.7039C23.9873 55.8136 23.9176 55.9356 23.8593 56.0735C23.6797 56.4939 23.5916 57.0748 23.5139 57.9315C23.5104 58.0321 23.4418 58.1236 23.3378 58.1507C23.212 58.1835 23.0839 58.1089 23.0507 57.9846C21.9734 53.9703 23.2383 53.2832 24.5272 51.0263L24.5249 51.0229Z" fill="#600A0A"/>
<path fill-rule="evenodd" clip-rule="evenodd" d="M25.9064 40.4407C26.2106 40.5627 26.914 41.2691 26.914 41.2691C26.914 41.2691 26.6761 38.7296 27.3646 38.021C28.0531 37.3136 28.7415 36.979 28.7621 35.3064C28.7827 33.6349 28.3161 31.8244 30.0373 31.5102C31.7585 31.1949 39.1476 30.9203 40.6664 31.5882C42.184 32.2573 43.0555 33.575 42.7924 34.834C42.5294 36.093 42.6094 36.9971 43.4603 37.7057C44.2872 38.4211 44.4256 39.6326 44.493 40.7345C44.4324 41.8748 46.0015 41.1482 46.3663 40.2825C46.7312 39.4168 46.4899 30.8095 42.4688 28.4803C38.4203 26.6709 28.9314 26.2483 27.0284 29.3562C22.8666 31.4628 23.7609 39.5795 25.9076 40.4384L25.9064 40.4407Z" fill="#873303"/>
<path d="M27.1302 41.7272L26.7928 41.3882C26.5298 41.1248 26.0403 40.6773 25.8424 40.5982C24.8257 40.1913 24.0435 38.2995 23.9405 35.9985C23.8296 33.5223 24.5524 30.4528 26.9072 29.2289C27.8106 27.8173 30.369 26.972 33.9406 26.9064C37.1039 26.8488 40.4789 27.4071 42.5397 28.327L42.5557 28.3349C46.6809 30.7252 46.9062 39.442 46.5253 40.3484C46.2474 41.0084 45.3348 41.5984 44.7824 41.4741C44.6349 41.4413 44.2952 41.3023 44.3215 40.7361C44.2575 39.6816 44.1225 38.504 43.3483 37.8338C42.3327 36.9885 42.4002 35.8764 42.6255 34.8005C42.8691 33.6342 42.0354 32.3775 40.5978 31.7446C39.1362 31.1015 31.8066 31.3603 30.0694 31.6779C28.872 31.8972 28.8502 32.8442 28.912 34.3722C28.9246 34.6796 28.9371 34.9972 28.9337 35.3091C28.9154 36.7851 28.379 37.2914 27.8106 37.8271C27.7054 37.9265 27.5968 38.0294 27.4893 38.139C26.9689 38.6735 27.0227 40.5688 27.0867 41.2537L27.1313 41.7272H27.1302ZM36.0152 31.0089C38.0841 31.0089 40.0271 31.123 40.7373 31.4361C42.3487 32.1458 43.2419 33.5257 42.9606 34.8706C42.6792 36.2189 42.8497 36.9783 43.5713 37.5784C44.4508 38.339 44.596 39.6025 44.6646 40.727V40.7361V40.7451C44.6452 41.0966 44.8053 41.1327 44.8579 41.1441C45.2204 41.2254 45.9798 40.7609 46.2074 40.2196C46.5631 39.3742 46.2634 30.8891 42.3888 28.6333C38.2396 26.7844 28.9886 26.4849 27.1748 29.4459L27.1496 29.4865L27.1062 29.508C24.8623 30.6438 24.1761 33.5969 24.2836 35.9827C24.3797 38.1209 25.0888 39.9303 25.9717 40.2829C26.1649 40.3609 26.476 40.6231 26.7139 40.84C26.6761 40.0501 26.6784 38.4825 27.2411 37.9028C27.3532 37.7875 27.4653 37.6824 27.5728 37.5807C28.132 37.054 28.5735 36.6381 28.5895 35.3046C28.5929 35.0006 28.5803 34.6875 28.5677 34.3857C28.5117 33.0296 28.4545 31.6271 30.0053 31.3445C30.9831 31.166 33.5849 31.0077 36.0141 31.0077L36.0152 31.0089Z" fill="#600A0A"/>
<path fill-rule="evenodd" clip-rule="evenodd" d="M31.7183 45.6809C29.3704 46.5736 27.5474 49.0042 26.5353 48.7951C25.9818 48.681 30.8457 53.1208 36.0288 47.5714C40.8893 53.0055 46.0208 48.6776 45.4547 48.7951C44.4426 49.0042 42.6322 46.7487 40.2717 45.8831C38.077 45.0797 37.2113 46.8176 35.9956 46.7804C34.4517 46.7329 32.8425 45.2537 31.7183 45.6809Z" fill="#873303"/>
<path fill-rule="evenodd" clip-rule="evenodd" d="M26.8361 48.7912C26.7297 48.8138 26.6291 48.8172 26.5353 48.7979C25.9818 48.6838 30.8457 53.1236 36.0288 47.5741C40.4913 52.5654 45.1837 49.3234 45.4822 48.8511C44.82 48.8782 43.992 48.8861 43.0645 48.8409C40.7246 48.7279 37.4709 46.6973 37.4709 46.6973L34.7879 46.8668C34.7879 46.8668 34.3888 46.9233 32.9043 47.8261C31.628 48.6025 28.9999 49.2951 26.8361 48.7912Z" fill="#C04C07"/>
<path fill-rule="evenodd" clip-rule="evenodd" d="M31.8008 45.8993C30.6754 46.3265 29.6576 47.1322 28.801 47.8102C28.0919 48.3718 27.4869 48.8509 26.9643 48.9955C26.986 49.0035 27.0054 49.0136 27.0226 49.0272C27.2914 49.2306 27.6974 49.4792 28.2131 49.6905C29.924 50.3911 32.8243 50.6578 35.8539 47.4147C35.9419 47.3197 36.0906 47.3141 36.1867 47.4011C36.1958 47.409 36.2038 47.4181 36.2107 47.4282C39.0755 50.625 42.0262 50.3289 43.7725 49.6329C44.286 49.4283 44.6931 49.191 44.9642 48.9978L44.9756 48.991C44.4621 48.8441 43.8651 48.4034 43.1698 47.8893C42.3201 47.261 41.3114 46.5163 40.1872 46.1039C38.9189 45.6383 38.1172 46.1016 37.4172 46.5061C36.9415 46.7807 36.5092 47.0305 35.9842 47.0147C35.2386 46.9921 34.5032 46.6666 33.8079 46.3581C33.0393 46.018 32.3223 45.7005 31.7985 45.8993H31.8008ZM28.5059 47.4486C29.3888 46.7502 30.4364 45.9208 31.6327 45.4665C32.3383 45.1987 33.14 45.5536 34 45.9344C34.6553 46.2248 35.3472 46.5299 36.0003 46.5502C36.3868 46.5626 36.7654 46.3434 37.1805 46.1039C37.9696 45.6485 38.8743 45.1253 40.3518 45.6666C41.5378 46.1016 42.5762 46.8689 43.4511 47.5152C44.3043 48.1458 44.9916 48.6532 45.4045 48.5684C45.4983 48.5492 45.5783 48.5684 45.6412 48.6204C45.7899 48.7436 45.6721 49.0645 45.2375 49.3741C44.9413 49.5854 44.4987 49.8442 43.9463 50.0645C42.1039 50.799 39.0195 51.1256 36.0231 47.9153C32.8712 51.1606 29.8394 50.8612 28.0313 50.121C27.4732 49.8928 27.0306 49.6204 26.7355 49.3978C26.3158 49.0792 26.1992 48.7526 26.3353 48.6283C26.4005 48.5707 26.4817 48.5492 26.58 48.5695C26.9837 48.6532 27.663 48.1141 28.5036 47.4486H28.5059Z" fill="#600A0A"/>
<path fill-rule="evenodd" clip-rule="evenodd" d="M33.4681 44.5462C33.5184 44.4287 33.6568 44.3722 33.7758 44.423C33.8947 44.4728 33.9519 44.6095 33.9016 44.727C33.9016 44.7293 33.5676 45.4864 34.2652 45.622C34.8451 45.735 35.187 46.0254 35.4706 46.2661C35.6639 46.4299 35.8217 46.5644 35.9796 46.5497C36.1088 46.5373 36.2243 46.6299 36.2369 46.7587C36.2495 46.8864 36.1545 47.0006 36.0253 47.013C35.6685 47.048 35.4421 46.8559 35.1653 46.6209C34.924 46.4164 34.6335 46.1689 34.176 46.0796C32.9043 45.8321 33.4681 44.5507 33.4693 44.5473L33.4681 44.5462Z" fill="#600A0A"/>
<path fill-rule="evenodd" clip-rule="evenodd" d="M38.1 44.7285C38.0497 44.611 38.1057 44.4742 38.2258 44.4245C38.3447 44.3748 38.482 44.4302 38.5334 44.5477C38.5357 44.5511 39.0984 45.8325 37.8278 46.08C37.3692 46.1692 37.0799 46.4156 36.8385 46.6212C36.5618 46.8563 36.3342 47.0495 35.9774 47.0133C35.8481 47.0009 35.7532 46.8868 35.7669 46.7591C35.7795 46.6314 35.895 46.5376 36.0243 46.55C36.1821 46.5659 36.3399 46.4314 36.5332 46.2664C36.818 46.0246 37.1588 45.7353 37.7386 45.6223C38.4351 45.4867 38.1034 44.7296 38.1023 44.7273L38.1 44.7285Z" fill="#600A0A"/>
<path fill-rule="evenodd" clip-rule="evenodd" d="M37.9609 40.7495C37.9609 40.7495 38.9959 39.806 39.53 39.8512C40.0641 39.8964 42.237 40.3314 42.237 40.3314C40.5021 42.0219 38.7535 40.5981 37.9609 40.7507V40.7495Z" fill="white"/>
<path fill-rule="evenodd" clip-rule="evenodd" d="M37.8177 40.5662C37.9481 40.4498 38.9545 39.5695 39.5503 39.6192C40.0913 39.6644 42.2768 40.1029 42.2836 40.104C42.4106 40.1288 42.4929 40.252 42.4678 40.3774C42.4575 40.4249 42.4346 40.4656 42.4026 40.4972C41.0794 41.7866 39.771 41.4069 38.8184 41.1289C38.4753 41.0295 38.1837 40.9447 38.0064 40.9786C37.8783 41.0023 37.7559 40.9198 37.7308 40.7933C37.7136 40.704 37.7502 40.6181 37.8177 40.5662ZM39.5114 40.0836C39.2678 40.0633 38.8561 40.3322 38.5439 40.5707C38.672 40.6012 38.8081 40.6407 38.951 40.6825C39.7036 40.9018 40.7077 41.1922 41.7175 40.4656C41.0519 40.3356 39.882 40.1142 39.5114 40.0836Z" fill="#600A0A"/>
<path fill-rule="evenodd" clip-rule="evenodd" d="M37.4354 37.5578C37.4354 37.5578 37.3851 38.3555 37.8094 38.3363C38.2349 38.3171 41.0791 37.6527 41.8888 37.89C42.6997 38.1273 43.1548 38.6121 43.1548 38.6121C43.1548 38.6121 42.6482 37.577 41.8133 37.3532C40.9785 37.1306 37.4252 37.2911 37.4354 37.5578Z" fill="#873303"/>
<path fill-rule="evenodd" clip-rule="evenodd" d="M37.821 38.5684C37.1325 38.5989 37.2011 37.5491 37.2011 37.5457V37.531C37.2034 37.5163 37.2057 37.5028 37.2103 37.4881C37.2572 37.3152 37.5842 37.2011 38.0577 37.1389C38.4443 37.0892 38.9566 37.0519 39.4827 37.0316C40.4434 36.9954 41.4612 37.018 41.8752 37.1276C42.7501 37.3615 43.2876 38.3559 43.3585 38.4927C43.4123 38.5853 43.3974 38.7051 43.3151 38.7808C43.2201 38.8678 43.0715 38.8633 42.9834 38.7695C42.9823 38.7684 42.5717 38.3322 41.8238 38.113C41.2942 37.957 39.6897 38.2475 38.681 38.4305C38.2716 38.5051 37.9559 38.5616 37.821 38.5684Z" fill="#600A0A"/>
<path fill-rule="evenodd" clip-rule="evenodd" d="M33.7527 40.7495C33.7527 40.7495 32.7177 39.806 32.1836 39.8512C31.6495 39.8964 29.4766 40.3314 29.4766 40.3314C31.2126 42.0219 32.9613 40.5981 33.7527 40.7507V40.7495Z" fill="white"/>
<path fill-rule="evenodd" clip-rule="evenodd" d="M33.1639 40.5707C32.8517 40.3322 32.44 40.0633 32.1964 40.0836C31.8258 40.1142 30.6559 40.3356 29.9903 40.4656C31.0001 41.1933 32.0042 40.9018 32.7556 40.6825C32.8997 40.6407 33.0347 40.6012 33.1628 40.5707H33.1639ZM32.1575 39.6192C32.7522 39.5695 33.7597 40.4498 33.8901 40.5662C33.9576 40.6181 33.9942 40.7051 33.977 40.7933C33.953 40.9187 33.8295 41.0023 33.7014 40.9786C33.523 40.9447 33.2325 41.0295 32.8883 41.1289C31.9356 41.4057 30.6273 41.7866 29.3041 40.4972C29.2721 40.4656 29.248 40.4249 29.2389 40.3774C29.2137 40.252 29.2961 40.1288 29.423 40.104C29.4287 40.1029 31.6154 39.6644 32.1563 39.6192H32.1575Z" fill="#600A0A"/>
<path fill-rule="evenodd" clip-rule="evenodd" d="M34.278 37.5578C34.278 37.5578 34.3295 38.3555 33.904 38.3363C33.4786 38.3171 30.6343 37.6527 29.8246 37.89C29.0149 38.1273 28.5586 38.6121 28.5586 38.6121C28.5586 38.6121 29.0641 37.577 29.9001 37.3532C30.735 37.1306 34.2883 37.2911 34.278 37.5578Z" fill="#873303"/>
<path fill-rule="evenodd" clip-rule="evenodd" d="M34.5105 37.544C34.5105 37.544 34.5791 38.5971 33.8907 38.5666C33.7557 38.561 33.4401 38.5033 33.0306 38.4288C32.0219 38.2457 30.4174 37.9553 29.8879 38.1112C29.1399 38.3305 28.7294 38.7666 28.7282 38.7678C28.6402 38.8616 28.4903 38.8672 28.3954 38.7791C28.3131 38.7034 28.2982 38.5824 28.352 38.4909C28.4217 38.3542 28.9604 37.3598 29.8353 37.1259C30.2493 37.0151 31.2683 36.9937 32.2278 37.0298C32.755 37.0502 33.2662 37.0874 33.6528 37.1372C34.1263 37.1982 34.4533 37.3123 34.5014 37.4863C34.5048 37.4999 34.5071 37.5146 34.5082 37.5281V37.5428H34.5094L34.5105 37.544Z" fill="#600A0A"/>
<path fill-rule="evenodd" clip-rule="evenodd" d="M29.8111 23.3988C29.6899 23.4451 29.5538 23.3852 29.5081 23.2654C29.4612 23.1456 29.5218 23.0112 29.643 22.966C29.6579 22.9603 34.7265 20.9964 40.1749 23.0078C40.2973 23.053 40.3579 23.1863 40.3133 23.3061C40.2675 23.4259 40.1326 23.4869 40.0113 23.4428C34.7311 21.4936 29.826 23.3942 29.8111 23.3988Z" fill="#600A0A"/>
<path fill-rule="evenodd" clip-rule="evenodd" d="M30.8879 40.0747C30.8844 40.1235 30.9096 40.161 30.9519 40.1871C31.0137 40.2257 31.0891 40.1496 31.0514 40.0929C31.032 40.0634 31.0068 40.0441 30.9748 40.0271C30.9348 40.0055 30.8901 40.0328 30.8867 40.0747H30.8879Z" fill="#600A0A"/>
<path fill-rule="evenodd" clip-rule="evenodd" d="M40.6444 37.7563C40.6593 37.7322 40.6799 37.7128 40.6833 37.6842C40.6856 37.6682 40.6696 37.6579 40.6559 37.6682C40.6341 37.6865 40.6215 37.7117 40.6078 37.7357C40.5964 37.7585 40.6296 37.7768 40.6444 37.7551V37.7563Z" fill="#600A0A"/>
<path fill-rule="evenodd" clip-rule="evenodd" d="M40.8752 37.8867C40.906 37.8867 40.906 37.8398 40.8752 37.8398C40.8443 37.8398 40.8431 37.8867 40.8752 37.8867Z" fill="#600A0A"/>
<path fill-rule="evenodd" clip-rule="evenodd" d="M29.7624 37.6729C29.7967 37.7004 29.8344 37.7198 29.879 37.7233C29.8973 37.7244 29.9008 37.7015 29.8882 37.6935C29.8573 37.6741 29.8276 37.6615 29.8013 37.6363C29.7772 37.6123 29.7361 37.6524 29.7624 37.6729Z" fill="#600A0A"/>
<path fill-rule="evenodd" clip-rule="evenodd" d="M36.2031 46.7645C36.2043 46.7851 36.2066 46.8 36.2271 46.8114C36.2363 46.816 36.2477 46.816 36.258 46.8114C36.2786 46.8 36.2809 46.7851 36.282 46.7645C36.2855 46.7165 36.2008 46.7165 36.2043 46.7645H36.2031Z" fill="#600A0A"/>
<path fill-rule="evenodd" clip-rule="evenodd" d="M36.2606 46.78C36.1863 46.7925 36.1165 46.8084 36.0456 46.8311C35.993 46.8481 35.937 46.8595 35.9153 46.9094C35.9107 46.9207 35.9198 46.9332 35.9313 46.9366C35.9862 46.9525 36.0388 46.9151 36.0914 46.8992C36.1543 46.8788 36.2172 46.8629 36.2801 46.8436C36.3235 46.83 36.3053 46.7721 36.2618 46.78H36.2606Z" fill="#600A0A"/>
<path fill-rule="evenodd" clip-rule="evenodd" d="M25.1253 43.7162C24.9858 43.1647 24.4597 42.3523 24.9115 41.8291C25.2694 41.4132 25.8115 41.8189 26.0048 42.141C26.1215 42.3364 26.1535 42.6065 26.3868 42.7048C26.4268 42.7218 26.4703 42.7082 26.484 42.6675C26.5892 42.3568 26.261 41.9217 26.0608 41.6924C25.7749 41.3658 25.3083 41.3217 24.9229 41.4923C24.1475 41.8347 24.693 43.306 25.1093 43.723C25.1162 43.7297 25.1265 43.723 25.1242 43.7151L25.1253 43.7162Z" fill="#600A0A"/>
<path fill-rule="evenodd" clip-rule="evenodd" d="M46.6994 43.7031C47.11 43.1392 47.4759 41.8013 46.5118 41.5131C45.9332 41.3413 45.0846 42.0985 45.1223 42.6228C45.1269 42.6861 45.2127 42.7313 45.2641 42.6781C45.5866 42.3482 45.7982 41.7346 46.3609 41.7018C46.8138 41.6758 46.935 42.3075 46.9464 42.6047C46.9613 42.9889 46.6674 43.3155 46.6479 43.6895C46.6468 43.7166 46.6845 43.7223 46.6983 43.7019L46.6994 43.7031Z" fill="#600A0A"/>
<path fill-rule="evenodd" clip-rule="evenodd" d="M30.0305 40.365C30.0305 40.365 30.0347 40.3594 30.0305 40.3594C30.0263 40.3594 30.0263 40.365 30.0305 40.365Z" fill="#600A0A"/>
<path fill-rule="evenodd" clip-rule="evenodd" d="M31.1711 23.0622C31.1711 23.0622 31.1753 23.0566 31.1711 23.0566C31.1669 23.0566 31.1669 23.0622 31.1711 23.0622Z" fill="#600A0A"/>
<path fill-rule="evenodd" clip-rule="evenodd" d="M39.1857 22.9091C39.1937 22.9091 39.1937 22.8965 39.1857 22.8965C39.1777 22.8965 39.1777 22.9091 39.1857 22.9091Z" fill="#600A0A"/>
<path fill-rule="evenodd" clip-rule="evenodd" d="M35.5741 22.466C35.5844 22.466 35.5844 22.4512 35.5741 22.4512C35.5638 22.4512 35.5638 22.466 35.5741 22.466Z" fill="#600A0A"/>
<path d="M25.7327 31.1652C25.5314 31.2623 25.3622 31.4157 25.2467 31.6042C25.2272 31.6358 25.2764 31.664 25.2958 31.6324C25.4068 31.4518 25.5692 31.3063 25.7624 31.2138C25.7956 31.198 25.767 31.1494 25.7338 31.1652H25.7327Z" fill="#873303"/>
<path fill-rule="evenodd" clip-rule="evenodd" d="M46.4023 39.7933C46.4023 39.7933 46.4035 39.8047 46.4046 39.8104C46.4058 39.8173 46.4184 39.8173 46.4195 39.8104C46.4206 39.8047 46.4218 39.799 46.4229 39.7933C46.4252 39.7772 46.4001 39.7772 46.4035 39.7933H46.4023Z" fill="#600A0A"/>
<path fill-rule="evenodd" clip-rule="evenodd" d="M31.3606 50.5669C31.3675 50.5669 31.3675 50.5566 31.3606 50.5566C31.3538 50.5566 31.3538 50.5669 31.3606 50.5669Z" fill="#600A0A"/>
<path fill-rule="evenodd" clip-rule="evenodd" d="M35.8074 32.7592C35.6965 33.8542 35.6381 34.9424 35.629 36.086C35.6267 36.3018 35.6713 36.5764 35.7411 36.6691C35.8326 36.7911 35.8795 36.7945 35.9709 36.6691C36.0384 36.5764 36.0865 36.3018 36.083 36.086C36.0624 34.93 35.9652 33.8599 35.8509 32.7592C35.844 32.6948 35.8143 32.6948 35.8074 32.7592Z" fill="#C01E07"/>
<path fill-rule="evenodd" clip-rule="evenodd" d="M34.8398 40.0729C34.7849 40.5927 34.7997 41.1159 34.7631 41.6369C34.7254 42.1668 34.6179 42.6889 34.6568 43.2211C34.6636 43.3127 34.7963 43.3319 34.8272 43.2426C35.1508 42.3126 35.2492 40.9939 34.8672 40.0696C34.8615 40.056 34.8421 40.0583 34.8398 40.0729Z" fill="#600A0A"/>
<path d="M35.8299 37.3916C35.393 37.3916 35.0351 37.2323 34.7652 36.9159C33.7633 35.7418 34.294 32.8196 34.318 32.6953L34.4301 32.7157C34.4243 32.745 33.8845 35.709 34.8532 36.8424C35.1048 37.1362 35.4433 37.2831 35.8528 37.2775V37.3905C35.8459 37.3905 35.8379 37.3905 35.8299 37.3905V37.3916Z" fill="white"/>
<path d="M35.9225 37.3924C35.8985 37.3924 35.8756 37.3924 35.8516 37.3913L35.8561 37.2783C36.2827 37.2941 36.6292 37.1529 36.8877 36.8579C37.8713 35.7358 37.328 32.747 37.3223 32.7176L37.4344 32.6973C37.4573 32.8216 37.9936 35.7686 36.9735 36.9325C36.7059 37.2388 36.3513 37.3936 35.9213 37.3936L35.9225 37.3924Z" fill="white"/>
<path d="M31.6162 41.1038C31.9263 41.1038 32.1778 40.8554 32.1778 40.549C32.1778 40.2425 31.9263 39.9941 31.6162 39.9941C31.3061 39.9941 31.0547 40.2425 31.0547 40.549C31.0547 40.8554 31.3061 41.1038 31.6162 41.1038Z" fill="#600A0A"/>
<path d="M39.9326 41.0413C40.2428 41.0413 40.4942 40.7929 40.4942 40.4865C40.4942 40.18 40.2428 39.9316 39.9326 39.9316C39.6225 39.9316 39.3711 40.18 39.3711 40.4865C39.3711 40.7929 39.6225 41.0413 39.9326 41.0413Z" fill="#600A0A"/>
<path d="M31.357 40.8374C31.4442 40.8374 31.5149 40.7675 31.5149 40.6814C31.5149 40.5952 31.4442 40.5254 31.357 40.5254C31.2699 40.5254 31.1992 40.5952 31.1992 40.6814C31.1992 40.7675 31.2699 40.8374 31.357 40.8374Z" fill="white"/>
<path d="M39.6813 40.7885C39.7684 40.7885 39.8391 40.7187 39.8391 40.6325C39.8391 40.5464 39.7684 40.4766 39.6813 40.4766C39.5941 40.4766 39.5234 40.5464 39.5234 40.6325C39.5234 40.7187 39.5941 40.7885 39.6813 40.7885Z" fill="white"/>
</g>
<path d="M35.3368 64.9773C27.879 64.9773 20.8684 62.1078 15.5951 56.8967C10.3217 51.6856 7.41797 44.7566 7.41797 37.3881C7.41797 30.0195 10.3217 23.0905 15.5951 17.8794C20.8684 12.6683 27.8802 9.79883 35.3368 9.79883C42.7934 9.79883 49.8051 12.6683 55.0785 17.8794C60.3518 23.0905 63.2556 30.0195 63.2556 37.3881C63.2556 44.7566 60.3518 51.6856 55.0785 56.8967C49.8051 62.1078 42.7934 64.9773 35.3368 64.9773ZM35.3368 9.91071C20.005 9.91071 7.53119 22.2373 7.53119 37.3881C7.53119 52.5389 20.005 64.8654 35.3368 64.8654C50.6685 64.8654 63.1423 52.5389 63.1423 37.3881C63.1423 22.2373 50.6685 9.91071 35.3368 9.91071Z" fill="#C07A07"/>
<path d="M35.8469 13.1563C36.4418 13.1563 36.9242 12.6797 36.9242 12.0918C36.9242 11.5039 36.4418 11.0273 35.8469 11.0273C35.2519 11.0273 34.7695 11.5039 34.7695 12.0918C34.7695 12.6797 35.2519 13.1563 35.8469 13.1563Z" fill="#C04C07"/>
<path d="M17.1757 57.192C18.017 57.192 18.699 56.5181 18.699 55.6868C18.699 54.8555 18.017 54.1816 17.1757 54.1816C16.3344 54.1816 15.6523 54.8555 15.6523 55.6868C15.6523 56.5181 16.3344 57.192 17.1757 57.192Z" fill="#C04C07"/>
<path d="M10.4804 25.6731C10.9011 25.6731 11.2421 25.3362 11.2421 24.9206C11.2421 24.5049 10.9011 24.168 10.4804 24.168C10.0598 24.168 9.71875 24.5049 9.71875 24.9206C9.71875 25.3362 10.0598 25.6731 10.4804 25.6731Z" fill="#C04C07"/>
<path d="M55.1379 58.0308C55.7923 58.0308 56.3228 57.5067 56.3228 56.8601C56.3228 56.2136 55.7923 55.6895 55.1379 55.6895C54.4836 55.6895 53.9531 56.2136 53.9531 56.8601C53.9531 57.5067 54.4836 58.0308 55.1379 58.0308Z" fill="#C04C07"/>
<path d="M51.2017 16.2828C51.3217 16.2828 51.419 15.5042 51.419 14.5438C51.419 13.5833 51.3217 12.8047 51.2017 12.8047C51.0817 12.8047 50.9844 13.5833 50.9844 14.5438C50.9844 15.5042 51.0817 16.2828 51.2017 16.2828Z" fill="#C04C07"/>
<path d="M51.2015 14.7569C52.1736 14.7569 52.9616 14.6609 52.9616 14.5425C52.9616 14.4241 52.1736 14.3281 51.2015 14.3281C50.2294 14.3281 49.4414 14.4241 49.4414 14.5425C49.4414 14.6609 50.2294 14.7569 51.2015 14.7569Z" fill="#C04C07"/>
<path d="M33.6105 66.8609C33.7773 66.8609 33.9124 65.9922 33.9124 64.9207C33.9124 63.8491 33.7773 62.9805 33.6105 62.9805C33.4438 62.9805 33.3086 63.8491 33.3086 64.9207C33.3086 65.9922 33.4438 66.8609 33.6105 66.8609Z" fill="#C04C07"/>
<path d="M33.6108 65.1601C34.96 65.1601 36.0536 65.053 36.0536 64.9209C36.0536 64.7887 34.96 64.6816 33.6108 64.6816C32.2617 64.6816 31.168 64.7887 31.168 64.9209C31.168 65.053 32.2617 65.1601 33.6108 65.1601Z" fill="#C04C07"/>
<path d="M2.51603 39.8724C3.9056 39.8724 5.03206 38.7594 5.03206 37.3864C5.03206 36.0134 3.9056 34.9004 2.51603 34.9004C1.12647 34.9004 0 36.0134 0 37.3864C0 38.7594 1.12647 39.8724 2.51603 39.8724Z" fill="#C04C07"/>
<path d="M3.52857 30.1772C4.68128 30.1772 5.61573 29.2539 5.61573 28.115C5.61573 26.976 4.68128 26.0527 3.52857 26.0527C2.37586 26.0527 1.44141 26.976 1.44141 28.115C1.44141 29.2539 2.37586 30.1772 3.52857 30.1772Z" fill="#C04C07"/>
<path d="M6.62435 22.533C7.5042 22.533 8.21746 21.8282 8.21746 20.9589C8.21746 20.0895 7.5042 19.3848 6.62435 19.3848C5.74451 19.3848 5.03125 20.0895 5.03125 20.9589C5.03125 21.8282 5.74451 22.533 6.62435 22.533Z" fill="#C04C07"/>
<path d="M14.5041 66.5977C14.3966 66.4127 14.3474 66.2321 14.3565 66.0561C14.5784 65.9478 14.7648 65.9038 14.9158 65.9252C15.0016 66.0674 15.0462 66.2445 15.0507 66.4567C14.8883 66.5593 14.7065 66.6067 14.5052 66.5977H14.5041Z" fill="#531D01"/>
<path d="M17.1057 68.2584C16.9913 68.0767 16.9353 67.8984 16.9376 67.7224C17.1549 67.6062 17.3401 67.5554 17.4911 67.5712C17.5826 67.71 17.6329 67.8849 17.6455 68.0981C17.4877 68.2064 17.307 68.2606 17.1057 68.2584Z" fill="#531D01"/>
<path d="M38.2271 68.6179C38.0258 68.698 37.8383 68.7217 37.6633 68.6889C37.5844 68.4576 37.5661 68.2692 37.6073 68.1248C37.7617 68.0604 37.9446 68.0401 38.1596 68.065C38.2408 68.2376 38.2637 68.4215 38.2271 68.6179Z" fill="#531D01"/>
<path d="M13.8173 11.3841L12.8269 12.2079L13.1311 11.9254L15.9136 14.8136L15.8084 15.0329L15.1805 15.1798L14.1524 14.1356L13.2912 14.9628L13.7624 15.4419L13.6148 15.8216C13.3895 15.8928 13.1059 15.9233 12.7617 15.9131C12.4174 15.903 12.1395 15.8487 11.9268 15.7482L11.8605 15.3854L12.247 15.0137L11.3035 14.0656C11.1263 13.8995 10.9547 13.8226 10.7877 13.8373C10.678 13.93 10.6173 14.0373 10.6048 14.1616C10.5933 14.2859 10.6288 14.3899 10.7123 14.4746C10.8529 14.617 11.0554 14.6566 11.3207 14.5933L11.331 14.9707C10.7294 15.0928 10.3063 15.0306 10.0615 14.7831C9.91399 14.634 9.84881 14.4566 9.86596 14.2532C9.88197 14.0486 9.97118 13.869 10.1324 13.7142C10.3726 13.4825 10.6974 13.3774 11.1057 13.3978C11.514 13.4181 11.8456 13.5514 12.0995 13.7955L12.7868 14.4939L13.6686 13.6464L12.5307 12.4904L12.0824 12.922L11.5906 12.8203L11.5174 12.6135L13.3278 10.9863L13.592 11.2055L13.815 11.3863L13.8173 11.3841Z" fill="#531D01"/>
<path d="M15.5466 10.0352L14.6065 10.7753L14.8684 10.5064L17.3879 13.6964L17.2598 13.9032L16.6194 13.9823L14.2829 11.0239L13.8174 11.3822L13.3394 11.2273L13.2891 11.0138L15.0491 9.625L15.4837 9.85326L15.5455 10.0341L15.5466 10.0352Z" fill="#531D01"/>
<path d="M18.3703 8.16851L17.0391 9.06121L17.3307 8.81487L18.041 9.88159C18.1519 10.0477 18.2011 10.2409 18.1908 10.4613C18.1793 10.6816 18.1302 10.9415 18.0432 11.2421L20.0389 11.3562L20.1521 11.5122L19.9772 12.1789L16.7875 11.5144L16.6663 10.9969L17.4417 10.4929C17.4257 10.4183 17.3925 10.3415 17.3387 10.2613L16.6903 9.28834L15.5432 10.0353L15.08 9.84317L15.0469 9.62621L17.8808 7.74023L18.1942 8.08037L18.3703 8.16964V8.16851Z" fill="#531D01"/>
<path d="M22.3099 6.23036L21.2623 6.75016L21.5962 6.58405L23.4078 10.1537L23.2408 10.3323L22.5969 10.2848L21.6134 8.34686L20.8735 8.71298C20.273 9.01017 20.0775 9.36499 20.2856 9.77518C20.4515 10.1018 20.965 10.4057 21.8273 10.6882L21.6477 11.1583C21.0702 10.9832 20.5967 10.7899 20.2273 10.5786C19.8568 10.3673 19.6006 10.1198 19.4565 9.8362C19.3101 9.54805 19.2987 9.25425 19.4199 8.95593C19.5422 8.65648 19.8213 8.39884 20.2582 8.18301L21.2737 7.68016L20.8929 6.93097L18.3277 8.20222L17.8897 7.95814L17.8828 7.73892L21.8696 5.76367L22.3042 6.01792L22.3076 6.23036H22.3099Z" fill="#531D01"/>
<path d="M32.6121 3.78476L31.4684 3.96443L31.8218 3.81979L32.5629 7.82678L32.3525 7.95108L31.7486 7.72734L31.0659 4.03562L29.5162 4.31586L29.8776 4.21416L30.6107 8.17821L30.4003 8.30251L29.7964 8.07877L29.5117 6.54083C29.419 6.59168 29.3298 6.62445 29.2452 6.63914C29.0942 6.66626 28.9227 6.65835 28.7294 6.61654C28.814 6.76005 28.8712 6.90696 28.8987 7.05612C28.9593 7.38269 28.8964 7.6731 28.7122 7.92735C28.5281 8.18273 28.2559 8.34206 27.898 8.40647C27.54 8.47088 27.1535 8.40534 26.7383 8.20759C26.3243 8.00984 25.892 7.60304 25.4414 6.98606L25.7994 6.66852C26.107 7.09454 26.4032 7.40077 26.6857 7.58835C26.9693 7.77593 27.2587 7.8426 27.556 7.78836C27.8008 7.74429 27.9815 7.64033 28.0981 7.47761C28.2148 7.31489 28.2536 7.13522 28.2182 6.93973C28.1919 6.79508 28.1244 6.66626 28.0192 6.55326C27.9128 6.44026 27.7745 6.37246 27.6052 6.34986L26.943 6.88096L26.3918 6.27189C26.5713 6.05606 26.8126 5.91142 27.1157 5.83797C27.3033 5.69333 27.4359 5.53965 27.5126 5.3758C27.5892 5.21308 27.6155 5.06392 27.5903 4.92832C27.5617 4.77464 27.4782 4.66503 27.3387 4.59836C27.1603 4.61079 26.9625 4.69554 26.7452 4.85035C26.5279 5.00516 26.3323 5.19726 26.1608 5.42552L25.6232 4.93058C25.9435 4.47293 26.322 4.20512 26.7612 4.12602C27.0917 4.06613 27.4062 4.1328 27.7047 4.32377C28.0032 4.51587 28.1793 4.75317 28.2319 5.03793C28.2925 5.3645 28.1953 5.67299 27.9426 5.96453L28.1347 6.05267C28.3451 6.13516 28.5659 6.1555 28.7969 6.11369C29.0473 6.06849 29.2395 5.96679 29.3767 5.80633L29.1148 4.38705L28.4995 4.49779L28.1484 4.14184L28.2045 3.9294L32.3365 3.18359L32.6819 3.54745L32.6144 3.78137L32.6121 3.78476Z" fill="#531D01"/>
<path d="M37.2712 3.72799L35.8222 3.72347L36.195 3.6794L36.2751 7.71012L36.0464 7.79939L35.486 7.48299L35.4665 6.49537C35.2824 6.62193 35.0697 6.68747 34.8307 6.69199C34.3938 6.6999 33.9798 6.53605 33.5875 6.19705C33.1952 5.85917 32.9848 5.47949 32.9574 5.058L32.9322 3.77884L32.5148 3.78675L32.2266 3.37995L32.3364 3.18559L37.1054 3.0918L37.0848 3.50538L37.2723 3.72686L37.2712 3.72799ZM34.4864 6.02303C34.7552 6.01738 34.9828 5.93037 35.1715 5.76086L33.7259 3.98337L33.7602 5.69532C33.9032 5.92019 34.1456 6.02868 34.4864 6.02303ZM35.4116 3.73025L34.045 3.75624L35.4013 5.41508L35.4425 5.32242L35.4105 3.73025H35.4116Z" fill="#531D01"/>
<path d="M36.5061 1.12916C36.8458 1.14611 37.1282 1.31561 37.3524 1.63992L37.1991 1.9665C37.023 1.83429 36.8515 1.76422 36.6834 1.75631C36.4821 1.74614 36.3151 1.80038 36.1824 1.91678C36.0498 2.03317 35.9777 2.19589 35.9674 2.40494C35.9594 2.56088 35.988 2.70665 36.0532 2.84338C36.1184 2.97898 36.2259 3.14622 36.3734 3.34284L36.2293 3.49991L35.892 3.48296L35.8474 3.37448L35.1337 2.22301C34.9198 1.89531 34.674 1.72354 34.3961 1.70998C34.1708 1.69868 33.8951 1.78795 33.5692 1.97554L33.1758 1.20261C33.5074 0.991303 33.8254 0.892992 34.1262 0.907682C34.6294 0.932542 35.0914 1.29188 35.5123 1.98571C35.5397 1.71676 35.6495 1.50432 35.8393 1.34725C36.0292 1.19018 36.2522 1.11786 36.5049 1.13029L36.5061 1.12916Z" fill="#531D01"/>
<path d="M41.7352 4.25405L40.571 4.11619L40.9495 4.10037L40.4635 8.12545L40.2244 8.18308L39.7132 7.79322L39.8047 7.03838C39.5771 7.15929 39.3232 7.20336 39.043 7.17059C38.6473 7.12426 38.2745 6.92651 37.9234 6.57734C37.5723 6.22817 37.323 5.80103 37.1766 5.29705L37.3184 5.0202C37.7336 5.01681 38.0321 4.98291 38.2105 4.9185C38.39 4.85409 38.4895 4.73883 38.509 4.57385C38.5353 4.35801 38.3752 4.10489 38.0286 3.81561L37.1858 3.71617L36.957 3.27434L37.0737 3.08789L41.6231 3.62464L41.8519 4.07438L41.7363 4.25405H41.7352ZM40.1638 4.06873L38.6645 3.89132C39.0568 4.24275 39.2306 4.59758 39.1883 4.95466C39.13 5.43491 38.7411 5.69933 38.0206 5.74679C38.0744 6.02477 38.1647 6.24851 38.2951 6.41575C38.3912 6.4553 38.5021 6.48355 38.6256 6.49824C38.8681 6.52649 39.1128 6.49598 39.3576 6.40558C39.6023 6.31518 39.7956 6.16376 39.9374 5.95132L40.165 4.0676L40.1638 4.06873Z" fill="#531D01"/>
<path d="M49.2146 6.63955L47.9875 6.12201L48.374 6.148L47.0074 10.0137L46.7615 10.0194L46.3475 9.5301L46.8793 8.02719L44.815 7.31529L44.5291 7.43507L45.6567 9.07358L45.5995 9.25664L44.9568 9.52445L43.5547 6.61695L43.8978 6.20789L44.767 6.50734C44.8173 6.44971 44.8596 6.37626 44.8905 6.28699L45.2793 5.18637L43.9824 4.73888L43.8555 4.25863L44.0099 4.10156L49.3793 6.03613L49.2478 6.35366L49.2158 6.64068L49.2146 6.63955ZM47.6009 5.98867L45.6727 5.3231L46.0478 5.4022L45.6213 6.60791C45.5881 6.7017 45.5366 6.78984 45.4669 6.8712L47.0897 7.43168L47.5998 5.98867H47.6009Z" fill="#531D01"/>
<path d="M47.201 4.71847C47.1243 4.65067 47.042 4.55123 46.9539 4.42241C46.867 4.29246 46.8087 4.17494 46.7812 4.06985C47.0271 3.84497 47.2536 3.71502 47.4606 3.67773C47.6424 3.83367 47.7739 4.04725 47.8528 4.31732C47.671 4.51959 47.4537 4.65293 47.201 4.71847Z" fill="#531D01"/>
<path d="M50.2647 11.1586L50.1824 11.3326L49.5088 11.5111L48.5195 8.44205L48.9152 8.08271L49.7409 8.49968C49.7993 8.44883 49.8507 8.38216 49.8942 8.29741L50.4317 7.26007L49.208 6.64195L49.1485 6.14927L49.3235 6.01367L52.321 7.52788L52.3713 8.02395L52.1998 8.15277L50.8034 7.44765L51.1579 7.59116L50.577 8.71438C50.5312 8.80252 50.4683 8.88275 50.3883 8.95394L51.9505 9.74381L51.7229 10.3393L49.6803 9.30763L49.3807 9.38786L50.2647 11.1597V11.1586Z" fill="#531D01"/>
<path d="M56.3383 10.9618L55.2541 10.1403L55.6097 10.2804L53.303 13.6569L53.064 13.6004L52.7895 13.0229L53.2241 12.3867C52.9599 12.3935 52.7037 12.3144 52.4578 12.1494C52.1273 11.9291 51.8872 11.5844 51.7362 11.1155C51.5852 10.6465 51.5612 10.1539 51.6642 9.63971L51.918 9.45778C52.308 9.6657 52.6591 9.77079 52.9713 9.76966C53.2836 9.76966 53.5134 9.66118 53.661 9.44535C53.7868 9.26116 53.8188 9.06567 53.7582 8.85888L53.6587 8.77526C53.5558 8.70633 53.4448 8.6826 53.3259 8.70294C53.2069 8.72441 53.1143 8.78317 53.048 8.88148C52.9542 9.01934 52.9542 9.2137 53.048 9.46456L52.6889 9.53349C52.4567 8.98431 52.4304 8.57864 52.61 8.31535C52.7255 8.14698 52.8879 8.04754 53.0983 8.01929C53.3087 7.99104 53.5112 8.04189 53.7056 8.17184C53.9915 8.36281 54.1699 8.65322 54.2397 9.04194C54.3094 9.43066 54.2419 9.78096 54.0361 10.0895C53.8703 10.3335 53.6175 10.485 53.279 10.5448C52.9405 10.6047 52.5779 10.5607 52.1937 10.4126C52.1159 10.6872 52.0987 10.929 52.1399 11.1392C52.2074 11.2183 52.2909 11.2906 52.3904 11.3573C52.6054 11.5008 52.8444 11.5878 53.1097 11.6183C53.3751 11.6489 53.6209 11.6003 53.8474 11.4714L54.9133 9.90978L54.5439 9.66344V9.16624L54.7349 9.05324L56.5544 10.3527L56.4057 10.6725L56.3383 10.9573V10.9618Z" fill="#531D01"/>
<path d="M58.0648 12.3718L57.0241 11.5469L57.3363 11.7548L54.7094 14.842L54.4772 14.7606L54.2656 14.1583L56.7085 11.2859L56.2567 10.9107L56.3105 10.4169L56.5118 10.3242L58.3542 11.7921L58.1163 12.2045L58.0637 12.3718H58.0648Z" fill="#531D01"/>
<path d="M60.9965 15.3341L60.1765 14.5058L60.4956 14.7137L57.5484 17.5636L57.3254 17.4607L57.1744 16.8415L58.588 15.4742L57.768 14.6459L57.2236 15.1725L56.8336 15.012C56.8027 14.7838 56.813 14.5272 56.8679 14.2436C56.9217 13.9589 57.0063 13.7091 57.1207 13.4922L57.5793 13.447L59.098 14.9815L59.8894 14.2165L58.0036 12.3113L58.1053 11.8254L58.3146 11.752L61.3076 14.7747L61.2001 15.2663L60.9953 15.3341H60.9965Z" fill="#531D01"/>
</svg>
