<svg width="100" height="100" viewBox="0 0 100 100" fill="none" xmlns="http://www.w3.org/2000/svg">
<path d="M49.8275 87.1518C40.0995 87.1518 30.9521 83.4191 24.0733 76.6429C17.1946 69.8668 13.4053 60.8574 13.4053 51.2729C13.4053 41.6885 17.1946 32.6807 24.0733 25.9029C30.9521 19.1268 40.0979 15.394 49.8275 15.394C59.5571 15.394 68.7029 19.1268 75.5817 25.9029C82.4604 32.6791 86.2497 41.6885 86.2497 51.2729C86.2497 60.8574 82.4604 69.8652 75.5817 76.6429C68.7029 83.4191 59.5571 87.1518 49.8275 87.1518ZM49.8275 15.5545C29.833 15.5545 13.5681 31.5783 13.5681 51.2729C13.5681 70.9676 29.8346 86.9914 49.8275 86.9914C69.8204 86.9914 86.0869 70.9676 86.0869 51.2729C86.0869 31.5783 69.8204 15.5545 49.8275 15.5545Z" fill="#C07A07"/>
<path d="M3.90202 61.14C3.90847 61.5355 3.81656 61.861 3.62467 62.1167C3.43279 62.3724 3.18125 62.5313 2.87004 62.5932C2.45725 62.6758 2.08961 62.5662 1.76712 62.2676C1.44463 61.9675 1.21566 61.518 1.07538 60.9177L0.540039 58.3098L0.775458 58.2161C0.902842 58.3432 1.05119 58.5354 1.2205 58.7942L5.23875 57.9954L5.19843 57.4459L5.59026 57.376C5.78214 58.1018 5.96274 58.8816 6.13366 59.7154C6.25137 60.2887 6.22557 60.7715 6.05626 61.167C5.88695 61.5609 5.61122 61.7975 5.22907 61.8738C4.9743 61.9246 4.71953 61.8896 4.46638 61.7705C4.21322 61.6514 4.02456 61.4418 3.89879 61.1416L3.90202 61.14ZM1.61071 60.5365L1.63006 60.6667C1.68811 60.9478 1.81388 61.1479 2.00738 61.2671C2.20087 61.3862 2.41049 61.4227 2.63624 61.3782C2.89584 61.3258 3.10224 61.1908 3.25381 60.9685C3.40538 60.7477 3.45537 60.4984 3.40377 60.2204L3.27316 59.5804L1.55105 59.9234L1.61394 60.5381L1.61071 60.5365ZM5.28389 59.1786L3.77624 59.4788L3.84719 59.825C3.91975 60.1823 4.05359 60.4333 4.24547 60.581C4.43735 60.7287 4.64536 60.7795 4.8711 60.735C5.05492 60.6985 5.21617 60.608 5.35323 60.4634C5.49029 60.3189 5.56285 60.1569 5.56769 59.9774L5.28389 59.1786Z" fill="white"/>
<path d="M3.39076 66.9748C3.39882 67.1876 3.38269 67.3861 3.34238 67.5703L2.96829 67.6529L2.35072 65.7074L2.59743 65.6073L2.91186 65.9535L4.6259 65.4247C5.11286 65.2754 5.30636 65.0403 5.20477 64.7227C5.15317 64.5607 4.99677 64.3622 4.73716 64.1255L2.67321 64.7624C2.67321 64.9498 2.65386 65.1197 2.61355 65.2722L2.23946 65.3548L1.60254 63.3505L1.84925 63.2504C1.97179 63.3632 2.10885 63.5188 2.26042 63.7205L6.57536 62.3912L6.46088 61.8226L6.80272 61.6606C7.10102 62.0307 7.32516 62.4389 7.47834 62.8867L7.26388 63.3473L5.09513 64.0159C5.61111 64.3892 5.96585 64.729 6.15612 65.0356C6.21256 65.2659 6.20288 65.4993 6.12549 65.7375C6.04809 65.9758 5.90619 66.1441 5.69657 66.241L5.27895 66.3935L3.39398 66.9748H3.39076Z" fill="white"/>
<path d="M5.05924 71.5907L4.22883 70.9173C4.18529 70.8014 4.1869 70.6616 4.23205 70.498C4.2772 70.3344 4.35782 70.1867 4.4707 70.0565L3.6435 69.4911L3.53547 69.2767C3.40809 68.9797 3.39196 68.697 3.48548 68.4286C3.58062 68.1618 3.75154 67.976 4.00147 67.8727C4.34654 67.7298 4.69967 67.7997 5.05763 68.084L5.67359 69.4228L6.31374 69.156C6.6975 68.9972 6.89422 68.7844 6.90551 68.5175C6.79748 68.3063 6.69105 68.1411 6.58463 68.0252L5.7526 68.2206L5.47687 67.6345C5.69617 67.4217 5.96383 67.2486 6.27988 67.1168L6.42661 67.0643C6.65235 67.2756 6.88777 67.5456 7.13287 67.8727C7.37796 68.1999 7.54082 68.4572 7.62144 68.6462C7.69561 68.8209 7.72141 69.0115 7.69723 69.2195C7.67304 69.4276 7.60693 69.615 7.49728 69.7818C7.42795 69.8723 7.25864 69.9755 6.98613 70.0946L5.25919 70.8125C5.1447 70.8601 5.11246 70.9427 5.16244 71.0618L5.35432 71.3906L5.05763 71.5891L5.05924 71.5907ZM4.2385 69.1608C4.32396 69.3482 4.48843 69.5658 4.7303 69.8151L5.2479 69.6007L5.17857 69.4212C4.97862 68.9527 4.74804 68.7733 4.49005 68.8812C4.36105 68.9352 4.27559 69.0289 4.23689 69.1624L4.2385 69.1608ZM9.13393 69.1719L8.81144 69.3482L8.3664 69.1401L7.43762 66.9722L7.87944 66.7388C8.09873 66.9198 8.27288 67.1628 8.40187 67.4646L9.13393 69.1719Z" fill="white"/>
<path d="M9.33731 72.4794C9.43728 72.5668 9.51791 72.67 9.58079 72.7875C9.70656 73.0242 9.73881 73.2497 9.67754 73.4673C9.15833 73.7055 8.67781 73.8453 8.236 73.8881L7.96188 73.3704L8.66492 72.8352C8.34242 72.6827 7.99736 72.5683 7.6281 72.4921L6.2301 73.2116C6.33491 73.5626 6.38651 73.8484 6.3849 74.0692L6.03177 74.2169L4.87402 72.0347L5.09816 71.8934C5.24005 71.9823 5.40291 72.1125 5.58673 72.2841L7.9119 71.0866L7.70228 70.5434L8.00864 70.3242C8.36822 70.6371 8.6633 70.9992 8.89388 71.4121L8.7665 71.9029L8.19891 72.1951L9.3357 72.4778L9.33731 72.4794Z" fill="white"/>
<path d="M9.09846 78.5033L8.16646 77.9728C8.10358 77.8664 8.08261 77.7283 8.10035 77.5599C8.11809 77.3916 8.17291 77.2327 8.26321 77.0866L7.35378 76.661L7.21189 76.4672C7.03613 76.1941 6.97324 75.9177 7.02162 75.6398C7.06999 75.3603 7.20866 75.1506 7.43763 75.0077C7.75529 74.8107 8.11325 74.8234 8.51637 75.0458L9.34678 76.2671L9.93372 75.9018C10.2852 75.6827 10.4449 75.4413 10.411 75.1776C10.2691 74.987 10.1369 74.8409 10.0127 74.744L9.22424 75.0712L8.85337 74.5376C9.03397 74.2914 9.26938 74.0786 9.55963 73.8975L9.69507 73.8213C9.95307 73.9944 10.2304 74.2215 10.5255 74.5042C10.8206 74.7869 11.0237 75.0156 11.135 75.1887C11.2382 75.3491 11.2946 75.5334 11.3059 75.743C11.3172 75.9511 11.2817 76.148 11.2027 76.3306C11.1495 76.4307 10.9996 76.5609 10.7512 76.7213L9.16619 77.7076C9.06138 77.7727 9.04203 77.8601 9.11136 77.9681L9.35484 78.2619L9.09524 78.5049L9.09846 78.5033ZM7.88589 76.2385C8.00199 76.4085 8.20032 76.5975 8.48089 76.8055L8.95657 76.5101L8.85821 76.3433C8.58248 75.9145 8.3261 75.7732 8.08906 75.9209C7.96974 75.9955 7.90202 76.1004 7.88589 76.2385Z" fill="white"/>
<path d="M10.8229 80.1262C10.9099 80.2405 11.068 80.3946 11.2969 80.5836L11.0422 80.8774L9.84087 80.2818C9.69898 80.1119 9.63125 79.8974 9.63932 79.6433C9.64738 79.3892 9.73123 79.1986 9.89086 79.0748L11.7 77.7454L11.3663 77.3182L11.6726 77.0546C11.9032 77.1276 12.129 77.2213 12.3515 77.3325L13.398 77.0435L13.7156 77.4627L12.9819 78.1647L13.6221 79.0096L13.3625 79.2193L12.7707 79.1844L12.3644 78.6475L10.9438 79.691C10.8358 79.7704 10.7729 79.8419 10.7551 79.9054C10.739 79.9689 10.7616 80.042 10.8229 80.1246V80.1262Z" fill="white"/>
<path d="M13.9479 84.3686L12.945 83.9858C12.866 83.8905 12.8224 83.7571 12.8144 83.5872C12.8047 83.4172 12.8337 83.2537 12.8998 83.0948L11.934 82.8121L11.763 82.6422C11.547 82.3992 11.4422 82.1356 11.4454 81.8529C11.4486 81.5702 11.5534 81.3399 11.7582 81.1652C12.0404 80.9222 12.3967 80.8809 12.8289 81.0397L13.8399 82.1197L14.3639 81.6686C14.6768 81.3986 14.7961 81.1366 14.7219 80.8809C14.5526 80.7141 14.3978 80.5902 14.2607 80.5124L13.5335 80.9555L13.0836 80.4838C13.2239 80.2138 13.4239 79.9661 13.6819 79.7437L13.8044 79.6484C14.0866 79.7803 14.3962 79.9629 14.7332 80.198C15.0702 80.433 15.3056 80.6268 15.4427 80.7824C15.5701 80.9253 15.6539 81.0985 15.6974 81.3033C15.741 81.5082 15.7378 81.7067 15.6878 81.8989C15.6507 82.0053 15.5233 82.1562 15.3024 82.3531L13.8915 83.5681C13.798 83.6491 13.7931 83.738 13.8786 83.8349L14.1656 84.089L13.9479 84.3686ZM12.3951 82.315C12.5354 82.4659 12.7612 82.6231 13.0707 82.7851L13.4948 82.4214L13.3723 82.2721C13.0337 81.8894 12.7579 81.7893 12.5467 81.972C12.4403 82.0625 12.3903 82.1784 12.3951 82.3166V82.315Z" fill="white"/>
<path d="M20.0857 89.7865L19.8229 90.0803L17.946 88.5144L18.0718 88.2968C18.2395 88.3238 18.483 88.3857 18.8022 88.4826L19.0973 87.6393L17.68 86.4561L16.8221 86.9294L17.3043 87.463L17.0414 87.7568L15.4209 86.4037L15.5467 86.1861C15.7305 86.2115 15.9611 86.2703 16.2433 86.364L20.3018 84.2771L20.3873 84.0357L21.3499 84.4756L19.7165 89.372L20.089 89.7834L20.0857 89.7865ZM19.3085 87.0501L19.9632 85.2173L18.2363 86.1543L19.3085 87.0501ZM23.0124 84.3644L22.8043 84.6646L22.3125 84.6773L20.1922 82.9065L20.4792 82.5015C20.7581 82.5666 21.0242 82.7048 21.279 82.916L23.0124 84.3628V84.3644Z" fill="white"/>
<path d="M24.2327 88.5524C24.3617 88.5842 24.4826 88.6382 24.5939 88.7144C24.8164 88.8669 24.9519 89.0527 24.9986 89.2719C24.6503 89.7214 24.2908 90.0644 23.9199 90.3042L23.4329 89.9707L23.8038 89.175C23.4474 89.1877 23.0862 89.2433 22.7234 89.3449L21.8237 90.6219C22.0817 90.8855 22.2623 91.1158 22.3655 91.3096L22.122 91.6018L20.0693 90.1978L20.2016 89.9691C20.3693 89.9834 20.574 90.0247 20.8191 90.0914L22.3155 87.968L21.8753 87.5821L22.0446 87.2485C22.5106 87.3613 22.9427 87.5471 23.3426 87.8076L23.4603 88.2999L23.0959 88.8177L24.2359 88.5493L24.2327 88.5524Z" fill="white"/>
<path d="M25.7963 90.4619C25.7415 90.5541 25.7269 90.6573 25.7544 90.7685C25.7818 90.8796 25.9221 91.1226 26.1752 91.4975C26.4284 91.8723 26.5719 92.174 26.6057 92.4011C26.6396 92.6283 26.5977 92.8427 26.4784 93.0412C26.3026 93.3382 26.0381 93.5113 25.685 93.5605C25.3335 93.6098 24.961 93.5224 24.5708 93.2969C24.1306 93.0428 23.7549 92.6695 23.4453 92.1756L24.2435 91.5943C24.4773 92.1343 24.7724 92.5806 25.1303 92.9348C25.2722 92.9094 25.3787 92.8379 25.4496 92.7172C25.5109 92.6155 25.5222 92.5044 25.4867 92.3821C25.4512 92.2598 25.3109 92.0184 25.0658 91.6579C24.8224 91.2973 24.6837 91.0083 24.653 90.7907C24.6224 90.5731 24.6643 90.3682 24.7804 90.1729C24.9594 89.8727 25.2368 89.706 25.6125 89.6726C25.9882 89.6393 26.3816 89.7425 26.796 89.9807C27.183 90.2031 27.4684 90.4635 27.6538 90.7605L27.5506 90.9495C27.3975 91.2068 27.2185 91.4228 27.0105 91.6007L26.4912 91.3021L26.6767 90.6255C26.5316 90.4826 26.3848 90.3746 26.2365 90.2999C26.0317 90.2587 25.885 90.3142 25.7947 90.4635L25.7963 90.4619Z" fill="white"/>
<path d="M30.0863 93.8961L28.3045 93.0194C28.1545 93.3704 28.132 93.6864 28.2352 93.9691C28.3384 94.2518 28.5431 94.4662 28.8479 94.6123C29.101 94.733 29.4413 94.7934 29.8702 94.7934L29.8363 95.2301L28.4577 95.2635L28.2255 95.1698C27.7095 94.9236 27.366 94.5615 27.1903 94.0819C27.0161 93.6022 27.05 93.1162 27.2935 92.6223C27.5482 92.1062 27.9304 91.752 28.4416 91.5598C28.9527 91.3676 29.4493 91.3867 29.9315 91.6186C30.3523 91.8203 30.6345 92.1125 30.778 92.4984C30.9215 92.8828 30.8925 93.2814 30.6893 93.6912L30.0847 93.8976L30.0863 93.8961ZM29.4284 92.0252C29.1172 92.0474 28.835 92.2253 28.5834 92.562L29.8299 93.0813C29.8944 92.8669 29.8912 92.6604 29.8186 92.4603C29.746 92.2602 29.617 92.1157 29.4284 92.0267V92.0252ZM29.5509 90.6307L31.2118 89.9033L31.6036 90.8007C31.294 90.8753 30.7732 91.023 30.0411 91.2422L29.8734 91.2994L29.5509 90.6323V90.6307Z" fill="white"/>
<path d="M35.2755 94.3314C35.1143 94.3584 34.9546 94.3695 34.795 94.3647C34.1065 95.2747 33.547 95.972 33.1132 96.4564C32.7407 96.8423 32.3344 97.1504 31.8942 97.3807C31.454 97.6094 30.9412 97.7682 30.3559 97.8556L30.1592 96.7025C30.8703 96.7677 31.4524 96.7232 31.9071 96.5707C31.7265 96.4484 31.5749 96.3007 31.4524 96.1276L31.504 93.2164L31.0896 92.821L31.2347 92.4478L33.1745 93.1783L33.0745 93.5023L32.623 93.5468L32.5069 95.0762L32.3521 95.7337L32.4827 95.783C32.9471 95.2049 33.3583 94.6029 33.7195 93.9756L33.3954 93.6897L33.547 93.3197L35.3771 94.009L35.2771 94.3329L35.2755 94.3314Z" fill="white"/>
<path d="M38.2605 98.2144L37.2075 98.432C37.0882 98.3939 36.9786 98.3049 36.8786 98.1684C36.777 98.0302 36.7109 97.8777 36.6786 97.7094L35.7128 97.9905L35.4757 97.9397C35.1597 97.8507 34.9259 97.6871 34.7743 97.4473C34.6211 97.2075 34.5824 96.9597 34.6566 96.7024C34.7598 96.3467 35.0355 96.1212 35.4854 96.0227L36.9302 96.3864L37.1205 95.7273C37.2349 95.3334 37.1898 95.0475 36.985 94.8744C36.7496 94.8252 36.5529 94.8045 36.3932 94.8125L36.0272 95.5732L35.3903 95.4192C35.358 95.1174 35.3903 94.803 35.4838 94.4774L35.5338 94.3313C35.8434 94.29 36.2046 94.2773 36.6158 94.2947C37.0269 94.3106 37.3333 94.3471 37.5332 94.4043C37.7187 94.4567 37.8864 94.5568 38.0347 94.7045C38.1847 94.8522 38.2911 95.0221 38.3556 95.2095C38.383 95.3191 38.3588 95.5145 38.283 95.7972L37.7703 97.5728C37.7364 97.6919 37.7816 97.7681 37.9073 97.8031L38.2879 97.8618L38.2589 98.2128L38.2605 98.2144ZM35.8224 97.3234C36.024 97.3743 36.2997 97.3854 36.6496 97.3552L36.8028 96.8231L36.6174 96.7628C36.1223 96.6246 35.8353 96.6881 35.7579 96.955C35.7192 97.0884 35.7402 97.2107 35.8224 97.325V97.3234Z" fill="white"/>
<path d="M45.0636 98.2984C45.0007 98.751 44.7669 99.094 44.3638 99.3291C43.9607 99.5642 43.4834 99.6436 42.9303 99.5689C42.632 99.5276 42.3127 99.4387 41.9741 99.3021C41.6355 99.1655 41.363 99.0083 41.1582 98.8304L41.1808 98.616C41.2404 98.1951 41.3372 97.7981 41.4742 97.4296L42.0305 97.5058L42.2595 98.6239C42.5643 98.8161 42.9238 98.94 43.3431 98.9972C43.6446 98.9035 43.8171 98.7097 43.8591 98.4143C43.8962 98.1459 43.7607 97.8965 43.4511 97.6678L42.3724 96.9309C41.8064 96.5021 41.5613 96.0256 41.6355 95.5031C41.6968 95.0616 41.9338 94.7265 42.345 94.4978C42.7562 94.2691 43.2528 94.1945 43.8349 94.2739C44.3509 94.3437 44.8475 94.5057 45.328 94.7567C45.2522 95.2951 45.1426 95.7541 45.0007 96.1336L44.3815 96.0495L44.2767 95.1648C43.9994 94.9711 43.6511 94.852 43.2318 94.8059C42.9738 94.9203 42.8271 95.1108 42.79 95.3745C42.769 95.527 42.8174 95.6747 42.9367 95.8176C43.0561 95.9605 43.3124 96.1543 43.7059 96.4005C44.0993 96.645 44.3863 96.8499 44.5669 97.0103C44.7459 97.1723 44.8846 97.3597 44.9813 97.571C45.0781 97.7838 45.1071 98.0268 45.0684 98.3015L45.0636 98.2984Z" fill="white"/>
<path d="M49.5095 99.5523L48.5339 100C48.4098 99.9891 48.2824 99.9287 48.1518 99.8175C48.0212 99.7064 47.9212 99.5714 47.8503 99.4141L46.9747 99.9049L46.7328 99.9097C46.4055 99.8938 46.1394 99.7874 45.9347 99.5873C45.7299 99.3887 45.6347 99.1553 45.6476 98.8884C45.6654 98.52 45.8814 98.2373 46.2975 98.0403L47.789 98.0705L47.8212 97.3876C47.8406 96.9778 47.7309 96.711 47.4923 96.5871C47.252 96.5919 47.0553 96.6157 46.9021 96.6602L46.7215 97.4829L46.0653 97.475C45.9637 97.1875 45.9218 96.8762 45.9379 96.5379L45.9524 96.3854C46.2443 96.2759 46.5925 96.1822 46.9973 96.1075C47.402 96.0313 47.7084 95.9979 47.9164 96.0074C48.1083 96.017 48.2953 96.0757 48.4743 96.1869C48.6533 96.2981 48.7968 96.4379 48.9032 96.6078C48.9564 96.7078 48.9774 96.9032 48.9693 97.1954L48.8806 99.0393C48.8742 99.1616 48.9371 99.2267 49.0661 99.2331L49.4498 99.2045L49.503 99.5539L49.5095 99.5523ZM46.9295 99.2331C47.1376 99.2378 47.4084 99.1854 47.7422 99.079L47.768 98.5263L47.5729 98.5089C47.0585 98.485 46.7941 98.6105 46.7812 98.8884C46.7747 99.0266 46.8231 99.1426 46.9295 99.2347V99.2331Z" fill="white"/>
<path d="M56.2363 98.9588C56.4959 99.0176 56.683 99.0795 56.7975 99.143L56.7926 99.521L54.7367 99.6624L54.6948 99.4035L55.1173 99.1732L54.9915 97.4167C54.956 96.9148 54.769 96.6766 54.432 96.7004C54.2659 96.7115 54.0402 96.81 53.7564 96.9942L53.916 99.1272C54.1288 99.1843 54.2982 99.2447 54.4223 99.3082L54.4175 99.6862L52.4229 99.8244L52.3809 99.5655L52.7953 99.3447L52.6696 97.5802C52.6341 97.0784 52.4471 96.8401 52.11 96.864C51.9536 96.8751 51.7311 96.9704 51.4409 97.1498L51.5941 99.2987C51.7795 99.3431 51.9424 99.4003 52.0842 99.4734L52.0794 99.8514L49.9606 99.9975L49.9187 99.7386C50.0542 99.6528 50.2364 99.5576 50.4702 99.4543L50.2864 96.8767L49.6978 96.8481L49.6172 96.4844C50.0526 96.2843 50.5073 96.1636 50.9846 96.1207L51.3925 96.4622L51.4151 96.7846C51.8924 96.3859 52.3003 96.135 52.6373 96.0286C52.8034 96.0286 52.9824 96.0667 53.1743 96.1461C53.3645 96.2255 53.5161 96.343 53.6258 96.5003C53.6612 96.559 53.6838 96.6114 53.6919 96.6575C54.1885 96.243 54.611 95.9793 54.9593 95.8682C55.1995 95.8682 55.4285 95.9301 55.6462 96.0603C55.8639 96.1906 55.9961 96.3653 56.0444 96.5876L56.0993 97.0228L56.2379 98.9636L56.2363 98.9588Z" fill="white"/>
<path d="M58.0238 96.2783C58.0432 96.3847 58.1012 96.4705 58.1964 96.5356C58.2915 96.6007 58.5592 96.6944 58.9994 96.8151C59.4396 96.9358 59.7492 97.0708 59.9265 97.2201C60.1039 97.371 60.2136 97.5584 60.2555 97.7855C60.32 98.1238 60.2345 98.424 60.0007 98.6892C59.7669 98.9544 59.4283 99.126 58.9832 99.2085C58.4818 99.3007 57.9497 99.2594 57.3869 99.0862L57.603 98.1317C58.1383 98.389 58.6591 98.5351 59.1638 98.5733C59.2541 98.4621 59.2864 98.3398 59.2606 98.2032C59.238 98.0873 59.1735 97.9952 59.0655 97.9253C58.9574 97.8554 58.6914 97.7649 58.2673 97.6489C57.8432 97.5346 57.5465 97.4043 57.3805 97.2598C57.2128 97.1153 57.108 96.9327 57.066 96.7103C57.0015 96.3673 57.0999 96.0623 57.3611 95.7955C57.6223 95.5287 57.99 95.3524 58.4608 95.265C58.901 95.184 59.2896 95.1967 59.6266 95.3016L59.675 95.5112C59.7298 95.8034 59.7379 96.083 59.6992 96.3514L59.1074 96.4594L58.7978 95.8273C58.593 95.813 58.4108 95.8257 58.2496 95.8654C58.0674 95.967 57.9932 96.1036 58.0254 96.2751L58.0238 96.2783Z" fill="white"/>
<path d="M62.7278 97.4477C62.8697 97.4111 63.0713 97.3254 63.3373 97.1888L63.5163 97.5318L62.5037 98.4022C62.2892 98.4673 62.0635 98.4482 61.8265 98.345C61.5894 98.2418 61.4427 98.094 61.3863 97.9019L60.8187 95.7499L60.2914 95.8928L60.1592 95.5132C60.3156 95.3306 60.4881 95.1591 60.6768 94.9987L60.7993 93.9346L61.3137 93.8027L61.6975 94.7382L62.7327 94.473L62.8326 94.789L62.5763 95.3163L61.9184 95.4846L62.3634 97.1745C62.3973 97.3031 62.4408 97.3873 62.494 97.427C62.5472 97.4667 62.6246 97.4731 62.7246 97.4477H62.7278Z" fill="white"/>
<path d="M67.8512 95.9538C68.0673 95.9395 68.2689 95.9475 68.4559 95.9808L68.5543 96.3461L66.6032 97.0243L66.4935 96.786L66.8338 96.4636L66.2372 94.796C66.0679 94.3227 65.8228 94.1401 65.5035 94.2513C65.3422 94.3069 65.1455 94.4688 64.9133 94.7325L65.6325 96.7416C65.8228 96.7352 65.9969 96.7479 66.1517 96.7813L66.2501 97.1466L64.2393 97.8438L64.1297 97.6055C64.2393 97.4801 64.3941 97.3403 64.5908 97.1847L63.088 92.9839L62.5156 93.1173L62.3398 92.7869C62.7043 92.4804 63.1122 92.2438 63.5605 92.0786L64.0362 92.2724L64.7908 94.3831C65.1504 93.8606 65.4825 93.5016 65.7873 93.3031C66.0179 93.2396 66.2565 93.2412 66.5016 93.3079C66.7467 93.3746 66.9225 93.5096 67.0273 93.7129L67.1966 94.1194L67.8528 95.9554L67.8512 95.9538Z" fill="white"/>
<path d="M69.8812 90.2301L70.0715 90.5414L69.8764 90.9861L67.7092 91.9771L67.4561 91.5499C67.6318 91.3275 67.8721 91.1481 68.1736 91.0099L69.8796 90.2285L69.8812 90.2301ZM72.4805 94.1545L71.8274 94.9963C71.7113 95.0439 71.5711 95.0471 71.4034 95.009C71.2357 94.9709 71.0841 94.8962 70.947 94.7898L70.402 95.6236L70.1892 95.738C69.8925 95.8746 69.6055 95.9 69.3313 95.8174C69.0572 95.7348 68.8621 95.5712 68.7476 95.3298C68.5896 94.9947 68.6493 94.6453 68.925 94.2816L70.2617 93.6273L69.9699 93.0063C69.7941 92.6346 69.5716 92.4472 69.3007 92.4472C69.0895 92.56 68.9266 92.6712 68.8121 92.7807L69.0395 93.5923L68.4542 93.8845C68.23 93.6765 68.0446 93.4192 67.9011 93.1111L67.843 92.9682C68.0494 92.7379 68.3155 92.4965 68.638 92.2439C68.9605 91.9914 69.2169 91.8231 69.4055 91.7357C69.5797 91.6563 69.7732 91.6245 69.9844 91.6404C70.1956 91.6563 70.3891 91.7151 70.5633 91.8167C70.6568 91.8818 70.768 92.0454 70.8987 92.3075L71.6888 93.9814C71.742 94.0926 71.8258 94.1212 71.9451 94.0672L72.2725 93.8671L72.4837 94.1514L72.4805 94.1545ZM70.0441 95.0487C70.2311 94.9582 70.4472 94.7882 70.6907 94.5405L70.4536 94.0386L70.273 94.1132C69.8054 94.3277 69.6313 94.5595 69.749 94.8105C69.8086 94.9359 69.9054 95.0153 70.0424 95.0487H70.0441Z" fill="white"/>
<path d="M76.1733 91.7843C76.4329 91.7239 76.6312 91.6953 76.7667 91.7001L76.9328 92.0416L75.1542 93.0675L74.9994 92.8531L75.2719 92.4735L74.3641 90.9473C74.1061 90.5137 73.832 90.3803 73.5401 90.5487C73.4015 90.6296 73.2354 90.8282 73.0451 91.1458L74.1335 92.9786C74.3206 92.9373 74.4915 92.9182 74.6511 92.9214L74.8172 93.2629L72.9838 94.319L72.8291 94.1046C72.9113 93.968 73.0322 93.8029 73.1951 93.6091L71.8696 91.3793L71.3279 91.6112L71.0908 91.3205C71.3907 90.9521 71.7439 90.6439 72.1518 90.3962L72.671 90.5248L72.8516 90.8298C73.1112 90.2405 73.3708 89.8213 73.6321 89.5687C73.8465 89.4623 74.0803 89.4194 74.3335 89.4401C74.5866 89.4607 74.785 89.5608 74.9269 89.7387L75.172 90.1055L76.1701 91.7843H76.1733Z" fill="white"/>
<path d="M81.6228 86.6194C81.9502 87.0037 82.2517 87.4214 82.5242 87.8693L79.3428 90.3914L79.1493 90.2278C79.2041 90.0594 79.3106 89.8403 79.4654 89.5719L76.8951 86.4256L76.4017 86.729L76.1582 86.4177L79.3331 83.9004C79.6218 84.2117 79.8991 84.6167 80.1668 85.1154L79.6556 85.5204L79.0671 85.0089L77.9077 85.7999L78.9607 87.0879L80.1845 85.9492L80.6795 86.5543L79.3283 87.5374L80.3425 88.7778L81.4164 87.7978L81.0827 86.9863L81.6228 86.6178V86.6194Z" fill="white"/>
<path d="M81.9489 84.4278C82.0246 84.5056 82.1198 84.5469 82.2359 84.55C82.352 84.5548 82.6277 84.4881 83.0631 84.3499C83.4984 84.2118 83.8322 84.1578 84.0628 84.1879C84.2934 84.2181 84.4917 84.3166 84.653 84.4833C84.8948 84.7311 84.9916 85.0297 84.9432 85.3759C84.8948 85.7237 84.7078 86.0509 84.3805 86.3606C84.0128 86.7084 83.5452 86.9625 82.9776 87.1213L82.6261 86.2065C83.2163 86.1319 83.7339 85.9731 84.1773 85.7317C84.1918 85.5903 84.1499 85.4696 84.0515 85.3696C83.9693 85.2838 83.8629 85.2425 83.7339 85.2441C83.6049 85.2441 83.3307 85.3124 82.9115 85.4458C82.4923 85.5792 82.173 85.63 81.9521 85.5998C81.7312 85.5697 81.5425 85.4744 81.3845 85.3108C81.1394 85.0599 81.0523 84.7502 81.1217 84.3865C81.191 84.0228 81.399 83.6765 81.7457 83.3494C82.0682 83.0444 82.4003 82.8443 82.7406 82.749L82.897 82.8999C83.1066 83.1143 83.2678 83.3446 83.3856 83.5892L82.9518 83.9989L82.3407 83.6384C82.1617 83.7369 82.0166 83.8465 81.9037 83.9672C81.8086 84.1498 81.8215 84.3039 81.944 84.4309L81.9489 84.4278Z" fill="white"/>
<path d="M86.5261 82.8712C86.6245 82.7647 86.7454 82.5837 86.8922 82.3264L87.234 82.517L86.8712 83.7923C86.7293 83.9622 86.5294 84.0687 86.273 84.1099C86.0166 84.1512 85.8118 84.1068 85.6586 83.9765L83.9881 82.482L83.6269 82.8855L83.306 82.6393C83.3351 82.4026 83.3834 82.166 83.4544 81.9294L82.9658 80.9733L83.3222 80.5857L84.1623 81.1607L84.8814 80.3809L85.141 80.5921L85.22 81.1718L84.7637 81.6673L86.0763 82.841C86.1762 82.9299 86.2601 82.9776 86.3262 82.9807C86.3923 82.9855 86.46 82.949 86.531 82.8727L86.5261 82.8712Z" fill="white"/>
<path d="M90.3225 78.8258L90.1306 79.8756C90.0467 79.974 89.9129 80.0423 89.7291 80.0804C89.5453 80.1186 89.3631 80.1138 89.1825 80.0677L89.1438 81.1366C88.839 81.5336 88.4375 81.7496 87.9393 81.7862C87.441 81.8227 86.9686 81.6702 86.5235 81.3319C86.0575 80.9778 85.7899 80.5347 85.7205 80.0026C85.6512 79.4706 85.7979 78.9735 86.1607 78.5097C86.2623 78.3795 86.38 78.2619 86.5155 78.1571L85.5383 77.4154L85.1304 77.8347L84.7998 77.6521C84.9369 77.1994 85.1481 76.7833 85.4319 76.4038L85.9446 76.3164L89.5114 79.0275C89.6227 79.1116 89.7178 79.1037 89.7968 79.0021L89.9984 78.6701L90.3192 78.8273L90.3225 78.8258ZM87.1572 80.3346C87.4297 80.541 87.7022 80.6522 87.9747 80.6697C88.2472 80.6855 88.4665 80.5887 88.6326 80.3774C88.7181 80.2678 88.7874 80.117 88.8406 79.9232L87.1282 78.6209C86.8767 78.74 86.6767 78.8956 86.5268 79.0862L86.4477 79.2006C86.488 79.6262 86.7251 80.0042 87.1588 80.333L87.1572 80.3346Z" fill="white"/>
<path d="M91.802 77.7799C91.6972 77.8529 91.5536 77.9181 91.3714 77.9784C91.1892 78.0388 91.0344 78.0721 90.9054 78.0785C90.7039 77.7306 90.6104 77.4321 90.6281 77.1843C90.8571 77.0207 91.1505 76.9302 91.5069 76.9111C91.7004 77.1795 91.7987 77.4686 91.802 77.7783V77.7799Z" fill="white"/>
<path d="M93.7224 70.7626C94.1852 71.0183 94.5947 71.3169 94.9511 71.6568L94.8979 71.7251L94.9124 71.7314L93.3741 74.6966L92.7404 74.5505L91.8326 72.1761C91.5633 71.5218 91.2828 71.1216 90.9909 70.9754C90.8055 70.8817 90.6168 70.8627 90.4233 70.9183C90.2314 70.9738 90.0734 71.1184 89.9525 71.3503L89.8203 71.6901L90.8006 72.5208L90.4733 73.1513C90.1299 73.0703 89.7622 72.9321 89.3736 72.7367L89.1543 72.6176C89.1092 71.9617 89.2204 71.3757 89.4881 70.8595C89.7154 70.4212 90.0315 70.1194 90.4362 69.9542C90.8409 69.7891 91.2328 69.8018 91.6133 69.9939C91.8729 70.1242 92.0874 70.329 92.2551 70.607C92.4244 70.8849 92.6034 71.2963 92.7936 71.841L93.329 73.38L93.3951 73.3879L93.8998 71.9919L93.3661 71.1787L93.7224 70.7626Z" fill="white"/>
<path d="M92.9925 69.9878C92.2766 69.7067 91.7557 69.2922 91.4284 68.7459C91.1011 68.1995 91.0511 67.6452 91.2785 67.0846C91.4994 66.5414 91.8976 66.1905 92.4765 66.0285C93.0554 65.8665 93.702 65.9268 94.4179 66.2095C95.1774 66.5081 95.7176 66.9194 96.04 67.4451C96.3625 67.9692 96.4093 68.5124 96.1819 69.0746C95.9562 69.6321 95.545 69.9942 94.9516 70.1594C94.3566 70.3261 93.7052 70.269 92.9941 69.9894L92.9925 69.9878ZM91.7735 67.7278C91.8686 67.9359 92.0686 68.1471 92.3749 68.3583C92.6813 68.5696 93.0038 68.7427 93.3424 68.8761C93.8794 69.0873 94.3631 69.1794 94.7936 69.154C95.2241 69.1286 95.4966 68.9762 95.6079 68.6998C95.6402 68.6188 95.6595 68.5378 95.6643 68.4568C95.5595 68.244 95.358 68.0375 95.0597 67.8327C94.7614 67.6294 94.4356 67.4578 94.0825 67.3197C93.5601 67.1148 93.0844 67.0147 92.6555 67.0227C92.2266 67.0306 91.9525 67.1815 91.8315 67.4769L91.7719 67.7262L91.7735 67.7278Z" fill="white"/>
<path d="M96.7134 62.4092C97.2165 62.576 97.676 62.7936 98.0904 63.062L98.0517 63.1382L98.0662 63.143L97.1165 66.3384L96.4651 66.3114L95.1235 64.1451C94.7349 63.5527 94.3834 63.2113 94.0689 63.1192C93.869 63.062 93.6803 63.0779 93.5014 63.1684C93.3224 63.2589 93.1966 63.4289 93.1208 63.6798L93.0547 64.0371L94.1754 64.6724L93.9738 65.3522C93.6207 65.3363 93.2337 65.2664 92.8145 65.1457L92.5774 65.0695C92.4081 64.4326 92.4065 63.837 92.5726 63.2811C92.7129 62.8095 92.966 62.4537 93.3321 62.2171C93.6981 61.9804 94.0851 61.9216 94.4946 62.0392C94.7752 62.1202 95.0235 62.2806 95.2412 62.5236C95.4589 62.7666 95.7137 63.1366 96.0039 63.6369L96.8198 65.0504L96.8859 65.0456L97.1181 63.5813L96.4393 62.8809L96.7102 62.406L96.7134 62.4092Z" fill="white"/>
<path d="M95.8497 61.7807C95.0935 61.6346 94.5033 61.3249 94.0776 60.8484C93.6519 60.372 93.4988 59.8367 93.6165 59.2428C93.7293 58.6694 94.0551 58.2501 94.5936 57.9849C95.1306 57.7197 95.7788 57.6609 96.535 57.8054C97.338 57.9595 97.9459 58.2644 98.3619 58.7202C98.778 59.1761 98.9279 59.7017 98.8102 60.2957C98.6941 60.885 98.3587 61.3154 97.8072 61.5885C97.2542 61.8617 96.6027 61.9252 95.8513 61.7807H95.8497ZM94.2244 59.7827C94.3566 59.9702 94.5936 60.1401 94.9355 60.291C95.2773 60.4434 95.6256 60.553 95.9836 60.6213C96.5511 60.7309 97.0429 60.7325 97.4622 60.6277C97.8814 60.5228 98.1185 60.3243 98.1765 60.0321C98.1942 59.9463 98.1958 59.8637 98.1862 59.7827C98.0427 59.5937 97.8056 59.427 97.4735 59.2809C97.1413 59.1363 96.7898 59.0283 96.4157 58.9569C95.8642 58.8505 95.3773 58.8409 94.958 58.9283C94.5372 59.0141 94.2969 59.2142 94.2356 59.5255L94.2244 59.7812V59.7827Z" fill="white"/>
<path d="M82.5104 37.151C83.1596 37.151 83.6859 36.6327 83.6859 35.9932C83.6859 35.3538 83.1596 34.8354 82.5104 34.8354C81.8612 34.8354 81.335 35.3538 81.335 35.9932C81.335 36.6327 81.8612 37.151 82.5104 37.151Z" fill="#C04C07"/>
<path d="M95.9859 54.7664C97.9451 54.7664 99.5333 53.2021 99.5333 51.2724C99.5333 49.3427 97.9451 47.7783 95.9859 47.7783C94.0267 47.7783 92.4385 49.3427 92.4385 51.2724C92.4385 53.2021 94.0267 54.7664 95.9859 54.7664Z" fill="#C04C07"/>
<path d="M94.555 41.1392C96.1803 41.1392 97.4978 39.8415 97.4978 38.2407C97.4978 36.64 96.1803 35.3423 94.555 35.3423C92.9298 35.3423 91.6123 36.64 91.6123 38.2407C91.6123 39.8415 92.9298 41.1392 94.555 41.1392Z" fill="#C04C07"/>
<path d="M90.1905 30.393C91.431 30.393 92.4366 29.4025 92.4366 28.1806C92.4366 26.9588 91.431 25.9683 90.1905 25.9683C88.95 25.9683 87.9443 26.9588 87.9443 28.1806C87.9443 29.4025 88.95 30.393 90.1905 30.393Z" fill="#C04C07"/>
<path d="M49.8218 83.3138C67.7848 83.3138 82.3467 68.9691 82.3467 51.2741C82.3467 33.579 67.7848 19.2344 49.8218 19.2344C31.8588 19.2344 17.2969 33.579 17.2969 51.2741C17.2969 68.9691 31.8588 83.3138 49.8218 83.3138Z" fill="#EA910F"/>
<mask id="mask0_272_920" style="mask-type:luminance" maskUnits="userSpaceOnUse" x="17" y="19" width="66" height="65">
<path d="M49.8189 83.3172C67.7819 83.3172 82.3438 68.9726 82.3438 51.2775C82.3438 33.5825 67.7819 19.2378 49.8189 19.2378C31.8558 19.2378 17.2939 33.5825 17.2939 51.2775C17.2939 68.9726 31.8558 83.3172 49.8189 83.3172Z" fill="white"/>
</mask>
<g mask="url(#mask0_272_920)">
<path fill-rule="evenodd" clip-rule="evenodd" d="M65.688 22.9525L50.5293 51.0498L60.841 20.7764L65.688 22.9525Z" fill="#C04C07"/>
<path fill-rule="evenodd" clip-rule="evenodd" d="M76.1545 31.6832L50.5293 51.0538L72.6603 27.7217L76.1545 31.6832Z" fill="#C04C07"/>
<path fill-rule="evenodd" clip-rule="evenodd" d="M82.0029 43.8969L50.5293 51.0495L80.492 38.8633L82.0029 43.8969Z" fill="#C04C07"/>
<path fill-rule="evenodd" clip-rule="evenodd" d="M82.1786 57.4041L50.5293 51.0513L82.9236 52.2091L82.1786 57.4041Z" fill="#C04C07"/>
<path fill-rule="evenodd" clip-rule="evenodd" d="M76.6511 69.7674L50.5293 51.0513L79.5181 65.3421L76.6511 69.7674Z" fill="#C04C07"/>
<path fill-rule="evenodd" clip-rule="evenodd" d="M66.9345 79.5441L50.5293 51.0513L71.4058 76.6913L66.9345 79.5441Z" fill="#C04C07"/>
<path fill-rule="evenodd" clip-rule="evenodd" d="M47.8691 19.2896L49.8299 51.0497L53.1967 19.2896H47.8691Z" fill="#C04C07"/>
<path fill-rule="evenodd" clip-rule="evenodd" d="M34.6621 22.9525L49.8224 51.0498L39.5108 20.7764L34.6621 22.9525Z" fill="#C04C07"/>
<path fill-rule="evenodd" clip-rule="evenodd" d="M24.1045 31.5964L49.8264 51.048L27.5987 27.6333L24.1045 31.5964Z" fill="#C04C07"/>
<path fill-rule="evenodd" clip-rule="evenodd" d="M17.793 43.7319L49.8293 51.0481L19.3038 38.6982L17.793 43.7319Z" fill="#C04C07"/>
<path fill-rule="evenodd" clip-rule="evenodd" d="M17.5301 57.4946L49.8277 51.0513L16.7852 52.298L17.5301 57.4946Z" fill="#C04C07"/>
<path fill-rule="evenodd" clip-rule="evenodd" d="M23.2322 70.0645L49.8281 51.0513L20.3652 65.6408L23.2322 70.0645Z" fill="#C04C07"/>
<path fill-rule="evenodd" clip-rule="evenodd" d="M33.5876 79.2883L49.825 51.0513L29.1162 76.434L33.5876 79.2883Z" fill="#C04C07"/>
</g>
<mask id="mask1_272_920" style="mask-type:luminance" maskUnits="userSpaceOnUse" x="16" y="18" width="67" height="66">
<path d="M49.8176 83.2354C67.9907 83.2354 82.723 68.7229 82.723 50.8208C82.723 32.9188 67.9907 18.4062 49.8176 18.4062C31.6444 18.4062 16.9121 32.9188 16.9121 50.8208C16.9121 68.7229 31.6444 83.2354 49.8176 83.2354Z" fill="white"/>
</mask>
<g mask="url(#mask1_272_920)">
<path fill-rule="evenodd" clip-rule="evenodd" d="M61.8419 43.7771C63.3527 47.0444 63.3479 63.8529 59.7763 68.1718C58.4783 69.7411 53.1362 73.215 49.9387 73.269C46.7412 73.323 40.9137 69.244 40.0624 67.8287C36.5472 61.9865 36.1925 48.0118 39.6625 43.5372C41.7748 40.8147 58.7024 39.5599 61.8419 43.7771Z" fill="#FFC48F"/>
<path fill-rule="evenodd" clip-rule="evenodd" d="M62.151 43.6633C63.0201 45.5852 63.399 51.8419 62.904 57.6825C62.5235 62.1761 61.6237 66.4505 60.0306 68.3772C59.2405 69.3319 56.9847 70.296 54.6095 71.7844C52.9874 72.8009 51.2959 73.5713 49.9398 73.5936C48.5725 73.6158 46.7891 72.766 45.0928 71.6478C42.6209 70.0165 40.2957 68.8649 39.7717 67.9928C37.9689 64.9971 36.9853 59.9174 36.9047 55.0442C36.8257 50.2424 37.6287 45.6154 39.3944 43.3392C39.5217 43.1756 39.691 43.0184 39.8958 42.8706C41.5212 41.6968 45.8023 40.8645 50.1978 40.7342C54.5982 40.604 59.1454 41.1726 61.3093 42.8023C61.6253 43.0406 61.893 43.3011 62.1042 43.5854C62.122 43.6108 62.1381 43.6378 62.1478 43.6664L62.151 43.6633ZM62.2413 57.6285C62.7283 51.8912 62.3783 45.7917 61.5512 43.9428C61.3802 43.7188 61.1642 43.5123 60.9078 43.3186C58.8761 41.7889 54.4886 41.2568 50.2172 41.3839C45.9409 41.511 41.813 42.2956 40.2893 43.3948C40.1345 43.5076 40.0103 43.6204 39.9232 43.7331C38.2495 45.8902 37.4917 50.3616 37.569 55.0315C37.6481 59.803 38.601 64.7589 40.3457 67.6593C40.8375 68.4757 43.0675 69.5241 45.4637 71.1045C47.0616 72.1592 48.7176 72.9614 49.9318 72.9407C51.1492 72.9217 52.7229 72.1942 54.2548 71.2332C56.5687 69.783 58.7552 68.8855 59.5162 67.9643C61.0142 66.1535 61.8704 62.0109 62.2413 57.6285Z" fill="#600A0A"/>
<path fill-rule="evenodd" clip-rule="evenodd" d="M37.8563 57.4337C37.8305 57.1954 36.5244 54.9303 34.5846 55.8389C32.6464 56.7475 34.0428 60.1022 34.8797 61.4714C35.7165 62.8406 36.9581 65.5679 37.0194 66.1254C37.0791 66.6829 38.2078 66.4955 38.49 65.9316C38.7738 65.3693 39.9509 62.4673 37.8563 57.4337Z" fill="#FFC48F"/>
<path fill-rule="evenodd" clip-rule="evenodd" d="M37.5348 57.4695C37.5348 57.4695 37.5267 57.4647 37.5106 57.4282C37.4074 57.2153 37.1462 56.8134 36.7576 56.4767C36.3867 56.1558 35.8997 55.9017 35.337 55.9605C35.1483 55.9811 34.9484 56.0351 34.7371 56.1336C34.6952 56.1543 34.6533 56.1749 34.613 56.2003C34.0357 56.5434 33.8906 57.2312 33.968 58.0016C34.0519 58.8466 34.3985 59.7838 34.7565 60.5255C34.9 60.821 35.0451 61.0862 35.1774 61.3023C35.5966 61.9885 36.1142 63.005 36.5383 63.9295C36.9817 64.8937 37.3268 65.772 37.3622 66.0897V66.0993L37.3671 66.1024C37.3913 66.1199 37.4396 66.131 37.5025 66.1326C37.5977 66.1374 37.7057 66.1183 37.8153 66.0802C37.9863 66.0198 38.1427 65.9166 38.2072 65.7863C38.3765 65.448 38.886 64.2202 38.7296 62.1171C38.6377 60.8845 38.3168 59.3612 37.5654 57.5568C37.5525 57.5266 37.5461 57.4965 37.5428 57.4663L37.5348 57.4695ZM38.1104 57.1502C38.1443 57.2217 38.1685 57.2868 38.183 57.3392C38.957 59.2088 39.2907 60.7908 39.3859 62.0742C39.5536 64.3377 38.986 65.7022 38.7957 66.0786C38.649 66.3725 38.3474 66.5885 38.0298 66.6997C37.846 66.7632 37.6493 66.795 37.4703 66.7886C37.2671 66.7807 37.0784 66.7219 36.9365 66.606L36.9269 66.598C36.8011 66.49 36.7172 66.3455 36.6979 66.1612C36.6705 65.9134 36.348 65.1113 35.9288 64.1995C35.5144 63.2973 35.0097 62.3061 34.6033 61.6422C34.463 61.4135 34.3066 61.1275 34.1518 60.8067C33.7681 60.0125 33.3972 58.9975 33.3037 58.0651C33.2037 57.0581 33.423 56.1415 34.2663 55.6412C34.3227 55.6078 34.384 55.5761 34.4501 55.5443C34.7307 55.4125 35.0032 55.3394 35.2644 55.3124C36.0497 55.2298 36.7027 55.565 37.1929 55.9859C37.6638 56.3925 37.983 56.8865 38.1104 57.1486V57.1502Z" fill="#600A0A"/>
<path fill-rule="evenodd" clip-rule="evenodd" d="M63.1139 57.4786C63.1397 57.2388 64.4474 54.9753 66.3856 55.8823C68.3237 56.7909 66.9274 60.1456 66.0905 61.5164C65.2536 62.8856 64.012 65.6113 63.9508 66.1688C63.8895 66.7263 62.7624 66.5389 62.4786 65.975C62.1948 65.4127 61.0177 62.5091 63.1123 57.477L63.1139 57.4786Z" fill="#FFC48F"/>
<path fill-rule="evenodd" clip-rule="evenodd" d="M62.7981 57.3805C62.8126 57.3265 62.8368 57.263 62.869 57.1931C62.9964 56.931 63.3157 56.4354 63.7865 56.0304C64.2767 55.6078 64.9297 55.2743 65.715 55.3569C65.9746 55.3839 66.2471 55.4569 66.5293 55.5888C66.5954 55.6205 66.6583 55.6523 66.7131 55.6857C67.5564 56.186 67.7773 57.1025 67.6758 58.1096C67.5822 59.0436 67.2114 60.057 66.8276 60.8512C66.6728 61.172 66.5164 61.4579 66.3761 61.6867C65.9698 62.3522 65.4651 63.3434 65.0507 64.244C64.6314 65.1557 64.3089 65.9579 64.2815 66.2057C64.2622 66.3899 64.1783 66.5345 64.0526 66.6409C63.9091 66.7616 63.7172 66.8236 63.5076 66.8315C63.3286 66.8379 63.1319 66.8077 62.9496 66.7426C62.6304 66.6314 62.3305 66.4169 62.1821 66.1215C61.9935 65.745 61.4243 64.3806 61.5936 62.1171C61.6887 60.8321 62.0225 59.2501 62.7965 57.3805H62.7981ZM63.4705 57.471C63.4527 57.506 63.4479 57.5028 63.4463 57.5108C63.4431 57.5409 63.435 57.5727 63.4221 57.6013C62.6707 59.4073 62.3498 60.9306 62.2579 62.1616C62.1015 64.2646 62.6094 65.4941 62.7787 65.8308C62.8448 65.9611 62.9996 66.0643 63.1705 66.1247C63.2786 66.1628 63.3882 66.1819 63.4818 66.1771C63.5463 66.1755 63.5946 66.1628 63.6188 66.1421V66.1326C63.6543 65.8149 63.9994 64.9365 64.4444 63.9724C64.8685 63.0495 65.3861 62.0314 65.8053 61.3452C65.9375 61.1291 66.0827 60.8639 66.2245 60.5684C66.5825 59.8266 66.9292 58.8895 67.013 58.0445C67.0904 57.2741 66.9453 56.5847 66.3681 56.2432C66.3261 56.2194 66.2842 56.1956 66.2439 56.1765C66.0327 56.078 65.8311 56.0224 65.6425 56.0034C65.0797 55.943 64.5927 56.1987 64.2219 56.518C63.8333 56.8547 63.5704 57.2566 63.4689 57.4695L63.4705 57.471Z" fill="#600A0A"/>
<path fill-rule="evenodd" clip-rule="evenodd" d="M56.5353 31.3098C56.6497 30.5617 56.7642 25.1389 49.0567 25.2246C41.3491 25.3104 41.9764 30.8825 41.9199 31.3098C41.8635 31.7371 39.4529 32.2279 39.111 34.4707C38.7676 36.7136 38.7805 39.0231 43.4324 39.9523C45.4125 40.3478 52.1526 41.0865 56.7175 39.9063C59.3022 39.2375 59.7183 36.3498 59.191 34.4136C58.6427 32.3963 56.453 31.8515 56.5353 31.3098Z" fill="#C04C07"/>
<path fill-rule="evenodd" clip-rule="evenodd" d="M56.5308 31.3084C56.5969 30.8684 56.6646 28.8149 55.144 27.214C54.3894 27.538 53.3478 27.7667 51.9111 27.8048C48.0541 27.9096 45.1694 27.3982 44.1874 26.4517C42.0605 27.8715 41.9332 30.122 41.9219 30.9828C46.5254 29.7615 52.8511 30.3412 53.359 30.3412C53.7283 30.3412 55.4165 30.9558 56.5324 31.3783C56.5291 31.3544 56.5275 31.3322 56.5308 31.3084Z" fill="#873303"/>
<path fill-rule="evenodd" clip-rule="evenodd" d="M56.5346 31.3117C56.5733 31.0528 56.6136 30.2347 56.3298 29.2785C56.2137 29.2468 56.0976 29.2182 55.9799 29.1943C57.1877 32.8413 56.7039 34.2677 49.0577 34.3471C43.6688 34.4027 40.7196 34.4202 39.5877 33.2321C39.3603 33.5736 39.1862 33.9802 39.1104 34.4726C38.7686 36.7154 38.7798 39.025 43.4318 39.9542C45.4119 40.3497 52.152 41.0883 56.7168 39.9081C59.3016 39.2394 59.7176 36.3517 59.1903 34.4154C58.6421 32.3981 56.4524 31.8533 56.5346 31.3117Z" fill="#873303"/>
<path fill-rule="evenodd" clip-rule="evenodd" d="M56.2038 31.2606C56.2183 31.1716 56.2312 31.0112 56.228 30.7983C56.2215 30.1487 56.0716 29.0368 55.3637 28.0043C54.6542 26.9703 53.3771 26.0141 51.102 25.6773C50.4892 25.5868 49.8104 25.5391 49.0557 25.5487C42.277 25.6233 42.2576 30.1058 42.2528 31.1208C42.2528 31.224 42.2528 31.2987 42.2447 31.3511C42.206 31.6402 41.9109 31.8101 41.4998 32.0468C40.8 32.4503 39.6503 33.1126 39.4358 34.5168C39.273 35.581 39.1923 36.658 39.6857 37.5459C40.1824 38.4401 41.2805 39.1899 43.4928 39.6299C44.6795 39.8665 47.5949 40.2287 50.7198 40.2176C52.7467 40.2096 54.8574 40.046 56.6295 39.5886L56.6488 39.5838C57.8017 39.2788 58.4741 38.4783 58.8014 37.5363C59.1401 36.5611 59.1159 35.4333 58.874 34.5231L58.8676 34.4977C58.5564 33.3557 57.6356 32.7108 57.0052 32.2692C56.5037 31.9182 56.1409 31.664 56.2022 31.2621L56.2038 31.2606ZM56.8907 30.7936C56.8939 31.0541 56.8778 31.2494 56.86 31.3575C56.86 31.3622 57.0826 31.5195 57.3905 31.7355C58.1 32.2327 59.1368 32.9586 59.5077 34.3278C59.5077 34.3357 59.5158 34.35 59.5158 34.358C59.7883 35.3777 59.8109 36.6437 59.4303 37.746C59.0369 38.8817 58.2226 39.8459 56.8197 40.216C56.8133 40.216 56.8036 40.2208 56.7972 40.2208C54.967 40.6941 52.7983 40.8641 50.7198 40.8704C47.5465 40.8815 44.5747 40.513 43.3638 40.2716C40.9241 39.7839 39.6906 38.9135 39.1036 37.8588C38.5151 36.7993 38.5989 35.5985 38.7779 34.4199C39.0391 32.7092 40.3614 31.9468 41.1644 31.4829C41.4127 31.34 41.5836 31.2939 41.5868 31.2653C41.5884 31.251 41.5901 31.1954 41.5901 31.116C41.5949 29.9819 41.6159 24.9768 49.0493 24.8942C49.8475 24.8847 50.5618 24.9339 51.2003 25.0277C53.6948 25.3978 55.1154 26.4715 55.9135 27.6358C56.7133 28.8017 56.881 30.0565 56.8891 30.7904L56.8907 30.7936Z" fill="#600A0A"/>
<path fill-rule="evenodd" clip-rule="evenodd" d="M36.4721 56.2588C41.116 69.9619 29.6659 68.4132 32.8199 80.1341C33.0472 77.6371 33.3423 76.7349 34.6806 75.9836C33.2407 78.6044 32.936 87.0818 38.2442 90.0108C37.7701 88.8036 37.4605 86.4845 37.7298 86.5894C38.9359 89.3039 43.7024 99.8986 52.924 100.245C51.4002 98.9996 50.6488 98.5898 51.3793 98.253C55.0492 99.0234 57.6066 95.3113 58.7095 93.2972C58.9498 92.8588 58.2596 95.4129 58.7579 95.2319C62.0618 94.5425 63.8645 86.6434 63.1518 84.1496C63.3453 83.4824 64.6692 86.3829 64.6998 86.3606C66.0156 85.3838 68.4649 77.5211 64.1532 72.8862C65.8592 73.3834 66.5622 75.1941 67.2185 76.2854C67.6055 71.9728 63.8049 67.5301 63.4792 65.7288C63.3824 65.1999 63.2663 59.5531 63.9806 57.5803C64.108 57.2293 64.6305 54.5083 64.6143 54.2415C64.5402 53.0136 62.7374 55.0246 62.6568 54.7228C62.5585 54.3543 63.0632 55.617 62.8229 56.2476C62.5826 56.8782 60.114 66.1355 57.5776 67.8493C55.0412 69.5632 55.7652 66.1196 54.3107 66.2117C52.8595 66.3038 53.7996 69.2853 50.7085 69.2694C47.6174 69.2519 48.3914 66.361 47.2369 66.2196C46.0823 66.0799 46.5048 68.9422 43.3734 68.3672C40.242 67.7906 37.9781 58.4031 37.9088 56.2937C37.8411 54.1843 36.0496 54.7498 36.4737 56.2603L36.4721 56.2588Z" fill="#873303"/>
<path fill-rule="evenodd" clip-rule="evenodd" d="M36.7918 56.1637C39.2911 63.5482 37.203 67.192 35.16 70.7548C33.6217 73.4392 32.1093 73.9347 32.751 78.1933C32.8252 77.8454 32.9171 77.5436 33.0316 77.2752C33.3331 76.5699 33.7846 76.1093 34.5215 75.6963C34.6811 75.6073 34.8827 75.6629 34.973 75.8186C35.031 75.9203 35.0294 76.0394 34.9762 76.1347C34.1571 77.6278 33.7233 80.5775 34.557 84.2356C35.0601 86.445 36.0291 87.9715 37.6577 89.2279C37.482 88.5465 37.3578 87.792 37.3159 87.2662C37.2998 87.0566 37.2965 86.8771 37.3078 86.7452C37.332 86.4657 37.4465 86.291 37.6642 86.2592C37.7271 86.2512 37.7916 86.2576 37.8528 86.2814C37.9383 86.3148 38.0028 86.3783 38.0367 86.4546C38.6349 87.7999 40.1151 91.0975 42.5806 94.0948C44.8299 96.8284 47.9065 99.3159 51.8828 99.8273C51.3298 99.3874 50.9637 99.0856 50.8315 98.806C50.6541 98.4311 50.7719 98.169 51.2411 97.953C51.3088 97.9213 51.3814 97.9149 51.4507 97.9292C53.1599 98.2882 54.6224 97.5925 55.7882 96.5695C56.9895 95.518 57.8812 94.1202 58.4198 93.137C58.5504 92.9003 58.7148 92.8495 58.9132 92.9543C59.1454 93.0782 59.0954 93.3959 59.0293 93.8136C58.9761 94.1504 58.9051 94.5904 58.9035 94.8509C60.3047 94.3998 61.4173 92.4683 62.1268 90.3271C62.8637 88.1017 63.1507 85.6747 62.8782 84.4039V84.3912C62.8637 84.3372 62.8508 84.2848 62.8363 84.2324C62.8185 84.172 62.8202 84.1117 62.8363 84.0545C62.9234 83.7527 63.1104 84.1974 63.3668 84.2705C63.7747 84.3849 64.4165 85.0774 64.768 85.7684C65.3243 84.8614 65.9741 84.145 66.1918 81.4606C66.4434 78.368 66.0951 75.9107 64.323 73.5901C64.1924 73.4201 64.0553 73.2565 63.9118 73.1024C63.7892 72.969 63.7973 72.7625 63.9328 72.6418C64.0214 72.5624 64.1424 72.5385 64.2488 72.5687C65.571 72.9531 66.3224 73.7537 66.8981 74.6003C66.7271 72.0843 65.363 70.4959 64.3359 68.4961C63.7489 67.3508 63.2668 66.4137 63.1539 65.7831C63.0927 65.44 63.0201 63.0415 63.1572 60.8241C63.2378 59.5009 63.3942 58.2318 63.6715 57.4693C63.7328 57.301 63.8957 56.5242 64.0392 55.7666C64.1746 55.0486 64.2923 54.3624 64.2859 54.2592C64.2827 54.1925 64.3326 54.1655 64.3133 54.1655C64.1214 54.1766 63.7328 54.4641 63.4216 54.6928C63.3023 54.7802 63.1926 54.8628 63.0927 54.9263C63.1975 55.3218 63.2991 55.9365 63.1378 56.3591C63.112 56.4289 63.0378 56.672 62.9298 57.0309C62.2252 59.3707 60.0564 66.5693 57.7683 68.1164C56.48 68.9869 55.8576 68.7121 55.4319 68.1037C55.2803 67.8861 55.1706 67.632 55.061 67.3794C54.8723 66.9442 54.6853 66.5137 54.3354 66.536C53.9629 66.5598 53.8017 66.9759 53.6146 67.462C53.2389 68.4309 52.7842 69.6048 50.7106 69.5921C48.545 69.5809 48.0791 68.3229 47.7179 67.3461C47.5615 66.9219 47.4308 66.5693 47.2003 66.5407C46.9874 66.5153 46.8262 66.7965 46.6262 67.1427C46.1425 67.9846 45.5088 69.0869 43.3158 68.6835C41.9743 68.4357 40.8149 66.8108 39.899 64.7871C38.4994 61.6945 37.6239 57.6139 37.5819 56.2987C37.5626 55.7094 37.4078 55.3901 37.224 55.2742C37.1708 55.2408 37.1176 55.2297 37.0676 55.236C37.0127 55.244 36.9563 55.2773 36.9063 55.3282C36.7612 55.4791 36.6886 55.7713 36.7967 56.1621L36.7918 56.1637ZM34.5828 70.4355C36.5548 66.995 38.5704 63.4799 36.1598 56.3622L36.1533 56.3432C35.9727 55.6999 36.1307 55.1789 36.4194 54.8802C36.5709 54.723 36.758 54.6245 36.9611 54.5927C37.1675 54.561 37.382 54.6007 37.5787 54.7262C37.9254 54.9454 38.2124 55.441 38.2398 56.2812C38.2801 57.5488 39.1347 61.5055 40.5005 64.5235C41.3374 66.3708 42.3468 67.8448 43.4336 68.0449C45.1621 68.3626 45.6636 67.4906 46.0457 66.8235C46.365 66.2675 46.6246 65.8148 47.276 65.8942C47.9097 65.9721 48.1032 66.4947 48.337 67.1269C48.6289 67.9163 49.0046 68.9329 50.7074 68.9424C52.3214 68.9503 52.6859 68.01 52.9874 67.2317C53.2567 66.5344 53.4889 65.9371 54.2886 65.8863C55.1078 65.8339 55.3851 66.4772 55.6657 67.1269C55.7624 67.3492 55.8592 67.5732 55.9737 67.7384C56.1865 68.0434 56.5445 68.1498 57.3878 67.5811C59.4824 66.1659 61.5979 59.1372 62.2864 56.8515C62.3961 56.4845 62.4703 56.2367 62.5106 56.1351C62.6283 55.8269 62.5009 55.271 62.4106 54.974C62.3783 54.9311 62.3525 54.8755 62.3348 54.8072C62.3235 54.7627 62.3155 54.7262 62.3122 54.6976C62.2235 54.418 62.2477 54.2036 62.3251 54.0717C62.3687 53.7318 62.4832 53.6905 62.6573 53.9431C62.754 53.9828 62.8476 54.0845 62.9072 54.2576L63.0185 54.175C63.4006 53.8923 63.8795 53.5396 64.2698 53.5174C64.6487 53.4952 64.9115 53.6794 64.9438 54.2258C64.9534 54.3815 64.8309 55.1296 64.6874 55.8889C64.5374 56.6799 64.3633 57.5011 64.2939 57.6933C64.0408 58.3938 63.8941 59.601 63.8167 60.8669C63.6828 63.0367 63.7473 65.351 63.8054 65.675C63.9037 66.2119 64.3633 67.1094 64.926 68.207C66.1434 70.5785 67.8204 73.3105 67.5495 76.3158C67.5414 76.4174 67.4834 76.5143 67.3883 76.5683C67.2302 76.6605 67.0271 76.608 66.9352 76.4524L66.8561 76.3205C66.4417 75.6264 65.9919 74.3382 65.2614 73.7918C66.7949 76.2379 67.0964 78.5411 66.8545 81.5162C66.5949 84.7121 65.6855 85.8748 65.0002 86.5372C64.9938 86.5451 64.9857 86.553 64.9776 86.561C64.9615 86.5769 64.9405 86.5928 64.9196 86.6086L64.9035 86.6213C64.7196 86.7611 64.5697 86.7325 64.4326 86.5546C64.3923 86.5006 64.3246 86.3688 64.2278 86.1766C64.0746 85.8748 63.8376 85.4062 63.6232 85.0218C63.7135 86.4625 63.4023 88.5846 62.7573 90.5352C61.9736 92.9019 60.6869 95.0431 58.9986 95.5117C58.9519 95.5244 58.9035 95.5371 58.8535 95.5482C58.5729 95.6419 58.3972 95.5259 58.2988 95.2639C58.2488 95.1304 58.2392 94.9287 58.2521 94.7C57.7216 95.4942 57.0443 96.3519 56.2316 97.0651C54.9626 98.1786 53.3663 98.941 51.4781 98.6059C51.6103 98.7758 51.9506 99.0474 52.4375 99.4318C52.6568 99.605 52.9035 99.8019 53.1389 99.9941C53.2163 100.056 53.2631 100.153 53.2583 100.258C53.2534 100.437 53.0986 100.579 52.9148 100.572C48.1871 100.394 44.6123 97.6036 42.0678 94.5125C40.2183 92.2665 38.9154 89.8649 38.1124 88.2018C38.2189 88.7863 38.372 89.4153 38.5526 89.8776C38.5946 89.9697 38.593 90.0777 38.5397 90.173C38.4494 90.3303 38.2479 90.3875 38.0883 90.2985C35.8082 89.0405 34.5263 87.0772 33.912 84.3849C33.2106 81.3081 33.3863 79.0272 33.9426 77.0147C33.8249 77.1687 33.7266 77.3403 33.6443 77.5341C33.3912 78.125 33.267 78.9414 33.1574 80.1454C33.1525 80.2868 33.0558 80.4154 32.909 80.4536C32.7317 80.4996 32.5511 80.3948 32.5043 80.2201C30.9854 74.5781 32.7687 73.6123 34.586 70.4403L34.5828 70.4355Z" fill="#600A0A"/>
<path fill-rule="evenodd" clip-rule="evenodd" d="M36.5311 55.5662C36.96 55.7378 37.9516 56.7305 37.9516 56.7305C37.9516 56.7305 37.6162 53.1614 38.5869 52.1654C39.5576 51.1711 40.5283 50.7009 40.5574 48.3501C40.5864 46.0008 39.9285 43.4562 42.3553 43.0146C44.782 42.5715 55.2001 42.1855 57.3415 43.1242C59.4812 44.0646 60.7099 45.9167 60.339 47.6861C59.9682 49.4556 60.081 50.7263 61.2807 51.7223C62.4465 52.7277 62.6416 54.4305 62.7367 55.9792C62.6513 57.5819 64.8636 56.5606 65.378 55.3438C65.8923 54.1271 65.5521 42.0298 59.8827 38.7561C54.1746 36.2131 40.796 35.619 38.1129 39.9871C32.2451 42.9479 33.5061 54.3559 36.5327 55.563L36.5311 55.5662Z" fill="#873303"/>
<path d="M38.2566 57.3737L37.7809 56.8971C37.41 56.527 36.7199 55.898 36.441 55.7868C35.0075 55.215 33.9046 52.556 33.7594 49.322C33.603 45.8418 34.6221 41.5277 37.9422 39.8075C39.216 37.8236 42.8231 36.6354 47.8588 36.5433C52.3188 36.4623 57.0772 37.247 59.9829 38.5399L60.0054 38.5511C65.8216 41.9105 66.1392 54.1619 65.6023 55.4358C65.2104 56.3634 63.9237 57.1926 63.1449 57.0179C62.9369 56.9718 62.458 56.7764 62.4951 55.9806C62.4048 54.4986 62.2145 52.8435 61.1229 51.9016C59.691 50.7135 59.7861 49.1505 60.1038 47.6383C60.4472 45.9991 59.2718 44.2328 57.2449 43.3433C55.1842 42.4395 44.8499 42.8032 42.4006 43.2496C40.7124 43.5577 40.6817 44.8888 40.7688 47.0363C40.7865 47.4684 40.8043 47.9147 40.7994 48.3531C40.7736 50.4276 40.0174 51.1392 39.216 51.8921C39.0676 52.0319 38.9145 52.1764 38.7629 52.3305C38.0292 53.0818 38.105 55.7456 38.1953 56.7081L38.2582 57.3737H38.2566ZM50.7838 42.3092C53.7007 42.3092 56.4403 42.4697 57.4416 42.9097C59.7136 43.9072 60.9729 45.8466 60.5762 47.7368C60.1796 49.6318 60.4198 50.6992 61.4373 51.5426C62.6773 52.6116 62.8821 54.3875 62.9788 55.9679V55.9806V55.9933C62.9514 56.4873 63.1771 56.5382 63.2513 56.554C63.7625 56.6684 64.8331 56.0156 65.154 55.2547C65.6555 54.0666 65.233 42.1409 59.77 38.9704C53.92 36.3718 40.8768 35.9508 38.3195 40.1125L38.284 40.1696L38.2227 40.1998C35.0591 41.7962 34.0916 45.9467 34.2432 49.2998C34.3786 52.3051 35.3783 54.8481 36.6232 55.3437C36.8957 55.4533 37.3343 55.8218 37.6696 56.1268C37.6164 55.0165 37.6197 52.8134 38.413 51.9985C38.571 51.8365 38.729 51.6888 38.8806 51.5458C39.6691 50.8056 40.2915 50.2211 40.3141 48.3468C40.3189 47.9195 40.3012 47.4795 40.2834 47.0554C40.2044 45.1493 40.1238 43.1781 42.3103 42.781C43.689 42.53 47.3573 42.3076 50.7822 42.3076L50.7838 42.3092Z" fill="#600A0A"/>
<path fill-rule="evenodd" clip-rule="evenodd" d="M44.7249 62.9266C41.4145 64.1813 38.8443 67.5975 37.4172 67.3036C36.6368 67.1432 43.4946 73.3833 50.8023 65.5836C57.6552 73.2213 64.8903 67.1385 64.0922 67.3036C62.6651 67.5975 60.1126 64.4274 56.7845 63.2109C53.6902 62.0817 52.4696 64.5243 50.7555 64.4719C48.5787 64.4052 46.31 62.3262 44.7249 62.9266Z" fill="#873303"/>
<path fill-rule="evenodd" clip-rule="evenodd" d="M37.8413 67.2974C37.6914 67.3292 37.5495 67.334 37.4172 67.307C36.6368 67.1465 43.4946 73.3866 50.8023 65.5869C57.0941 72.602 63.71 68.0455 64.1309 67.3816C63.1972 67.4197 62.0298 67.4308 60.7221 67.3673C57.423 67.2085 52.8356 64.3545 52.8356 64.3545L49.0527 64.5927C49.0527 64.5927 48.49 64.6721 46.397 65.9411C44.5975 67.0322 40.8921 68.0058 37.8413 67.2974Z" fill="#C04C07"/>
<path fill-rule="evenodd" clip-rule="evenodd" d="M44.8417 63.2324C43.255 63.8327 41.8199 64.9651 40.6122 65.918C39.6125 66.7073 38.7595 67.3807 38.0226 67.584C38.0532 67.5951 38.0806 67.6094 38.1048 67.6285C38.4837 67.9144 39.0562 68.2638 39.7834 68.5608C42.1956 69.5455 46.2848 69.9203 50.5562 65.3621C50.6804 65.2287 50.89 65.2208 51.0255 65.3431C51.0384 65.3542 51.0496 65.3669 51.0593 65.3812C55.0985 69.8742 59.2587 69.4581 61.7209 68.4798C62.4449 68.1923 63.0189 67.8588 63.4011 67.5872L63.4172 67.5777C62.6932 67.3712 61.8515 66.7518 60.8711 66.0292C59.6731 65.1461 58.2509 64.0995 56.6658 63.5198C54.8776 62.8655 53.7473 63.5167 52.7605 64.0852C52.0897 64.4712 51.4802 64.8222 50.74 64.7999C49.6887 64.7682 48.6519 64.3108 47.6715 63.8772C46.588 63.3991 45.577 62.9528 44.8385 63.2324H44.8417ZM40.1962 65.4098C41.441 64.4283 42.918 63.2625 44.6046 62.6241C45.5995 62.2477 46.7299 62.7464 47.9424 63.2816C48.8664 63.6898 49.8419 64.1186 50.7626 64.1472C51.3076 64.1646 51.8414 63.8565 52.4267 63.5198C53.5393 62.8798 54.8147 62.1444 56.898 62.9052C58.5702 63.5167 60.0343 64.595 61.2678 65.5035C62.4707 66.3897 63.4398 67.1028 64.0219 66.9837C64.1541 66.9567 64.267 66.9837 64.3557 67.0567C64.5653 67.2299 64.3992 67.6809 63.7865 68.1161C63.3688 68.4131 62.7448 68.7768 61.966 69.0865C59.3683 70.1188 55.0195 70.5778 50.7949 66.0657C46.3509 70.627 42.0763 70.2061 39.527 69.1659C38.7401 68.8451 38.1161 68.4623 37.7001 68.1494C37.1083 67.7016 36.9438 67.2426 37.1357 67.0679C37.2276 66.9869 37.3421 66.9567 37.4808 66.9853C38.05 67.1028 39.0078 66.3452 40.193 65.4098H40.1962Z" fill="#600A0A"/>
<path fill-rule="evenodd" clip-rule="evenodd" d="M47.1919 61.3318C47.2629 61.1666 47.458 61.0872 47.6257 61.1587C47.7934 61.2285 47.874 61.4207 47.8031 61.5859C47.8031 61.5891 47.3322 62.6532 48.3158 62.8437C49.1333 63.0026 49.6155 63.4107 50.0154 63.749C50.2879 63.9793 50.5104 64.1683 50.7329 64.1476C50.9151 64.1302 51.078 64.2604 51.0957 64.4415C51.1134 64.6209 50.9796 64.7813 50.7974 64.7988C50.2943 64.848 49.975 64.578 49.5848 64.2477C49.2446 63.9602 48.835 63.6124 48.1901 63.487C46.397 63.1391 47.1919 61.3381 47.1936 61.3334L47.1919 61.3318Z" fill="#600A0A"/>
<path fill-rule="evenodd" clip-rule="evenodd" d="M53.7229 61.5852C53.652 61.42 53.731 61.2279 53.9003 61.158C54.068 61.0881 54.2615 61.1659 54.334 61.3311C54.3373 61.3359 55.1306 63.1369 53.3392 63.4847C52.6926 63.6102 52.2846 63.9564 51.9444 64.2454C51.5542 64.5758 51.2333 64.8474 50.7302 64.7965C50.548 64.7791 50.4142 64.6187 50.4335 64.4392C50.4512 64.2597 50.6141 64.1279 50.7963 64.1454C51.0188 64.1676 51.2413 63.9786 51.5138 63.7467C51.9153 63.4069 52.3959 63.0003 53.2134 62.8415C54.1954 62.6509 53.7278 61.5868 53.7261 61.5836L53.7229 61.5852Z" fill="#600A0A"/>
<path fill-rule="evenodd" clip-rule="evenodd" d="M53.5264 55.9977C53.5264 55.9977 54.9856 54.6716 55.7387 54.7351C56.4917 54.7986 59.5554 55.4101 59.5554 55.4101C57.1093 57.7861 54.6438 55.7849 53.5264 55.9993V55.9977Z" fill="white"/>
<path fill-rule="evenodd" clip-rule="evenodd" d="M53.3248 55.7361C53.5086 55.5725 54.9275 54.3353 55.7676 54.4052C56.5303 54.4687 59.6117 55.0849 59.6214 55.0865C59.8004 55.1215 59.9165 55.2946 59.881 55.4709C59.8665 55.5376 59.8343 55.5948 59.7891 55.6392C57.9235 57.4514 56.0788 56.9177 54.7357 56.527C54.2519 56.3873 53.8408 56.2681 53.5908 56.3158C53.4102 56.3491 53.2377 56.2332 53.2022 56.0553C53.178 55.9299 53.2296 55.8092 53.3248 55.7361ZM55.7128 55.0579C55.3694 55.0294 54.7889 55.4073 54.3487 55.7425C54.5293 55.7853 54.7212 55.8409 54.9227 55.8997C55.9837 56.2078 57.3994 56.616 58.8232 55.5948C57.8848 55.4121 56.2353 55.1008 55.7128 55.0579Z" fill="#600A0A"/>
<path fill-rule="evenodd" clip-rule="evenodd" d="M52.7858 51.511C52.7858 51.511 52.7149 52.6323 53.3131 52.6053C53.9129 52.5783 57.9231 51.6444 59.0647 51.9779C60.208 52.3114 60.8497 52.9928 60.8497 52.9928C60.8497 52.9928 60.1354 51.538 58.9583 51.2235C57.7812 50.9106 52.7713 51.1362 52.7858 51.511Z" fill="#873303"/>
<path fill-rule="evenodd" clip-rule="evenodd" d="M53.3288 52.9333C52.3581 52.9762 52.4548 51.5008 52.4548 51.496V51.4754C52.458 51.4547 52.4613 51.4357 52.4677 51.415C52.5338 51.172 52.995 51.0116 53.6626 50.9243C54.2076 50.8544 54.9299 50.802 55.6717 50.7734C57.0261 50.7226 58.4612 50.7543 59.0449 50.9084C60.2785 51.2371 61.0363 52.6348 61.1363 52.8269C61.2121 52.9572 61.1911 53.1255 61.075 53.2319C60.9412 53.3542 60.7316 53.3479 60.6074 53.216C60.6058 53.2145 60.0269 52.6014 58.9724 52.2933C58.2258 52.0741 55.9635 52.4823 54.5413 52.7396C53.9641 52.8444 53.519 52.9238 53.3288 52.9333Z" fill="#600A0A"/>
<path fill-rule="evenodd" clip-rule="evenodd" d="M47.5934 55.9977C47.5934 55.9977 46.1342 54.6716 45.3811 54.7351C44.6281 54.7986 41.5645 55.4101 41.5645 55.4101C44.0122 57.7861 46.4776 55.7849 47.5934 55.9993V55.9977Z" fill="white"/>
<path fill-rule="evenodd" clip-rule="evenodd" d="M46.763 55.7425C46.3228 55.4073 45.7423 55.0294 45.3989 55.0579C44.8764 55.1008 43.2269 55.4121 42.2884 55.5948C43.7122 56.6176 45.128 56.2078 46.1873 55.8997C46.3905 55.8409 46.5808 55.7853 46.7614 55.7425H46.763ZM45.344 54.4052C46.1825 54.3353 47.6031 55.5725 47.7869 55.7361C47.882 55.8092 47.9336 55.9314 47.9095 56.0553C47.8756 56.2316 47.7014 56.3491 47.5208 56.3158C47.2693 56.2681 46.8597 56.3873 46.3744 56.527C45.0312 56.9161 43.1866 57.4514 41.3209 55.6392C41.2758 55.5948 41.2419 55.5376 41.229 55.4709C41.1936 55.2946 41.3097 55.1215 41.4886 55.0865C41.4967 55.0849 44.5797 54.4687 45.3424 54.4052H45.344Z" fill="#600A0A"/>
<path fill-rule="evenodd" clip-rule="evenodd" d="M48.3334 51.511C48.3334 51.511 48.406 52.6323 47.8062 52.6053C47.2063 52.5783 43.1961 51.6444 42.0545 51.9779C40.9129 52.3114 40.2695 52.9928 40.2695 52.9928C40.2695 52.9928 40.9822 51.538 42.1609 51.2235C43.338 50.9106 48.348 51.1362 48.3334 51.511Z" fill="#873303"/>
<path fill-rule="evenodd" clip-rule="evenodd" d="M48.6613 51.4904C48.6613 51.4904 48.7581 52.9706 47.7874 52.9278C47.5971 52.9198 47.152 52.8388 46.5748 52.734C45.1526 52.4767 42.8903 52.0685 42.1437 52.2877C41.0892 52.5958 40.5103 53.2089 40.5087 53.2105C40.3846 53.3423 40.1733 53.3502 40.0395 53.2263C39.9234 53.1199 39.9024 52.95 39.9782 52.8214C40.0766 52.6292 40.836 51.2316 42.0696 50.9028C42.6533 50.7472 44.09 50.717 45.4428 50.7678C46.1862 50.7964 46.907 50.8488 47.452 50.9187C48.1195 51.0045 48.5807 51.1649 48.6484 51.4094C48.6532 51.4285 48.6565 51.4491 48.6581 51.4682V51.4889H48.6597L48.6613 51.4904Z" fill="#600A0A"/>
<path fill-rule="evenodd" clip-rule="evenodd" d="M42.0356 31.6122C41.8647 31.6774 41.6728 31.5932 41.6083 31.4248C41.5422 31.2565 41.6277 31.0675 41.7986 31.004C41.8195 30.996 48.966 28.2357 56.6477 31.0627C56.8202 31.1263 56.9057 31.3137 56.8428 31.482C56.7783 31.6504 56.5881 31.7361 56.4171 31.6742C48.9724 28.9345 42.0566 31.6059 42.0356 31.6122Z" fill="#600A0A"/>
<path fill-rule="evenodd" clip-rule="evenodd" d="M43.5543 55.0471C43.5495 55.1155 43.585 55.168 43.6446 55.2046C43.7317 55.2587 43.8381 55.1521 43.7849 55.0726C43.7575 55.0312 43.722 55.0042 43.6769 54.9803C43.6205 54.9501 43.5576 54.9883 43.5527 55.0471H43.5543Z" fill="#600A0A"/>
<path fill-rule="evenodd" clip-rule="evenodd" d="M57.3098 51.7897C57.3308 51.7558 57.3598 51.7284 57.3646 51.6881C57.3678 51.6655 57.3453 51.651 57.3259 51.6655C57.2953 51.6913 57.2776 51.7268 57.2582 51.7606C57.2421 51.7929 57.2888 51.8187 57.3098 51.788V51.7897Z" fill="#600A0A"/>
<path fill-rule="evenodd" clip-rule="evenodd" d="M57.6358 51.9733C57.6793 51.9733 57.6793 51.9072 57.6358 51.9072C57.5923 51.9072 57.5906 51.9733 57.6358 51.9733Z" fill="#600A0A"/>
<path fill-rule="evenodd" clip-rule="evenodd" d="M41.967 51.6719C42.0154 51.7106 42.0686 51.7381 42.1315 51.7429C42.1573 51.7445 42.1621 51.7123 42.1444 51.701C42.1009 51.6736 42.0589 51.6558 42.0218 51.6204C41.988 51.5865 41.9299 51.6429 41.967 51.6719Z" fill="#600A0A"/>
<path fill-rule="evenodd" clip-rule="evenodd" d="M51.0479 64.4492C51.0495 64.4783 51.0527 64.4992 51.0817 64.5153C51.0946 64.5218 51.1107 64.5218 51.1253 64.5153C51.1543 64.4992 51.1575 64.4783 51.1591 64.4492C51.1639 64.3815 51.0446 64.3815 51.0495 64.4492H51.0479Z" fill="#600A0A"/>
<path fill-rule="evenodd" clip-rule="evenodd" d="M51.1293 64.4713C51.0245 64.4889 50.9261 64.5113 50.8261 64.5433C50.752 64.5672 50.673 64.5832 50.6423 64.6536C50.6359 64.6696 50.6488 64.6872 50.6649 64.692C50.7423 64.7144 50.8165 64.6616 50.8906 64.6392C50.9793 64.6104 51.068 64.588 51.1567 64.5608C51.218 64.5417 51.1922 64.4601 51.1309 64.4713H51.1293Z" fill="#600A0A"/>
<path fill-rule="evenodd" clip-rule="evenodd" d="M35.4294 60.1659C35.2327 59.3908 34.491 58.2489 35.1279 57.5136C35.6326 56.9291 36.3969 57.4993 36.6694 57.9519C36.8339 58.2267 36.879 58.6063 37.2079 58.7444C37.2644 58.7683 37.3257 58.7492 37.345 58.692C37.4934 58.2553 37.0306 57.6438 36.7484 57.3214C36.3453 56.8624 35.6874 56.8005 35.144 57.0403C34.0508 57.5215 34.8199 59.5894 35.4068 60.1754C35.4165 60.1849 35.431 60.1754 35.4278 60.1643L35.4294 60.1659Z" fill="#600A0A"/>
<path fill-rule="evenodd" clip-rule="evenodd" d="M65.8474 60.1475C66.4262 59.355 66.9422 57.4746 65.5829 57.0696C64.767 56.8282 63.5706 57.8923 63.6238 58.6292C63.6302 58.7181 63.7512 58.7816 63.8237 58.707C64.2784 58.2432 64.5768 57.3808 65.3701 57.3348C66.0086 57.2983 66.1795 58.1861 66.1957 58.6038C66.2166 59.1438 65.8022 59.6027 65.7748 60.1284C65.7732 60.1665 65.8264 60.1745 65.8458 60.1459L65.8474 60.1475Z" fill="#600A0A"/>
<path fill-rule="evenodd" clip-rule="evenodd" d="M42.3453 55.4566C42.3453 55.4566 42.3512 55.4487 42.3453 55.4487C42.3393 55.4487 42.3393 55.4566 42.3453 55.4566Z" fill="#600A0A"/>
<path fill-rule="evenodd" clip-rule="evenodd" d="M43.9537 31.1412C43.9537 31.1412 43.9596 31.1333 43.9537 31.1333C43.9477 31.1333 43.9477 31.1412 43.9537 31.1412Z" fill="#600A0A"/>
<path fill-rule="evenodd" clip-rule="evenodd" d="M55.2536 30.9196C55.2649 30.9196 55.2649 30.9019 55.2536 30.9019C55.2423 30.9019 55.2423 30.9196 55.2536 30.9196Z" fill="#600A0A"/>
<path fill-rule="evenodd" clip-rule="evenodd" d="M50.1613 30.3003C50.1758 30.3003 50.1758 30.2793 50.1613 30.2793C50.1468 30.2793 50.1468 30.3003 50.1613 30.3003Z" fill="#600A0A"/>
<path d="M36.2853 42.5268C36.0015 42.6632 35.7629 42.8789 35.6 43.1438C35.5726 43.1882 35.642 43.2278 35.6694 43.1834C35.8258 42.9297 36.0548 42.7251 36.3273 42.595C36.374 42.5728 36.3337 42.5046 36.287 42.5268H36.2853Z" fill="#873303"/>
<path fill-rule="evenodd" clip-rule="evenodd" d="M65.4287 54.6507C65.4287 54.6507 65.4303 54.6668 65.4319 54.6749C65.4335 54.6846 65.4513 54.6846 65.4529 54.6749C65.4545 54.6668 65.4561 54.6588 65.4577 54.6507C65.461 54.6281 65.4255 54.6281 65.4303 54.6507H65.4287Z" fill="#600A0A"/>
<path fill-rule="evenodd" clip-rule="evenodd" d="M44.2211 69.7938C44.2308 69.7938 44.2308 69.7793 44.2211 69.7793C44.2114 69.7793 44.2114 69.7938 44.2211 69.7938Z" fill="#600A0A"/>
<path fill-rule="evenodd" clip-rule="evenodd" d="M50.4899 44.7661C50.3335 46.3051 50.2513 47.8345 50.2384 49.4418C50.2352 49.7451 50.2981 50.1311 50.3964 50.2613C50.5254 50.4328 50.5915 50.4376 50.7205 50.2613C50.8157 50.1311 50.8834 49.7451 50.8785 49.4418C50.8495 47.8171 50.7125 46.313 50.5512 44.7661C50.5415 44.6756 50.4996 44.6756 50.4899 44.7661Z" fill="#C01E07"/>
<path fill-rule="evenodd" clip-rule="evenodd" d="M49.1262 55.0477C49.0488 55.7783 49.0698 56.5136 49.0182 57.2458C48.965 57.9906 48.8134 58.7244 48.8682 59.4724C48.8779 59.6011 49.0649 59.6281 49.1085 59.5026C49.5648 58.1955 49.7035 56.3421 49.1649 55.0429C49.1568 55.0239 49.1294 55.027 49.1262 55.0477Z" fill="#600A0A"/>
<path d="M50.5218 51.2768C49.9059 51.2768 49.4012 51.0529 49.0206 50.6082C47.6081 48.9581 48.3563 44.851 48.3901 44.6763L48.5482 44.7049C48.5401 44.7462 47.779 48.912 49.1448 50.505C49.4995 50.9179 49.9768 51.1244 50.5541 51.1164V51.2752C50.5444 51.2752 50.5331 51.2752 50.5218 51.2752V51.2768Z" fill="white"/>
<path d="M50.6527 51.2806C50.6188 51.2806 50.5866 51.2806 50.5527 51.279L50.5592 51.1202C51.1606 51.1424 51.6492 50.9439 52.0136 50.5294C53.4003 48.9523 52.6344 44.7515 52.6264 44.7102L52.7844 44.6816C52.8166 44.8563 53.5729 48.9984 52.1346 50.6342C51.7572 51.0646 51.2574 51.2822 50.6511 51.2822L50.6527 51.2806Z" fill="white"/>
<path d="M44.5808 56.4961C45.018 56.4961 45.3725 56.147 45.3725 55.7163C45.3725 55.2857 45.018 54.9365 44.5808 54.9365C44.1435 54.9365 43.7891 55.2857 43.7891 55.7163C43.7891 56.147 44.1435 56.4961 44.5808 56.4961Z" fill="#600A0A"/>
<path d="M56.3064 56.4082C56.7436 56.4082 57.0981 56.0591 57.0981 55.6284C57.0981 55.1978 56.7436 54.8486 56.3064 54.8486C55.8691 54.8486 55.5146 55.1978 55.5146 55.6284C55.5146 56.0591 55.8691 56.4082 56.3064 56.4082Z" fill="#600A0A"/>
<path d="M44.2147 56.1186C44.3376 56.1186 44.4372 56.0205 44.4372 55.8996C44.4372 55.7787 44.3376 55.6807 44.2147 55.6807C44.0918 55.6807 43.9922 55.7787 43.9922 55.8996C43.9922 56.0205 44.0918 56.1186 44.2147 56.1186Z" fill="white"/>
<path d="M55.951 56.0526C56.0739 56.0526 56.1736 55.9546 56.1736 55.8337C56.1736 55.7128 56.0739 55.6147 55.951 55.6147C55.8281 55.6147 55.7285 55.7128 55.7285 55.8337C55.7285 55.9546 55.8281 56.0526 55.951 56.0526Z" fill="white"/>
</g>
<path d="M49.8223 90.0494C39.3075 90.0494 29.4231 86.0164 21.9881 78.6923C14.553 71.3681 10.459 61.6296 10.459 51.2732C10.459 40.9168 14.553 31.1783 21.9881 23.8542C29.4231 16.53 39.3091 12.4971 49.8223 12.4971C60.3356 12.4971 70.2216 16.53 77.6566 23.8542C85.0917 31.1783 89.1857 40.9168 89.1857 51.2732C89.1857 61.6296 85.0917 71.3681 77.6566 78.6923C70.2216 86.0164 60.3356 90.0494 49.8223 90.0494ZM49.8223 12.6543C28.2057 12.6543 10.6186 29.9791 10.6186 51.2732C10.6186 72.5674 28.2057 89.8921 49.8223 89.8921C71.439 89.8921 89.0261 72.5674 89.0261 51.2732C89.0261 29.9791 71.439 12.6543 49.8223 12.6543Z" fill="#C07A07"/>
<path d="M50.5414 17.2129C51.3803 17.2129 52.0603 16.543 52.0603 15.7168C52.0603 14.8905 51.3803 14.2207 50.5414 14.2207C49.7025 14.2207 49.0225 14.8905 49.0225 15.7168C49.0225 16.543 49.7025 17.2129 50.5414 17.2129Z" fill="#C04C07"/>
<path d="M24.2162 79.106C25.4024 79.106 26.364 78.1588 26.364 76.9905C26.364 75.8221 25.4024 74.875 24.2162 74.875C23.03 74.875 22.0684 75.8221 22.0684 76.9905C22.0684 78.1588 23.03 79.106 24.2162 79.106Z" fill="#C04C07"/>
<path d="M14.777 34.8088C15.3701 34.8088 15.8509 34.3353 15.8509 33.7511C15.8509 33.1669 15.3701 32.6934 14.777 32.6934C14.1839 32.6934 13.7031 33.1669 13.7031 33.7511C13.7031 34.3353 14.1839 34.8088 14.777 34.8088Z" fill="#C04C07"/>
<path d="M77.7398 80.2864C78.6624 80.2864 79.4104 79.5497 79.4104 78.641C79.4104 77.7323 78.6624 76.9956 77.7398 76.9956C76.8173 76.9956 76.0693 77.7323 76.0693 78.641C76.0693 79.5497 76.8173 80.2864 77.7398 80.2864Z" fill="#C04C07"/>
<path d="M72.1921 21.6077C72.3613 21.6077 72.4985 20.5134 72.4985 19.1635C72.4985 17.8136 72.3613 16.7192 72.1921 16.7192C72.0229 16.7192 71.8857 17.8136 71.8857 19.1635C71.8857 20.5134 72.0229 21.6077 72.1921 21.6077Z" fill="#C04C07"/>
<path d="M72.1915 19.4645C73.5621 19.4645 74.6731 19.3296 74.6731 19.1631C74.6731 18.9967 73.5621 18.8618 72.1915 18.8618C70.821 18.8618 69.71 18.9967 69.71 19.1631C69.71 19.3296 70.821 19.4645 72.1915 19.4645Z" fill="#C04C07"/>
<path d="M47.3876 92.6941C47.6227 92.6941 47.8133 91.4732 47.8133 89.9672C47.8133 88.4611 47.6227 87.2402 47.3876 87.2402C47.1525 87.2402 46.9619 88.4611 46.9619 89.9672C46.9619 91.4732 47.1525 92.6941 47.3876 92.6941Z" fill="#C04C07"/>
<path d="M47.3876 90.3028C49.2898 90.3028 50.8318 90.1523 50.8318 89.9666C50.8318 89.7809 49.2898 89.6304 47.3876 89.6304C45.4854 89.6304 43.9434 89.7809 43.9434 89.9666C43.9434 90.1523 45.4854 90.3028 47.3876 90.3028Z" fill="#C04C07"/>
<path d="M3.54741 54.7664C5.50659 54.7664 7.09482 53.2021 7.09482 51.2724C7.09482 49.3427 5.50659 47.7783 3.54741 47.7783C1.58823 47.7783 0 49.3427 0 51.2724C0 53.2021 1.58823 54.7664 3.54741 54.7664Z" fill="#C04C07"/>
<path d="M4.97496 41.1392C6.60019 41.1392 7.9177 39.8415 7.9177 38.2407C7.9177 36.64 6.60019 35.3423 4.97496 35.3423C3.34974 35.3423 2.03223 36.64 2.03223 38.2407C2.03223 39.8415 3.34974 41.1392 4.97496 41.1392Z" fill="#C04C07"/>
<path d="M9.33991 30.393C10.5804 30.393 11.5861 29.4025 11.5861 28.1806C11.5861 26.9588 10.5804 25.9683 9.33991 25.9683C8.09939 25.9683 7.09375 26.9588 7.09375 28.1806C7.09375 29.4025 8.09939 30.393 9.33991 30.393Z" fill="#C04C07"/>
<path d="M20.4498 92.3281C20.2982 92.068 20.2289 91.8143 20.2418 91.5669C20.5546 91.4146 20.8174 91.3528 21.0302 91.3829C21.1512 91.5827 21.2141 91.8317 21.2205 92.1299C20.9915 92.2742 20.7352 92.3408 20.4514 92.3281H20.4498Z" fill="#531D01"/>
<path d="M24.118 94.6587C23.9567 94.4034 23.8777 94.1528 23.881 93.9054C24.1873 93.7421 24.4485 93.6707 24.6614 93.6929C24.7904 93.888 24.8613 94.1338 24.8791 94.4335C24.6565 94.5858 24.4018 94.6619 24.118 94.6587Z" fill="#531D01"/>
<path d="M53.8972 95.1631C53.6134 95.2757 53.349 95.309 53.1022 95.263C52.991 94.9379 52.9652 94.6731 53.0232 94.4701C53.2409 94.3797 53.4989 94.3511 53.8021 94.386C53.9165 94.6286 53.9488 94.8872 53.8972 95.1631Z" fill="#531D01"/>
<path d="M19.4811 14.7246L18.0847 15.8824L18.5136 15.4853L22.4367 19.5448L22.2884 19.8529L21.4031 20.0593L19.9535 18.5918L18.7393 19.7544L19.4037 20.4278L19.1957 20.9614C18.878 21.0615 18.4781 21.1044 17.9928 21.0901C17.5074 21.0758 17.1156 20.9995 16.8157 20.8582L16.7222 20.3484L17.2672 19.8259L15.9369 18.4934C15.687 18.2599 15.4451 18.1519 15.2097 18.1726C15.0549 18.3028 14.9694 18.4537 14.9517 18.6284C14.9356 18.8031 14.9855 18.9492 15.1032 19.0683C15.3016 19.2684 15.587 19.324 15.9611 19.2351L15.9756 19.7655C15.1274 19.937 14.5308 19.8497 14.1858 19.5019C13.9778 19.2922 13.8858 19.0429 13.91 18.757C13.9326 18.4695 14.0584 18.217 14.2857 17.9994C14.6243 17.6739 15.0823 17.5262 15.6579 17.5547C16.2336 17.5833 16.7012 17.7707 17.0592 18.1138L18.0282 19.0953L19.2715 17.9041L17.6671 16.2794L17.035 16.8861L16.3416 16.7432L16.2384 16.4525L18.7909 14.1655L19.1634 14.4736L19.4779 14.7277L19.4811 14.7246Z" fill="white"/>
<path d="M21.9193 12.8309L20.5939 13.8712L20.9631 13.4932L24.5154 17.9767L24.3348 18.2673L23.4318 18.3785L20.1376 14.2206L19.4813 14.724L18.8073 14.5065L18.7363 14.2063L21.2179 12.2544L21.8306 12.5752L21.9177 12.8293L21.9193 12.8309Z" fill="white"/>
<path d="M25.9007 10.2069L24.0237 11.4616L24.4349 11.1154L25.4363 12.6146C25.5927 12.8481 25.662 13.1197 25.6475 13.4294C25.6314 13.7391 25.562 14.1043 25.4395 14.5268L28.2532 14.6872L28.4129 14.9064L28.1662 15.8434L23.669 14.9096L23.4981 14.1822L24.5913 13.4738C24.5688 13.369 24.522 13.261 24.4462 13.1483L23.5319 11.7808L21.9147 12.8306L21.2616 12.5606L21.2148 12.2557L25.2105 9.60498L25.6523 10.083L25.9007 10.2085V10.2069Z" fill="white"/>
<path d="M31.4557 7.47966L29.9787 8.21023L30.4495 7.97676L33.0037 12.9939L32.7682 13.2448L31.8604 13.1781L30.4737 10.4544L29.4304 10.9689C28.5839 11.3866 28.3082 11.8853 28.6016 12.4618C28.8354 12.9208 29.5594 13.348 30.7752 13.7451L30.5221 14.4058C29.7078 14.1596 29.0402 13.888 28.5194 13.591C27.997 13.2941 27.6358 12.9462 27.4326 12.5476C27.2262 12.1426 27.2101 11.7297 27.381 11.3104C27.5535 10.8895 27.947 10.5274 28.5629 10.2241L29.9948 9.51732L29.4579 8.46434L25.8411 10.2511L25.2235 9.90801L25.2139 9.5999L30.8349 6.82373L31.4476 7.18108L31.4525 7.47966H31.4557Z" fill="white"/>
<path d="M45.9802 4.04463L44.3678 4.29715L44.866 4.09386L45.9109 9.72562L45.6142 9.90032L44.7628 9.58585L43.8002 4.39721L41.6153 4.79108L42.1248 4.64814L43.1584 10.2195L42.8617 10.3942L42.0104 10.0798L41.6089 7.91824C41.4783 7.98971 41.3525 8.03577 41.2332 8.05642C41.0203 8.09454 40.7784 8.08342 40.5059 8.02465C40.6253 8.22636 40.7059 8.43282 40.7446 8.64246C40.83 9.10145 40.7414 9.50962 40.4817 9.86696C40.2221 10.2259 39.8384 10.4498 39.3337 10.5404C38.829 10.6309 38.284 10.5388 37.6986 10.2608C37.1149 9.9829 36.5054 9.41115 35.8701 8.544L36.3748 8.09771C36.8086 8.69646 37.2262 9.12686 37.6245 9.3905C38.0244 9.65415 38.4323 9.74785 38.8516 9.67162C39.1966 9.60968 39.4514 9.46356 39.6159 9.23486C39.7803 9.00616 39.8352 8.75364 39.7852 8.47888C39.7481 8.27559 39.6529 8.09453 39.5046 7.93572C39.3546 7.7769 39.1595 7.6816 38.9209 7.64984L37.9873 8.39629L37.2101 7.54025C37.4632 7.23691 37.8035 7.03362 38.2308 6.93039C38.4952 6.7271 38.6822 6.5111 38.7903 6.28081C38.8983 6.05211 38.9354 5.84247 38.8999 5.65189C38.8596 5.43589 38.7419 5.28184 38.5452 5.18813C38.2936 5.2056 38.0147 5.32472 37.7083 5.5423C37.402 5.75988 37.1262 6.02988 36.8844 6.35069L36.1265 5.65506C36.578 5.01184 37.1117 4.63544 37.7309 4.52426C38.1969 4.44009 38.6403 4.53379 39.0612 4.8022C39.482 5.07219 39.7303 5.40571 39.8045 5.80594C39.89 6.26493 39.7529 6.69851 39.3966 7.10826L39.6675 7.23214C39.9642 7.34808 40.2754 7.37667 40.6011 7.31791C40.9542 7.25438 41.2251 7.11144 41.4186 6.88592L41.0493 4.89114L40.1818 5.04678L39.6868 4.5465L39.7658 4.24792L45.5916 3.19971L46.0786 3.71111L45.9835 4.03986L45.9802 4.04463Z" fill="white"/>
<path d="M52.5491 3.9674L50.5061 3.96105L51.0318 3.89911L51.1446 9.56421L50.8221 9.68968L50.032 9.24498L50.0046 7.8569C49.745 8.03477 49.4451 8.12689 49.1081 8.13324C48.4921 8.14436 47.9084 7.91407 47.3553 7.43761C46.8023 6.96274 46.5056 6.42911 46.4669 5.83671L46.4314 4.03887L45.8429 4.04998L45.4365 3.47823L45.5913 3.20506L52.3153 3.07324L52.2862 3.65452L52.5507 3.96581L52.5491 3.9674ZM48.6227 7.19303C49.0017 7.18509 49.3226 7.0628 49.5886 6.82457L47.5505 4.32633L47.5988 6.73245C47.8004 7.0485 48.1422 7.20097 48.6227 7.19303ZM49.9272 3.97057L48.0003 4.0071L49.9127 6.33858L49.9708 6.20835L49.9256 3.97057H49.9272Z" fill="white"/>
<path d="M51.4709 0.3133C51.9498 0.337123 52.348 0.575353 52.6641 1.03117L52.448 1.49015C52.1997 1.30434 51.9578 1.20587 51.7208 1.19475C51.437 1.18046 51.2016 1.25669 51.0145 1.42027C50.8275 1.58386 50.7259 1.81256 50.7114 2.10638C50.7001 2.32555 50.7404 2.53042 50.8323 2.7226C50.9242 2.91318 51.0758 3.14823 51.2838 3.42458L51.0807 3.64534L50.605 3.62152L50.5421 3.46905L49.5359 1.85068C49.2344 1.3901 48.8877 1.14869 48.4959 1.12963C48.1782 1.11375 47.7896 1.23922 47.3301 1.50286L46.7754 0.416533C47.243 0.11954 47.6913 -0.0186335 48.1153 0.00201304C48.8248 0.0369534 49.4763 0.542001 50.0696 1.51715C50.1083 1.13916 50.2631 0.840582 50.5308 0.619822C50.7985 0.399063 51.1129 0.297418 51.4693 0.314888L51.4709 0.3133Z" fill="white"/>
<path d="M58.8433 4.70689L57.2018 4.51313L57.7355 4.4909L57.0502 10.1481L56.7132 10.2291L55.9925 9.68113L56.1215 8.62021C55.8006 8.79015 55.4426 8.85209 55.0476 8.80603C54.4897 8.74092 53.964 8.46298 53.469 7.97223C52.9739 7.48147 52.6224 6.88114 52.416 6.1728L52.616 5.78369C53.2013 5.77893 53.6222 5.73128 53.8737 5.64075C54.1269 5.55023 54.2671 5.38823 54.2945 5.15635C54.3316 4.85301 54.1059 4.49725 53.6173 4.09067L52.4289 3.95091L52.1064 3.32992L52.2709 3.06787L58.6853 3.82227L59.0078 4.45437L58.8449 4.70689H58.8433ZM56.6278 4.44643L54.5138 4.19708C55.0669 4.69101 55.312 5.1897 55.2524 5.69157C55.1701 6.36656 54.6219 6.7382 53.606 6.8049C53.6818 7.1956 53.8092 7.51006 53.993 7.74512C54.1285 7.8007 54.2849 7.84041 54.459 7.86105C54.8009 7.90076 55.1459 7.85788 55.491 7.73082C55.8361 7.60377 56.1086 7.39095 56.3085 7.09237L56.6294 4.44484L56.6278 4.44643Z" fill="white"/>
<path d="M69.3892 8.06123L67.6591 7.33384L68.2041 7.37037L66.2772 12.8036L65.9305 12.8115L65.3468 12.1238L66.0966 10.0115L63.1861 9.01098L62.783 9.17933L64.3729 11.4822L64.2923 11.7395L63.3861 12.1159L61.4092 8.02947L61.8929 7.45454L63.1184 7.87542C63.1893 7.79442 63.249 7.69118 63.2925 7.56572L63.8408 6.01881L62.0122 5.38988L61.8333 4.7149L62.0509 4.49414L69.6214 7.21314L69.436 7.65942L69.3909 8.06282L69.3892 8.06123ZM67.1141 7.14643L64.3955 6.21098L64.9243 6.32216L64.3229 8.01677C64.2761 8.14859 64.2036 8.27246 64.1052 8.38682L66.3933 9.17456L67.1124 7.14643H67.1141Z" fill="white"/>
<path d="M66.5498 5.35677C66.4417 5.26148 66.3257 5.12172 66.2015 4.94067C66.0789 4.75802 65.9967 4.59285 65.958 4.44515C66.3047 4.1291 66.624 3.94645 66.9158 3.89404C67.1722 4.11321 67.3576 4.41338 67.4689 4.79296C67.2125 5.07725 66.9061 5.26466 66.5498 5.35677Z" fill="white"/>
<path d="M70.8698 14.4073L70.7537 14.6519L69.804 14.9029L68.4092 10.5893L68.9671 10.0843L70.1313 10.6703C70.2135 10.5988 70.2861 10.5051 70.3474 10.386L71.1052 8.92805L69.3799 8.05931L69.296 7.36685L69.5427 7.17627L73.769 9.30446L73.8399 10.0017L73.5981 10.1827L71.6293 9.19169L72.1291 9.3934L71.31 10.9721C71.2455 11.0959 71.1568 11.2087 71.0439 11.3088L73.2466 12.4189L72.9257 13.2559L70.0458 11.8059L69.6234 11.9186L70.8698 14.4089V14.4073Z" fill="white"/>
<path d="M79.4323 14.1317L77.9037 12.977L78.4051 13.174L75.1528 17.9195L74.8158 17.8401L74.4288 17.0285L75.0415 16.1344C74.6691 16.1439 74.3079 16.0327 73.9612 15.8009C73.4952 15.4912 73.1566 15.0068 72.9437 14.3477C72.7309 13.6885 72.697 12.9961 72.8422 12.2735L73.2001 12.0178C73.75 12.31 74.245 12.4577 74.6852 12.4561C75.1254 12.4561 75.4495 12.3036 75.6575 12.0003C75.8349 11.7414 75.88 11.4667 75.7946 11.176L75.6543 11.0585C75.5092 10.9616 75.3528 10.9283 75.1851 10.9568C75.0174 10.987 74.8868 11.0696 74.7932 11.2078C74.661 11.4015 74.661 11.6747 74.7932 12.0273L74.2869 12.1242C73.9596 11.3523 73.9225 10.7821 74.1757 10.4121C74.3385 10.1755 74.5675 10.0357 74.8642 9.99599C75.1609 9.95628 75.4463 10.0278 75.7204 10.2104C76.1235 10.4788 76.3751 10.887 76.4734 11.4333C76.5718 11.9796 76.4766 12.472 76.1864 12.9056C75.9526 13.2486 75.5962 13.4614 75.1189 13.5456C74.6417 13.6298 74.1305 13.5678 73.5887 13.3598C73.4791 13.7457 73.4549 14.0856 73.5129 14.381C73.6081 14.4922 73.7258 14.5938 73.8661 14.6875C74.1692 14.8892 74.5062 15.0115 74.8803 15.0544C75.2544 15.0973 75.6011 15.029 75.9203 14.8479L77.4232 12.653L76.9023 12.3068V11.608L77.1716 11.4492L79.737 13.2756L79.5274 13.7251L79.4323 14.1253V14.1317Z" fill="white"/>
<path d="M81.8673 16.1122L80.4 14.9528L80.8402 15.245L77.1364 19.584L76.809 19.4696L76.5107 18.6231L79.955 14.5859L79.318 14.0587L79.3938 13.3646L79.6776 13.2344L82.2753 15.2974L81.9399 15.8771L81.8657 16.1122H81.8673Z" fill="white"/>
<path d="M86 20.2792L84.8439 19.1151L85.2938 19.4073L81.1385 23.4127L80.824 23.2682L80.6112 22.3979L82.6042 20.4762L81.4481 19.312L80.6805 20.0521L80.1307 19.8266C80.0871 19.5058 80.1017 19.1452 80.1791 18.7466C80.2548 18.3464 80.3742 17.9954 80.5354 17.6905L81.182 17.6269L83.3234 19.7837L84.4392 18.7085L81.7802 16.0308L81.9237 15.3479L82.2188 15.2446L86.4386 19.4931L86.2871 20.1839L85.9984 20.2792H86Z" fill="white"/>
</svg>
