<svg width="80" height="80" viewBox="0 0 80 80" fill="none" xmlns="http://www.w3.org/2000/svg">
<circle cx="40" cy="40" r="40" fill="white" fill-opacity="0.8"/>
<path d="M39.9941 70.001C23.4256 70.001 9.99414 56.5694 9.99414 40.001C9.99414 23.4324 23.4256 10.001 39.9941 10.001C56.5625 10.001 69.9941 23.4324 69.9941 40.001C69.9941 56.5694 56.5625 70.001 39.9941 70.001ZM35.8598 29.2447C35.6627 29.1133 35.4311 29.0432 35.1941 29.0432C34.5314 29.0432 33.9941 29.5804 33.9941 30.2432V49.7588C33.9941 49.9958 34.0643 50.2274 34.1957 50.4245C34.5632 50.9759 35.3084 51.125 35.8598 50.7572L50.4965 40.9994C50.6282 40.9115 50.7413 40.7984 50.8292 40.6667C51.197 40.1153 51.0479 39.3701 50.4965 39.0026L35.8598 29.2447Z" fill="#FB660D"/>
</svg>
