<svg width="51" height="61" viewBox="0 0 51 61" fill="none" xmlns="http://www.w3.org/2000/svg">
<path fill-rule="evenodd" clip-rule="evenodd" d="M19.0078 0.0195312H17.4219V12.352C16.9693 14.9593 15.6662 17.232 13.7076 18.8634C6.1508 21.6885 0.765625 29.0206 0.765625 37.6204C0.765625 47.8496 8.38473 56.2851 18.2148 57.4758V60.0158H19.0078V0.0195312ZM20.0571 0.0195312V60.0158H20.6055V60.0195H21.355V60.0158H22.1836V0.0195312H20.0571ZM25.3555 60.0158H23.2329V0.0195312H25.3555V60.0158ZM26.4048 60.0158H28.5352V0.0195312H26.4048V60.0158ZM31.707 60.0158H29.5845V0.0195312H31.707V60.0158ZM32.7563 60.0158H33.8499V57.4037C43.4206 55.9777 50.765 47.6636 50.765 37.6204C50.765 29.2853 45.7063 22.1411 38.5146 19.137C36.8063 17.517 34.8705 15.0038 34.0887 12.5392V0.0195312H32.7563V60.0158Z" fill="white"/>
<rect x="17.4653" y="37.2651" width="16.5611" height="7.10031" fill="white" stroke="#FF833B" stroke-width="0.899408"/>
</svg>
