<svg width="51" height="51" viewBox="0 0 51 51" fill="none" xmlns="http://www.w3.org/2000/svg">
<path d="M3.02903 0.798103C6.00984 1.91572 9.08366 3.75064 10.636 6.6402C10.9198 7.34666 10.9198 7.34666 11.1431 8.05312C11.2167 8.27896 11.2904 8.50481 11.3663 8.7375C12.4827 12.8947 12.2012 17.6105 12.2012 21.8291C15.4604 21.8291 18.7196 21.8291 22.0775 21.8291C22.0611 20.8337 22.0448 19.8384 22.0279 18.8128C22.0169 17.8448 22.0083 16.8769 22 15.9089C21.9929 15.238 21.9833 14.5672 21.9711 13.8964C21.9539 12.9301 21.9459 11.9641 21.9397 10.9976C21.9324 10.6995 21.9251 10.4014 21.9176 10.0942C21.9169 8.17956 22.2091 7.09462 23.4884 5.58051C25.1295 4.33952 26.3331 3.77095 28.3784 3.76986C28.7271 3.76851 29.0758 3.76717 29.435 3.76578C29.812 3.76542 30.1889 3.76506 30.5773 3.76468C31.3776 3.75821 32.1779 3.75129 32.9782 3.74399C34.2382 3.73378 35.4981 3.72605 36.7582 3.72588C37.9755 3.72469 39.1923 3.71244 40.4095 3.69845C40.9674 3.7022 40.9674 3.7022 41.5366 3.70602C44.6141 3.65596 46.7073 2.67756 49.2372 0.988516C49.9868 1.05475 49.9868 1.05475 50.6481 1.34175C51.0008 2.40144 51.0008 2.40144 50.6591 3.3328C48.9594 6.72411 47.2845 9.55171 43.5936 10.879C41.0836 11.5185 38.5413 11.7728 35.966 11.9828C35.6118 12.0133 35.2576 12.0438 34.8927 12.0752C34.0307 12.1492 33.1687 12.2214 32.3065 12.2919C32.3065 12.1718 32.3065 12.4084 32.3065 12.2919C31.4917 12.2919 30.6184 12.4258 29.7789 12.4258C29.7789 15.4565 29.8374 18.7065 29.8374 21.8291C31.3283 21.8045 31.3283 21.8045 32.8493 21.7794C33.8159 21.7684 34.7825 21.7598 35.7492 21.7515C36.419 21.7444 37.0889 21.7348 37.7587 21.7225C38.7237 21.7053 39.6883 21.6973 40.6534 21.6911C40.9511 21.6838 41.2488 21.6765 41.5555 21.669C43.4678 21.6683 44.5495 21.9621 46.0627 23.242C47.4196 25.0049 47.865 26.2907 47.882 28.4787C47.8856 28.816 47.8892 29.1533 47.8929 29.5008C47.8955 29.8633 47.8981 30.2257 47.9007 30.5991C47.9106 31.3704 47.9207 32.1417 47.931 32.9131C47.9456 34.1261 47.9586 35.339 47.9679 36.5521C47.9777 37.7249 47.9939 38.8974 48.011 40.0701C48.0127 40.6095 48.0127 40.6095 48.0144 41.1597C48.0556 43.5691 48.2828 45.7048 49.8325 47.659C50.4825 48.5891 50.3707 49.335 50.2954 50.4407C49.2372 50.7939 49.2372 50.7939 48.3072 50.4518C44.9586 48.7686 42.0461 47.0718 40.7719 43.3761C40.2278 41.4552 39.9363 39.6707 39.846 37.6803C39.8323 37.4481 39.8187 37.2158 39.8046 36.9766C39.6751 34.5128 39.7137 32.0756 39.7137 29.6001C36.4545 29.6001 33.1954 29.6001 29.8374 29.6001C29.8538 30.5955 29.8702 31.5909 29.887 32.6164C29.898 33.5844 29.9066 34.5524 29.9149 35.5204C29.922 36.1912 29.9316 36.862 29.9439 37.5328C29.961 38.4991 29.969 39.4652 29.9752 40.4316C29.9825 40.7297 29.9898 41.0279 29.9973 41.335C29.998 43.2497 29.7058 44.3346 28.4265 45.8487C26.7966 47.0813 25.5893 47.6552 23.5577 47.6706C23.2138 47.6742 22.8699 47.6778 22.5156 47.6816C22.1441 47.6841 21.7727 47.6867 21.39 47.6894C20.6025 47.6993 19.8151 47.7094 19.0277 47.7197C17.787 47.7343 16.5463 47.7473 15.3056 47.7566C14.1076 47.7664 12.9099 47.7826 11.7121 47.7998C11.3442 47.8009 10.9763 47.8021 10.5973 47.8032C7.889 47.8486 5.91808 48.2485 3.64767 49.8226C2.67768 50.4407 2.67768 50.4407 1.86201 50.4186C1.26679 50.0875 1.26679 50.0875 0.914062 49.0278C2.06127 45.9009 3.87039 42.7553 6.86628 41.1243C11.5728 39.0902 17.0883 39.4906 22.0775 39.4906C22.0775 36.2267 22.0775 32.9629 22.0775 29.6001C20.5866 29.6247 20.5866 29.6247 19.0656 29.6498C18.099 29.6609 17.1324 29.6694 16.1658 29.6778C15.4959 29.6848 14.826 29.6945 14.1562 29.7067C13.1913 29.7239 12.2266 29.7319 11.2615 29.7381C10.9639 29.7454 10.6662 29.7527 10.3594 29.7602C8.44766 29.7609 7.36426 29.4681 5.8522 28.1872C5.01241 27.0659 4.32209 25.9269 3.73585 24.6549C3.61945 24.6549 3.85578 24.6549 3.73585 24.6549C3.73585 22.9064 3.73585 21.1579 3.73585 19.3565C3.61593 19.3565 3.85225 19.3565 3.73585 19.3565C3.76219 17.6978 3.7813 16.0393 3.79398 14.3806C3.79927 13.8173 3.80647 13.2541 3.81568 12.691C3.82865 11.8772 3.83455 11.0636 3.83919 10.2498C3.84465 10.0016 3.85011 9.75353 3.85574 9.4979C3.85652 7.14945 3.21704 5.30101 1.88405 3.37282C1.26679 2.40144 1.26679 2.40144 1.31088 1.58459C1.75815 0.72076 2.08536 0.579879 3.02903 0.798103Z" fill="white"/>
</svg>
