<svg width="69" height="51" viewBox="0 0 69 51" fill="none" xmlns="http://www.w3.org/2000/svg">
<path d="M9.04789 24.0029C9.14132 24.0095 9.23475 24.016 9.33101 24.0228C9.61664 24.353 9.71314 24.5238 9.71314 24.9461C9.79721 24.9461 9.88128 24.9461 9.9679 24.9461C9.9679 25.1366 9.9679 25.327 9.9679 25.5232C10.052 25.5232 10.136 25.5232 10.2227 25.5232C10.6048 26.1724 10.6048 26.1724 10.6048 26.562C10.6889 26.562 10.7729 26.562 10.8595 26.562C10.8595 26.6382 10.8595 26.7143 10.8595 26.7928C10.9436 26.7928 11.0277 26.7928 11.1143 26.7928C11.1774 27.0785 11.1774 27.0785 11.2417 27.3699C11.3257 27.3699 11.4098 27.3699 11.4964 27.3699C11.4964 27.4842 11.4964 27.5984 11.4964 27.7162C11.5805 27.7162 11.6646 27.7162 11.7512 27.7162C11.8142 28.1161 11.8142 28.1161 11.8786 28.5241C11.9626 28.5241 12.0467 28.5241 12.1333 28.5241C12.1333 28.6003 12.1333 28.6765 12.1333 28.7549C12.2174 28.7549 12.3015 28.7549 12.3881 28.7549C12.3881 28.8692 12.3881 28.9835 12.3881 29.1012C12.4722 29.1012 12.5562 29.1012 12.6428 29.1012C12.6586 29.175 12.6744 29.2488 12.6906 29.3248C12.73 29.4427 12.73 29.4427 12.7702 29.5629C12.8543 29.601 12.9384 29.6391 13.025 29.6783C13.025 29.7545 13.025 29.8306 13.025 29.9091C13.109 29.9091 13.1931 29.9091 13.2797 29.9091C13.2797 29.9853 13.2797 30.0615 13.2797 30.14C13.3638 30.14 13.4479 30.14 13.5345 30.14C13.7415 30.2842 13.7415 30.2842 13.9166 30.4862C13.9166 30.6386 13.9166 30.7909 13.9166 30.9479C14.0007 30.9479 14.0848 30.9479 14.1714 30.9479C14.1714 31.0241 14.1714 31.1003 14.1714 31.1787C14.3605 31.2359 14.3605 31.2359 14.5535 31.2942C14.5535 31.3703 14.5535 31.4465 14.5535 31.525C14.6376 31.525 14.7216 31.525 14.8083 31.525C14.8083 31.6393 14.8083 31.7535 14.8083 31.8713C14.8923 31.8713 14.9764 31.8713 15.063 31.8713C15.1051 32.0236 15.1471 32.176 15.1904 32.3329C15.2745 32.3329 15.3585 32.3329 15.4452 32.3329C15.4452 32.4091 15.4452 32.4853 15.4452 32.5638C15.6343 32.6209 15.6343 32.6209 15.8273 32.6792C15.8273 32.7554 15.8273 32.8315 15.8273 32.91C15.9114 32.91 15.9954 32.91 16.082 32.91C16.082 32.9862 16.082 33.0624 16.082 33.1409C16.1661 33.1409 16.2502 33.1409 16.3368 33.1409C16.3368 33.217 16.3368 33.2932 16.3368 33.3717C16.4629 33.4098 16.589 33.4479 16.7189 33.4871C16.7189 33.5633 16.7189 33.6395 16.7189 33.718C16.803 33.718 16.8871 33.718 16.9737 33.718C16.9737 33.7941 16.9737 33.8703 16.9737 33.9488C17.1418 33.9488 17.31 33.9488 17.4832 33.9488C17.7061 34.1075 17.7061 34.1075 17.8653 34.2951C17.8653 34.3712 17.8653 34.4474 17.8653 34.5259C18.0151 34.5795 18.0151 34.5795 18.1679 34.6341C18.5022 34.7567 18.5022 34.7567 18.757 34.8721C18.757 34.9483 18.757 35.0245 18.757 35.103C18.8411 35.103 18.9251 35.103 19.0117 35.103C19.2187 35.2617 19.2187 35.2617 19.3939 35.4492C19.3939 35.5254 19.3939 35.6016 19.3939 35.6801C19.4779 35.6801 19.562 35.6801 19.6486 35.6801C19.6486 35.7563 19.6486 35.8324 19.6486 35.9109C19.8588 35.9109 20.069 35.9109 20.2855 35.9109C20.2855 35.9871 20.2855 36.0633 20.2855 36.1418C20.3696 36.1418 20.4537 36.1418 20.5403 36.1418C20.5403 36.2179 20.5403 36.2941 20.5403 36.3726C20.8345 36.4107 21.1288 36.4488 21.4319 36.488C21.4319 36.5642 21.4319 36.6404 21.4319 36.7189C21.558 36.7189 21.6841 36.7189 21.8141 36.7189C21.8141 36.795 21.8141 36.8712 21.8141 36.9497C21.9321 36.9707 22.0502 36.9916 22.1718 37.0133C22.3244 37.0423 22.4769 37.0713 22.6341 37.1012C22.7863 37.1293 22.9385 37.1574 23.0953 37.1864C23.2189 37.2225 23.3426 37.2587 23.47 37.2959C23.512 37.4102 23.554 37.5245 23.5974 37.6422C23.6788 37.6541 23.7602 37.666 23.8441 37.6783C24.3699 37.7852 24.872 37.9442 25.3806 38.1039C25.3806 38.1801 25.3806 38.2562 25.3806 38.3347C25.4682 38.3417 25.5557 38.3487 25.6459 38.3559C25.818 38.3704 25.818 38.3704 25.9937 38.3852C26.1643 38.3993 26.1643 38.3993 26.3385 38.4136C26.6544 38.4501 26.6544 38.4501 27.0366 38.5656C27.4678 38.601 27.8991 38.6243 28.3312 38.6485C28.6925 38.681 28.6925 38.681 28.8199 38.7964C28.9801 38.8059 29.1404 38.8154 29.3055 38.8252C30.0966 38.8935 30.7792 39.1916 31.4948 39.4889C31.4948 39.5651 31.4948 39.6413 31.4948 39.7197C31.5946 39.7555 31.6945 39.7912 31.7973 39.828C32.1317 39.9506 32.1317 39.9506 32.3864 40.066C32.3864 40.1422 32.3864 40.2184 32.3864 40.2968C32.5546 40.2968 32.7227 40.2968 32.896 40.2968C32.896 40.373 32.896 40.4492 32.896 40.5277C33.0221 40.5277 33.1482 40.5277 33.2781 40.5277C33.2781 40.7181 33.2781 40.9086 33.2781 41.1048C33.3622 41.1048 33.4462 41.1048 33.5328 41.1048C33.5749 41.2952 33.6169 41.4857 33.6602 41.6819C33.7443 41.6819 33.8284 41.6819 33.915 41.6819C33.915 41.8723 33.915 42.0628 33.915 42.259C34.1252 42.259 34.3353 42.259 34.5519 42.259C34.5519 42.0685 34.5519 41.8781 34.5519 41.6819C34.6359 41.6819 34.72 41.6819 34.8066 41.6819C34.8066 41.5676 34.8066 41.4533 34.8066 41.3356C34.8907 41.3356 34.9748 41.3356 35.0614 41.3356C35.1034 41.1833 35.1455 41.0309 35.1888 40.8739C35.3569 40.8358 35.525 40.7978 35.6983 40.7585C35.6983 40.6823 35.6983 40.6062 35.6983 40.5277C35.7823 40.5277 35.8664 40.5277 35.953 40.5277C35.9951 40.3753 36.0371 40.223 36.0804 40.066C36.1645 40.066 36.2485 40.066 36.3352 40.066C36.3352 39.9898 36.3352 39.9137 36.3352 39.8352C36.5453 39.7971 36.7555 39.759 36.9721 39.7197C36.9721 39.6436 36.9721 39.5674 36.9721 39.4889C37.0561 39.4889 37.1402 39.4889 37.2268 39.4889C37.2268 39.4127 37.2268 39.3366 37.2268 39.2581C37.8153 39.22 38.4038 39.1819 39.0101 39.1427C39.0101 39.0665 39.0101 38.9903 39.0101 38.9118C39.0917 38.9048 39.1733 38.8978 39.2574 38.8906C39.8997 38.8342 40.5375 38.7689 41.1755 38.681C41.1755 38.6048 41.1755 38.5286 41.1755 38.4501C41.764 38.412 42.3525 38.374 42.9588 38.3347C42.9588 38.2585 42.9588 38.1824 42.9588 38.1039C43.169 38.1039 43.3792 38.1039 43.5957 38.1039C43.5957 38.0277 43.5957 37.9515 43.5957 37.873C43.7132 37.8541 43.7132 37.8541 43.8331 37.8347C43.9875 37.8073 43.9875 37.8073 44.145 37.7793C44.247 37.7619 44.349 37.7444 44.454 37.7265C44.7755 37.6324 44.8949 37.5132 45.1243 37.2959C45.4666 37.2743 45.4666 37.2743 45.7611 37.2959C45.7611 37.2198 45.7611 37.1436 45.7611 37.0651C46.1966 36.772 46.4946 36.6769 47.0349 36.7189C47.0349 36.6427 47.0349 36.5665 47.0349 36.488C47.119 36.488 47.2031 36.488 47.2897 36.488C47.2897 36.4118 47.2897 36.3357 47.2897 36.2572C47.731 36.2 47.731 36.2 48.1813 36.1418C48.1813 36.0656 48.1813 35.9894 48.1813 35.9109C48.2654 35.9109 48.3495 35.9109 48.4361 35.9109C48.4361 35.8347 48.4361 35.7586 48.4361 35.6801C48.6463 35.642 48.8564 35.6039 49.073 35.5647C49.073 35.4885 49.073 35.4123 49.073 35.3338C49.157 35.3338 49.2411 35.3338 49.3277 35.3338C49.3277 35.2576 49.3277 35.1815 49.3277 35.103C49.4538 35.103 49.5799 35.103 49.7099 35.103C49.7099 35.0268 49.7099 34.9506 49.7099 34.8721C50.2684 34.5259 50.2684 34.5259 50.6015 34.5259C50.6015 34.4497 50.6015 34.3735 50.6015 34.2951C50.6856 34.2951 50.7696 34.2951 50.8563 34.2951C50.8563 34.2189 50.8563 34.1427 50.8563 34.0642C51.0314 33.8767 51.0314 33.8767 51.2384 33.718C51.3225 33.718 51.4065 33.718 51.4932 33.718C51.4932 33.6418 51.4932 33.5656 51.4932 33.4871C51.5772 33.4871 51.6613 33.4871 51.7479 33.4871C51.7899 33.3729 51.832 33.2586 51.8753 33.1409C51.9594 33.1409 52.0434 33.1409 52.13 33.1409C52.13 33.0647 52.13 32.9885 52.13 32.91C52.2141 32.91 52.2982 32.91 52.3848 32.91C52.4268 32.7958 52.4689 32.6815 52.5122 32.5638C52.5962 32.5638 52.6803 32.5638 52.7669 32.5638C52.7669 32.4876 52.7669 32.4114 52.7669 32.3329C52.851 32.3329 52.9351 32.3329 53.0217 32.3329C53.0217 32.2568 53.0217 32.1806 53.0217 32.1021C53.1058 32.1021 53.1898 32.1021 53.2764 32.1021C53.3185 31.9117 53.3605 31.7212 53.4038 31.525C53.572 31.525 53.7401 31.525 53.9133 31.525C53.9725 31.3893 53.9725 31.3893 54.0328 31.2509C54.1681 30.9479 54.1681 30.9479 54.2955 30.7171C54.3795 30.7171 54.4636 30.7171 54.5502 30.7171C54.5502 30.6409 54.5502 30.5647 54.5502 30.4862C54.6343 30.4481 54.7184 30.4101 54.805 30.3708C54.8881 30.1371 54.8881 30.1371 54.9324 29.9091C55.0164 29.9091 55.1005 29.9091 55.1871 29.9091C55.1871 29.833 55.1871 29.7568 55.1871 29.6783C55.2712 29.6783 55.3553 29.6783 55.4419 29.6783C55.4576 29.5902 55.4734 29.5021 55.4896 29.4114C55.5693 29.1012 55.5693 29.1012 55.824 28.7549C55.9081 28.7549 55.9921 28.7549 56.0788 28.7549C56.0788 28.6788 56.0788 28.6026 56.0788 28.5241C56.1628 28.5241 56.2469 28.5241 56.3335 28.5241C56.3756 28.3337 56.4176 28.1432 56.4609 27.947C56.545 27.947 56.629 27.947 56.7157 27.947C56.7157 27.8708 56.7157 27.7947 56.7157 27.7162C56.7997 27.7162 56.8838 27.7162 56.9704 27.7162C56.9704 27.6019 56.9704 27.4876 56.9704 27.3699C57.0545 27.3699 57.1386 27.3699 57.2252 27.3699C57.2409 27.2842 57.2567 27.1985 57.2729 27.1102C57.3468 26.8157 57.4464 26.5935 57.6073 26.3311C57.6914 26.3311 57.7754 26.3311 57.8621 26.3311C57.8621 26.1407 57.8621 25.9503 57.8621 25.7541C57.9461 25.7541 58.0302 25.7541 58.1168 25.7541C58.1589 25.5636 58.2009 25.3732 58.2442 25.177C58.3283 25.177 58.4123 25.177 58.499 25.177C58.499 25.0246 58.499 24.8723 58.499 24.7153C58.583 24.7153 58.6671 24.7153 58.7537 24.7153C58.7537 24.5248 58.7537 24.3344 58.7537 24.1382C59.6487 23.9644 60.5236 24.0643 61.4286 24.1382C61.4286 24.2144 61.4286 24.2905 61.4286 24.369C61.6454 24.3655 61.6454 24.3655 61.8665 24.3618C62.3203 24.369 62.3203 24.369 62.4477 24.4844C62.7041 24.5301 62.9618 24.5701 63.2199 24.6071C63.431 24.6377 63.431 24.6377 63.6463 24.6688C63.7552 24.6842 63.864 24.6995 63.9762 24.7153C63.9762 24.7915 63.9762 24.8676 63.9762 24.9461C64.1443 24.9461 64.3125 24.9461 64.4857 24.9461C64.4857 25.0223 64.4857 25.0985 64.4857 25.177C64.6959 25.177 64.9061 25.177 65.1226 25.177C65.1226 25.2531 65.1226 25.3293 65.1226 25.4078C65.4169 25.4459 65.7111 25.484 66.0143 25.5232C66.0143 25.5994 66.0143 25.6756 66.0143 25.7541C66.3085 25.7541 66.6027 25.7541 66.9059 25.7541C66.9059 25.8302 66.9059 25.9064 66.9059 25.9849C67.2438 26.109 67.5789 26.2266 67.9249 26.3311C67.9249 26.4073 67.9249 26.4835 67.9249 26.562C68.009 26.562 68.0931 26.562 68.1797 26.562C68.1797 26.9429 68.1797 27.3237 68.1797 27.7162C68.0956 27.7162 68.0115 27.7162 67.9249 27.7162C67.7358 28.2304 67.7358 28.2304 67.5428 28.7549C67.4587 28.7549 67.3747 28.7549 67.288 28.7549C67.288 28.9454 67.288 29.1358 67.288 29.332C67.204 29.332 67.1199 29.332 67.0333 29.332C66.9912 29.5225 66.9492 29.7129 66.9059 29.9091C66.8218 29.9091 66.7378 29.9091 66.6511 29.9091C66.6511 30.0615 66.6511 30.2138 66.6511 30.3708C66.5671 30.3708 66.483 30.3708 66.3964 30.3708C66.3544 30.5613 66.3123 30.7517 66.269 30.9479C66.1849 30.9479 66.1009 30.9479 66.0143 30.9479C66.0143 31.0241 66.0143 31.1003 66.0143 31.1787C65.9302 31.1787 65.8461 31.1787 65.7595 31.1787C65.7595 31.293 65.7595 31.4073 65.7595 31.525C65.6754 31.525 65.5914 31.525 65.5047 31.525C65.5047 31.6393 65.5047 31.7535 65.5047 31.8713C65.4207 31.9093 65.3366 31.9474 65.25 31.9867C65.208 32.1009 65.1659 32.2152 65.1226 32.3329C65.0385 32.3329 64.9545 32.3329 64.8679 32.3329C64.8679 32.4472 64.8679 32.5615 64.8679 32.6792C64.7838 32.6792 64.6997 32.6792 64.6131 32.6792C64.5711 32.8315 64.529 32.9839 64.4857 33.1409C64.4016 33.1409 64.3176 33.1409 64.231 33.1409C64.1889 33.2551 64.1469 33.3694 64.1036 33.4871C63.9775 33.4871 63.8514 33.4871 63.7215 33.4871C63.6794 33.6395 63.6374 33.7918 63.5941 33.9488C63.51 33.9488 63.4259 33.9488 63.3393 33.9488C63.3393 34.0631 63.3393 34.1773 63.3393 34.2951C63.2132 34.2951 63.0871 34.2951 62.9572 34.2951C62.9572 34.3712 62.9572 34.4474 62.9572 34.5259C62.8731 34.5259 62.789 34.5259 62.7024 34.5259C62.7024 34.6021 62.7024 34.6782 62.7024 34.7567C62.6184 34.7567 62.5343 34.7567 62.4477 34.7567C62.4477 34.871 62.4477 34.9853 62.4477 35.103C62.3216 35.103 62.1955 35.103 62.0655 35.103C62.0655 35.1792 62.0655 35.2553 62.0655 35.3338C61.8974 35.3719 61.7293 35.41 61.556 35.4492C61.514 35.6016 61.472 35.754 61.4286 35.9109C61.2605 35.9109 61.0924 35.9109 60.9191 35.9109C60.9191 35.9871 60.9191 36.0633 60.9191 36.1418C60.5351 36.5295 60.1576 36.8268 59.6454 37.0651C59.5613 37.0651 59.4772 37.0651 59.3906 37.0651C59.3906 37.1413 59.3906 37.2175 59.3906 37.2959C59.3065 37.2959 59.2225 37.2959 59.1358 37.2959C59.1358 37.3721 59.1358 37.4483 59.1358 37.5268C58.9966 37.5625 58.8574 37.5982 58.7139 37.635C58.4284 37.7095 58.144 37.7879 57.8621 37.873C57.8621 37.9492 57.8621 38.0254 57.8621 38.1039C57.0182 38.4501 57.0182 38.4501 56.5883 38.4501C56.5883 38.5263 56.5883 38.6025 56.5883 38.681C56.5042 38.681 56.4201 38.681 56.3335 38.681C56.3335 38.7572 56.3335 38.8333 56.3335 38.9118C55.7661 39.0832 55.7661 39.0832 55.1871 39.2581C55.1871 39.3342 55.1871 39.4104 55.1871 39.4889C55.061 39.4889 54.9349 39.4889 54.805 39.4889C54.805 39.5651 54.805 39.6413 54.805 39.7197C54.3426 39.7578 53.8802 39.7959 53.4038 39.8352C53.4038 39.9113 53.4038 39.9875 53.4038 40.066C52.8259 40.2336 52.3618 40.324 51.7479 40.2968C51.7479 40.373 51.7479 40.4492 51.7479 40.5277C50.4665 40.9025 49.2567 40.9287 47.9266 40.9172C47.8229 40.9169 47.7192 40.9165 47.6123 40.9162C43.3693 40.8996 43.3693 40.8996 42.8314 40.4123C42.577 40.394 42.3218 40.3833 42.0667 40.3757C41.8345 40.3685 41.8345 40.3685 41.5977 40.3611C41.4348 40.3566 41.2718 40.352 41.1039 40.3473C40.8587 40.3399 40.8587 40.3399 40.6085 40.3322C40.2031 40.3199 39.7977 40.3082 39.3922 40.2968C39.3922 40.373 39.3922 40.4492 39.3922 40.5277C38.6724 40.6629 37.9559 40.7878 37.2268 40.8739C37.2268 40.9501 37.2268 41.0263 37.2268 41.1048C36.7979 41.3854 36.6239 41.451 36.0804 41.451C36.0804 41.5272 36.0804 41.6034 36.0804 41.6819C35.9543 41.6819 35.8282 41.6819 35.6983 41.6819C35.6983 41.758 35.6983 41.8342 35.6983 41.9127C35.5301 41.9508 35.362 41.9889 35.1888 42.0281C35.1888 42.1043 35.1888 42.1805 35.1888 42.259C35.0627 42.259 34.9366 42.259 34.8066 42.259C34.8066 42.3351 34.8066 42.4113 34.8066 42.4898C34.7226 42.4898 34.6385 42.4898 34.5519 42.4898C34.5519 42.566 34.5519 42.6422 34.5519 42.7206C33.9468 42.8505 33.9468 42.8505 33.6602 42.7206C33.6602 42.6445 33.6602 42.5683 33.6602 42.4898C33.5762 42.4898 33.4921 42.4898 33.4055 42.4898C33.4055 42.4136 33.4055 42.3374 33.4055 42.259C33.2794 42.259 33.1533 42.259 33.0233 42.259C33.0233 42.1828 33.0233 42.1066 33.0233 42.0281C32.8132 41.99 32.603 41.9519 32.3864 41.9127C32.3864 41.7604 32.3864 41.608 32.3864 41.451C32.2997 41.4367 32.213 41.4225 32.1237 41.4077C31.6951 41.3251 31.2782 41.2168 30.8579 41.1048C30.8579 41.0286 30.8579 40.9524 30.8579 40.8739C30.7344 40.8597 30.611 40.8454 30.4837 40.8307C29.9219 40.7587 29.3721 40.6445 28.8199 40.5277C28.8199 40.4515 28.8199 40.3753 28.8199 40.2968C28.2493 40.3128 27.6787 40.3299 27.1082 40.3473C26.9452 40.3519 26.7823 40.3564 26.6144 40.3611C26.3822 40.3683 26.3822 40.3683 26.1454 40.3757C26.002 40.38 25.8586 40.3842 25.7108 40.3886C25.3897 40.379 25.3897 40.379 25.2533 40.5277C23.7844 40.8213 22.3452 40.9272 20.8439 40.9127C20.5368 40.91 20.2299 40.9104 19.9228 40.9111C18.7727 40.9092 17.6905 40.8596 16.5916 40.5277C16.5916 40.4515 16.5916 40.3753 16.5916 40.2968C16.2132 40.2968 15.8349 40.2968 15.4452 40.2968C15.4452 40.2207 15.4452 40.1445 15.4452 40.066C15.235 40.066 15.0248 40.066 14.8083 40.066C14.8083 39.9898 14.8083 39.9137 14.8083 39.8352C14.514 39.7971 14.2198 39.759 13.9166 39.7197C13.9166 39.6436 13.9166 39.5674 13.9166 39.4889C13.6224 39.4127 13.3281 39.3366 13.025 39.2581C13.025 39.1819 13.025 39.1057 13.025 39.0272C12.7307 38.9891 12.4365 38.9511 12.1333 38.9118C12.1333 38.8356 12.1333 38.7595 12.1333 38.681C11.9232 38.681 11.713 38.681 11.4964 38.681C11.4964 38.6048 11.4964 38.5286 11.4964 38.4501C11.2863 38.412 11.0761 38.374 10.8595 38.3347C10.8595 38.2585 10.8595 38.1824 10.8595 38.1039C10.6914 38.1039 10.5233 38.1039 10.35 38.1039C10.308 38.0277 10.266 37.9515 10.2227 37.873C9.96476 37.7978 9.96476 37.7978 9.71314 37.7576C9.71314 37.6814 9.71314 37.6053 9.71314 37.5268C9.58704 37.5268 9.46093 37.5268 9.33101 37.5268C9.33101 37.4506 9.33101 37.3744 9.33101 37.2959C9.24694 37.2959 9.16287 37.2959 9.07625 37.2959C9.03422 37.2198 8.99218 37.1436 8.94887 37.0651C8.69098 36.9898 8.69098 36.9898 8.43936 36.9497C8.43936 36.8735 8.43936 36.7973 8.43936 36.7189C8.35529 36.7189 8.27122 36.7189 8.1846 36.7189C8.1846 36.6427 8.1846 36.5665 8.1846 36.488C8.0585 36.488 7.9324 36.488 7.80247 36.488C7.80247 36.4118 7.80247 36.3357 7.80247 36.2572C7.63433 36.2191 7.46619 36.181 7.29296 36.1418C7.29296 36.0656 7.29296 35.9894 7.29296 35.9109C7.16685 35.9109 7.04075 35.9109 6.91082 35.9109C6.91082 35.8347 6.91082 35.7586 6.91082 35.6801C6.82675 35.6801 6.74268 35.6801 6.65607 35.6801C6.65607 35.6039 6.65607 35.5277 6.65607 35.4492C6.52996 35.4112 6.40386 35.3731 6.27393 35.3338C6.27393 35.2576 6.27393 35.1815 6.27393 35.103C6.10579 35.0649 5.93765 35.0268 5.76442 34.9876C5.76442 34.8352 5.76442 34.6829 5.76442 34.5259C5.63832 34.5259 5.51221 34.5259 5.38229 34.5259C5.38229 34.4497 5.38229 34.3735 5.38229 34.2951C5.21415 34.257 5.04601 34.2189 4.87277 34.1796C4.87277 34.0273 4.87277 33.8749 4.87277 33.718C4.74667 33.718 4.62057 33.718 4.49064 33.718C4.49064 33.6418 4.49064 33.5656 4.49064 33.4871C4.3225 33.449 4.15436 33.4109 3.98113 33.3717C3.93909 33.1432 3.89706 32.9146 3.85375 32.6792C3.76968 32.6792 3.68561 32.6792 3.59899 32.6792C3.59899 32.5649 3.59899 32.4507 3.59899 32.3329C3.43085 32.3329 3.26271 32.3329 3.08948 32.3329C2.86657 32.1887 2.86657 32.1887 2.70735 31.9867C2.70735 31.8343 2.70735 31.682 2.70735 31.525C2.62328 31.525 2.53921 31.525 2.45259 31.525C2.12914 31.1305 2.02414 30.8604 2.07046 30.3708C1.98639 30.3708 1.90232 30.3708 1.8157 30.3708C1.8157 30.2946 1.8157 30.2185 1.8157 30.14C1.73163 30.14 1.64756 30.14 1.56094 30.14C1.51891 29.9495 1.47687 29.7591 1.43357 29.5629C1.3495 29.5629 1.26543 29.5629 1.17881 29.5629C1.17881 29.4105 1.17881 29.2582 1.17881 29.1012C1.09474 29.1012 1.01067 29.1012 0.924053 29.1012C0.924053 28.9869 0.924053 28.8727 0.924053 28.7549C0.839984 28.7549 0.755914 28.7549 0.669297 28.7549C0.627262 28.4122 0.585227 28.0694 0.541919 27.7162C0.457849 27.7162 0.37378 27.7162 0.287163 27.7162C0.143862 26.8217 0.143862 26.8217 0.287163 26.562C0.371232 26.562 0.455302 26.562 0.541919 26.562C0.541919 26.4858 0.541919 26.4096 0.541919 26.3311C1.3858 25.9849 1.3858 25.9849 1.8157 25.9849C1.8157 25.9087 1.8157 25.8325 1.8157 25.7541C1.89977 25.7541 1.98384 25.7541 2.07046 25.7541C2.07046 25.6779 2.07046 25.6017 2.07046 25.5232C2.51182 25.4661 2.51182 25.4661 2.9621 25.4078C2.9621 25.3316 2.9621 25.2554 2.9621 25.177C3.25635 25.177 3.55059 25.177 3.85375 25.177C3.85375 25.1008 3.85375 25.0246 3.85375 24.9461C4.36998 24.8327 4.85222 24.8213 5.38229 24.8307C5.38229 24.7545 5.38229 24.6783 5.38229 24.5999C5.59246 24.5999 5.80263 24.5999 6.01918 24.5999C6.01918 24.5237 6.01918 24.4475 6.01918 24.369C6.2804 24.3427 6.54163 24.3164 6.80285 24.2901C7.03965 24.2745 7.03965 24.2745 7.16558 24.1382C7.40902 24.1108 7.65342 24.0903 7.898 24.0733C8.098 24.0588 8.098 24.0588 8.30203 24.044C8.55067 24.0305 8.79929 24.0169 9.04789 24.0029Z" fill="white"/>
<path d="M57.227 12.0059C57.3526 12.0063 57.4783 12.0066 57.6077 12.007C57.7392 12.008 57.8707 12.009 58.0062 12.01C58.205 12.0107 58.205 12.0107 58.4078 12.0115C58.7357 12.0129 59.0636 12.0148 59.3915 12.0172C59.4373 14.4625 59.4344 16.7895 58.7546 19.1731C58.6705 19.1731 58.5864 19.1731 58.4998 19.1731C58.4762 19.341 58.4762 19.341 58.4521 19.5122C58.2958 20.4995 58.0386 21.4856 57.6082 22.4049C57.5241 22.4049 57.44 22.4049 57.3534 22.4049C57.3114 22.7096 57.2693 23.0143 57.226 23.3282C57.142 23.3282 57.0579 23.3282 56.9713 23.3282C56.9713 23.671 56.9713 24.0138 56.9713 24.367C56.8452 24.367 56.7191 24.367 56.5891 24.367C56.5051 24.6336 56.421 24.9002 56.3344 25.1749C56.2503 25.1749 56.1663 25.1749 56.0796 25.1749C56.0796 25.3654 56.0796 25.5558 56.0796 25.752C55.9956 25.752 55.9115 25.752 55.8249 25.752C55.6988 26.0948 55.5727 26.4376 55.4427 26.7908C55.3587 26.7908 55.2746 26.7908 55.188 26.7908C55.188 26.9051 55.188 27.0193 55.188 27.1371C55.1039 27.1371 55.0199 27.1371 54.9332 27.1371C54.9071 27.208 54.881 27.279 54.8541 27.3521C54.7107 27.7421 54.5672 28.1321 54.4237 28.5221C54.3397 28.5221 54.2556 28.5221 54.169 28.5221C54.169 28.5983 54.169 28.6744 54.169 28.7529C54.0008 28.7529 53.8327 28.7529 53.6595 28.7529C53.6595 28.8672 53.6595 28.9814 53.6595 29.0992C53.5754 29.0992 53.4913 29.0992 53.4047 29.0992C53.3627 29.2515 53.3206 29.4039 53.2773 29.5609C53.1932 29.5609 53.1092 29.5609 53.0226 29.5609C53.0226 29.6751 53.0226 29.7894 53.0226 29.9071C52.9385 29.9071 52.8544 29.9071 52.7678 29.9071C52.7678 29.9833 52.7678 30.0595 52.7678 30.1379C52.6837 30.1379 52.5997 30.1379 52.5131 30.1379C52.471 30.2522 52.429 30.3665 52.3857 30.4842C52.3016 30.4842 52.2175 30.4842 52.1309 30.4842C52.1309 30.5604 52.1309 30.6366 52.1309 30.715C52.0468 30.715 51.9628 30.715 51.8762 30.715C51.8341 30.8674 51.7921 31.0197 51.7488 31.1767C51.6647 31.1767 51.5806 31.1767 51.494 31.1767C51.494 31.291 51.494 31.4052 51.494 31.523C51.3679 31.523 51.2418 31.523 51.1119 31.523C51.1119 31.5992 51.1119 31.6753 51.1119 31.7538C50.9438 31.7919 50.7756 31.83 50.6024 31.8692C50.6024 31.9454 50.6024 32.0216 50.6024 32.1001C50.5183 32.1001 50.4342 32.1001 50.3476 32.1001C50.194 32.3692 50.0718 32.619 49.9655 32.908C49.7973 32.908 49.6292 32.908 49.456 32.908C49.456 32.9842 49.456 33.0604 49.456 33.1388C49.3299 33.1388 49.2038 33.1388 49.0738 33.1388C49.0738 33.215 49.0738 33.2912 49.0738 33.3697C48.8637 33.4078 48.6535 33.4459 48.4369 33.4851C48.4369 33.5613 48.4369 33.6374 48.4369 33.7159C48.3529 33.7159 48.2688 33.7159 48.1822 33.7159C48.1822 33.7921 48.1822 33.8683 48.1822 33.9468C47.8879 33.9849 47.5937 34.0229 47.2905 34.0622C47.2905 34.1384 47.2905 34.2145 47.2905 34.293C47.1644 34.293 47.0383 34.293 46.9084 34.293C46.9084 34.3692 46.9084 34.4454 46.9084 34.5239C46.7403 34.5239 46.5721 34.5239 46.3989 34.5239C46.3989 34.6 46.3989 34.6762 46.3989 34.7547C46.1887 34.7928 45.9786 34.8309 45.762 34.8701C45.762 34.9463 45.762 35.0225 45.762 35.101C45.5518 35.101 45.3417 35.101 45.1251 35.101C45.1251 35.1771 45.1251 35.2533 45.1251 35.3318C44.9056 35.4293 44.6851 35.5252 44.4643 35.6203C44.3417 35.6739 44.219 35.7275 44.0927 35.7827C43.7253 35.9084 43.4751 35.9346 43.0871 35.9089C43.0871 35.9851 43.0871 36.0612 43.0871 36.1397C42.4495 36.2918 41.8305 36.4119 41.1764 36.486C41.1764 36.5622 41.1764 36.6383 41.1764 36.7168C40.5879 36.7549 39.9994 36.793 39.3931 36.8322C39.3931 36.9084 39.3931 36.9846 39.3931 37.0631C38.6785 37.0631 37.9639 37.0631 37.2277 37.0631C37.2277 37.1393 37.2277 37.2154 37.2277 37.2939C37.1436 37.2939 37.0595 37.2939 36.9729 37.2939C36.9729 37.3701 36.9729 37.4463 36.9729 37.5248C36.8468 37.5248 36.7207 37.5248 36.5908 37.5248C36.5908 37.6009 36.5908 37.6771 36.5908 37.7556C35.8743 38.1019 35.8743 38.1019 35.4444 38.1019C35.4444 38.178 35.4444 38.2542 35.4444 38.3327C35.2762 38.3708 35.1081 38.4089 34.9349 38.4481C34.8718 38.6766 34.8718 38.6766 34.8075 38.9098C34.7234 38.9098 34.6394 38.9098 34.5527 38.9098C34.5527 37.6529 34.5527 36.396 34.5527 35.101C34.6368 35.101 34.7209 35.101 34.8075 35.101C34.8137 34.9494 34.82 34.7977 34.8264 34.6415C34.836 34.4412 34.8456 34.2409 34.8553 34.0406C34.8592 33.9408 34.8631 33.841 34.8672 33.7383C34.8933 33.2244 34.9269 32.7984 35.1896 32.3309C35.2737 32.3309 35.3578 32.3309 35.4444 32.3309C35.4385 32.243 35.4326 32.155 35.4265 32.0645C35.3978 31.3209 35.4554 30.7912 35.832 30.128C35.9757 29.8676 36.0402 29.6181 36.0813 29.33C36.1653 29.33 36.2494 29.33 36.336 29.33C36.3229 29.2253 36.3098 29.1205 36.2962 29.0126C36.2886 28.3399 36.6692 27.7356 36.9729 27.1371C37.057 27.1371 37.1411 27.1371 37.2277 27.1371C37.2434 26.999 37.2592 26.8609 37.2754 26.7187C37.3325 26.2973 37.4448 25.9199 37.6098 25.5212C37.6939 25.5212 37.7779 25.5212 37.8646 25.5212C37.8882 25.3319 37.8882 25.3319 37.9123 25.1389C37.9919 24.7133 37.9919 24.7133 38.2467 24.367C38.3308 24.367 38.4148 24.367 38.5015 24.367C38.5015 24.1766 38.5015 23.9861 38.5015 23.7899C38.5855 23.7899 38.6696 23.7899 38.7562 23.7899C38.7562 23.7137 38.7562 23.6376 38.7562 23.5591C38.8403 23.5591 38.9244 23.5591 39.011 23.5591C39.053 23.2924 39.095 23.0258 39.1383 22.7511C39.2224 22.7511 39.3065 22.7511 39.3931 22.7511C39.3931 22.6369 39.3931 22.5226 39.3931 22.4049C39.4772 22.4049 39.5612 22.4049 39.6479 22.4049C39.6479 22.3287 39.6479 22.2525 39.6479 22.174C39.7319 22.174 39.816 22.174 39.9026 22.174C39.9447 21.9836 39.9867 21.7932 40.03 21.5969C40.1141 21.5969 40.1981 21.5969 40.2847 21.5969C40.3005 21.5112 40.3163 21.4255 40.3325 21.3373C40.4064 21.0428 40.506 20.8205 40.6669 20.5582C40.835 20.5582 41.0032 20.5582 41.1764 20.5582C41.1764 20.3677 41.1764 20.1773 41.1764 19.9811C41.2605 19.9811 41.3445 19.9811 41.4312 19.9811C41.4312 19.9049 41.4312 19.8287 41.4312 19.7502C41.5573 19.7502 41.6834 19.7502 41.8133 19.7502C41.8133 19.636 41.8133 19.5217 41.8133 19.404C41.8974 19.404 41.9814 19.404 42.068 19.404C42.1101 19.2516 42.1521 19.0993 42.1954 18.9423C42.4476 18.8852 42.4476 18.8852 42.7049 18.8269C42.7049 18.7507 42.7049 18.6745 42.7049 18.5961C42.789 18.5961 42.8731 18.5961 42.9597 18.5961C43.1133 18.3269 43.2355 18.0771 43.3418 17.7881C43.8938 17.4419 43.8938 17.4419 44.2335 17.4419C44.2335 17.3657 44.2335 17.2895 44.2335 17.211C44.3175 17.211 44.4016 17.211 44.4882 17.211C44.5224 17.1372 44.5565 17.0634 44.5917 16.9874C44.743 16.7493 44.743 16.7493 45.1251 16.6339C45.1251 16.5578 45.1251 16.4816 45.1251 16.4031C45.2092 16.4031 45.2933 16.4031 45.3799 16.4031C45.3799 16.3269 45.3799 16.2507 45.3799 16.1723C45.506 16.1723 45.6321 16.1723 45.762 16.1723C45.762 16.0961 45.762 16.0199 45.762 15.9414C45.9722 15.9033 46.1824 15.8652 46.3989 15.826C46.3989 15.7498 46.3989 15.6736 46.3989 15.5952C46.483 15.5952 46.567 15.5952 46.6537 15.5952C46.6537 15.519 46.6537 15.4428 46.6537 15.3643C46.8638 15.3262 47.074 15.2881 47.2905 15.2489C47.2905 15.1727 47.2905 15.0965 47.2905 15.0181C47.5007 15.0181 47.7109 15.0181 47.9274 15.0181C47.9274 14.9419 47.9274 14.8657 47.9274 14.7872C48.6439 14.441 48.6439 14.441 49.0738 14.441C49.0738 14.3648 49.0738 14.2886 49.0738 14.2101C49.9177 13.8639 49.9177 13.8639 50.3476 13.8639C50.3476 13.7877 50.3476 13.7115 50.3476 13.633C50.6419 13.633 50.9361 13.633 51.2393 13.633C51.2393 13.5569 51.2393 13.4807 51.2393 13.4022C51.6806 13.3451 51.6806 13.3451 52.1309 13.2868C52.1309 13.1725 52.1309 13.0583 52.1309 12.9405C52.5404 12.755 52.9507 12.8185 53.4047 12.8251C53.4047 12.7489 53.4047 12.6728 53.4047 12.5943C55.1219 12.2423 55.1219 12.2423 55.8567 12.1759C56.3551 12.1307 56.7199 12.0033 57.227 12.0059Z" fill="white"/>
<path d="M8.69684 12.018C9.15858 12.0146 9.62032 12.0126 10.0821 12.0108C10.2794 12.0093 10.2794 12.0093 10.4806 12.0078C10.6062 12.0075 10.7319 12.0071 10.8613 12.0067C11.0354 12.0058 11.0354 12.0058 11.213 12.0049C11.4992 12.018 11.4992 12.018 11.7539 12.1334C12.0532 12.1733 12.3532 12.2087 12.6535 12.2416C13.3846 12.3246 14.0953 12.4358 14.811 12.5951C14.811 12.6713 14.811 12.7474 14.811 12.8259C14.9397 12.8402 15.0685 12.8545 15.2011 12.8692C15.6873 12.9391 16.1249 13.042 16.5943 13.1722C16.5943 13.2484 16.5943 13.3245 16.5943 13.403C16.7204 13.403 16.8465 13.403 16.9764 13.403C16.9764 13.4792 16.9764 13.5554 16.9764 13.6339C17.1051 13.6267 17.2339 13.6196 17.3665 13.6122C17.9388 13.6369 18.2516 13.7546 18.7597 13.9801C18.7597 14.0563 18.7597 14.1325 18.7597 14.2109C18.8858 14.2109 19.0119 14.2109 19.1418 14.2109C19.1418 14.2871 19.1418 14.3633 19.1418 14.4418C19.4361 14.4799 19.7303 14.518 20.0335 14.5572C20.0335 14.6334 20.0335 14.7096 20.0335 14.788C20.1176 14.788 20.2016 14.788 20.2882 14.788C20.2882 14.8642 20.2882 14.9404 20.2882 15.0189C20.6666 15.1331 21.0449 15.2474 21.4347 15.3651C21.4347 15.4413 21.4347 15.5175 21.4347 15.596C21.5608 15.596 21.6869 15.596 21.8168 15.596C21.8168 15.6721 21.8168 15.7483 21.8168 15.8268C22.1138 15.966 22.3895 16.0767 22.7084 16.1731C22.7084 16.2492 22.7084 16.3254 22.7084 16.4039C22.7846 16.4182 22.8608 16.4325 22.9393 16.4472C23.2179 16.5193 23.2179 16.5193 23.6001 16.7502C23.6001 16.8263 23.6001 16.9025 23.6001 16.981C23.6841 16.981 23.7682 16.981 23.8548 16.981C23.9179 17.2095 23.9179 17.2095 23.9822 17.4427C24.2344 17.4998 24.2344 17.4998 24.4917 17.5581C24.4917 17.6343 24.4917 17.7104 24.4917 17.7889C24.5758 17.7889 24.6599 17.7889 24.7465 17.7889C24.8095 18.0175 24.8095 18.0175 24.8739 18.2506C25.042 18.2887 25.2101 18.3268 25.3834 18.366C25.4254 18.5184 25.4674 18.6707 25.5108 18.8277C25.5948 18.8277 25.6789 18.8277 25.7655 18.8277C25.7655 18.942 25.7655 19.0562 25.7655 19.174C25.9336 19.174 26.1018 19.174 26.275 19.174C26.3171 19.3644 26.3591 19.5548 26.4024 19.7511C26.4865 19.7511 26.5705 19.7511 26.6572 19.7511C26.6572 19.8272 26.6572 19.9034 26.6572 19.9819C26.7412 19.9819 26.8253 19.9819 26.9119 19.9819C27.294 20.488 27.294 20.488 27.294 20.7898C27.3781 20.7898 27.4622 20.7898 27.5488 20.7898C27.5908 20.9803 27.6329 21.1707 27.6762 21.3669C27.7602 21.3669 27.8443 21.3669 27.9309 21.3669C27.9861 21.4776 27.9861 21.4776 28.0424 21.5905C28.1638 21.8461 28.1638 21.8461 28.4404 21.944C28.4923 22.212 28.5353 22.4815 28.5678 22.7519C28.6519 22.7519 28.736 22.7519 28.8226 22.7519C28.8226 22.8281 28.8226 22.9043 28.8226 22.9828C28.9067 22.9828 28.9907 22.9828 29.0773 22.9828C29.1841 23.1701 29.2901 23.3577 29.3958 23.5455C29.4549 23.6499 29.514 23.7543 29.5749 23.862C29.7142 24.137 29.7142 24.137 29.7142 24.3678C29.7983 24.3678 29.8824 24.3678 29.969 24.3678C29.969 24.5583 29.969 24.7487 29.969 24.9449C30.0531 24.9449 30.1371 24.9449 30.2237 24.9449C30.3519 25.2452 30.4791 25.5458 30.6059 25.8466C30.6423 25.9318 30.6788 26.017 30.7163 26.1047C30.7508 26.1869 30.7853 26.2691 30.8208 26.3538C30.8689 26.4672 30.8689 26.4672 30.9179 26.5828C30.988 26.7916 30.988 26.7916 30.988 27.1379C31.0721 27.1379 31.1561 27.1379 31.2428 27.1379C31.6673 27.8247 31.7901 28.56 31.8797 29.3308C31.9637 29.3308 32.0478 29.3308 32.1344 29.3308C32.1344 29.6736 32.1344 30.0164 32.1344 30.3696C32.2185 30.3696 32.3026 30.3696 32.3892 30.3696C32.3892 30.7505 32.3892 31.1314 32.3892 31.5238C32.4732 31.5238 32.5573 31.5238 32.6439 31.5238C32.9761 32.3497 33.0757 33.0707 33.0261 33.9476C33.1101 33.9476 33.1942 33.9476 33.2808 33.9476C33.2808 34.3285 33.2808 34.7094 33.2808 35.1018C33.3649 35.1018 33.449 35.1018 33.5356 35.1018C33.6639 36.3741 33.6765 37.6341 33.663 38.9106C33.5368 38.9106 33.4107 38.9106 33.2808 38.9106C33.2808 38.8344 33.2808 38.7582 33.2808 38.6798C33.1967 38.6798 33.1127 38.6798 33.0261 38.6798C32.984 38.4893 32.942 38.2989 32.8987 38.1027C32.7305 38.1027 32.5624 38.1027 32.3892 38.1027C32.3892 38.0265 32.3892 37.9503 32.3892 37.8718C32.2893 37.8361 32.1895 37.8004 32.0866 37.7636C31.7523 37.641 31.7523 37.641 31.4975 37.5256C31.4975 37.4494 31.4975 37.3732 31.4975 37.2947C31.2033 37.2947 30.909 37.2947 30.6059 37.2947C30.6059 37.2186 30.6059 37.1424 30.6059 37.0639C30.4845 37.0652 30.3632 37.0666 30.2382 37.068C29.9985 37.0695 29.9985 37.0695 29.754 37.0711C29.5959 37.0725 29.4378 37.0738 29.2749 37.0752C28.8911 37.0656 28.5573 37.0302 28.1857 36.9485C28.1857 36.8723 28.1857 36.7961 28.1857 36.7176C28.0359 36.7248 27.8862 36.7319 27.7319 36.7393C27.1571 36.7411 26.7897 36.5956 26.275 36.3714C26.1065 36.3283 25.9372 36.2871 25.7655 36.256C25.7655 36.1798 25.7655 36.1036 25.7655 36.0251C25.6111 36.0166 25.6111 36.0166 25.4535 36.008C25.3174 35.9994 25.1813 35.9907 25.041 35.9818C24.9066 35.9738 24.7721 35.9658 24.6335 35.9575C24.2488 35.9111 23.9515 35.8242 23.6001 35.6789C23.6001 35.5646 23.6001 35.4503 23.6001 35.3326C23.3899 35.3326 23.1797 35.3326 22.9632 35.3326C22.9632 35.2564 22.9632 35.1803 22.9632 35.1018C22.8292 35.0899 22.6952 35.078 22.5572 35.0657C22.0798 34.9877 21.834 34.8748 21.4347 34.6401C21.1555 34.5598 21.1555 34.5598 20.9251 34.5247C20.9251 34.4485 20.9251 34.3723 20.9251 34.2938C20.715 34.2558 20.5048 34.2177 20.2882 34.1784C20.2882 34.1022 20.2882 34.0261 20.2882 33.9476C20.2042 33.9476 20.1201 33.9476 20.0335 33.9476C20.0335 33.8714 20.0335 33.7952 20.0335 33.7167C19.9074 33.7167 19.7813 33.7167 19.6514 33.7167C19.6514 33.6406 19.6514 33.5644 19.6514 33.4859C19.4832 33.4478 19.3151 33.4097 19.1418 33.3705C19.1418 33.2943 19.1418 33.2181 19.1418 33.1397C19.0157 33.1397 18.8896 33.1397 18.7597 33.1397C18.7597 32.9873 18.7597 32.8349 18.7597 32.678C18.5495 32.6399 18.3394 32.6018 18.1228 32.5626C18.1228 32.4864 18.1228 32.4102 18.1228 32.3317C18.0388 32.3317 17.9547 32.3317 17.8681 32.3317C17.8681 32.2555 17.8681 32.1794 17.8681 32.1009C17.7682 32.0652 17.6684 32.0295 17.5655 31.9927C17.2312 31.87 17.2312 31.87 16.9764 31.7546C16.934 31.6007 16.8915 31.4468 16.849 31.293C16.765 31.2549 16.6809 31.2168 16.5943 31.1775C16.5943 31.1014 16.5943 31.0252 16.5943 30.9467C16.5102 30.9467 16.4261 30.9467 16.3395 30.9467C16.3395 30.8705 16.3395 30.7943 16.3395 30.7159C16.1294 30.7159 15.9192 30.7159 15.7026 30.7159C15.7026 30.6016 15.7026 30.4873 15.7026 30.3696C15.6186 30.3696 15.5345 30.3696 15.4479 30.3696C15.4479 30.2172 15.4479 30.0649 15.4479 29.9079C15.3638 29.9079 15.2797 29.9079 15.1931 29.9079C15.1931 29.7937 15.1931 29.6794 15.1931 29.5617C15.067 29.5617 14.9409 29.5617 14.811 29.5617C14.811 29.4093 14.811 29.257 14.811 29.1C14.6429 29.0619 14.4747 29.0238 14.3015 28.9846C14.2384 28.5846 14.2384 28.5846 14.1741 28.1766C14.09 28.1766 14.006 28.1766 13.9193 28.1766C13.9193 28.1005 13.9193 28.0243 13.9193 27.9458C13.8353 27.9458 13.7512 27.9458 13.6646 27.9458C13.6646 27.8696 13.6646 27.7934 13.6646 27.715C13.5385 27.6769 13.4124 27.6388 13.2825 27.5995C13.2825 27.4472 13.2825 27.2948 13.2825 27.1379C13.1984 27.1379 13.1143 27.1379 13.0277 27.1379C13.0277 27.0236 13.0277 26.9093 13.0277 26.7916C12.9436 26.7916 12.8596 26.7916 12.7729 26.7916C12.7729 26.7154 12.7729 26.6393 12.7729 26.5608C12.6889 26.5608 12.6048 26.5608 12.5182 26.5608C12.4761 26.3703 12.4341 26.1799 12.3908 25.9837C12.3067 25.9837 12.2227 25.9837 12.136 25.9837C12.0716 25.818 12.0081 25.652 11.945 25.4859C11.9095 25.3935 11.874 25.3011 11.8375 25.206C11.7539 24.9449 11.7539 24.9449 11.7539 24.5987C11.6698 24.5987 11.5858 24.5987 11.4992 24.5987C11.4992 24.5225 11.4992 24.4463 11.4992 24.3678C11.4151 24.3678 11.331 24.3678 11.2444 24.3678C11.2275 24.2942 11.2106 24.2205 11.1932 24.1446C11.1707 24.0493 11.1482 23.9539 11.125 23.8556C11.1028 23.7606 11.0807 23.6655 11.0578 23.5675C11.0142 23.3317 11.0142 23.3317 10.8623 23.2136C10.8571 22.9444 10.8569 22.675 10.8623 22.4057C10.7362 22.4057 10.6101 22.4057 10.4801 22.4057C10.2774 21.8432 10.1984 21.3891 10.2254 20.7898C10.1413 20.7898 10.0572 20.7898 9.97062 20.7898C9.97062 20.5994 9.97062 20.4089 9.97062 20.2127C9.88655 20.2127 9.80248 20.2127 9.71587 20.2127C9.66291 20.0043 9.66291 20.0043 9.60889 19.7916C9.5623 19.6098 9.51569 19.4279 9.46907 19.2461C9.44584 19.1544 9.4226 19.0628 9.39866 18.9684C9.37609 18.8806 9.35351 18.7928 9.33025 18.7024C9.30957 18.6214 9.28889 18.5404 9.26759 18.4569C9.2116 18.2409 9.2116 18.2409 9.07897 18.0198C9.0554 17.7797 9.03784 17.5391 9.02325 17.2984C8.98508 16.7462 8.92115 16.2129 8.81626 15.6681C8.61021 14.4622 8.67533 13.2348 8.69684 12.018Z" fill="white"/>
<path d="M62.9561 36.7188C63.1663 36.7188 63.3765 36.7188 63.593 36.7188C63.593 36.9092 63.593 37.0996 63.593 37.2958C63.6771 37.2958 63.7612 37.2958 63.8478 37.2958C64.0083 38.2955 63.9867 39.2891 63.9752 40.2967C64.0592 40.2967 64.1433 40.2967 64.2299 40.2967C64.2299 40.9442 64.2299 41.5917 64.2299 42.2589C64.314 42.2589 64.3981 42.2589 64.4847 42.2589C64.4917 42.3549 64.4988 42.451 64.506 42.55C64.5325 42.9069 64.5593 43.2638 64.5865 43.6206C64.6039 43.8508 64.6208 44.0811 64.6377 44.3114C64.6488 44.4561 64.6598 44.6008 64.6713 44.7498C64.6813 44.8834 64.6913 45.017 64.7016 45.1546C64.7266 45.4977 64.7266 45.4977 64.8668 45.8368C64.8772 46.0247 64.8805 46.2128 64.8792 46.4009C64.8788 46.5091 64.8784 46.6173 64.878 46.7289C64.8769 46.8416 64.8759 46.9543 64.8748 47.0704C64.8742 47.1844 64.8736 47.2985 64.873 47.416C64.8715 47.6975 64.8694 47.9791 64.8668 48.2606C64.9509 48.2606 65.035 48.2606 65.1216 48.2606C65.1216 48.9081 65.1216 49.5556 65.1216 50.2228C64.7981 50.3092 64.4747 50.3956 64.1513 50.482C63.85 50.5605 63.85 50.5605 63.593 50.6844C62.986 50.7136 62.3777 50.7067 61.7699 50.7061C61.6814 50.7062 61.5928 50.7063 61.5016 50.7063C59.979 50.7062 58.4811 50.6246 56.9694 50.4536C56.9694 50.3774 56.9694 50.3013 56.9694 50.2228C56.8538 50.2299 56.7382 50.2371 56.6191 50.2444C55.9078 50.2484 55.2296 50.0466 54.5492 49.8765C54.5492 49.8003 54.5492 49.7242 54.5492 49.6457C54.339 49.6457 54.1288 49.6457 53.9123 49.6457C53.9123 49.5695 53.9123 49.4933 53.9123 49.4148C53.7836 49.4006 53.6548 49.3863 53.5222 49.3716C53.036 49.3016 52.5984 49.1988 52.129 49.0686C52.129 48.9924 52.129 48.9162 52.129 48.8377C52.0029 48.8377 51.8768 48.8377 51.7469 48.8377C51.7469 48.7616 51.7469 48.6854 51.7469 48.6069C51.5341 48.6105 51.5341 48.6105 51.317 48.6141C50.8552 48.6069 50.8552 48.6069 50.6005 48.4915C50.6005 48.4153 50.6005 48.3391 50.6005 48.2606C50.3903 48.2606 50.1801 48.2606 49.9636 48.2606C49.9636 48.1845 49.9636 48.1083 49.9636 48.0298C49.8348 48.0155 49.7061 48.0012 49.5735 47.9865C49.0873 47.9166 48.6497 47.8138 48.1803 47.6836C48.1803 47.6074 48.1803 47.5312 48.1803 47.4527C47.886 47.4527 47.5918 47.4527 47.2886 47.4527C47.2886 47.3765 47.2886 47.3004 47.2886 47.2219C46.3798 47.2189 45.4709 47.2169 44.5621 47.2155C44.2531 47.215 43.9441 47.2142 43.6351 47.2132C43.1902 47.2118 42.7454 47.2111 42.3005 47.2106C42.163 47.21 42.0255 47.2094 41.8838 47.2088C41.2099 47.2088 40.5631 47.219 39.9007 47.3373C39.8587 47.3754 39.8166 47.4135 39.7733 47.4527C39.4332 47.469 39.0951 47.4576 38.7543 47.4527C38.7543 47.5289 38.7543 47.6051 38.7543 47.6836C38.376 47.7216 37.9977 47.7597 37.6079 47.799C37.6079 47.8751 37.6079 47.9513 37.6079 48.0298C37.3977 48.0298 37.1875 48.0298 36.971 48.0298C36.971 48.106 36.971 48.1822 36.971 48.2606C36.7608 48.2606 36.5507 48.2606 36.3341 48.2606C36.3341 48.3368 36.3341 48.413 36.3341 48.4915C36.1239 48.5296 35.9138 48.5677 35.6972 48.6069C35.6972 48.6831 35.6972 48.7593 35.6972 48.8377C35.6132 48.8377 35.5291 48.8377 35.4425 48.8377C35.4425 48.9139 35.4425 48.9901 35.4425 49.0686C35.3584 49.0686 35.2743 49.0686 35.1877 49.0686C35.1457 49.1828 35.1036 49.2971 35.0603 49.4148C34.9763 49.4148 34.8922 49.4148 34.8056 49.4148C34.8056 49.491 34.8056 49.5672 34.8056 49.6457C34.6374 49.6457 34.4693 49.6457 34.2961 49.6457C34.2961 49.7218 34.2961 49.798 34.2961 49.8765C34.17 49.8765 34.0439 49.8765 33.9139 49.8765C33.9139 49.8003 33.9139 49.7242 33.9139 49.6457C33.7458 49.6457 33.5777 49.6457 33.4044 49.6457C33.1815 49.487 33.1815 49.487 33.0223 49.2994C33.0223 49.2232 33.0223 49.1471 33.0223 49.0686C32.9382 49.0686 32.8541 49.0686 32.7675 49.0686C32.7675 48.9924 32.7675 48.9162 32.7675 48.8377C32.6414 48.8377 32.5153 48.8377 32.3854 48.8377C32.3854 48.7616 32.3854 48.6854 32.3854 48.6069C32.1752 48.5688 31.965 48.5307 31.7485 48.4915C31.7485 48.4153 31.7485 48.3391 31.7485 48.2606C31.6066 48.244 31.4648 48.2273 31.3186 48.2101C30.8569 48.1452 30.8569 48.1452 30.6021 48.0298C30.6021 47.9536 30.6021 47.8775 30.6021 47.799C30.4366 47.7823 30.2711 47.7656 30.1005 47.7485C29.599 47.698 29.599 47.698 29.4557 47.5681C29.2841 47.5415 29.1113 47.5206 28.9382 47.5032C28.7727 47.4865 28.6072 47.4699 28.4367 47.4527C28.4367 47.3765 28.4367 47.3004 28.4367 47.2219C27.5869 47.216 26.7372 47.212 25.8874 47.2092C25.5987 47.208 25.31 47.2065 25.0213 47.2045C24.6048 47.2016 24.1884 47.2003 23.7719 47.1993C23.6441 47.1981 23.5163 47.1969 23.3846 47.1957C22.698 47.1956 22.0769 47.2443 21.4114 47.4008C20.9508 47.5024 20.5002 47.4662 20.0297 47.4527C20.0297 47.5289 20.0297 47.6051 20.0297 47.6836C19.3992 47.7407 19.3992 47.7407 18.7559 47.799C18.7559 47.8751 18.7559 47.9513 18.7559 48.0298C18.5878 48.0298 18.4197 48.0298 18.2464 48.0298C18.2464 48.106 18.2464 48.1822 18.2464 48.2606C17.9942 48.2606 17.742 48.2606 17.4822 48.2606C17.4822 48.3368 17.4822 48.413 17.4822 48.4915C17.0408 48.5486 17.0408 48.5486 16.5905 48.6069C16.5905 48.6831 16.5905 48.7593 16.5905 48.8377C16.4224 48.8377 16.2542 48.8377 16.081 48.8377C16.081 48.9139 16.081 48.9901 16.081 49.0686C15.8708 49.0686 15.6606 49.0686 15.4441 49.0686C15.4441 49.1448 15.4441 49.2209 15.4441 49.2994C14.6474 49.561 13.8581 49.7424 13.0239 49.8765C13.0239 49.9527 13.0239 50.0289 13.0239 50.1073C12.4172 50.2173 11.8563 50.2324 11.2406 50.2228C11.2406 50.2989 11.2406 50.3751 11.2406 50.4536C11.1516 50.4606 11.0626 50.4676 10.9709 50.4748C10.855 50.4845 10.7391 50.4941 10.6197 50.5041C10.5044 50.5135 10.3891 50.5228 10.2704 50.5325C9.96543 50.554 9.96543 50.554 9.71209 50.6844C9.34352 50.6959 8.97807 50.7006 8.60947 50.6998C8.44553 50.6999 8.44553 50.6999 8.27826 50.7001C8.04698 50.7002 7.8157 50.7 7.58442 50.6995C7.22966 50.6989 6.87493 50.6995 6.52017 50.7002C6.29577 50.7001 6.07137 50.7 5.84696 50.6998C5.74041 50.7 5.63386 50.7002 5.52409 50.7005C4.77363 50.6977 4.77363 50.6977 4.48959 50.569C4.29385 50.5431 4.0973 50.5219 3.90047 50.5041C3.74431 50.4896 3.74431 50.4896 3.58501 50.4748C3.5052 50.4678 3.4254 50.4608 3.34319 50.4536C3.34319 50.3774 3.34319 50.3013 3.34319 50.2228C3.25912 50.2228 3.17505 50.2228 3.08843 50.2228C2.97805 49.6656 2.96657 49.2143 3.07251 48.6574C3.19835 47.9426 3.26759 47.236 3.31184 46.5136C3.34319 46.1831 3.34319 46.1831 3.47056 45.8368C3.496 45.6064 3.51675 45.3754 3.53425 45.1443C3.56287 44.7665 3.59283 44.4657 3.72532 44.1056C3.7518 43.8405 3.77209 43.575 3.78901 43.3094C3.79418 43.2318 3.79935 43.1542 3.80468 43.0743C3.82118 42.8266 3.83701 42.5788 3.8527 42.331C3.86841 42.084 3.88429 41.8371 3.90071 41.5901C3.91565 41.3655 3.92997 41.1408 3.94425 40.916C3.97488 40.584 4.03036 40.2755 4.10745 39.9505C4.12928 39.6934 4.14759 39.4361 4.16318 39.1786C4.29875 37.3534 4.29875 37.3534 4.74435 36.9496C5.07871 36.9352 5.07871 36.9352 5.38124 36.9496C5.42327 37.0639 5.46531 37.1781 5.50861 37.2958C5.67675 37.2958 5.84489 37.2958 6.01813 37.2958C6.01813 37.372 6.01813 37.4482 6.01813 37.5267C6.1022 37.5267 6.18627 37.5267 6.27288 37.5267C6.47716 37.655 6.47716 37.655 6.65502 37.8729C6.70097 38.195 6.70097 38.195 6.6984 38.5903C6.69837 38.7382 6.69834 38.8861 6.69831 39.0384C6.69636 39.1998 6.69437 39.3612 6.69233 39.5226C6.69162 39.6877 6.69108 39.8529 6.69069 40.018C6.68924 40.4523 6.68548 40.8866 6.68126 41.321C6.67735 41.7643 6.6756 42.2076 6.67368 42.6509C6.66958 43.5205 6.66306 44.3901 6.65502 45.2598C6.73909 45.2598 6.82316 45.2598 6.90977 45.2598C6.95181 45.4121 6.99384 45.5645 7.03715 45.7214C7.20529 45.7595 7.37343 45.7976 7.54666 45.8368C7.54666 45.913 7.54666 45.9892 7.54666 46.0677C7.75684 46.0677 7.96701 46.0677 8.18355 46.0677C8.18355 46.1439 8.18355 46.22 8.18355 46.2985C9.36053 46.2985 10.5375 46.2985 11.7501 46.2985C11.7501 46.2223 11.7501 46.1462 11.7501 46.0677C11.87 46.048 11.9899 46.0284 12.1134 46.0082C12.9744 45.8563 13.5686 45.7053 14.2977 45.2598C14.6839 45.2219 15.0574 45.2317 15.4441 45.2598C15.4441 45.1836 15.4441 45.1074 15.4441 45.0289C16.0116 44.9718 16.0116 44.9718 16.5905 44.9135C16.5905 44.8373 16.5905 44.7611 16.5905 44.6827C16.7166 44.6827 16.8427 44.6827 16.9726 44.6827C16.9726 44.6065 16.9726 44.5303 16.9726 44.4518C17.1382 44.4423 17.3037 44.4328 17.4742 44.423C18.0388 44.3678 18.4621 44.2098 18.9694 43.9883C19.738 43.6934 20.608 43.6257 21.4309 43.5285C21.4309 43.4523 21.4309 43.3761 21.4309 43.2976C21.6411 43.2976 21.8512 43.2976 22.0678 43.2976C22.0678 43.2215 22.0678 43.1453 22.0678 43.0668C22.2779 43.0668 22.4881 43.0668 22.7047 43.0668C22.7047 42.9906 22.7047 42.9144 22.7047 42.836C22.8503 42.8206 22.9959 42.8053 23.146 42.7895C23.3359 42.769 23.5258 42.7484 23.7157 42.7277C23.8119 42.7177 23.908 42.7077 24.007 42.6973C24.478 42.6809 24.478 42.6809 24.8701 42.4897C25.0578 42.4657 25.2465 42.4473 25.4353 42.432C25.8694 42.3983 25.8694 42.3983 26.2712 42.2589C26.5963 42.2506 26.9177 42.2481 27.2425 42.2516C27.3325 42.2522 27.4225 42.2527 27.5152 42.2532C27.7374 42.2546 27.9597 42.2567 28.1819 42.2589C28.1819 42.335 28.1819 42.4112 28.1819 42.4897C28.4762 42.4897 28.7704 42.4897 29.0736 42.4897C29.0736 42.5659 29.0736 42.6421 29.0736 42.7205C29.4519 42.7586 29.8302 42.7967 30.22 42.836C30.22 42.9121 30.22 42.9883 30.22 43.0668C30.4301 43.0668 30.6403 43.0668 30.8569 43.0668C30.8569 43.143 30.8569 43.2191 30.8569 43.2976C31.067 43.3357 31.2772 43.3738 31.4937 43.413C31.4937 43.4892 31.4937 43.5654 31.4937 43.6439C31.5778 43.6439 31.6619 43.6439 31.7485 43.6439C31.7485 43.7201 31.7485 43.7962 31.7485 43.8747C31.8746 43.8747 32.0007 43.8747 32.1306 43.8747C32.1306 43.9509 32.1306 44.0271 32.1306 44.1056C32.2988 44.1437 32.4669 44.1817 32.6402 44.221C32.6402 44.2972 32.6402 44.3733 32.6402 44.4518C32.7663 44.4518 32.8924 44.4518 33.0223 44.4518C33.0223 44.528 33.0223 44.6042 33.0223 44.6827C33.1064 44.6827 33.1904 44.6827 33.277 44.6827C33.277 44.7588 33.277 44.835 33.277 44.9135C33.4031 44.9516 33.5292 44.9897 33.6592 45.0289C33.6592 45.1051 33.6592 45.1813 33.6592 45.2598C33.7432 45.2598 33.8273 45.2598 33.9139 45.2598C33.9139 45.3359 33.9139 45.4121 33.9139 45.4906C34.04 45.4906 34.1661 45.4906 34.2961 45.4906C34.2961 45.4144 34.2961 45.3382 34.2961 45.2598C34.4642 45.2217 34.6323 45.1836 34.8056 45.1443C34.8056 44.992 34.8056 44.8396 34.8056 44.6827C34.9317 44.6827 35.0578 44.6827 35.1877 44.6827C35.1877 44.6065 35.1877 44.5303 35.1877 44.4518C35.2718 44.4518 35.3559 44.4518 35.4425 44.4518C35.4425 44.3756 35.4425 44.2995 35.4425 44.221C35.6526 44.1829 35.8628 44.1448 36.0794 44.1056C36.0794 44.0294 36.0794 43.9532 36.0794 43.8747C36.1634 43.8747 36.2475 43.8747 36.3341 43.8747C36.3341 43.7985 36.3341 43.7224 36.3341 43.6439C36.8926 43.2976 36.8926 43.2976 37.2258 43.2976C37.2258 43.2215 37.2258 43.1453 37.2258 43.0668C38.4244 42.8231 38.4244 42.8231 39.0091 42.7205C39.0091 42.6444 39.0091 42.5682 39.0091 42.4897C40.0161 42.1855 41.0176 42.2381 42.0661 42.2589C42.0661 42.335 42.0661 42.4112 42.0661 42.4897C42.1646 42.4884 42.2632 42.487 42.3647 42.4856C43.1284 42.4796 43.8587 42.4999 44.6137 42.6051C44.6137 42.6813 44.6137 42.7575 44.6137 42.836C44.95 42.836 45.2863 42.836 45.6327 42.836C45.6327 42.9121 45.6327 42.9883 45.6327 43.0668C45.7588 43.0668 45.8849 43.0668 46.0149 43.0668C46.0149 43.143 46.0149 43.2191 46.0149 43.2976C46.1357 43.2905 46.2566 43.2833 46.3811 43.276C47.0139 43.2725 47.5865 43.462 48.1803 43.6439C48.1803 43.7201 48.1803 43.7962 48.1803 43.8747C48.4745 43.8747 48.7688 43.8747 49.0719 43.8747C49.0719 43.9509 49.0719 44.0271 49.0719 44.1056C49.1928 44.1198 49.3136 44.1341 49.4381 44.1488C50.0429 44.2265 50.6395 44.3396 51.2374 44.4518C51.2374 44.528 51.2374 44.6042 51.2374 44.6827C51.3635 44.6827 51.4896 44.6827 51.6195 44.6827C51.6195 44.7588 51.6195 44.835 51.6195 44.9135C51.7732 44.9349 51.7732 44.9349 51.93 44.9568C52.8439 45.1021 53.6864 45.2933 54.5492 45.606C54.5492 45.6822 54.5492 45.7584 54.5492 45.8368C54.9275 45.8368 55.3058 45.8368 55.6956 45.8368C55.6956 45.913 55.6956 45.9892 55.6956 46.0677C55.9044 46.0641 55.9044 46.0641 56.1175 46.0605C56.5872 46.0677 56.5872 46.0677 56.9694 46.1831C57.2043 46.2003 57.4398 46.2117 57.6754 46.2196C57.8121 46.2245 57.9488 46.2293 58.0896 46.2343C58.2323 46.2388 58.3749 46.2434 58.5218 46.248C58.6659 46.253 58.81 46.258 58.9584 46.2631C59.3144 46.2754 59.6704 46.2872 60.0264 46.2985C60.0264 46.2223 60.0264 46.1462 60.0264 46.0677C60.1946 46.0677 60.3627 46.0677 60.536 46.0677C60.578 45.9153 60.62 45.763 60.6633 45.606C60.8315 45.5679 60.9996 45.5298 61.1728 45.4906C61.326 44.7023 61.3413 43.9129 61.3684 43.1141C61.3766 42.8891 61.3766 42.8891 61.385 42.6596C61.3994 42.2632 61.4133 41.8668 61.4271 41.4705C61.4412 41.065 61.456 40.6596 61.4706 40.2541C61.4993 39.4604 61.5273 38.6667 61.555 37.8729C61.639 37.8729 61.7231 37.8729 61.8097 37.8729C61.8097 37.7968 61.8097 37.7206 61.8097 37.6421C61.9849 37.4545 61.9849 37.4545 62.1919 37.2958C62.2759 37.2958 62.36 37.2958 62.4466 37.2958C62.4466 37.2197 62.4466 37.1435 62.4466 37.065C62.6148 37.0269 62.7829 36.9888 62.9561 36.9496C62.9561 36.8734 62.9561 36.7972 62.9561 36.7188Z" fill="white"/>
<path d="M33.9187 0.707031C34.1814 0.793595 34.1814 0.793595 34.4282 0.937869C34.4912 1.10927 34.4912 1.10927 34.5556 1.28413C34.6396 1.28413 34.7237 1.28413 34.8103 1.28413C34.8616 1.39482 34.8616 1.39482 34.9138 1.50775C35.0506 1.78404 35.0506 1.78404 35.4472 1.86122C35.4472 2.01357 35.4472 2.16593 35.4472 2.3229C35.5733 2.36098 35.6994 2.39907 35.8294 2.43832C35.8294 2.59067 35.8294 2.74302 35.8294 2.89999C35.9134 2.89999 35.9975 2.89999 36.0841 2.89999C36.0841 3.01426 36.0841 3.12852 36.0841 3.24625C36.1682 3.24625 36.2522 3.24625 36.3389 3.24625C36.3389 3.3986 36.3389 3.55095 36.3389 3.70792C36.4229 3.70792 36.507 3.70792 36.5936 3.70792C36.9571 3.96429 37.0431 4.19185 37.127 4.59521C37.1472 4.68849 37.1674 4.78178 37.1882 4.87789C37.2092 4.98435 37.2092 4.98435 37.2305 5.09295C37.3146 5.09295 37.3987 5.09295 37.4853 5.09295C37.5483 5.37861 37.5483 5.37861 37.6126 5.67005C37.7808 5.67005 37.9489 5.67005 38.1222 5.67005C38.1852 6.06997 38.1852 6.06997 38.2495 6.47798C38.3336 6.47798 38.4177 6.47798 38.5043 6.47798C38.5043 6.66842 38.5043 6.85886 38.5043 7.05507C38.5884 7.05507 38.6724 7.05507 38.759 7.05507C38.759 7.13125 38.759 7.20743 38.759 7.28591C38.8431 7.28591 38.9272 7.28591 39.0138 7.28591C39.0769 7.85724 39.0769 7.85724 39.1412 8.4401C39.2253 8.4401 39.3093 8.4401 39.3959 8.4401C39.3959 8.63054 39.3959 8.82098 39.3959 9.0172C39.48 9.0172 39.5641 9.0172 39.6507 9.0172C39.9717 9.7789 40.1392 10.5296 40.276 11.3323C40.359 11.8128 40.359 11.8128 40.5528 12.2629C40.7227 12.578 40.694 12.8536 40.6856 13.2011C40.6833 13.3255 40.681 13.4499 40.6787 13.578C40.6757 13.6727 40.6728 13.7673 40.6697 13.8648C40.7538 13.8648 40.8379 13.8648 40.9245 13.8648C41.1632 14.9925 41.2084 16.0697 41.1792 17.2119C41.0952 17.2119 41.0111 17.2119 40.9245 17.2119C40.9245 17.2881 40.9245 17.3643 40.9245 17.4428C40.7493 17.6303 40.7493 17.6303 40.5423 17.789C40.4583 17.789 40.3742 17.789 40.2876 17.789C40.2876 17.8652 40.2876 17.9414 40.2876 18.0199C40.2035 18.0199 40.1194 18.0199 40.0328 18.0199C39.9908 18.1341 39.9488 18.2484 39.9055 18.3661C39.8214 18.3661 39.7373 18.3661 39.6507 18.3661C39.6507 18.4423 39.6507 18.5185 39.6507 18.597C39.5666 18.597 39.4826 18.597 39.3959 18.597C39.3959 18.7112 39.3959 18.8255 39.3959 18.9432C39.3119 18.9432 39.2278 18.9432 39.1412 18.9432C39.0991 19.0956 39.0571 19.2479 39.0138 19.4049C38.9297 19.4049 38.8457 19.4049 38.759 19.4049C38.759 19.5192 38.759 19.6334 38.759 19.7512C38.675 19.7512 38.5909 19.7512 38.5043 19.7512C38.5043 19.8273 38.5043 19.9035 38.5043 19.982C38.4202 19.982 38.3362 19.982 38.2495 19.982C38.2075 20.1724 38.1655 20.3629 38.1222 20.5591C38.0381 20.5591 37.954 20.5591 37.8674 20.5591C37.8674 20.7495 37.8674 20.94 37.8674 21.1362C37.7833 21.1362 37.6993 21.1362 37.6126 21.1362C37.589 21.2969 37.589 21.2969 37.5649 21.4608C37.4853 21.8287 37.4853 21.8287 37.2305 22.175C37.1464 22.175 37.0624 22.175 36.9758 22.175C36.9758 22.3654 36.9758 22.5558 36.9758 22.7521C36.8917 22.7521 36.8076 22.7521 36.721 22.7521C36.5087 23.2056 36.356 23.6624 36.2115 24.1371C36.1639 24.2886 36.1161 24.4401 36.0682 24.5915C36.0314 24.7082 35.9946 24.8248 35.9567 24.945C35.7886 24.945 35.6205 24.945 35.4472 24.945C35.4472 25.364 35.4472 25.783 35.4472 26.2146C35.3631 26.2146 35.2791 26.2146 35.1925 26.2146C35.1769 26.2972 35.1613 26.3798 35.1452 26.4648C35.0636 26.7976 34.9459 27.0902 34.8024 27.4049C34.7562 27.5068 34.7101 27.6087 34.6625 27.7137C34.6272 27.7903 34.5919 27.867 34.5556 27.9459C34.4715 27.9459 34.3874 27.9459 34.3008 27.9459C34.2588 28.2125 34.2167 28.4791 34.1734 28.7538C34.0053 28.7538 33.8372 28.7538 33.6639 28.7538C33.6219 28.2206 33.5799 27.6874 33.5365 27.138C33.4525 27.138 33.3684 27.138 33.2818 27.138C33.2818 26.9475 33.2818 26.7571 33.2818 26.5609C33.1977 26.5609 33.1137 26.5609 33.027 26.5609C33.027 26.3704 33.027 26.18 33.027 25.9838C32.943 25.9838 32.8589 25.9838 32.7723 25.9838C32.5078 25.45 32.301 24.9334 32.1354 24.3679C32.0513 24.3679 31.9672 24.3679 31.8806 24.3679C31.8806 24.1013 31.8806 23.8347 31.8806 23.56C31.7966 23.56 31.7125 23.56 31.6259 23.56C31.5628 23.1601 31.5628 23.1601 31.4985 22.7521C31.4144 22.7521 31.3304 22.7521 31.2437 22.7521C31.2437 22.6378 31.2437 22.5235 31.2437 22.4058C31.1597 22.4058 31.0756 22.4058 30.989 22.4058C30.9259 22.1201 30.9259 22.1201 30.8616 21.8287C30.7775 21.8287 30.6935 21.8287 30.6069 21.8287C30.6069 21.6763 30.6069 21.524 30.6069 21.367C30.5228 21.367 30.4387 21.367 30.3521 21.367C30.3101 21.1766 30.268 20.9861 30.2247 20.7899C30.1406 20.7899 30.0566 20.7899 29.97 20.7899C29.97 20.7138 29.97 20.6376 29.97 20.5591C29.8018 20.521 29.6337 20.4829 29.4604 20.4437C29.4184 20.1771 29.3764 19.9104 29.3331 19.6357C29.249 19.6357 29.1649 19.6357 29.0783 19.6357C29.0783 19.5596 29.0783 19.4834 29.0783 19.4049C28.9942 19.4049 28.9102 19.4049 28.8236 19.4049C28.4414 18.8988 28.4414 18.8988 28.4414 18.597C28.3574 18.597 28.2733 18.597 28.1867 18.597C28.1867 18.5208 28.1867 18.4446 28.1867 18.3661C28.0606 18.328 27.9345 18.29 27.8045 18.2507C27.8045 18.1745 27.8045 18.0984 27.8045 18.0199C27.7205 18.0199 27.6364 18.0199 27.5498 18.0199C27.5498 17.9437 27.5498 17.8675 27.5498 17.789C27.4657 17.789 27.3816 17.789 27.295 17.789C27.295 17.7129 27.295 17.6367 27.295 17.5582C27.1689 17.5201 27.0428 17.482 26.9129 17.4428C26.9129 17.3666 26.9129 17.2904 26.9129 17.2119C26.8288 17.2119 26.7447 17.2119 26.6581 17.2119C26.5894 16.1521 26.7159 15.2313 26.9763 14.2033C27.1586 13.4767 27.2622 12.7637 27.295 12.0181C27.3791 12.0181 27.4632 12.0181 27.5498 12.0181C27.5498 11.9038 27.5498 11.7896 27.5498 11.6718C27.6338 11.6718 27.7179 11.6718 27.8045 11.6718C27.8049 11.5739 27.8052 11.476 27.8055 11.3752C27.847 10.2355 28.149 9.46753 28.6962 8.4401C28.8264 8.17181 28.9525 7.90219 29.0783 7.63217C29.1624 7.63217 29.2465 7.63217 29.3331 7.63217C29.3488 7.55361 29.3646 7.47505 29.3808 7.39412C29.472 7.0057 29.5916 6.62801 29.7152 6.24714C29.7993 6.24714 29.8833 6.24714 29.97 6.24714C29.97 6.13288 29.97 6.01861 29.97 5.90088C30.054 5.90088 30.1381 5.90088 30.2247 5.90088C30.2479 5.80626 30.271 5.71163 30.2949 5.61414C30.3269 5.48976 30.3589 5.36538 30.3919 5.23723C30.4229 5.11403 30.454 4.99084 30.4859 4.86392C30.6045 4.52249 30.7191 4.31319 30.989 4.05418C31.0731 4.05418 31.1571 4.05418 31.2437 4.05418C31.2437 3.93992 31.2437 3.82565 31.2437 3.70792C31.3278 3.70792 31.4119 3.70792 31.4985 3.70792C31.4985 3.55557 31.4985 3.40322 31.4985 3.24625C31.5826 3.24625 31.6666 3.24625 31.7533 3.24625C31.7953 3.05581 31.8373 2.86537 31.8806 2.66915C31.9647 2.66915 32.0488 2.66915 32.1354 2.66915C32.1354 2.59298 32.1354 2.5168 32.1354 2.43832C32.2116 2.43594 32.2878 2.43355 32.3663 2.4311C32.7001 2.33391 32.7001 2.33391 32.8678 1.91172C32.9466 1.71532 32.9466 1.71532 33.027 1.51496C33.1111 1.51496 33.1952 1.51496 33.2818 1.51496C33.2818 1.43879 33.2818 1.36261 33.2818 1.28413C33.3659 1.28413 33.4499 1.28413 33.5365 1.28413C33.5602 1.17343 33.5602 1.17343 33.5843 1.0605C33.6106 0.981945 33.6369 0.903388 33.6639 0.82245C33.748 0.784362 33.8321 0.746274 33.9187 0.707031Z" fill="white"/>
<path d="M20.5383 8.20898C20.9586 8.20898 21.379 8.20898 21.812 8.20898C21.812 8.36134 21.812 8.51369 21.812 8.67066C21.8987 8.68494 21.9854 8.69923 22.0748 8.71394C22.5034 8.79658 22.9202 8.9049 23.3406 9.01692C23.3406 9.09309 23.3406 9.16927 23.3406 9.24775C23.4246 9.24775 23.5087 9.24775 23.5953 9.24775C23.5953 9.32393 23.5953 9.40011 23.5953 9.47859C23.9106 9.53573 23.9106 9.53573 24.2322 9.59401C24.2322 9.67019 24.2322 9.74636 24.2322 9.82485C24.3163 9.82485 24.4004 9.82485 24.487 9.82485C24.487 9.90103 24.487 9.9772 24.487 10.0557C24.6131 10.0557 24.7392 10.0557 24.8691 10.0557C24.8691 10.1319 24.8691 10.208 24.8691 10.2865C25.0373 10.3246 25.2054 10.3627 25.3786 10.4019C25.3786 10.4781 25.3786 10.5543 25.3786 10.6328C25.5047 10.6328 25.6308 10.6328 25.7608 10.6328C25.7608 11.0898 25.7608 11.5469 25.7608 12.0178C25.6767 12.0178 25.5926 12.0178 25.506 12.0178C25.4998 12.1364 25.4935 12.255 25.4871 12.3771C25.4331 13.3121 25.3448 14.2167 25.1239 15.1341C24.8296 15.096 24.5354 15.0579 24.2322 15.0187C24.2322 14.9425 24.2322 14.8663 24.2322 14.7879C24.1061 14.7498 23.98 14.7117 23.8501 14.6724C23.8501 14.5963 23.8501 14.5201 23.8501 14.4416C23.766 14.4416 23.6819 14.4416 23.5953 14.4416C23.5953 14.3654 23.5953 14.2893 23.5953 14.2108C23.3431 14.2108 23.0909 14.2108 22.8311 14.2108C22.789 14.0965 22.747 13.9822 22.7037 13.8645C22.5355 13.8645 22.3674 13.8645 22.1942 13.8645C22.1521 13.7122 22.1101 13.5598 22.0668 13.4028C21.9827 13.4028 21.8987 13.4028 21.812 13.4028C21.812 13.3267 21.812 13.2505 21.812 13.172C21.6019 13.1339 21.3917 13.0958 21.1751 13.0566C21.1751 12.9804 21.1751 12.9042 21.1751 12.8257C21.0911 12.8257 21.007 12.8257 20.9204 12.8257C20.9204 12.7496 20.9204 12.6734 20.9204 12.5949C20.7102 12.5568 20.5 12.5187 20.2835 12.4795C20.2835 12.4033 20.2835 12.3271 20.2835 12.2486C20.1574 12.2486 20.0313 12.2486 19.9014 12.2486C19.9117 11.8229 19.9261 11.3974 19.9412 10.9718C19.944 10.852 19.9469 10.7321 19.9499 10.6087C19.9767 9.91215 20.061 9.40701 20.4109 8.78608C20.4989 8.46534 20.4989 8.46534 20.5383 8.20898Z" fill="white"/>
<path d="M46.9089 8.20898C47.035 8.20898 47.1611 8.20898 47.291 8.20898C47.291 8.28516 47.291 8.36134 47.291 8.43982C47.3751 8.43982 47.4591 8.43982 47.5457 8.43982C48.0441 9.74303 48.2748 10.8694 48.1826 12.2486C47.8884 12.3248 47.5941 12.401 47.291 12.4795C47.291 12.5938 47.291 12.708 47.291 12.8257C47.0808 12.8257 46.8706 12.8257 46.6541 12.8257C46.6541 12.9019 46.6541 12.9781 46.6541 13.0566C46.3278 13.3216 46.2109 13.4028 45.7625 13.4028C45.7625 13.479 45.7625 13.5552 45.7625 13.6337C45.6363 13.6337 45.5102 13.6337 45.3803 13.6337C45.3803 13.7099 45.3803 13.786 45.3803 13.8645C44.8218 14.2108 44.8218 14.2108 44.4887 14.2108C44.4887 14.2869 44.4887 14.3631 44.4887 14.4416C44.3205 14.4416 44.1524 14.4416 43.9792 14.4416C43.9371 14.5559 43.8951 14.6701 43.8518 14.7879C43.7677 14.7879 43.6836 14.7879 43.597 14.7879C43.597 14.864 43.597 14.9402 43.597 15.0187C43.513 15.0187 43.4289 15.0187 43.3423 15.0187C43.3002 15.133 43.2582 15.2472 43.2149 15.365C43.0888 15.3269 42.9627 15.2888 42.8328 15.2495C42.6832 14.9785 42.6907 14.8181 42.6929 14.5164C42.6933 14.4183 42.6938 14.3201 42.6942 14.2189C42.6952 14.1162 42.6963 14.0136 42.6974 13.9078C42.698 13.8042 42.6986 13.7007 42.6992 13.594C42.7007 13.3379 42.7028 13.0818 42.7054 12.8257C42.6213 12.8257 42.5372 12.8257 42.4506 12.8257C42.4086 12.1782 42.3666 11.5307 42.3232 10.8636C42.4073 10.8636 42.4914 10.8636 42.578 10.8636C42.6174 10.7732 42.6568 10.6827 42.6974 10.5895C42.8328 10.2865 42.8328 10.2865 42.9601 10.0557C43.0862 10.0557 43.2123 10.0557 43.3423 10.0557C43.3423 9.97951 43.3423 9.90333 43.3423 9.82485C43.4263 9.82485 43.5104 9.82485 43.597 9.82485C43.597 9.74867 43.597 9.6725 43.597 9.59401C43.7494 9.5464 43.9018 9.49879 44.0588 9.44974C44.428 9.32583 44.6885 9.20398 45.0221 9.00249C45.3725 8.79077 45.604 8.71471 46.0172 8.67066C46.0172 8.59448 46.0172 8.51831 46.0172 8.43982C46.3115 8.43982 46.6057 8.43982 46.9089 8.43982C46.9089 8.36365 46.9089 8.28747 46.9089 8.20898Z" fill="white"/>
</svg>
