<svg width="51" height="51" viewBox="0 0 51 51" fill="none" xmlns="http://www.w3.org/2000/svg">
<path d="M20.1082 28.3298L17.2513 39.9962L24.6849 30.1652L23.297 28.3298H20.1082ZM19.5478 23.3704L17.9685 21.2816L7.07715 26.6057H18.7556L19.5478 23.3704Z" fill="white"/>
<path d="M25.7652 24.0195C26.7174 24.0195 27.4893 23.2476 27.4893 22.2954C27.4893 21.3432 26.7174 20.5713 25.7652 20.5713C24.8129 20.5713 24.041 21.3432 24.041 22.2954C24.041 23.2476 24.8129 24.0195 25.7652 24.0195Z" fill="white"/>
<path d="M20.8787 17.9402L21.5037 15.3859L12.252 10.8626L18.4873 19.1092L20.8787 17.9402ZM33.0442 19.1092L39.2795 10.8626L30.0278 15.3859L30.6537 17.9402L33.0442 19.1092ZM28.0235 14.4471L25.7657 5.22986L23.5088 14.4471L25.7657 15.5505L28.0235 14.4471ZM31.9838 23.3704L32.7761 26.6057H44.4537L33.5632 21.2816L31.9838 23.3704ZM28.2347 28.3299L26.8468 30.1652L34.2795 39.9962L31.4226 28.3299H28.2347ZM27.8054 26.6057H31.0011L30.2114 23.3833C30.1809 23.2588 30.1785 23.129 30.2044 23.0034C30.2304 22.8779 30.284 22.7597 30.3614 22.6574L31.9847 20.51L29.5338 19.3118C29.4204 19.2563 29.3205 19.1766 29.2413 19.0783C29.162 18.98 29.1053 18.8654 29.0752 18.7428L28.4425 16.1566L26.1442 17.2773C26.0262 17.3343 25.8968 17.3639 25.7657 17.3639C25.6347 17.3639 25.5053 17.3343 25.3873 17.2773L23.089 16.1566L22.4571 18.7428C22.4269 18.8655 22.3701 18.9801 22.2907 19.0784C22.2113 19.1767 22.1113 19.2564 21.9976 19.3118L19.5468 20.51L21.1709 22.6574C21.2482 22.7597 21.3017 22.878 21.3275 23.0035C21.3533 23.1291 21.3507 23.2588 21.3201 23.3833L20.5313 26.6057H23.7261C23.8599 26.6057 23.9919 26.6369 24.1116 26.6967C24.2313 26.7566 24.3354 26.8435 24.4157 26.9505L25.7657 28.7359L27.1175 26.9505C27.1976 26.8437 27.3014 26.757 27.4208 26.6971C27.5402 26.6373 27.6719 26.606 27.8054 26.6057ZM22.3175 22.2954C22.3175 21.6134 22.5197 20.9467 22.8986 20.3796C23.2775 19.8125 23.8161 19.3706 24.4461 19.1096C25.0762 18.8486 25.7696 18.7803 26.4385 18.9134C27.1074 19.0464 27.7218 19.3748 28.204 19.8571C28.6863 20.3393 29.0147 20.9537 29.1478 21.6226C29.2808 22.2915 29.2125 22.9849 28.9515 23.615C28.6905 24.2451 28.2486 24.7836 27.6815 25.1625C27.1144 25.5414 26.4477 25.7436 25.7657 25.7436C24.8512 25.7436 23.9741 25.3803 23.3274 24.7337C22.6808 24.087 22.3175 23.2099 22.3175 22.2954Z" fill="white"/>
<path d="M25.7656 0.0195312C20.8211 0.0195313 15.9876 1.48576 11.8764 4.23279C7.76515 6.97982 4.56084 10.8843 2.66865 15.4524C0.776457 20.0206 0.281374 25.0473 1.246 29.8968C2.21063 34.7463 4.59165 39.2009 8.08797 42.6972C11.5843 46.1935 16.0388 48.5745 20.8884 49.5392C25.7379 50.5038 30.7646 50.0087 35.3327 48.1165C39.9009 46.2243 43.8053 43.02 46.5524 38.9088C49.2994 34.7976 50.7656 29.9641 50.7656 25.0195C50.7581 18.3914 48.1218 12.037 43.435 7.35018C38.7482 2.6634 32.3937 0.0270607 25.7656 0.0195312ZM46.4553 17.2609L43.8691 22.4333L41.2829 17.2609H46.4553ZM34.3863 4.32987V9.50229C33.7004 9.50229 33.0426 9.22981 32.5576 8.74481C32.0726 8.2598 31.8001 7.60199 31.8001 6.91608C31.8001 6.23018 32.0726 5.57236 32.5576 5.08736C33.0426 4.60235 33.7004 4.32987 34.3863 4.32987ZM18.007 4.32987L20.5932 6.91608L18.007 9.50229L15.4208 6.91608L18.007 4.32987ZM5.90788 18.5687L6.12426 20.0833L11.2225 17.5333C11.3447 17.4723 11.4796 17.4411 11.6162 17.4424C11.7528 17.4437 11.8871 17.4775 12.0081 17.5409C12.129 17.6042 12.2332 17.6955 12.312 17.807C12.3908 17.9186 12.442 18.0473 12.4613 18.1825L12.8475 20.8816L11.1406 21.1256L10.9243 19.6109L5.82598 22.1609C5.70381 22.222 5.56888 22.2531 5.43231 22.2518C5.29574 22.2505 5.16143 22.2168 5.04046 22.1534C4.91948 22.09 4.8153 21.9987 4.73649 21.8872C4.65769 21.7756 4.60651 21.647 4.58719 21.5118L4.20098 18.8126L5.90788 18.5687ZM7.66219 37.0885L10.2484 31.9161L12.8346 37.0885H7.66219ZM25.7656 47.4333C25.2541 47.4333 24.7541 47.2816 24.3288 46.9975C23.9035 46.7133 23.572 46.3094 23.3763 45.8368C23.1805 45.3642 23.1293 44.8442 23.2291 44.3426C23.3289 43.8409 23.5752 43.3801 23.9369 43.0184C24.2986 42.6567 24.7594 42.4104 25.2611 42.3106C25.7628 42.2108 26.2828 42.262 26.7553 42.4578C27.2279 42.6535 27.6318 42.985 27.916 43.4103C28.2002 43.8356 28.3518 44.3356 28.3518 44.8471C28.3518 45.533 28.0794 46.1908 27.5944 46.6758C27.1093 47.1608 26.4515 47.4333 25.7656 47.4333ZM45.4303 35.0066C45.3504 35.1173 45.2454 35.2075 45.1238 35.2697C45.0023 35.3319 44.8677 35.3643 44.7311 35.3643H39.0303L39.5148 36.8161L37.8768 37.3609L37.0148 34.7747C36.9716 34.645 36.9598 34.5068 36.9805 34.3716C37.0013 34.2365 37.0538 34.1082 37.1339 33.9974C37.214 33.8865 37.3193 33.7963 37.4412 33.7342C37.563 33.6721 37.6978 33.6399 37.8346 33.6402H43.5355L43.051 32.1885L44.6889 31.6437L45.551 34.2299C45.5939 34.3596 45.6053 34.4977 45.5843 34.6328C45.5633 34.7678 45.5105 34.896 45.4303 35.0066ZM48.1794 29.3299H33.1984L36.9475 44.6419C36.9947 44.8346 36.974 45.0377 36.8889 45.2169C36.8038 45.396 36.6594 45.5404 36.4803 45.6256C36.3649 45.6809 36.2384 45.7095 36.1105 45.7092C35.9766 45.7092 35.8446 45.678 35.7249 45.6182C35.6052 45.5583 35.5011 45.4714 35.4208 45.3643L25.7656 32.5945L16.1105 45.3643C15.9908 45.5228 15.8202 45.6351 15.6273 45.6823C15.4345 45.7295 15.2312 45.7086 15.052 45.6233C14.8727 45.538 14.7284 45.3934 14.6434 45.214C14.5584 45.0345 14.5379 44.8313 14.5855 44.6385L18.3337 29.3299H3.35184C3.15648 29.3305 2.96671 29.2647 2.81361 29.1434C2.66052 29.022 2.55319 28.8522 2.50921 28.6619C2.46523 28.4715 2.48721 28.2719 2.57154 28.0957C2.65588 27.9194 2.79757 27.7771 2.97339 27.6919L16.9096 20.8816L8.69667 10.0195C8.58041 9.86486 8.51957 9.67558 8.52392 9.48214C8.52828 9.28871 8.59759 9.10236 8.72069 8.95308C8.84379 8.80381 9.01353 8.70029 9.2026 8.65917C9.39167 8.61806 9.58907 8.64175 9.76305 8.72643L21.9182 14.6747L24.9286 2.40057C24.9747 2.21338 25.0822 2.04704 25.2339 1.92813C25.3856 1.80922 25.5729 1.7446 25.7656 1.7446C25.9584 1.7446 26.1456 1.80922 26.2974 1.92813C26.4491 2.04704 26.5566 2.21338 26.6027 2.40057L29.6087 14.6747L41.7639 8.73074C41.9375 8.64577 42.1346 8.6216 42.3236 8.66212C42.5126 8.70263 42.6825 8.80548 42.806 8.95415C42.9295 9.10282 42.9995 9.28868 43.0046 9.48189C43.0098 9.6751 42.9499 9.86445 42.8346 10.0195L34.6225 20.8816L48.5579 27.6919C48.7337 27.7771 48.8754 27.9194 48.9597 28.0957C49.0441 28.2719 49.066 28.4715 49.022 28.6619C48.9781 28.8522 48.8707 29.022 48.7176 29.1434C48.5646 29.2647 48.3748 29.3305 48.1794 29.3299Z" fill="white"/>
</svg>
